M48
; DRILL file {KiCad (5.1.6)-1} date 05/13/21 14:40:23
; FORMAT={-:-/ absolute / metric / decimal}
; #@! TF.CreationDate,2021-05-13T14:40:23+09:00
; #@! TF.GenerationSoftware,Kicad,Pcbnew,(5.1.6)-1
FMAT,2
METRIC
T1C0.200
T2C0.400
T3C0.650
T4C0.850
T5C1.000
T6C1.100
%
G90
G05
T1
X132.45Y-111.75
X132.45Y-114.05
X133.6Y-112.9
X134.75Y-111.75
X134.75Y-114.05
X103.62Y-126.12
X103.62Y-127.28
X104.2Y-126.7
X104.78Y-126.12
X104.78Y-127.28
X115.25Y-111.75
X115.25Y-114.05
X116.4Y-112.9
X117.55Y-111.75
X117.55Y-114.05
T2
X87.34Y-131.6
X88.175Y-119.125
X93.3Y-135.8
X93.75Y-124.3
X94.4Y-113.3
X97.475Y-116.225
X98.75Y-107.7
X100.35Y-135.8
X100.4Y-117.8
X103.7Y-94.8
X103.8Y-101.65
X103.95Y-71.9
X104.225Y-129.8
X106.9Y-115.6
X106.95Y-128.25
X107.0Y-135.8
X108.3Y-129.6
X108.7Y-90.85
X108.8Y-94.65
X109.0Y-71.3
X109.2Y-105.8
X111.7Y-77.4
X112.05Y-68.35
X112.6Y-101.7
X112.7Y-99.6
X113.4Y-110.4
X113.8Y-124.9
X113.8Y-135.7
X113.83Y-100.484
X114.6Y-100.7
X115.6Y-73.15
X115.7Y-100.9
X115.7Y-101.7
X116.182Y-109.914
X116.6Y-107.8
X116.8Y-108.9
X117.4Y-94.8
X117.7Y-108.9
X118.35Y-67.5
X118.5Y-108.9
X118.5Y-109.8
X118.9Y-96.3
X119.4Y-125.9
X119.5Y-135.8
X119.9Y-118.4
X120.0Y-113.1
X120.0Y-113.9
X120.5Y-99.2
X120.55Y-102.2
X120.55Y-100.8
X120.65Y-116.75
X120.9Y-111.7
X121.2Y-60.5
X121.4Y-63.5
X121.75Y-91.0
X122.3Y-125.8
X122.4Y-71.1
X123.0Y-74.9
X123.8Y-72.0
X123.8Y-118.9
X124.2Y-115.4
X125.6Y-123.2
X125.7Y-96.6
X125.7Y-113.8
X125.7Y-118.6
X125.9Y-126.95
X125.9Y-135.8
X126.0Y-112.0
X126.012Y-73.788
X126.1Y-109.4
X126.3Y-101.4
X126.3Y-99.4
X126.5Y-105.7
X126.5Y-113.3
X126.5Y-118.6
X127.324Y-97.7
X127.5Y-71.5
X127.9Y-100.6
X127.92Y-67.864
X128.6Y-66.45
X128.928Y-68.872
X129.0Y-60.6
X129.37Y-64.78
X129.4Y-100.6
X129.4Y-101.4
X129.936Y-69.88
X130.05Y-90.8
X130.237Y-108.886
X131.85Y-135.8
X131.9Y-72.6
X132.3Y-96.2
X133.1Y-100.4
X133.382Y-109.914
X133.6Y-64.1
X133.6Y-129.2
X133.8Y-107.8
X134.2Y-101.4
X134.3Y-108.9
X135.1Y-108.9
X135.1Y-109.6
X135.6Y-80.7
X136.0Y-108.9
X136.7Y-68.75
X137.0Y-113.0
X137.0Y-113.9
X137.1Y-135.8
X137.2Y-117.2
X137.25Y-102.5
X137.5Y-89.25
X137.9Y-111.7
X140.1Y-102.7
X140.6Y-129.7
X140.7Y-115.8
X140.7Y-124.5
X140.8Y-120.8
X140.818Y-125.7
X140.85Y-110.75
X141.0Y-112.6
X141.5Y-98.3
X142.1Y-120.9
X142.95Y-68.6
X143.0Y-75.7
X143.5Y-122.7
X145.0Y-112.6
X145.1Y-119.6
X145.5Y-123.0
X146.2Y-121.8
X146.2Y-123.7
X146.65Y-119.6
X147.0Y-124.1
X147.1Y-134.8
X147.9Y-121.3
X148.2Y-131.85
X148.5Y-126.2
X148.7Y-118.65
X149.7Y-131.85
X150.2Y-118.65
X150.25Y-119.9
X150.9Y-136.5
X151.043Y-114.357
X151.4Y-117.6
X152.15Y-115.7
X152.2Y-68.3
X153.6Y-66.9
X153.6Y-87.07
X154.1Y-125.3
X154.574Y-111.026
X154.8Y-90.0
X154.9Y-132.6
X154.9Y-133.4
X154.95Y-95.55
X155.0Y-102.05
X155.299Y-110.451
X155.35Y-108.6
X155.5Y-119.413
X155.665Y-118.213
X155.799Y-128.505
X156.2Y-69.6
X156.289Y-115.538
X156.3Y-113.8
X156.3Y-117.0
X156.331Y-114.648
X156.35Y-76.7
X156.35Y-75.1
X156.483Y-127.453
X156.85Y-108.6
X156.9Y-136.9
X157.0Y-129.3
X157.6Y-128.3
X157.85Y-76.7
X158.385Y-69.112
X159.0Y-68.5
X159.05Y-75.1
X159.05Y-76.7
X159.456Y-67.763
X159.915Y-66.965
X160.2Y-128.4
X160.3Y-106.85
X160.3Y-108.35
X160.3Y-132.1
X160.55Y-76.7
X160.759Y-66.96
X161.5Y-130.0
X161.557Y-67.013
X161.75Y-75.1
X161.75Y-76.7
X162.0Y-93.75
X162.357Y-66.998
X163.157Y-67.0
X163.25Y-76.7
X163.957Y-67.0
X164.187Y-127.777
X164.2Y-131.2
X164.3Y-106.8
X164.4Y-75.1
X164.45Y-76.7
X164.576Y-128.476
X164.757Y-67.003
X165.05Y-108.7
X165.557Y-67.0
X165.8Y-130.0
X165.95Y-76.7
X166.45Y-106.8
X166.45Y-67.0
X166.65Y-95.6
X166.776Y-120.376
X167.126Y-67.706
X167.15Y-75.1
X167.15Y-76.7
X167.5Y-103.7
X167.5Y-105.6
X167.5Y-115.4
X167.64Y-68.319
X167.7Y-100.1
X168.1Y-130.0
X168.35Y-135.85
X168.374Y-115.374
X168.5Y-69.0
X168.65Y-76.7
X168.8Y-122.9
X168.9Y-126.3
X168.991Y-110.356
X169.5Y-70.3
X169.571Y-110.957
X169.801Y-75.149
X169.85Y-76.7
X170.171Y-111.731
X170.4Y-132.0
X171.2Y-104.3
X171.35Y-76.7
X171.7Y-110.15
X171.7Y-120.0
X172.1Y-126.35
X172.124Y-123.482
X172.2Y-101.7
X172.401Y-75.249
X172.5Y-106.35
X172.5Y-107.85
X172.55Y-76.7
X173.1Y-113.5
X173.193Y-122.422
X173.426Y-116.523
X173.7Y-123.109
X173.85Y-68.1
X173.984Y-122.307
X174.05Y-76.7
X174.3Y-133.3
X174.4Y-95.85
X174.55Y-73.3
X174.8Y-70.1
X174.9Y-129.2
X175.6Y-126.9
X175.6Y-128.6
X175.7Y-121.3
X175.711Y-120.111
X176.5Y-114.5
X176.544Y-115.686
X176.6Y-132.1
X176.9Y-69.3
X177.0Y-117.8
X178.1Y-130.85
X179.4Y-135.8
X179.8Y-132.6
X179.9Y-104.0
X179.9Y-119.4
X179.9Y-121.1
X180.3Y-108.8
X180.537Y-92.763
X180.876Y-131.624
X181.226Y-110.374
X181.3Y-114.862
X181.4Y-119.4
X181.4Y-122.8
X181.4Y-134.8
X181.9Y-112.3
X181.95Y-102.8
X182.3Y-110.4
X182.3Y-114.862
X182.3Y-131.15
X182.9Y-119.4
X182.9Y-126.8
X183.3Y-114.862
X183.7Y-126.4
X183.8Y-129.55
X183.8Y-131.05
X184.15Y-96.9
X184.25Y-101.25
X184.4Y-119.4
X184.4Y-128.1
X185.3Y-129.55
X185.4Y-124.2
X186.1Y-119.4
X186.4Y-117.6
X186.4Y-125.8
X188.0Y-129.55
X188.1Y-134.15
X188.7Y-105.25
X188.8Y-115.8
X190.2Y-117.1
X191.7Y-127.15
X191.8Y-121.2
X192.15Y-108.16
X192.15Y-110.7
X192.15Y-113.24
X193.0Y-134.2
X196.0Y-111.8
X196.4Y-116.25
X196.65Y-121.25
X196.65Y-127.45
T3
X164.5Y-97.52
X164.5Y-98.79
X164.5Y-100.06
X164.5Y-101.33
X164.5Y-102.6
X165.77Y-97.52
X165.77Y-98.79
X165.77Y-100.06
X165.77Y-101.33
X165.77Y-102.6
X157.3Y-97.5
X157.3Y-98.77
X157.3Y-100.04
X157.3Y-101.31
X157.3Y-102.58
X158.57Y-97.5
X158.57Y-98.77
X158.57Y-100.04
X158.57Y-101.31
X158.57Y-102.58
T4
X121.6Y-94.7
X123.6Y-94.7
X128.1Y-94.7
X130.1Y-94.7
T5
X168.98Y-98.03
X176.6Y-95.49
X176.6Y-98.03
X176.6Y-100.57
X176.6Y-103.11
T6
X92.4Y-118.0
X92.4Y-120.5
T0
M30
