G04 #@! TF.GenerationSoftware,KiCad,Pcbnew,(5.1.6)-1*
G04 #@! TF.CreationDate,2021-05-13T14:40:21+09:00*
G04 #@! TF.ProjectId,MainBoard_v1,4d61696e-426f-4617-9264-5f76312e6b69,rev?*
G04 #@! TF.SameCoordinates,Original*
G04 #@! TF.FileFunction,Soldermask,Top*
G04 #@! TF.FilePolarity,Negative*
%FSLAX46Y46*%
G04 Gerber Fmt 4.6, Leading zero omitted, Abs format (unit mm)*
G04 Created by KiCad (PCBNEW (5.1.6)-1) date 2021-05-13 14:40:21*
%MOMM*%
%LPD*%
G01*
G04 APERTURE LIST*
%ADD10C,0.100000*%
G04 APERTURE END LIST*
D10*
G36*
X155776000Y-137051000D02*
G01*
X153874000Y-137051000D01*
X153874000Y-135749000D01*
X155776000Y-135749000D01*
X155776000Y-137051000D01*
G37*
G36*
X143701000Y-137026000D02*
G01*
X142799000Y-137026000D01*
X142799000Y-136174000D01*
X143701000Y-136174000D01*
X143701000Y-137026000D01*
G37*
G36*
X142201000Y-137026000D02*
G01*
X141299000Y-137026000D01*
X141299000Y-136174000D01*
X142201000Y-136174000D01*
X142201000Y-137026000D01*
G37*
G36*
X145251000Y-137026000D02*
G01*
X144349000Y-137026000D01*
X144349000Y-136174000D01*
X145251000Y-136174000D01*
X145251000Y-137026000D01*
G37*
G36*
X146751000Y-137026000D02*
G01*
X145849000Y-137026000D01*
X145849000Y-136174000D01*
X146751000Y-136174000D01*
X146751000Y-137026000D01*
G37*
G36*
X160251000Y-136601000D02*
G01*
X159649000Y-136601000D01*
X159649000Y-135599000D01*
X160251000Y-135599000D01*
X160251000Y-136601000D01*
G37*
G36*
X158751000Y-136601000D02*
G01*
X158149000Y-136601000D01*
X158149000Y-135599000D01*
X158751000Y-135599000D01*
X158751000Y-136601000D01*
G37*
G36*
X163801000Y-136401000D02*
G01*
X162599000Y-136401000D01*
X162599000Y-135199000D01*
X163801000Y-135199000D01*
X163801000Y-136401000D01*
G37*
G36*
X166601000Y-136401000D02*
G01*
X165399000Y-136401000D01*
X165399000Y-135199000D01*
X166601000Y-135199000D01*
X166601000Y-136401000D01*
G37*
G36*
X181951000Y-136101000D02*
G01*
X180849000Y-136101000D01*
X180849000Y-133499000D01*
X181951000Y-133499000D01*
X181951000Y-136101000D01*
G37*
G36*
X184951000Y-136101000D02*
G01*
X183849000Y-136101000D01*
X183849000Y-133499000D01*
X184951000Y-133499000D01*
X184951000Y-136101000D01*
G37*
G36*
X178551000Y-135851000D02*
G01*
X177649000Y-135851000D01*
X177649000Y-134949000D01*
X178551000Y-134949000D01*
X178551000Y-135851000D01*
G37*
G36*
X169251000Y-135851000D02*
G01*
X168349000Y-135851000D01*
X168349000Y-134949000D01*
X169251000Y-134949000D01*
X169251000Y-135851000D01*
G37*
G36*
X145451000Y-132324001D02*
G01*
X145453402Y-132348387D01*
X145460515Y-132371836D01*
X145472066Y-132393447D01*
X145487611Y-132412389D01*
X145506553Y-132427934D01*
X145528164Y-132439485D01*
X145551613Y-132446598D01*
X145575999Y-132449000D01*
X146601000Y-132449000D01*
X146601000Y-134351000D01*
X145575999Y-134351000D01*
X145551613Y-134353402D01*
X145528164Y-134360515D01*
X145506553Y-134372066D01*
X145487611Y-134387611D01*
X145472066Y-134406553D01*
X145460515Y-134428164D01*
X145453402Y-134451613D01*
X145451000Y-134475999D01*
X145451000Y-135501000D01*
X143549000Y-135501000D01*
X143549000Y-134475999D01*
X143546598Y-134451613D01*
X143539485Y-134428164D01*
X143527934Y-134406553D01*
X143512389Y-134387611D01*
X143493447Y-134372066D01*
X143471836Y-134360515D01*
X143448387Y-134353402D01*
X143424001Y-134351000D01*
X142399000Y-134351000D01*
X142399000Y-132525999D01*
X143501000Y-132525999D01*
X143501000Y-134274001D01*
X143503402Y-134298387D01*
X143510515Y-134321836D01*
X143522066Y-134343447D01*
X143537611Y-134362389D01*
X143556553Y-134377934D01*
X143578164Y-134389485D01*
X143601613Y-134396598D01*
X143625999Y-134399000D01*
X145374001Y-134399000D01*
X145398387Y-134396598D01*
X145421836Y-134389485D01*
X145443447Y-134377934D01*
X145462389Y-134362389D01*
X145477934Y-134343447D01*
X145489485Y-134321836D01*
X145496598Y-134298387D01*
X145499000Y-134274001D01*
X145499000Y-132525999D01*
X145496598Y-132501613D01*
X145489485Y-132478164D01*
X145477934Y-132456553D01*
X145462389Y-132437611D01*
X145443447Y-132422066D01*
X145421836Y-132410515D01*
X145398387Y-132403402D01*
X145374001Y-132401000D01*
X143625999Y-132401000D01*
X143601613Y-132403402D01*
X143578164Y-132410515D01*
X143556553Y-132422066D01*
X143537611Y-132437611D01*
X143522066Y-132456553D01*
X143510515Y-132478164D01*
X143503402Y-132501613D01*
X143501000Y-132525999D01*
X142399000Y-132525999D01*
X142399000Y-132449000D01*
X143424001Y-132449000D01*
X143448387Y-132446598D01*
X143471836Y-132439485D01*
X143493447Y-132427934D01*
X143512389Y-132412389D01*
X143527934Y-132393447D01*
X143539485Y-132371836D01*
X143546598Y-132348387D01*
X143549000Y-132324001D01*
X143549000Y-131299000D01*
X145451000Y-131299000D01*
X145451000Y-132324001D01*
G37*
G36*
X153126000Y-135451000D02*
G01*
X151474000Y-135451000D01*
X151474000Y-134749000D01*
X153126000Y-134749000D01*
X153126000Y-135451000D01*
G37*
G36*
X173126000Y-135301000D02*
G01*
X172274000Y-135301000D01*
X172274000Y-134699000D01*
X173126000Y-134699000D01*
X173126000Y-135301000D01*
G37*
G36*
X174676000Y-135301000D02*
G01*
X173824000Y-135301000D01*
X173824000Y-134699000D01*
X174676000Y-134699000D01*
X174676000Y-135301000D01*
G37*
G36*
X160251000Y-135101000D02*
G01*
X159649000Y-135101000D01*
X159649000Y-134099000D01*
X160251000Y-134099000D01*
X160251000Y-135101000D01*
G37*
G36*
X158751000Y-135101000D02*
G01*
X158149000Y-135101000D01*
X158149000Y-134099000D01*
X158751000Y-134099000D01*
X158751000Y-135101000D01*
G37*
G36*
X119118000Y-134850500D02*
G01*
X116282000Y-134850500D01*
X116282000Y-132589500D01*
X119118000Y-132589500D01*
X119118000Y-134850500D01*
G37*
G36*
X153126000Y-134451000D02*
G01*
X151474000Y-134451000D01*
X151474000Y-133749000D01*
X153126000Y-133749000D01*
X153126000Y-134451000D01*
G37*
G36*
X173126000Y-134301000D02*
G01*
X172274000Y-134301000D01*
X172274000Y-133699000D01*
X173126000Y-133699000D01*
X173126000Y-134301000D01*
G37*
G36*
X174676000Y-134301000D02*
G01*
X173824000Y-134301000D01*
X173824000Y-133699000D01*
X174676000Y-133699000D01*
X174676000Y-134301000D01*
G37*
G36*
X178551000Y-134251000D02*
G01*
X177649000Y-134251000D01*
X177649000Y-133349000D01*
X178551000Y-133349000D01*
X178551000Y-134251000D01*
G37*
G36*
X169251000Y-134251000D02*
G01*
X168349000Y-134251000D01*
X168349000Y-133349000D01*
X169251000Y-133349000D01*
X169251000Y-134251000D01*
G37*
G36*
X138851000Y-133951000D02*
G01*
X137949000Y-133951000D01*
X137949000Y-133049000D01*
X138851000Y-133049000D01*
X138851000Y-133951000D01*
G37*
G36*
X98418000Y-133950500D02*
G01*
X95582000Y-133950500D01*
X95582000Y-131689500D01*
X98418000Y-131689500D01*
X98418000Y-133950500D01*
G37*
G36*
X137101000Y-133751000D02*
G01*
X136099000Y-133751000D01*
X136099000Y-133149000D01*
X137101000Y-133149000D01*
X137101000Y-133751000D01*
G37*
G36*
X108751000Y-133751000D02*
G01*
X107849000Y-133751000D01*
X107849000Y-132849000D01*
X108751000Y-132849000D01*
X108751000Y-133751000D01*
G37*
G36*
X150201000Y-133651000D02*
G01*
X149199000Y-133651000D01*
X149199000Y-133049000D01*
X150201000Y-133049000D01*
X150201000Y-133651000D01*
G37*
G36*
X148701000Y-133651000D02*
G01*
X147699000Y-133651000D01*
X147699000Y-133049000D01*
X148701000Y-133049000D01*
X148701000Y-133651000D01*
G37*
G36*
X131376000Y-133651000D02*
G01*
X130024000Y-133651000D01*
X130024000Y-132549000D01*
X131376000Y-132549000D01*
X131376000Y-133651000D01*
G37*
G36*
X134901000Y-133651000D02*
G01*
X132299000Y-133651000D01*
X132299000Y-132549000D01*
X134901000Y-132549000D01*
X134901000Y-133651000D01*
G37*
G36*
X129351000Y-133451000D02*
G01*
X128199000Y-133451000D01*
X128199000Y-128349000D01*
X129351000Y-128349000D01*
X129351000Y-133451000D01*
G37*
G36*
X106601000Y-133451000D02*
G01*
X105599000Y-133451000D01*
X105599000Y-132849000D01*
X106601000Y-132849000D01*
X106601000Y-133451000D01*
G37*
G36*
X123801000Y-133451000D02*
G01*
X122649000Y-133451000D01*
X122649000Y-128349000D01*
X123801000Y-128349000D01*
X123801000Y-133451000D01*
G37*
G36*
X153126000Y-133451000D02*
G01*
X151474000Y-133451000D01*
X151474000Y-132749000D01*
X153126000Y-132749000D01*
X153126000Y-133451000D01*
G37*
G36*
X160801000Y-133401000D02*
G01*
X159899000Y-133401000D01*
X159899000Y-132399000D01*
X160801000Y-132399000D01*
X160801000Y-133401000D01*
G37*
G36*
X158901000Y-133401000D02*
G01*
X157999000Y-133401000D01*
X157999000Y-132399000D01*
X158901000Y-132399000D01*
X158901000Y-133401000D01*
G37*
G36*
X101701000Y-133351000D02*
G01*
X99099000Y-133351000D01*
X99099000Y-132249000D01*
X101701000Y-132249000D01*
X101701000Y-133351000D01*
G37*
G36*
X167401000Y-133151000D02*
G01*
X165799000Y-133151000D01*
X165799000Y-131249000D01*
X167401000Y-131249000D01*
X167401000Y-133151000D01*
G37*
G36*
X163401000Y-133151000D02*
G01*
X161799000Y-133151000D01*
X161799000Y-131249000D01*
X163401000Y-131249000D01*
X163401000Y-133151000D01*
G37*
G36*
X112901000Y-132851000D02*
G01*
X110299000Y-132851000D01*
X110299000Y-131749000D01*
X112901000Y-131749000D01*
X112901000Y-132851000D01*
G37*
G36*
X127521000Y-132741000D02*
G01*
X124479000Y-132741000D01*
X124479000Y-129059000D01*
X127521000Y-129059000D01*
X127521000Y-132741000D01*
G37*
G36*
X172601000Y-132651000D02*
G01*
X171599000Y-132651000D01*
X171599000Y-132049000D01*
X172601000Y-132049000D01*
X172601000Y-132651000D01*
G37*
G36*
X175601000Y-132651000D02*
G01*
X174599000Y-132651000D01*
X174599000Y-132049000D01*
X175601000Y-132049000D01*
X175601000Y-132651000D01*
G37*
G36*
X174101000Y-132651000D02*
G01*
X173099000Y-132651000D01*
X173099000Y-132049000D01*
X174101000Y-132049000D01*
X174101000Y-132651000D01*
G37*
G36*
X178601000Y-132651000D02*
G01*
X177599000Y-132651000D01*
X177599000Y-132049000D01*
X178601000Y-132049000D01*
X178601000Y-132651000D01*
G37*
G36*
X169301000Y-132651000D02*
G01*
X168299000Y-132651000D01*
X168299000Y-132049000D01*
X169301000Y-132049000D01*
X169301000Y-132651000D01*
G37*
G36*
X153126000Y-132451000D02*
G01*
X151474000Y-132451000D01*
X151474000Y-131749000D01*
X153126000Y-131749000D01*
X153126000Y-132451000D01*
G37*
G36*
X103776000Y-132351000D02*
G01*
X102424000Y-132351000D01*
X102424000Y-131249000D01*
X103776000Y-131249000D01*
X103776000Y-132351000D01*
G37*
G36*
X138851000Y-132351000D02*
G01*
X137949000Y-132351000D01*
X137949000Y-131449000D01*
X138851000Y-131449000D01*
X138851000Y-132351000D01*
G37*
G36*
X137101000Y-132251000D02*
G01*
X136099000Y-132251000D01*
X136099000Y-131649000D01*
X137101000Y-131649000D01*
X137101000Y-132251000D01*
G37*
G36*
X148701000Y-132151000D02*
G01*
X147699000Y-132151000D01*
X147699000Y-131549000D01*
X148701000Y-131549000D01*
X148701000Y-132151000D01*
G37*
G36*
X108751000Y-132151000D02*
G01*
X107849000Y-132151000D01*
X107849000Y-131249000D01*
X108751000Y-131249000D01*
X108751000Y-132151000D01*
G37*
G36*
X150201000Y-132151000D02*
G01*
X149199000Y-132151000D01*
X149199000Y-131549000D01*
X150201000Y-131549000D01*
X150201000Y-132151000D01*
G37*
G36*
X106601000Y-131951000D02*
G01*
X105599000Y-131951000D01*
X105599000Y-131349000D01*
X106601000Y-131349000D01*
X106601000Y-131951000D01*
G37*
G36*
X121376000Y-131851000D02*
G01*
X120024000Y-131851000D01*
X120024000Y-130749000D01*
X121376000Y-130749000D01*
X121376000Y-131851000D01*
G37*
G36*
X115276000Y-131851000D02*
G01*
X113924000Y-131851000D01*
X113924000Y-130749000D01*
X115276000Y-130749000D01*
X115276000Y-131851000D01*
G37*
G36*
X131376000Y-131651000D02*
G01*
X130024000Y-131651000D01*
X130024000Y-130549000D01*
X131376000Y-130549000D01*
X131376000Y-131651000D01*
G37*
G36*
X182726000Y-131601000D02*
G01*
X181874000Y-131601000D01*
X181874000Y-130699000D01*
X182726000Y-130699000D01*
X182726000Y-131601000D01*
G37*
G36*
X155776000Y-131451000D02*
G01*
X153874000Y-131451000D01*
X153874000Y-130149000D01*
X155776000Y-130149000D01*
X155776000Y-131451000D01*
G37*
G36*
X159851000Y-131401000D02*
G01*
X158949000Y-131401000D01*
X158949000Y-130399000D01*
X159851000Y-130399000D01*
X159851000Y-131401000D01*
G37*
G36*
X185801000Y-131351000D02*
G01*
X184799000Y-131351000D01*
X184799000Y-130749000D01*
X185801000Y-130749000D01*
X185801000Y-131351000D01*
G37*
G36*
X184301000Y-131351000D02*
G01*
X183299000Y-131351000D01*
X183299000Y-130749000D01*
X184301000Y-130749000D01*
X184301000Y-131351000D01*
G37*
G36*
X178601000Y-131151000D02*
G01*
X177599000Y-131151000D01*
X177599000Y-130549000D01*
X178601000Y-130549000D01*
X178601000Y-131151000D01*
G37*
G36*
X172601000Y-131151000D02*
G01*
X171599000Y-131151000D01*
X171599000Y-130549000D01*
X172601000Y-130549000D01*
X172601000Y-131151000D01*
G37*
G36*
X175601000Y-131151000D02*
G01*
X174599000Y-131151000D01*
X174599000Y-130549000D01*
X175601000Y-130549000D01*
X175601000Y-131151000D01*
G37*
G36*
X174101000Y-131151000D02*
G01*
X173099000Y-131151000D01*
X173099000Y-130549000D01*
X174101000Y-130549000D01*
X174101000Y-131151000D01*
G37*
G36*
X169301000Y-131151000D02*
G01*
X168299000Y-131151000D01*
X168299000Y-130549000D01*
X169301000Y-130549000D01*
X169301000Y-131151000D01*
G37*
G36*
X192951000Y-131051000D02*
G01*
X191649000Y-131051000D01*
X191649000Y-129949000D01*
X192951000Y-129949000D01*
X192951000Y-131051000D01*
G37*
G36*
X198951000Y-131051000D02*
G01*
X198049000Y-131051000D01*
X198049000Y-129949000D01*
X198951000Y-129949000D01*
X198951000Y-131051000D01*
G37*
G36*
X204101000Y-131051000D02*
G01*
X201199000Y-131051000D01*
X201199000Y-129949000D01*
X204101000Y-129949000D01*
X204101000Y-131051000D01*
G37*
G36*
X134901000Y-130651000D02*
G01*
X132299000Y-130651000D01*
X132299000Y-129549000D01*
X134901000Y-129549000D01*
X134901000Y-130651000D01*
G37*
G36*
X119118000Y-130430500D02*
G01*
X116282000Y-130430500D01*
X116282000Y-128169500D01*
X119118000Y-128169500D01*
X119118000Y-130430500D01*
G37*
G36*
X108951000Y-130401000D02*
G01*
X107649000Y-130401000D01*
X107649000Y-128799000D01*
X108951000Y-128799000D01*
X108951000Y-130401000D01*
G37*
G36*
X101701000Y-130351000D02*
G01*
X99099000Y-130351000D01*
X99099000Y-129249000D01*
X101701000Y-129249000D01*
X101701000Y-130351000D01*
G37*
G36*
X103776000Y-130351000D02*
G01*
X102424000Y-130351000D01*
X102424000Y-129249000D01*
X103776000Y-129249000D01*
X103776000Y-130351000D01*
G37*
G36*
X182726000Y-130101000D02*
G01*
X181874000Y-130101000D01*
X181874000Y-129199000D01*
X182726000Y-129199000D01*
X182726000Y-130101000D01*
G37*
G36*
X94551000Y-129951000D02*
G01*
X92949000Y-129951000D01*
X92949000Y-128649000D01*
X94551000Y-128649000D01*
X94551000Y-129951000D01*
G37*
G36*
X188651000Y-129951000D02*
G01*
X187349000Y-129951000D01*
X187349000Y-128199000D01*
X188651000Y-128199000D01*
X188651000Y-129951000D01*
G37*
G36*
X90251000Y-129951000D02*
G01*
X88649000Y-129951000D01*
X88649000Y-128649000D01*
X90251000Y-128649000D01*
X90251000Y-129951000D01*
G37*
G36*
X184301000Y-129851000D02*
G01*
X183299000Y-129851000D01*
X183299000Y-129249000D01*
X184301000Y-129249000D01*
X184301000Y-129851000D01*
G37*
G36*
X121376000Y-129851000D02*
G01*
X120024000Y-129851000D01*
X120024000Y-128749000D01*
X121376000Y-128749000D01*
X121376000Y-129851000D01*
G37*
G36*
X112901000Y-129851000D02*
G01*
X110299000Y-129851000D01*
X110299000Y-128749000D01*
X112901000Y-128749000D01*
X112901000Y-129851000D01*
G37*
G36*
X185801000Y-129851000D02*
G01*
X184799000Y-129851000D01*
X184799000Y-129249000D01*
X185801000Y-129249000D01*
X185801000Y-129851000D01*
G37*
G36*
X115276000Y-129851000D02*
G01*
X113924000Y-129851000D01*
X113924000Y-128749000D01*
X115276000Y-128749000D01*
X115276000Y-129851000D01*
G37*
G36*
X98418000Y-129530500D02*
G01*
X95582000Y-129530500D01*
X95582000Y-127269500D01*
X98418000Y-127269500D01*
X98418000Y-129530500D01*
G37*
G36*
X178651000Y-129101000D02*
G01*
X178049000Y-129101000D01*
X178049000Y-128099000D01*
X178651000Y-128099000D01*
X178651000Y-129101000D01*
G37*
G36*
X177151000Y-129101000D02*
G01*
X176549000Y-129101000D01*
X176549000Y-128099000D01*
X177151000Y-128099000D01*
X177151000Y-129101000D01*
G37*
G36*
X105121000Y-125654001D02*
G01*
X105123402Y-125678387D01*
X105130515Y-125701836D01*
X105142066Y-125723447D01*
X105157611Y-125742389D01*
X105176553Y-125757934D01*
X105198164Y-125769485D01*
X105221613Y-125776598D01*
X105245999Y-125779000D01*
X106351000Y-125779000D01*
X106351000Y-127621000D01*
X105245999Y-127621000D01*
X105221613Y-127623402D01*
X105198164Y-127630515D01*
X105176553Y-127642066D01*
X105157611Y-127657611D01*
X105142066Y-127676553D01*
X105130515Y-127698164D01*
X105123402Y-127721613D01*
X105121000Y-127745999D01*
X105121000Y-128851000D01*
X103279000Y-128851000D01*
X103279000Y-127745999D01*
X103276598Y-127721613D01*
X103269485Y-127698164D01*
X103257934Y-127676553D01*
X103242389Y-127657611D01*
X103223447Y-127642066D01*
X103201836Y-127630515D01*
X103178387Y-127623402D01*
X103154001Y-127621000D01*
X102049000Y-127621000D01*
X102049000Y-125779000D01*
X103154001Y-125779000D01*
X103178387Y-125776598D01*
X103201836Y-125769485D01*
X103223447Y-125757934D01*
X103242389Y-125742389D01*
X103257934Y-125723447D01*
X103269485Y-125701836D01*
X103276598Y-125678387D01*
X103279000Y-125654001D01*
X103279000Y-124549000D01*
X105121000Y-124549000D01*
X105121000Y-125654001D01*
G37*
G36*
X161901000Y-128826000D02*
G01*
X160999000Y-128826000D01*
X160999000Y-127974000D01*
X161901000Y-127974000D01*
X161901000Y-128826000D01*
G37*
G36*
X160401000Y-128826000D02*
G01*
X159499000Y-128826000D01*
X159499000Y-127974000D01*
X160401000Y-127974000D01*
X160401000Y-128826000D01*
G37*
G36*
X101001000Y-128501000D02*
G01*
X99799000Y-128501000D01*
X99799000Y-127299000D01*
X101001000Y-127299000D01*
X101001000Y-128501000D01*
G37*
G36*
X172526000Y-128301000D02*
G01*
X171674000Y-128301000D01*
X171674000Y-127399000D01*
X172526000Y-127399000D01*
X172526000Y-128301000D01*
G37*
G36*
X188651000Y-127901000D02*
G01*
X187349000Y-127901000D01*
X187349000Y-127099000D01*
X188651000Y-127099000D01*
X188651000Y-127901000D01*
G37*
G36*
X108951000Y-127701000D02*
G01*
X107649000Y-127701000D01*
X107649000Y-126099000D01*
X108951000Y-126099000D01*
X108951000Y-127701000D01*
G37*
G36*
X94551000Y-127451000D02*
G01*
X92949000Y-127451000D01*
X92949000Y-126149000D01*
X94551000Y-126149000D01*
X94551000Y-127451000D01*
G37*
G36*
X90251000Y-127451000D02*
G01*
X88649000Y-127451000D01*
X88649000Y-126149000D01*
X90251000Y-126149000D01*
X90251000Y-127451000D01*
G37*
G36*
X178651000Y-127401000D02*
G01*
X178049000Y-127401000D01*
X178049000Y-126399000D01*
X178651000Y-126399000D01*
X178651000Y-127401000D01*
G37*
G36*
X177151000Y-127401000D02*
G01*
X176549000Y-127401000D01*
X176549000Y-126399000D01*
X177151000Y-126399000D01*
X177151000Y-127401000D01*
G37*
G36*
X168191000Y-127101000D02*
G01*
X155809000Y-127101000D01*
X155809000Y-125499000D01*
X168191000Y-125499000D01*
X168191000Y-127101000D01*
G37*
G36*
X188651000Y-126801000D02*
G01*
X187349000Y-126801000D01*
X187349000Y-125999000D01*
X188651000Y-125999000D01*
X188651000Y-126801000D01*
G37*
G36*
X172526000Y-126801000D02*
G01*
X171674000Y-126801000D01*
X171674000Y-125899000D01*
X172526000Y-125899000D01*
X172526000Y-126801000D01*
G37*
G36*
X178651000Y-125701000D02*
G01*
X178049000Y-125701000D01*
X178049000Y-124699000D01*
X178651000Y-124699000D01*
X178651000Y-125701000D01*
G37*
G36*
X188651000Y-125701000D02*
G01*
X187349000Y-125701000D01*
X187349000Y-124899000D01*
X188651000Y-124899000D01*
X188651000Y-125701000D01*
G37*
G36*
X177151000Y-125701000D02*
G01*
X176549000Y-125701000D01*
X176549000Y-124699000D01*
X177151000Y-124699000D01*
X177151000Y-125701000D01*
G37*
G36*
X101001000Y-125701000D02*
G01*
X99799000Y-125701000D01*
X99799000Y-124499000D01*
X101001000Y-124499000D01*
X101001000Y-125701000D01*
G37*
G36*
X115101000Y-125451000D02*
G01*
X112499000Y-125451000D01*
X112499000Y-124349000D01*
X115101000Y-124349000D01*
X115101000Y-125451000D01*
G37*
G36*
X109251000Y-125401000D02*
G01*
X108649000Y-125401000D01*
X108649000Y-124399000D01*
X109251000Y-124399000D01*
X109251000Y-125401000D01*
G37*
G36*
X172526000Y-125401000D02*
G01*
X171674000Y-125401000D01*
X171674000Y-124499000D01*
X172526000Y-124499000D01*
X172526000Y-125401000D01*
G37*
G36*
X107751000Y-125401000D02*
G01*
X107149000Y-125401000D01*
X107149000Y-124399000D01*
X107751000Y-124399000D01*
X107751000Y-125401000D01*
G37*
G36*
X97151000Y-125201000D02*
G01*
X96549000Y-125201000D01*
X96549000Y-124199000D01*
X97151000Y-124199000D01*
X97151000Y-125201000D01*
G37*
G36*
X95651000Y-125201000D02*
G01*
X95049000Y-125201000D01*
X95049000Y-124199000D01*
X95651000Y-124199000D01*
X95651000Y-125201000D01*
G37*
G36*
X94551000Y-124951000D02*
G01*
X92949000Y-124951000D01*
X92949000Y-123649000D01*
X94551000Y-123649000D01*
X94551000Y-124951000D01*
G37*
G36*
X90251000Y-124951000D02*
G01*
X88649000Y-124951000D01*
X88649000Y-123649000D01*
X90251000Y-123649000D01*
X90251000Y-124951000D01*
G37*
G36*
X124955997Y-122953051D02*
G01*
X124989652Y-122963261D01*
X125020665Y-122979838D01*
X125047851Y-123002149D01*
X125070162Y-123029335D01*
X125086739Y-123060348D01*
X125096949Y-123094003D01*
X125101000Y-123135138D01*
X125101000Y-124464862D01*
X125096949Y-124505997D01*
X125086739Y-124539652D01*
X125070162Y-124570665D01*
X125047851Y-124597851D01*
X125020665Y-124620162D01*
X124989652Y-124636739D01*
X124955997Y-124646949D01*
X124914862Y-124651000D01*
X121685138Y-124651000D01*
X121644003Y-124646949D01*
X121610348Y-124636739D01*
X121579335Y-124620162D01*
X121552149Y-124597851D01*
X121529838Y-124570665D01*
X121513261Y-124539652D01*
X121503051Y-124505997D01*
X121499000Y-124464862D01*
X121499000Y-123135138D01*
X121503051Y-123094003D01*
X121513261Y-123060348D01*
X121529838Y-123029335D01*
X121552149Y-123002149D01*
X121579335Y-122979838D01*
X121610348Y-122963261D01*
X121644003Y-122953051D01*
X121685138Y-122949000D01*
X124914862Y-122949000D01*
X124955997Y-122953051D01*
G37*
G36*
X119355997Y-122953051D02*
G01*
X119389652Y-122963261D01*
X119420665Y-122979838D01*
X119447851Y-123002149D01*
X119470162Y-123029335D01*
X119486739Y-123060348D01*
X119496949Y-123094003D01*
X119501000Y-123135138D01*
X119501000Y-124464862D01*
X119496949Y-124505997D01*
X119486739Y-124539652D01*
X119470162Y-124570665D01*
X119447851Y-124597851D01*
X119420665Y-124620162D01*
X119389652Y-124636739D01*
X119355997Y-124646949D01*
X119314862Y-124651000D01*
X116085138Y-124651000D01*
X116044003Y-124646949D01*
X116010348Y-124636739D01*
X115979335Y-124620162D01*
X115952149Y-124597851D01*
X115929838Y-124570665D01*
X115913261Y-124539652D01*
X115903051Y-124505997D01*
X115899000Y-124464862D01*
X115899000Y-123135138D01*
X115903051Y-123094003D01*
X115913261Y-123060348D01*
X115929838Y-123029335D01*
X115952149Y-123002149D01*
X115979335Y-122979838D01*
X116010348Y-122963261D01*
X116044003Y-122953051D01*
X116085138Y-122949000D01*
X119314862Y-122949000D01*
X119355997Y-122953051D01*
G37*
G36*
X188651000Y-124601000D02*
G01*
X187349000Y-124601000D01*
X187349000Y-123799000D01*
X188651000Y-123799000D01*
X188651000Y-124601000D01*
G37*
G36*
X154901000Y-124591000D02*
G01*
X153299000Y-124591000D01*
X153299000Y-112209000D01*
X154901000Y-112209000D01*
X154901000Y-124591000D01*
G37*
G36*
X170701000Y-124591000D02*
G01*
X169099000Y-124591000D01*
X169099000Y-112209000D01*
X170701000Y-112209000D01*
X170701000Y-124591000D01*
G37*
G36*
X106101000Y-124026000D02*
G01*
X105199000Y-124026000D01*
X105199000Y-123174000D01*
X106101000Y-123174000D01*
X106101000Y-124026000D01*
G37*
G36*
X104601000Y-124026000D02*
G01*
X103699000Y-124026000D01*
X103699000Y-123174000D01*
X104601000Y-123174000D01*
X104601000Y-124026000D01*
G37*
G36*
X177151000Y-124001000D02*
G01*
X176549000Y-124001000D01*
X176549000Y-122999000D01*
X177151000Y-122999000D01*
X177151000Y-124001000D01*
G37*
G36*
X178651000Y-124001000D02*
G01*
X178049000Y-124001000D01*
X178049000Y-122999000D01*
X178651000Y-122999000D01*
X178651000Y-124001000D01*
G37*
G36*
X172526000Y-123901000D02*
G01*
X171674000Y-123901000D01*
X171674000Y-122999000D01*
X172526000Y-122999000D01*
X172526000Y-123901000D01*
G37*
G36*
X188651000Y-123501000D02*
G01*
X187349000Y-123501000D01*
X187349000Y-122699000D01*
X188651000Y-122699000D01*
X188651000Y-123501000D01*
G37*
G36*
X97516000Y-123361000D02*
G01*
X96144000Y-123361000D01*
X96144000Y-122649000D01*
X97516000Y-122649000D01*
X97516000Y-123361000D01*
G37*
G36*
X102856000Y-119551000D02*
G01*
X102270999Y-119551000D01*
X102246613Y-119553402D01*
X102223164Y-119560515D01*
X102201553Y-119572066D01*
X102182611Y-119587611D01*
X102167066Y-119606553D01*
X102155515Y-119628164D01*
X102148402Y-119651613D01*
X102146000Y-119675999D01*
X102146000Y-119984001D01*
X102148402Y-120008387D01*
X102155515Y-120031836D01*
X102167066Y-120053447D01*
X102182611Y-120072389D01*
X102201553Y-120087934D01*
X102223164Y-120099485D01*
X102246613Y-120106598D01*
X102270999Y-120109000D01*
X102856000Y-120109000D01*
X102856000Y-120821000D01*
X102270999Y-120821000D01*
X102246613Y-120823402D01*
X102223164Y-120830515D01*
X102201553Y-120842066D01*
X102182611Y-120857611D01*
X102167066Y-120876553D01*
X102155515Y-120898164D01*
X102148402Y-120921613D01*
X102146000Y-120945999D01*
X102146000Y-121254001D01*
X102148402Y-121278387D01*
X102155515Y-121301836D01*
X102167066Y-121323447D01*
X102182611Y-121342389D01*
X102201553Y-121357934D01*
X102223164Y-121369485D01*
X102246613Y-121376598D01*
X102270999Y-121379000D01*
X102856000Y-121379000D01*
X102856000Y-122091000D01*
X102270999Y-122091000D01*
X102246613Y-122093402D01*
X102223164Y-122100515D01*
X102201553Y-122112066D01*
X102182611Y-122127611D01*
X102167066Y-122146553D01*
X102155515Y-122168164D01*
X102148402Y-122191613D01*
X102146000Y-122215999D01*
X102146000Y-122524001D01*
X102148402Y-122548387D01*
X102155515Y-122571836D01*
X102167066Y-122593447D01*
X102182611Y-122612389D01*
X102201553Y-122627934D01*
X102223164Y-122639485D01*
X102246613Y-122646598D01*
X102270999Y-122649000D01*
X102856000Y-122649000D01*
X102856000Y-123361000D01*
X101734000Y-123361000D01*
X101734000Y-123230999D01*
X101731598Y-123206613D01*
X101724485Y-123183164D01*
X101712934Y-123161553D01*
X101697389Y-123142611D01*
X101678447Y-123127066D01*
X101656836Y-123115515D01*
X101633387Y-123108402D01*
X101609001Y-123106000D01*
X98234000Y-123106000D01*
X98234000Y-119094000D01*
X101609001Y-119094000D01*
X101633387Y-119091598D01*
X101656836Y-119084485D01*
X101678447Y-119072934D01*
X101697389Y-119057389D01*
X101712934Y-119038447D01*
X101724485Y-119016836D01*
X101731598Y-118993387D01*
X101734000Y-118969001D01*
X101734000Y-118839000D01*
X102856000Y-118839000D01*
X102856000Y-119551000D01*
G37*
G36*
X144001000Y-123201000D02*
G01*
X142999000Y-123201000D01*
X142999000Y-122199000D01*
X144001000Y-122199000D01*
X144001000Y-123201000D01*
G37*
G36*
X141341000Y-123201000D02*
G01*
X140339000Y-123201000D01*
X140339000Y-122199000D01*
X141341000Y-122199000D01*
X141341000Y-123201000D01*
G37*
G36*
X140001000Y-123201000D02*
G01*
X138999000Y-123201000D01*
X138999000Y-122199000D01*
X140001000Y-122199000D01*
X140001000Y-123201000D01*
G37*
G36*
X142661000Y-123201000D02*
G01*
X141659000Y-123201000D01*
X141659000Y-122199000D01*
X142661000Y-122199000D01*
X142661000Y-123201000D01*
G37*
G36*
X106151000Y-122651000D02*
G01*
X105249000Y-122651000D01*
X105249000Y-121749000D01*
X106151000Y-121749000D01*
X106151000Y-122651000D01*
G37*
G36*
X104601000Y-122651000D02*
G01*
X103599000Y-122651000D01*
X103599000Y-122049000D01*
X104601000Y-122049000D01*
X104601000Y-122651000D01*
G37*
G36*
X115101000Y-122451000D02*
G01*
X112499000Y-122451000D01*
X112499000Y-121349000D01*
X115101000Y-121349000D01*
X115101000Y-122451000D01*
G37*
G36*
X188651000Y-122401000D02*
G01*
X187349000Y-122401000D01*
X187349000Y-121599000D01*
X188651000Y-121599000D01*
X188651000Y-122401000D01*
G37*
G36*
X178651000Y-122301000D02*
G01*
X178049000Y-122301000D01*
X178049000Y-121299000D01*
X178651000Y-121299000D01*
X178651000Y-122301000D01*
G37*
G36*
X177151000Y-122301000D02*
G01*
X176549000Y-122301000D01*
X176549000Y-121299000D01*
X177151000Y-121299000D01*
X177151000Y-122301000D01*
G37*
G36*
X97516000Y-122091000D02*
G01*
X96144000Y-122091000D01*
X96144000Y-121379000D01*
X97516000Y-121379000D01*
X97516000Y-122091000D01*
G37*
G36*
X152201000Y-121726000D02*
G01*
X151299000Y-121726000D01*
X151299000Y-120874000D01*
X152201000Y-120874000D01*
X152201000Y-121726000D01*
G37*
G36*
X150701000Y-121726000D02*
G01*
X149799000Y-121726000D01*
X149799000Y-120874000D01*
X150701000Y-120874000D01*
X150701000Y-121726000D01*
G37*
G36*
X93451000Y-121551000D02*
G01*
X91349000Y-121551000D01*
X91349000Y-119449000D01*
X93451000Y-119449000D01*
X93451000Y-121551000D01*
G37*
G36*
X188651000Y-121301000D02*
G01*
X187349000Y-121301000D01*
X187349000Y-120499000D01*
X188651000Y-120499000D01*
X188651000Y-121301000D01*
G37*
G36*
X104601000Y-121151000D02*
G01*
X103599000Y-121151000D01*
X103599000Y-120549000D01*
X104601000Y-120549000D01*
X104601000Y-121151000D01*
G37*
G36*
X106151000Y-121051000D02*
G01*
X105249000Y-121051000D01*
X105249000Y-120149000D01*
X106151000Y-120149000D01*
X106151000Y-121051000D01*
G37*
G36*
X97516000Y-120821000D02*
G01*
X96144000Y-120821000D01*
X96144000Y-120109000D01*
X97516000Y-120109000D01*
X97516000Y-120821000D01*
G37*
G36*
X178651000Y-120601000D02*
G01*
X178049000Y-120601000D01*
X178049000Y-119599000D01*
X178651000Y-119599000D01*
X178651000Y-120601000D01*
G37*
G36*
X177151000Y-120601000D02*
G01*
X176549000Y-120601000D01*
X176549000Y-119599000D01*
X177151000Y-119599000D01*
X177151000Y-120601000D01*
G37*
G36*
X150701000Y-120326000D02*
G01*
X149799000Y-120326000D01*
X149799000Y-119474000D01*
X150701000Y-119474000D01*
X150701000Y-120326000D01*
G37*
G36*
X152201000Y-120326000D02*
G01*
X151299000Y-120326000D01*
X151299000Y-119474000D01*
X152201000Y-119474000D01*
X152201000Y-120326000D01*
G37*
G36*
X140001000Y-120201000D02*
G01*
X138999000Y-120201000D01*
X138999000Y-119199000D01*
X140001000Y-119199000D01*
X140001000Y-120201000D01*
G37*
G36*
X144001000Y-120201000D02*
G01*
X142999000Y-120201000D01*
X142999000Y-119199000D01*
X144001000Y-119199000D01*
X144001000Y-120201000D01*
G37*
G36*
X142661000Y-120201000D02*
G01*
X141659000Y-120201000D01*
X141659000Y-119199000D01*
X142661000Y-119199000D01*
X142661000Y-120201000D01*
G37*
G36*
X141341000Y-120201000D02*
G01*
X140339000Y-120201000D01*
X140339000Y-119199000D01*
X141341000Y-119199000D01*
X141341000Y-120201000D01*
G37*
G36*
X145601000Y-120026000D02*
G01*
X144699000Y-120026000D01*
X144699000Y-119174000D01*
X145601000Y-119174000D01*
X145601000Y-120026000D01*
G37*
G36*
X147101000Y-120026000D02*
G01*
X146199000Y-120026000D01*
X146199000Y-119174000D01*
X147101000Y-119174000D01*
X147101000Y-120026000D01*
G37*
G36*
X188651000Y-119901000D02*
G01*
X187349000Y-119901000D01*
X187349000Y-118799000D01*
X188651000Y-118799000D01*
X188651000Y-119901000D01*
G37*
G36*
X97516000Y-119551000D02*
G01*
X96144000Y-119551000D01*
X96144000Y-118839000D01*
X97516000Y-118839000D01*
X97516000Y-119551000D01*
G37*
G36*
X92706564Y-116989389D02*
G01*
X92897833Y-117068615D01*
X92897835Y-117068616D01*
X93069973Y-117183635D01*
X93216365Y-117330027D01*
X93330606Y-117501000D01*
X93331385Y-117502167D01*
X93410611Y-117693436D01*
X93451000Y-117896484D01*
X93451000Y-118103516D01*
X93410611Y-118306564D01*
X93331385Y-118497833D01*
X93331384Y-118497835D01*
X93216365Y-118669973D01*
X93069973Y-118816365D01*
X92897835Y-118931384D01*
X92897834Y-118931385D01*
X92897833Y-118931385D01*
X92706564Y-119010611D01*
X92503516Y-119051000D01*
X92296484Y-119051000D01*
X92093436Y-119010611D01*
X91902167Y-118931385D01*
X91902166Y-118931385D01*
X91902165Y-118931384D01*
X91730027Y-118816365D01*
X91583635Y-118669973D01*
X91468616Y-118497835D01*
X91468615Y-118497833D01*
X91389389Y-118306564D01*
X91349000Y-118103516D01*
X91349000Y-117896484D01*
X91389389Y-117693436D01*
X91468615Y-117502167D01*
X91469395Y-117501000D01*
X91583635Y-117330027D01*
X91730027Y-117183635D01*
X91902165Y-117068616D01*
X91902167Y-117068615D01*
X92093436Y-116989389D01*
X92296484Y-116949000D01*
X92503516Y-116949000D01*
X92706564Y-116989389D01*
G37*
G36*
X131826000Y-119001000D02*
G01*
X130974000Y-119001000D01*
X130974000Y-118099000D01*
X131826000Y-118099000D01*
X131826000Y-119001000D01*
G37*
G36*
X116026000Y-119001000D02*
G01*
X115174000Y-119001000D01*
X115174000Y-118099000D01*
X116026000Y-118099000D01*
X116026000Y-119001000D01*
G37*
G36*
X133226000Y-119001000D02*
G01*
X132374000Y-119001000D01*
X132374000Y-118099000D01*
X133226000Y-118099000D01*
X133226000Y-119001000D01*
G37*
G36*
X114626000Y-119001000D02*
G01*
X113774000Y-119001000D01*
X113774000Y-118099000D01*
X114626000Y-118099000D01*
X114626000Y-119001000D01*
G37*
G36*
X119101000Y-118951000D02*
G01*
X118099000Y-118951000D01*
X118099000Y-118349000D01*
X119101000Y-118349000D01*
X119101000Y-118951000D01*
G37*
G36*
X136301000Y-118951000D02*
G01*
X135299000Y-118951000D01*
X135299000Y-118349000D01*
X136301000Y-118349000D01*
X136301000Y-118951000D01*
G37*
G36*
X134801000Y-118951000D02*
G01*
X133799000Y-118951000D01*
X133799000Y-118349000D01*
X134801000Y-118349000D01*
X134801000Y-118951000D01*
G37*
G36*
X150701000Y-118951000D02*
G01*
X149699000Y-118951000D01*
X149699000Y-118349000D01*
X150701000Y-118349000D01*
X150701000Y-118951000D01*
G37*
G36*
X149201000Y-118951000D02*
G01*
X148199000Y-118951000D01*
X148199000Y-118349000D01*
X149201000Y-118349000D01*
X149201000Y-118951000D01*
G37*
G36*
X117601000Y-118951000D02*
G01*
X116599000Y-118951000D01*
X116599000Y-118349000D01*
X117601000Y-118349000D01*
X117601000Y-118951000D01*
G37*
G36*
X183401000Y-118851000D02*
G01*
X182399000Y-118851000D01*
X182399000Y-118249000D01*
X183401000Y-118249000D01*
X183401000Y-118851000D01*
G37*
G36*
X111501000Y-118851000D02*
G01*
X110499000Y-118851000D01*
X110499000Y-118249000D01*
X111501000Y-118249000D01*
X111501000Y-118851000D01*
G37*
G36*
X113201000Y-118851000D02*
G01*
X112199000Y-118851000D01*
X112199000Y-118249000D01*
X113201000Y-118249000D01*
X113201000Y-118851000D01*
G37*
G36*
X184901000Y-118851000D02*
G01*
X183899000Y-118851000D01*
X183899000Y-118249000D01*
X184901000Y-118249000D01*
X184901000Y-118851000D01*
G37*
G36*
X130401000Y-118851000D02*
G01*
X129399000Y-118851000D01*
X129399000Y-118249000D01*
X130401000Y-118249000D01*
X130401000Y-118851000D01*
G37*
G36*
X178901000Y-118851000D02*
G01*
X177899000Y-118851000D01*
X177899000Y-118249000D01*
X178901000Y-118249000D01*
X178901000Y-118851000D01*
G37*
G36*
X180401000Y-118851000D02*
G01*
X179399000Y-118851000D01*
X179399000Y-118249000D01*
X180401000Y-118249000D01*
X180401000Y-118851000D01*
G37*
G36*
X128701000Y-118851000D02*
G01*
X127699000Y-118851000D01*
X127699000Y-118249000D01*
X128701000Y-118249000D01*
X128701000Y-118851000D01*
G37*
G36*
X181901000Y-118851000D02*
G01*
X180899000Y-118851000D01*
X180899000Y-118249000D01*
X181901000Y-118249000D01*
X181901000Y-118851000D01*
G37*
G36*
X145611000Y-115189001D02*
G01*
X145613402Y-115213387D01*
X145620515Y-115236836D01*
X145632066Y-115258447D01*
X145647611Y-115277389D01*
X145666553Y-115292934D01*
X145688164Y-115304485D01*
X145711613Y-115311598D01*
X145735999Y-115314000D01*
X146471000Y-115314000D01*
X146471000Y-117616000D01*
X145735999Y-117616000D01*
X145711613Y-117618402D01*
X145688164Y-117625515D01*
X145666553Y-117637066D01*
X145647611Y-117652611D01*
X145632066Y-117671553D01*
X145620515Y-117693164D01*
X145613402Y-117716613D01*
X145611000Y-117740999D01*
X145611000Y-118476000D01*
X143309000Y-118476000D01*
X143309000Y-117740999D01*
X143306598Y-117716613D01*
X143299485Y-117693164D01*
X143287934Y-117671553D01*
X143272389Y-117652611D01*
X143253447Y-117637066D01*
X143231836Y-117625515D01*
X143208387Y-117618402D01*
X143184001Y-117616000D01*
X142449000Y-117616000D01*
X142449000Y-115380999D01*
X143251000Y-115380999D01*
X143251000Y-115589001D01*
X143253402Y-115613387D01*
X143260515Y-115636836D01*
X143272066Y-115658447D01*
X143287611Y-115677389D01*
X143306553Y-115692934D01*
X143328164Y-115704485D01*
X143351000Y-115711412D01*
X143351000Y-117218588D01*
X143328164Y-117225515D01*
X143306553Y-117237066D01*
X143287611Y-117252611D01*
X143272066Y-117271553D01*
X143260515Y-117293164D01*
X143253402Y-117316613D01*
X143251000Y-117340999D01*
X143251000Y-117549001D01*
X143253402Y-117573387D01*
X143260515Y-117596836D01*
X143272066Y-117618447D01*
X143287611Y-117637389D01*
X143306553Y-117652934D01*
X143328164Y-117664485D01*
X143351613Y-117671598D01*
X143375999Y-117674000D01*
X143584001Y-117674000D01*
X143608387Y-117671598D01*
X143631836Y-117664485D01*
X143653447Y-117652934D01*
X143672389Y-117637389D01*
X143687934Y-117618447D01*
X143699485Y-117596836D01*
X143706598Y-117573387D01*
X143709000Y-117549001D01*
X143709000Y-117513499D01*
X143706598Y-117489113D01*
X143699485Y-117465664D01*
X143687934Y-117444053D01*
X143672389Y-117425111D01*
X143653447Y-117409566D01*
X143631836Y-117398015D01*
X143609000Y-117391088D01*
X143609000Y-115538912D01*
X143631836Y-115531985D01*
X143653447Y-115520434D01*
X143672389Y-115504889D01*
X143687934Y-115485947D01*
X143699485Y-115464336D01*
X143706598Y-115440887D01*
X143709000Y-115416501D01*
X143709000Y-115380999D01*
X145211000Y-115380999D01*
X145211000Y-115416501D01*
X145213402Y-115440887D01*
X145220515Y-115464336D01*
X145232066Y-115485947D01*
X145247611Y-115504889D01*
X145266553Y-115520434D01*
X145288164Y-115531985D01*
X145311000Y-115538912D01*
X145311000Y-117391088D01*
X145288164Y-117398015D01*
X145266553Y-117409566D01*
X145247611Y-117425111D01*
X145232066Y-117444053D01*
X145220515Y-117465664D01*
X145213402Y-117489113D01*
X145211000Y-117513499D01*
X145211000Y-117549001D01*
X145213402Y-117573387D01*
X145220515Y-117596836D01*
X145232066Y-117618447D01*
X145247611Y-117637389D01*
X145266553Y-117652934D01*
X145288164Y-117664485D01*
X145311613Y-117671598D01*
X145335999Y-117674000D01*
X145544001Y-117674000D01*
X145568387Y-117671598D01*
X145591836Y-117664485D01*
X145613447Y-117652934D01*
X145632389Y-117637389D01*
X145647934Y-117618447D01*
X145659485Y-117596836D01*
X145666598Y-117573387D01*
X145669000Y-117549001D01*
X145669000Y-117340999D01*
X145666598Y-117316613D01*
X145659485Y-117293164D01*
X145647934Y-117271553D01*
X145632389Y-117252611D01*
X145613447Y-117237066D01*
X145591836Y-117225515D01*
X145569000Y-117218588D01*
X145569000Y-115711412D01*
X145591836Y-115704485D01*
X145613447Y-115692934D01*
X145632389Y-115677389D01*
X145647934Y-115658447D01*
X145659485Y-115636836D01*
X145666598Y-115613387D01*
X145669000Y-115589001D01*
X145669000Y-115380999D01*
X145666598Y-115356613D01*
X145659485Y-115333164D01*
X145647934Y-115311553D01*
X145632389Y-115292611D01*
X145613447Y-115277066D01*
X145591836Y-115265515D01*
X145568387Y-115258402D01*
X145544001Y-115256000D01*
X145335999Y-115256000D01*
X145311613Y-115258402D01*
X145288164Y-115265515D01*
X145266553Y-115277066D01*
X145247611Y-115292611D01*
X145232066Y-115311553D01*
X145220515Y-115333164D01*
X145213402Y-115356613D01*
X145211000Y-115380999D01*
X143709000Y-115380999D01*
X143706598Y-115356613D01*
X143699485Y-115333164D01*
X143687934Y-115311553D01*
X143672389Y-115292611D01*
X143653447Y-115277066D01*
X143631836Y-115265515D01*
X143608387Y-115258402D01*
X143584001Y-115256000D01*
X143375999Y-115256000D01*
X143351613Y-115258402D01*
X143328164Y-115265515D01*
X143306553Y-115277066D01*
X143287611Y-115292611D01*
X143272066Y-115311553D01*
X143260515Y-115333164D01*
X143253402Y-115356613D01*
X143251000Y-115380999D01*
X142449000Y-115380999D01*
X142449000Y-115314000D01*
X143184001Y-115314000D01*
X143208387Y-115311598D01*
X143231836Y-115304485D01*
X143253447Y-115292934D01*
X143272389Y-115277389D01*
X143287934Y-115258447D01*
X143299485Y-115236836D01*
X143306598Y-115213387D01*
X143309000Y-115189001D01*
X143309000Y-114454000D01*
X145611000Y-114454000D01*
X145611000Y-115189001D01*
G37*
G36*
X204101000Y-117701000D02*
G01*
X202099000Y-117701000D01*
X202099000Y-116299000D01*
X204101000Y-116299000D01*
X204101000Y-117701000D01*
G37*
G36*
X114626000Y-117501000D02*
G01*
X113774000Y-117501000D01*
X113774000Y-116599000D01*
X114626000Y-116599000D01*
X114626000Y-117501000D01*
G37*
G36*
X133226000Y-117501000D02*
G01*
X132374000Y-117501000D01*
X132374000Y-116599000D01*
X133226000Y-116599000D01*
X133226000Y-117501000D01*
G37*
G36*
X131826000Y-117501000D02*
G01*
X130974000Y-117501000D01*
X130974000Y-116599000D01*
X131826000Y-116599000D01*
X131826000Y-117501000D01*
G37*
G36*
X116026000Y-117501000D02*
G01*
X115174000Y-117501000D01*
X115174000Y-116599000D01*
X116026000Y-116599000D01*
X116026000Y-117501000D01*
G37*
G36*
X149201000Y-117451000D02*
G01*
X148199000Y-117451000D01*
X148199000Y-116849000D01*
X149201000Y-116849000D01*
X149201000Y-117451000D01*
G37*
G36*
X117601000Y-117451000D02*
G01*
X116599000Y-117451000D01*
X116599000Y-116849000D01*
X117601000Y-116849000D01*
X117601000Y-117451000D01*
G37*
G36*
X119101000Y-117451000D02*
G01*
X118099000Y-117451000D01*
X118099000Y-116849000D01*
X119101000Y-116849000D01*
X119101000Y-117451000D01*
G37*
G36*
X136301000Y-117451000D02*
G01*
X135299000Y-117451000D01*
X135299000Y-116849000D01*
X136301000Y-116849000D01*
X136301000Y-117451000D01*
G37*
G36*
X150701000Y-117451000D02*
G01*
X149699000Y-117451000D01*
X149699000Y-116849000D01*
X150701000Y-116849000D01*
X150701000Y-117451000D01*
G37*
G36*
X134801000Y-117451000D02*
G01*
X133799000Y-117451000D01*
X133799000Y-116849000D01*
X134801000Y-116849000D01*
X134801000Y-117451000D01*
G37*
G36*
X181901000Y-117351000D02*
G01*
X180899000Y-117351000D01*
X180899000Y-116749000D01*
X181901000Y-116749000D01*
X181901000Y-117351000D01*
G37*
G36*
X180401000Y-117351000D02*
G01*
X179399000Y-117351000D01*
X179399000Y-116749000D01*
X180401000Y-116749000D01*
X180401000Y-117351000D01*
G37*
G36*
X183401000Y-117351000D02*
G01*
X182399000Y-117351000D01*
X182399000Y-116749000D01*
X183401000Y-116749000D01*
X183401000Y-117351000D01*
G37*
G36*
X184901000Y-117351000D02*
G01*
X183899000Y-117351000D01*
X183899000Y-116749000D01*
X184901000Y-116749000D01*
X184901000Y-117351000D01*
G37*
G36*
X178901000Y-117351000D02*
G01*
X177899000Y-117351000D01*
X177899000Y-116749000D01*
X178901000Y-116749000D01*
X178901000Y-117351000D01*
G37*
G36*
X130401000Y-117351000D02*
G01*
X129399000Y-117351000D01*
X129399000Y-116749000D01*
X130401000Y-116749000D01*
X130401000Y-117351000D01*
G37*
G36*
X128701000Y-117351000D02*
G01*
X127699000Y-117351000D01*
X127699000Y-116749000D01*
X128701000Y-116749000D01*
X128701000Y-117351000D01*
G37*
G36*
X113201000Y-117351000D02*
G01*
X112199000Y-117351000D01*
X112199000Y-116749000D01*
X113201000Y-116749000D01*
X113201000Y-117351000D01*
G37*
G36*
X111501000Y-117351000D02*
G01*
X110499000Y-117351000D01*
X110499000Y-116749000D01*
X111501000Y-116749000D01*
X111501000Y-117351000D01*
G37*
G36*
X125051000Y-116951000D02*
G01*
X123349000Y-116951000D01*
X123349000Y-113849000D01*
X125051000Y-113849000D01*
X125051000Y-116951000D01*
G37*
G36*
X107851000Y-116551000D02*
G01*
X106149000Y-116551000D01*
X106149000Y-113449000D01*
X107851000Y-113449000D01*
X107851000Y-116551000D01*
G37*
G36*
X147826000Y-116201000D02*
G01*
X146974000Y-116201000D01*
X146974000Y-115299000D01*
X147826000Y-115299000D01*
X147826000Y-116201000D01*
G37*
G36*
X119451000Y-116001000D02*
G01*
X118849000Y-116001000D01*
X118849000Y-114999000D01*
X119451000Y-114999000D01*
X119451000Y-116001000D01*
G37*
G36*
X120951000Y-116001000D02*
G01*
X120349000Y-116001000D01*
X120349000Y-114999000D01*
X120951000Y-114999000D01*
X120951000Y-116001000D01*
G37*
G36*
X136651000Y-116001000D02*
G01*
X136049000Y-116001000D01*
X136049000Y-114999000D01*
X136651000Y-114999000D01*
X136651000Y-116001000D01*
G37*
G36*
X138151000Y-116001000D02*
G01*
X137549000Y-116001000D01*
X137549000Y-114999000D01*
X138151000Y-114999000D01*
X138151000Y-116001000D01*
G37*
G36*
X182651000Y-115688500D02*
G01*
X181949000Y-115688500D01*
X181949000Y-114036500D01*
X182651000Y-114036500D01*
X182651000Y-115688500D01*
G37*
G36*
X180651000Y-115688500D02*
G01*
X179949000Y-115688500D01*
X179949000Y-114036500D01*
X180651000Y-114036500D01*
X180651000Y-115688500D01*
G37*
G36*
X181651000Y-115688500D02*
G01*
X180949000Y-115688500D01*
X180949000Y-114036500D01*
X181651000Y-114036500D01*
X181651000Y-115688500D01*
G37*
G36*
X183651000Y-115688500D02*
G01*
X182949000Y-115688500D01*
X182949000Y-114036500D01*
X183651000Y-114036500D01*
X183651000Y-115688500D01*
G37*
G36*
X117851000Y-111324001D02*
G01*
X117853402Y-111348387D01*
X117860515Y-111371836D01*
X117872066Y-111393447D01*
X117887611Y-111412389D01*
X117906553Y-111427934D01*
X117928164Y-111439485D01*
X117951613Y-111446598D01*
X117975999Y-111449000D01*
X119051000Y-111449000D01*
X119051000Y-114351000D01*
X117975999Y-114351000D01*
X117951613Y-114353402D01*
X117928164Y-114360515D01*
X117906553Y-114372066D01*
X117887611Y-114387611D01*
X117872066Y-114406553D01*
X117860515Y-114428164D01*
X117853402Y-114451613D01*
X117851000Y-114475999D01*
X117851000Y-115551000D01*
X114949000Y-115551000D01*
X114949000Y-114475999D01*
X114946598Y-114451613D01*
X114939485Y-114428164D01*
X114927934Y-114406553D01*
X114912389Y-114387611D01*
X114893447Y-114372066D01*
X114871836Y-114360515D01*
X114848387Y-114353402D01*
X114824001Y-114351000D01*
X113749000Y-114351000D01*
X113749000Y-111449000D01*
X114824001Y-111449000D01*
X114848387Y-111446598D01*
X114871836Y-111439485D01*
X114893447Y-111427934D01*
X114912389Y-111412389D01*
X114927934Y-111393447D01*
X114939485Y-111371836D01*
X114946598Y-111348387D01*
X114949000Y-111324001D01*
X114949000Y-110249000D01*
X117851000Y-110249000D01*
X117851000Y-111324001D01*
G37*
G36*
X135051000Y-111324001D02*
G01*
X135053402Y-111348387D01*
X135060515Y-111371836D01*
X135072066Y-111393447D01*
X135087611Y-111412389D01*
X135106553Y-111427934D01*
X135128164Y-111439485D01*
X135151613Y-111446598D01*
X135175999Y-111449000D01*
X136251000Y-111449000D01*
X136251000Y-114351000D01*
X135175999Y-114351000D01*
X135151613Y-114353402D01*
X135128164Y-114360515D01*
X135106553Y-114372066D01*
X135087611Y-114387611D01*
X135072066Y-114406553D01*
X135060515Y-114428164D01*
X135053402Y-114451613D01*
X135051000Y-114475999D01*
X135051000Y-115551000D01*
X132149000Y-115551000D01*
X132149000Y-114475999D01*
X132146598Y-114451613D01*
X132139485Y-114428164D01*
X132127934Y-114406553D01*
X132112389Y-114387611D01*
X132093447Y-114372066D01*
X132071836Y-114360515D01*
X132048387Y-114353402D01*
X132024001Y-114351000D01*
X130949000Y-114351000D01*
X130949000Y-111449000D01*
X132024001Y-111449000D01*
X132048387Y-111446598D01*
X132071836Y-111439485D01*
X132093447Y-111427934D01*
X132112389Y-111412389D01*
X132127934Y-111393447D01*
X132139485Y-111371836D01*
X132146598Y-111348387D01*
X132149000Y-111324001D01*
X132149000Y-110249000D01*
X135051000Y-110249000D01*
X135051000Y-111324001D01*
G37*
G36*
X189501000Y-114931000D02*
G01*
X186999000Y-114931000D01*
X186999000Y-114089000D01*
X189501000Y-114089000D01*
X189501000Y-114931000D01*
G37*
G36*
X193401000Y-114931000D02*
G01*
X190899000Y-114931000D01*
X190899000Y-114089000D01*
X193401000Y-114089000D01*
X193401000Y-114931000D01*
G37*
G36*
X171851000Y-114901000D02*
G01*
X171249000Y-114901000D01*
X171249000Y-113899000D01*
X171851000Y-113899000D01*
X171851000Y-114901000D01*
G37*
G36*
X173351000Y-114901000D02*
G01*
X172749000Y-114901000D01*
X172749000Y-113899000D01*
X173351000Y-113899000D01*
X173351000Y-114901000D01*
G37*
G36*
X147826000Y-114701000D02*
G01*
X146974000Y-114701000D01*
X146974000Y-113799000D01*
X147826000Y-113799000D01*
X147826000Y-114701000D01*
G37*
G36*
X129901000Y-114426000D02*
G01*
X128999000Y-114426000D01*
X128999000Y-113574000D01*
X129901000Y-113574000D01*
X129901000Y-114426000D01*
G37*
G36*
X128401000Y-114426000D02*
G01*
X127499000Y-114426000D01*
X127499000Y-113574000D01*
X128401000Y-113574000D01*
X128401000Y-114426000D01*
G37*
G36*
X111201000Y-114426000D02*
G01*
X110299000Y-114426000D01*
X110299000Y-113574000D01*
X111201000Y-113574000D01*
X111201000Y-114426000D01*
G37*
G36*
X112701000Y-114426000D02*
G01*
X111799000Y-114426000D01*
X111799000Y-113574000D01*
X112701000Y-113574000D01*
X112701000Y-114426000D01*
G37*
G36*
X143901000Y-113826000D02*
G01*
X142999000Y-113826000D01*
X142999000Y-112974000D01*
X143901000Y-112974000D01*
X143901000Y-113826000D01*
G37*
G36*
X145401000Y-113826000D02*
G01*
X144499000Y-113826000D01*
X144499000Y-112974000D01*
X145401000Y-112974000D01*
X145401000Y-113826000D01*
G37*
G36*
X193401000Y-113661000D02*
G01*
X190899000Y-113661000D01*
X190899000Y-112819000D01*
X193401000Y-112819000D01*
X193401000Y-113661000D01*
G37*
G36*
X189501000Y-113661000D02*
G01*
X186999000Y-113661000D01*
X186999000Y-112819000D01*
X189501000Y-112819000D01*
X189501000Y-113661000D01*
G37*
G36*
X179651000Y-113288500D02*
G01*
X178349000Y-113288500D01*
X178349000Y-111386500D01*
X179651000Y-111386500D01*
X179651000Y-113288500D01*
G37*
G36*
X185251000Y-113288500D02*
G01*
X183949000Y-113288500D01*
X183949000Y-111386500D01*
X185251000Y-111386500D01*
X185251000Y-113288500D01*
G37*
G36*
X128401000Y-112926000D02*
G01*
X127499000Y-112926000D01*
X127499000Y-112074000D01*
X128401000Y-112074000D01*
X128401000Y-112926000D01*
G37*
G36*
X112701000Y-112926000D02*
G01*
X111799000Y-112926000D01*
X111799000Y-112074000D01*
X112701000Y-112074000D01*
X112701000Y-112926000D01*
G37*
G36*
X111201000Y-112926000D02*
G01*
X110299000Y-112926000D01*
X110299000Y-112074000D01*
X111201000Y-112074000D01*
X111201000Y-112926000D01*
G37*
G36*
X129901000Y-112926000D02*
G01*
X128999000Y-112926000D01*
X128999000Y-112074000D01*
X129901000Y-112074000D01*
X129901000Y-112926000D01*
G37*
G36*
X125051000Y-112551000D02*
G01*
X123349000Y-112551000D01*
X123349000Y-109449000D01*
X125051000Y-109449000D01*
X125051000Y-112551000D01*
G37*
G36*
X189501000Y-112391000D02*
G01*
X186999000Y-112391000D01*
X186999000Y-111549000D01*
X189501000Y-111549000D01*
X189501000Y-112391000D01*
G37*
G36*
X193401000Y-112391000D02*
G01*
X190899000Y-112391000D01*
X190899000Y-111549000D01*
X193401000Y-111549000D01*
X193401000Y-112391000D01*
G37*
G36*
X107851000Y-112151000D02*
G01*
X106149000Y-112151000D01*
X106149000Y-109049000D01*
X107851000Y-109049000D01*
X107851000Y-112151000D01*
G37*
G36*
X172126000Y-112101000D02*
G01*
X171274000Y-112101000D01*
X171274000Y-111199000D01*
X172126000Y-111199000D01*
X172126000Y-112101000D01*
G37*
G36*
X129901000Y-111326000D02*
G01*
X128999000Y-111326000D01*
X128999000Y-110474000D01*
X129901000Y-110474000D01*
X129901000Y-111326000D01*
G37*
G36*
X112701000Y-111326000D02*
G01*
X111799000Y-111326000D01*
X111799000Y-110474000D01*
X112701000Y-110474000D01*
X112701000Y-111326000D01*
G37*
G36*
X111201000Y-111326000D02*
G01*
X110299000Y-111326000D01*
X110299000Y-110474000D01*
X111201000Y-110474000D01*
X111201000Y-111326000D01*
G37*
G36*
X128401000Y-111326000D02*
G01*
X127499000Y-111326000D01*
X127499000Y-110474000D01*
X128401000Y-110474000D01*
X128401000Y-111326000D01*
G37*
G36*
X168191000Y-111301000D02*
G01*
X155809000Y-111301000D01*
X155809000Y-109699000D01*
X168191000Y-109699000D01*
X168191000Y-111301000D01*
G37*
G36*
X189501000Y-111121000D02*
G01*
X186999000Y-111121000D01*
X186999000Y-110279000D01*
X189501000Y-110279000D01*
X189501000Y-111121000D01*
G37*
G36*
X193401000Y-111121000D02*
G01*
X190899000Y-111121000D01*
X190899000Y-110279000D01*
X193401000Y-110279000D01*
X193401000Y-111121000D01*
G37*
G36*
X172126000Y-110601000D02*
G01*
X171274000Y-110601000D01*
X171274000Y-109699000D01*
X172126000Y-109699000D01*
X172126000Y-110601000D01*
G37*
G36*
X183651000Y-109888500D02*
G01*
X182949000Y-109888500D01*
X182949000Y-108236500D01*
X183651000Y-108236500D01*
X183651000Y-109888500D01*
G37*
G36*
X180651000Y-109888500D02*
G01*
X179949000Y-109888500D01*
X179949000Y-108236500D01*
X180651000Y-108236500D01*
X180651000Y-109888500D01*
G37*
G36*
X181651000Y-109888500D02*
G01*
X180949000Y-109888500D01*
X180949000Y-108236500D01*
X181651000Y-108236500D01*
X181651000Y-109888500D01*
G37*
G36*
X182651000Y-109888500D02*
G01*
X181949000Y-109888500D01*
X181949000Y-108236500D01*
X182651000Y-108236500D01*
X182651000Y-109888500D01*
G37*
G36*
X193401000Y-109851000D02*
G01*
X190899000Y-109851000D01*
X190899000Y-109009000D01*
X193401000Y-109009000D01*
X193401000Y-109851000D01*
G37*
G36*
X189501000Y-109851000D02*
G01*
X186999000Y-109851000D01*
X186999000Y-109009000D01*
X189501000Y-109009000D01*
X189501000Y-109851000D01*
G37*
G36*
X167001000Y-109126000D02*
G01*
X166099000Y-109126000D01*
X166099000Y-108274000D01*
X167001000Y-108274000D01*
X167001000Y-109126000D01*
G37*
G36*
X165501000Y-109126000D02*
G01*
X164599000Y-109126000D01*
X164599000Y-108274000D01*
X165501000Y-108274000D01*
X165501000Y-109126000D01*
G37*
G36*
X155801000Y-109026000D02*
G01*
X154899000Y-109026000D01*
X154899000Y-108174000D01*
X155801000Y-108174000D01*
X155801000Y-109026000D01*
G37*
G36*
X157301000Y-109026000D02*
G01*
X156399000Y-109026000D01*
X156399000Y-108174000D01*
X157301000Y-108174000D01*
X157301000Y-109026000D01*
G37*
G36*
X160726000Y-108801000D02*
G01*
X159874000Y-108801000D01*
X159874000Y-107899000D01*
X160726000Y-107899000D01*
X160726000Y-108801000D01*
G37*
G36*
X189501000Y-108581000D02*
G01*
X186999000Y-108581000D01*
X186999000Y-107739000D01*
X189501000Y-107739000D01*
X189501000Y-108581000D01*
G37*
G36*
X193401000Y-108581000D02*
G01*
X190899000Y-108581000D01*
X190899000Y-107739000D01*
X193401000Y-107739000D01*
X193401000Y-108581000D01*
G37*
G36*
X170901000Y-108351000D02*
G01*
X169649000Y-108351000D01*
X169649000Y-107249000D01*
X170901000Y-107249000D01*
X170901000Y-108351000D01*
G37*
G36*
X169151000Y-108351000D02*
G01*
X167899000Y-108351000D01*
X167899000Y-107249000D01*
X169151000Y-107249000D01*
X169151000Y-108351000D01*
G37*
G36*
X123801000Y-108326000D02*
G01*
X121399000Y-108326000D01*
X121399000Y-107574000D01*
X123801000Y-107574000D01*
X123801000Y-108326000D01*
G37*
G36*
X129901000Y-108326000D02*
G01*
X127499000Y-108326000D01*
X127499000Y-107574000D01*
X129901000Y-107574000D01*
X129901000Y-108326000D01*
G37*
G36*
X133601000Y-108326000D02*
G01*
X131199000Y-108326000D01*
X131199000Y-107574000D01*
X133601000Y-107574000D01*
X133601000Y-108326000D01*
G37*
G36*
X120101000Y-108326000D02*
G01*
X117699000Y-108326000D01*
X117699000Y-107574000D01*
X120101000Y-107574000D01*
X120101000Y-108326000D01*
G37*
G36*
X141001000Y-108326000D02*
G01*
X138599000Y-108326000D01*
X138599000Y-107574000D01*
X141001000Y-107574000D01*
X141001000Y-108326000D01*
G37*
G36*
X112701000Y-108326000D02*
G01*
X110299000Y-108326000D01*
X110299000Y-107574000D01*
X112701000Y-107574000D01*
X112701000Y-108326000D01*
G37*
G36*
X116401000Y-108326000D02*
G01*
X113999000Y-108326000D01*
X113999000Y-107574000D01*
X116401000Y-107574000D01*
X116401000Y-108326000D01*
G37*
G36*
X137301000Y-108326000D02*
G01*
X134899000Y-108326000D01*
X134899000Y-107574000D01*
X137301000Y-107574000D01*
X137301000Y-108326000D01*
G37*
G36*
X172926000Y-108301000D02*
G01*
X172074000Y-108301000D01*
X172074000Y-107399000D01*
X172926000Y-107399000D01*
X172926000Y-108301000D01*
G37*
G36*
X179651000Y-107488500D02*
G01*
X178349000Y-107488500D01*
X178349000Y-105586500D01*
X179651000Y-105586500D01*
X179651000Y-107488500D01*
G37*
G36*
X185251000Y-107488500D02*
G01*
X183949000Y-107488500D01*
X183949000Y-105586500D01*
X185251000Y-105586500D01*
X185251000Y-107488500D01*
G37*
G36*
X193401000Y-107311000D02*
G01*
X190899000Y-107311000D01*
X190899000Y-106469000D01*
X193401000Y-106469000D01*
X193401000Y-107311000D01*
G37*
G36*
X189501000Y-107311000D02*
G01*
X186999000Y-107311000D01*
X186999000Y-106469000D01*
X189501000Y-106469000D01*
X189501000Y-107311000D01*
G37*
G36*
X166751000Y-107301000D02*
G01*
X166149000Y-107301000D01*
X166149000Y-106299000D01*
X166751000Y-106299000D01*
X166751000Y-107301000D01*
G37*
G36*
X160726000Y-107301000D02*
G01*
X159874000Y-107301000D01*
X159874000Y-106399000D01*
X160726000Y-106399000D01*
X160726000Y-107301000D01*
G37*
G36*
X165251000Y-107301000D02*
G01*
X164649000Y-107301000D01*
X164649000Y-106299000D01*
X165251000Y-106299000D01*
X165251000Y-107301000D01*
G37*
G36*
X123851000Y-107226000D02*
G01*
X121349000Y-107226000D01*
X121349000Y-105574000D01*
X123851000Y-105574000D01*
X123851000Y-107226000D01*
G37*
G36*
X129951000Y-107226000D02*
G01*
X127449000Y-107226000D01*
X127449000Y-105574000D01*
X129951000Y-105574000D01*
X129951000Y-107226000D01*
G37*
G36*
X141051000Y-107226000D02*
G01*
X138549000Y-107226000D01*
X138549000Y-105574000D01*
X141051000Y-105574000D01*
X141051000Y-107226000D01*
G37*
G36*
X133651000Y-107226000D02*
G01*
X131149000Y-107226000D01*
X131149000Y-105574000D01*
X133651000Y-105574000D01*
X133651000Y-107226000D01*
G37*
G36*
X120151000Y-107226000D02*
G01*
X117649000Y-107226000D01*
X117649000Y-105574000D01*
X120151000Y-105574000D01*
X120151000Y-107226000D01*
G37*
G36*
X116451000Y-107226000D02*
G01*
X113949000Y-107226000D01*
X113949000Y-105574000D01*
X116451000Y-105574000D01*
X116451000Y-107226000D01*
G37*
G36*
X112751000Y-107226000D02*
G01*
X110249000Y-107226000D01*
X110249000Y-105574000D01*
X112751000Y-105574000D01*
X112751000Y-107226000D01*
G37*
G36*
X137351000Y-107226000D02*
G01*
X134849000Y-107226000D01*
X134849000Y-105574000D01*
X137351000Y-105574000D01*
X137351000Y-107226000D01*
G37*
G36*
X170901000Y-106951000D02*
G01*
X169649000Y-106951000D01*
X169649000Y-105849000D01*
X170901000Y-105849000D01*
X170901000Y-106951000D01*
G37*
G36*
X169151000Y-106951000D02*
G01*
X167899000Y-106951000D01*
X167899000Y-105849000D01*
X169151000Y-105849000D01*
X169151000Y-106951000D01*
G37*
G36*
X172926000Y-106801000D02*
G01*
X172074000Y-106801000D01*
X172074000Y-105899000D01*
X172926000Y-105899000D01*
X172926000Y-106801000D01*
G37*
G36*
X123801000Y-105226000D02*
G01*
X121399000Y-105226000D01*
X121399000Y-104474000D01*
X123801000Y-104474000D01*
X123801000Y-105226000D01*
G37*
G36*
X133601000Y-105226000D02*
G01*
X131199000Y-105226000D01*
X131199000Y-104474000D01*
X133601000Y-104474000D01*
X133601000Y-105226000D01*
G37*
G36*
X137301000Y-105226000D02*
G01*
X134899000Y-105226000D01*
X134899000Y-104474000D01*
X137301000Y-104474000D01*
X137301000Y-105226000D01*
G37*
G36*
X116401000Y-105226000D02*
G01*
X113999000Y-105226000D01*
X113999000Y-104474000D01*
X116401000Y-104474000D01*
X116401000Y-105226000D01*
G37*
G36*
X129901000Y-105226000D02*
G01*
X127499000Y-105226000D01*
X127499000Y-104474000D01*
X129901000Y-104474000D01*
X129901000Y-105226000D01*
G37*
G36*
X141001000Y-105226000D02*
G01*
X138599000Y-105226000D01*
X138599000Y-104474000D01*
X141001000Y-104474000D01*
X141001000Y-105226000D01*
G37*
G36*
X120101000Y-105226000D02*
G01*
X117699000Y-105226000D01*
X117699000Y-104474000D01*
X120101000Y-104474000D01*
X120101000Y-105226000D01*
G37*
G36*
X112701000Y-105226000D02*
G01*
X110299000Y-105226000D01*
X110299000Y-104474000D01*
X112701000Y-104474000D01*
X112701000Y-105226000D01*
G37*
G36*
X176877395Y-102195546D02*
G01*
X177050466Y-102267234D01*
X177050467Y-102267235D01*
X177206227Y-102371310D01*
X177338690Y-102503773D01*
X177366725Y-102545731D01*
X177442766Y-102659534D01*
X177514454Y-102832605D01*
X177551000Y-103016333D01*
X177551000Y-103203667D01*
X177514454Y-103387395D01*
X177442766Y-103560466D01*
X177442765Y-103560467D01*
X177338690Y-103716227D01*
X177206227Y-103848690D01*
X177127818Y-103901081D01*
X177050466Y-103952766D01*
X176877395Y-104024454D01*
X176693667Y-104061000D01*
X176506333Y-104061000D01*
X176322605Y-104024454D01*
X176149534Y-103952766D01*
X176072182Y-103901081D01*
X175993773Y-103848690D01*
X175861310Y-103716227D01*
X175757235Y-103560467D01*
X175757234Y-103560466D01*
X175685546Y-103387395D01*
X175649000Y-103203667D01*
X175649000Y-103016333D01*
X175685546Y-102832605D01*
X175757234Y-102659534D01*
X175833275Y-102545731D01*
X175861310Y-102503773D01*
X175993773Y-102371310D01*
X176149533Y-102267235D01*
X176149534Y-102267234D01*
X176322605Y-102195546D01*
X176506333Y-102159000D01*
X176693667Y-102159000D01*
X176877395Y-102195546D01*
G37*
G36*
X162551000Y-103301000D02*
G01*
X161949000Y-103301000D01*
X161949000Y-102299000D01*
X162551000Y-102299000D01*
X162551000Y-103301000D01*
G37*
G36*
X161051000Y-103301000D02*
G01*
X160449000Y-103301000D01*
X160449000Y-102299000D01*
X161051000Y-102299000D01*
X161051000Y-103301000D01*
G37*
G36*
X112151000Y-103251000D02*
G01*
X110549000Y-103251000D01*
X110549000Y-98149000D01*
X112151000Y-98149000D01*
X112151000Y-103251000D01*
G37*
G36*
X118051000Y-103251000D02*
G01*
X116449000Y-103251000D01*
X116449000Y-98149000D01*
X118051000Y-98149000D01*
X118051000Y-103251000D01*
G37*
G36*
X180901000Y-103226000D02*
G01*
X179999000Y-103226000D01*
X179999000Y-102374000D01*
X180901000Y-102374000D01*
X180901000Y-103226000D01*
G37*
G36*
X182401000Y-103226000D02*
G01*
X181499000Y-103226000D01*
X181499000Y-102374000D01*
X182401000Y-102374000D01*
X182401000Y-103226000D01*
G37*
G36*
X165051000Y-97192218D02*
G01*
X165053402Y-97216604D01*
X165060515Y-97240053D01*
X165072066Y-97261664D01*
X165087611Y-97280606D01*
X165106553Y-97296151D01*
X165128164Y-97307702D01*
X165151613Y-97314815D01*
X165175999Y-97317217D01*
X165200385Y-97314815D01*
X165223834Y-97307702D01*
X165245445Y-97296151D01*
X165264387Y-97280606D01*
X165279932Y-97261664D01*
X165342009Y-97168760D01*
X165342010Y-97168758D01*
X165418758Y-97092010D01*
X165509004Y-97031710D01*
X165509005Y-97031709D01*
X165609279Y-96990174D01*
X165715730Y-96969000D01*
X165824270Y-96969000D01*
X165930721Y-96990174D01*
X166030995Y-97031709D01*
X166030996Y-97031710D01*
X166121242Y-97092010D01*
X166197990Y-97168758D01*
X166197991Y-97168760D01*
X166258291Y-97259005D01*
X166299826Y-97359279D01*
X166321000Y-97465730D01*
X166321000Y-97574270D01*
X166299826Y-97680721D01*
X166258291Y-97780995D01*
X166258290Y-97780996D01*
X166197990Y-97871242D01*
X166121242Y-97947990D01*
X166075812Y-97978345D01*
X166030995Y-98008291D01*
X165955611Y-98039516D01*
X165934000Y-98051067D01*
X165915059Y-98066612D01*
X165899513Y-98085554D01*
X165887962Y-98107165D01*
X165880849Y-98130614D01*
X165878447Y-98155000D01*
X165880849Y-98179386D01*
X165887962Y-98202835D01*
X165899513Y-98224446D01*
X165915058Y-98243387D01*
X165934000Y-98258933D01*
X165955611Y-98270484D01*
X166030995Y-98301709D01*
X166039506Y-98307396D01*
X166121242Y-98362010D01*
X166197990Y-98438758D01*
X166197991Y-98438760D01*
X166258291Y-98529005D01*
X166299826Y-98629279D01*
X166321000Y-98735730D01*
X166321000Y-98844270D01*
X166299826Y-98950721D01*
X166258291Y-99050995D01*
X166228345Y-99095812D01*
X166197990Y-99141242D01*
X166121242Y-99217990D01*
X166075812Y-99248345D01*
X166030995Y-99278291D01*
X165955611Y-99309516D01*
X165934000Y-99321067D01*
X165915059Y-99336612D01*
X165899513Y-99355554D01*
X165887962Y-99377165D01*
X165880849Y-99400614D01*
X165878447Y-99425000D01*
X165880849Y-99449386D01*
X165887962Y-99472835D01*
X165899513Y-99494446D01*
X165915058Y-99513387D01*
X165934000Y-99528933D01*
X165955611Y-99540484D01*
X166030995Y-99571709D01*
X166030996Y-99571710D01*
X166121242Y-99632010D01*
X166197990Y-99708758D01*
X166197991Y-99708760D01*
X166258291Y-99799005D01*
X166299826Y-99899279D01*
X166321000Y-100005730D01*
X166321000Y-100114270D01*
X166299826Y-100220721D01*
X166258291Y-100320995D01*
X166258290Y-100320996D01*
X166197990Y-100411242D01*
X166121242Y-100487990D01*
X166075812Y-100518345D01*
X166030995Y-100548291D01*
X165955611Y-100579516D01*
X165934000Y-100591067D01*
X165915059Y-100606612D01*
X165899513Y-100625554D01*
X165887962Y-100647165D01*
X165880849Y-100670614D01*
X165878447Y-100695000D01*
X165880849Y-100719386D01*
X165887962Y-100742835D01*
X165899513Y-100764446D01*
X165915058Y-100783387D01*
X165934000Y-100798933D01*
X165955611Y-100810484D01*
X166030995Y-100841709D01*
X166039506Y-100847396D01*
X166121242Y-100902010D01*
X166197990Y-100978758D01*
X166225858Y-101020466D01*
X166258291Y-101069005D01*
X166299826Y-101169279D01*
X166321000Y-101275730D01*
X166321000Y-101384270D01*
X166299826Y-101490721D01*
X166258291Y-101590995D01*
X166258290Y-101590996D01*
X166197990Y-101681242D01*
X166121242Y-101757990D01*
X166097281Y-101774000D01*
X166030995Y-101818291D01*
X165955611Y-101849516D01*
X165934000Y-101861067D01*
X165915059Y-101876612D01*
X165899513Y-101895554D01*
X165887962Y-101917165D01*
X165880849Y-101940614D01*
X165878447Y-101965000D01*
X165880849Y-101989386D01*
X165887962Y-102012835D01*
X165899513Y-102034446D01*
X165915058Y-102053387D01*
X165934000Y-102068933D01*
X165955611Y-102080484D01*
X166030995Y-102111709D01*
X166030996Y-102111710D01*
X166121242Y-102172010D01*
X166197990Y-102248758D01*
X166197991Y-102248760D01*
X166258291Y-102339005D01*
X166299826Y-102439279D01*
X166321000Y-102545730D01*
X166321000Y-102654270D01*
X166299826Y-102760721D01*
X166258291Y-102860995D01*
X166258290Y-102860996D01*
X166197990Y-102951242D01*
X166121242Y-103027990D01*
X166075812Y-103058345D01*
X166030995Y-103088291D01*
X165930721Y-103129826D01*
X165824270Y-103151000D01*
X165715730Y-103151000D01*
X165609279Y-103129826D01*
X165509005Y-103088291D01*
X165464188Y-103058345D01*
X165418758Y-103027990D01*
X165342010Y-102951242D01*
X165281710Y-102860996D01*
X165281709Y-102860995D01*
X165250484Y-102785611D01*
X165238933Y-102764000D01*
X165223388Y-102745059D01*
X165204446Y-102729513D01*
X165182835Y-102717962D01*
X165159386Y-102710849D01*
X165135000Y-102708447D01*
X165110614Y-102710849D01*
X165087165Y-102717962D01*
X165065554Y-102729513D01*
X165046613Y-102745058D01*
X165031067Y-102764000D01*
X165019516Y-102785611D01*
X164988291Y-102860995D01*
X164988290Y-102860996D01*
X164927990Y-102951242D01*
X164851242Y-103027990D01*
X164805812Y-103058345D01*
X164760995Y-103088291D01*
X164660721Y-103129826D01*
X164554270Y-103151000D01*
X164445730Y-103151000D01*
X164339279Y-103129826D01*
X164239005Y-103088291D01*
X164194188Y-103058345D01*
X164148758Y-103027990D01*
X164072010Y-102951242D01*
X164011710Y-102860996D01*
X164011709Y-102860995D01*
X163970174Y-102760721D01*
X163949000Y-102654270D01*
X163949000Y-102545730D01*
X163970174Y-102439279D01*
X164011709Y-102339005D01*
X164072009Y-102248760D01*
X164072010Y-102248758D01*
X164148758Y-102172010D01*
X164239004Y-102111710D01*
X164239005Y-102111709D01*
X164314389Y-102080484D01*
X164336000Y-102068933D01*
X164354941Y-102053388D01*
X164370487Y-102034446D01*
X164382038Y-102012835D01*
X164389151Y-101989386D01*
X164391553Y-101965000D01*
X164608447Y-101965000D01*
X164610849Y-101989386D01*
X164617962Y-102012835D01*
X164629513Y-102034446D01*
X164645058Y-102053387D01*
X164664000Y-102068933D01*
X164685611Y-102080484D01*
X164760995Y-102111709D01*
X164760996Y-102111710D01*
X164851242Y-102172010D01*
X164927990Y-102248758D01*
X164927991Y-102248760D01*
X164988291Y-102339005D01*
X165019516Y-102414389D01*
X165031067Y-102436000D01*
X165046612Y-102454941D01*
X165065554Y-102470487D01*
X165087165Y-102482038D01*
X165110614Y-102489151D01*
X165135000Y-102491553D01*
X165159386Y-102489151D01*
X165182835Y-102482038D01*
X165204446Y-102470487D01*
X165223387Y-102454942D01*
X165238933Y-102436000D01*
X165250484Y-102414389D01*
X165281709Y-102339005D01*
X165342009Y-102248760D01*
X165342010Y-102248758D01*
X165418758Y-102172010D01*
X165509004Y-102111710D01*
X165509005Y-102111709D01*
X165584389Y-102080484D01*
X165606000Y-102068933D01*
X165624941Y-102053388D01*
X165640487Y-102034446D01*
X165652038Y-102012835D01*
X165659151Y-101989386D01*
X165661553Y-101965000D01*
X165659151Y-101940614D01*
X165652038Y-101917165D01*
X165640487Y-101895554D01*
X165624942Y-101876613D01*
X165606000Y-101861067D01*
X165584389Y-101849516D01*
X165509005Y-101818291D01*
X165442719Y-101774000D01*
X165418758Y-101757990D01*
X165342010Y-101681242D01*
X165281710Y-101590996D01*
X165281709Y-101590995D01*
X165250484Y-101515611D01*
X165238933Y-101494000D01*
X165223388Y-101475059D01*
X165204446Y-101459513D01*
X165182835Y-101447962D01*
X165159386Y-101440849D01*
X165135000Y-101438447D01*
X165110614Y-101440849D01*
X165087165Y-101447962D01*
X165065554Y-101459513D01*
X165046613Y-101475058D01*
X165031067Y-101494000D01*
X165019516Y-101515611D01*
X164988291Y-101590995D01*
X164988290Y-101590996D01*
X164927990Y-101681242D01*
X164851242Y-101757990D01*
X164827281Y-101774000D01*
X164760995Y-101818291D01*
X164685611Y-101849516D01*
X164664000Y-101861067D01*
X164645059Y-101876612D01*
X164629513Y-101895554D01*
X164617962Y-101917165D01*
X164610849Y-101940614D01*
X164608447Y-101965000D01*
X164391553Y-101965000D01*
X164389151Y-101940614D01*
X164382038Y-101917165D01*
X164370487Y-101895554D01*
X164354942Y-101876613D01*
X164336000Y-101861067D01*
X164314389Y-101849516D01*
X164239005Y-101818291D01*
X164172719Y-101774000D01*
X164148758Y-101757990D01*
X164072010Y-101681242D01*
X164011710Y-101590996D01*
X164011709Y-101590995D01*
X163970174Y-101490721D01*
X163949000Y-101384270D01*
X163949000Y-101275730D01*
X163970174Y-101169279D01*
X164011709Y-101069005D01*
X164044142Y-101020466D01*
X164072010Y-100978758D01*
X164148758Y-100902010D01*
X164230494Y-100847396D01*
X164239005Y-100841709D01*
X164314389Y-100810484D01*
X164336000Y-100798933D01*
X164354941Y-100783388D01*
X164370487Y-100764446D01*
X164382038Y-100742835D01*
X164389151Y-100719386D01*
X164391553Y-100695000D01*
X164608447Y-100695000D01*
X164610849Y-100719386D01*
X164617962Y-100742835D01*
X164629513Y-100764446D01*
X164645058Y-100783387D01*
X164664000Y-100798933D01*
X164685611Y-100810484D01*
X164760995Y-100841709D01*
X164769506Y-100847396D01*
X164851242Y-100902010D01*
X164927990Y-100978758D01*
X164955858Y-101020466D01*
X164988291Y-101069005D01*
X165019516Y-101144389D01*
X165031067Y-101166000D01*
X165046612Y-101184941D01*
X165065554Y-101200487D01*
X165087165Y-101212038D01*
X165110614Y-101219151D01*
X165135000Y-101221553D01*
X165159386Y-101219151D01*
X165182835Y-101212038D01*
X165204446Y-101200487D01*
X165223387Y-101184942D01*
X165238933Y-101166000D01*
X165250484Y-101144389D01*
X165281709Y-101069005D01*
X165314142Y-101020466D01*
X165342010Y-100978758D01*
X165418758Y-100902010D01*
X165500494Y-100847396D01*
X165509005Y-100841709D01*
X165584389Y-100810484D01*
X165606000Y-100798933D01*
X165624941Y-100783388D01*
X165640487Y-100764446D01*
X165652038Y-100742835D01*
X165659151Y-100719386D01*
X165661553Y-100695000D01*
X165659151Y-100670614D01*
X165652038Y-100647165D01*
X165640487Y-100625554D01*
X165624942Y-100606613D01*
X165606000Y-100591067D01*
X165584389Y-100579516D01*
X165509005Y-100548291D01*
X165464188Y-100518345D01*
X165418758Y-100487990D01*
X165342010Y-100411242D01*
X165281710Y-100320996D01*
X165281709Y-100320995D01*
X165250484Y-100245611D01*
X165238933Y-100224000D01*
X165223388Y-100205059D01*
X165204446Y-100189513D01*
X165182835Y-100177962D01*
X165159386Y-100170849D01*
X165135000Y-100168447D01*
X165110614Y-100170849D01*
X165087165Y-100177962D01*
X165065554Y-100189513D01*
X165046613Y-100205058D01*
X165031067Y-100224000D01*
X165019516Y-100245611D01*
X164988291Y-100320995D01*
X164988290Y-100320996D01*
X164927990Y-100411242D01*
X164851242Y-100487990D01*
X164805812Y-100518345D01*
X164760995Y-100548291D01*
X164685611Y-100579516D01*
X164664000Y-100591067D01*
X164645059Y-100606612D01*
X164629513Y-100625554D01*
X164617962Y-100647165D01*
X164610849Y-100670614D01*
X164608447Y-100695000D01*
X164391553Y-100695000D01*
X164389151Y-100670614D01*
X164382038Y-100647165D01*
X164370487Y-100625554D01*
X164354942Y-100606613D01*
X164336000Y-100591067D01*
X164314389Y-100579516D01*
X164239005Y-100548291D01*
X164194188Y-100518345D01*
X164148758Y-100487990D01*
X164072010Y-100411242D01*
X164011710Y-100320996D01*
X164011709Y-100320995D01*
X163970174Y-100220721D01*
X163949000Y-100114270D01*
X163949000Y-100005730D01*
X163970174Y-99899279D01*
X164011709Y-99799005D01*
X164072009Y-99708760D01*
X164072010Y-99708758D01*
X164148758Y-99632010D01*
X164239004Y-99571710D01*
X164239005Y-99571709D01*
X164314389Y-99540484D01*
X164336000Y-99528933D01*
X164354941Y-99513388D01*
X164370487Y-99494446D01*
X164382038Y-99472835D01*
X164389151Y-99449386D01*
X164391553Y-99425000D01*
X164608447Y-99425000D01*
X164610849Y-99449386D01*
X164617962Y-99472835D01*
X164629513Y-99494446D01*
X164645058Y-99513387D01*
X164664000Y-99528933D01*
X164685611Y-99540484D01*
X164760995Y-99571709D01*
X164760996Y-99571710D01*
X164851242Y-99632010D01*
X164927990Y-99708758D01*
X164927991Y-99708760D01*
X164988291Y-99799005D01*
X165019516Y-99874389D01*
X165031067Y-99896000D01*
X165046612Y-99914941D01*
X165065554Y-99930487D01*
X165087165Y-99942038D01*
X165110614Y-99949151D01*
X165135000Y-99951553D01*
X165159386Y-99949151D01*
X165182835Y-99942038D01*
X165204446Y-99930487D01*
X165223387Y-99914942D01*
X165238933Y-99896000D01*
X165250484Y-99874389D01*
X165281709Y-99799005D01*
X165342009Y-99708760D01*
X165342010Y-99708758D01*
X165418758Y-99632010D01*
X165509004Y-99571710D01*
X165509005Y-99571709D01*
X165584389Y-99540484D01*
X165606000Y-99528933D01*
X165624941Y-99513388D01*
X165640487Y-99494446D01*
X165652038Y-99472835D01*
X165659151Y-99449386D01*
X165661553Y-99425000D01*
X165659151Y-99400614D01*
X165652038Y-99377165D01*
X165640487Y-99355554D01*
X165624942Y-99336613D01*
X165606000Y-99321067D01*
X165584389Y-99309516D01*
X165509005Y-99278291D01*
X165464188Y-99248345D01*
X165418758Y-99217990D01*
X165342010Y-99141242D01*
X165311655Y-99095812D01*
X165281709Y-99050995D01*
X165250484Y-98975611D01*
X165238933Y-98954000D01*
X165223388Y-98935059D01*
X165204446Y-98919513D01*
X165182835Y-98907962D01*
X165159386Y-98900849D01*
X165135000Y-98898447D01*
X165110614Y-98900849D01*
X165087165Y-98907962D01*
X165065554Y-98919513D01*
X165046613Y-98935058D01*
X165031067Y-98954000D01*
X165019516Y-98975611D01*
X164988291Y-99050995D01*
X164958345Y-99095812D01*
X164927990Y-99141242D01*
X164851242Y-99217990D01*
X164805812Y-99248345D01*
X164760995Y-99278291D01*
X164685611Y-99309516D01*
X164664000Y-99321067D01*
X164645059Y-99336612D01*
X164629513Y-99355554D01*
X164617962Y-99377165D01*
X164610849Y-99400614D01*
X164608447Y-99425000D01*
X164391553Y-99425000D01*
X164389151Y-99400614D01*
X164382038Y-99377165D01*
X164370487Y-99355554D01*
X164354942Y-99336613D01*
X164336000Y-99321067D01*
X164314389Y-99309516D01*
X164239005Y-99278291D01*
X164194188Y-99248345D01*
X164148758Y-99217990D01*
X164072010Y-99141242D01*
X164041655Y-99095812D01*
X164011709Y-99050995D01*
X163970174Y-98950721D01*
X163949000Y-98844270D01*
X163949000Y-98735730D01*
X163970174Y-98629279D01*
X164011709Y-98529005D01*
X164072009Y-98438760D01*
X164072010Y-98438758D01*
X164148758Y-98362010D01*
X164180184Y-98341012D01*
X164241664Y-98299932D01*
X164260606Y-98284386D01*
X164276151Y-98265444D01*
X164287702Y-98243833D01*
X164294815Y-98220385D01*
X164297216Y-98195999D01*
X164702783Y-98195999D01*
X164705185Y-98220385D01*
X164712298Y-98243834D01*
X164723849Y-98265445D01*
X164739394Y-98284387D01*
X164758336Y-98299932D01*
X164819816Y-98341012D01*
X164851242Y-98362010D01*
X164927990Y-98438758D01*
X164927991Y-98438760D01*
X164988291Y-98529005D01*
X165019516Y-98604389D01*
X165031067Y-98626000D01*
X165046612Y-98644941D01*
X165065554Y-98660487D01*
X165087165Y-98672038D01*
X165110614Y-98679151D01*
X165135000Y-98681553D01*
X165159386Y-98679151D01*
X165182835Y-98672038D01*
X165204446Y-98660487D01*
X165223387Y-98644942D01*
X165238933Y-98626000D01*
X165250484Y-98604389D01*
X165281709Y-98529005D01*
X165342009Y-98438760D01*
X165342010Y-98438758D01*
X165418758Y-98362010D01*
X165500494Y-98307396D01*
X165509005Y-98301709D01*
X165584389Y-98270484D01*
X165606000Y-98258933D01*
X165624941Y-98243388D01*
X165640487Y-98224446D01*
X165652038Y-98202835D01*
X165659151Y-98179386D01*
X165661553Y-98155000D01*
X165659151Y-98130614D01*
X165652038Y-98107165D01*
X165640487Y-98085554D01*
X165624942Y-98066613D01*
X165606000Y-98051067D01*
X165584389Y-98039516D01*
X165509005Y-98008291D01*
X165464188Y-97978345D01*
X165418758Y-97947990D01*
X165342010Y-97871242D01*
X165312971Y-97827782D01*
X165279932Y-97778336D01*
X165264386Y-97759394D01*
X165245444Y-97743849D01*
X165223833Y-97732298D01*
X165200385Y-97725185D01*
X165175998Y-97722783D01*
X165151612Y-97725185D01*
X165128163Y-97732298D01*
X165106553Y-97743849D01*
X165087611Y-97759395D01*
X165072066Y-97778337D01*
X165060515Y-97799948D01*
X165053402Y-97823396D01*
X165051000Y-97847782D01*
X165051000Y-98071000D01*
X164827782Y-98071000D01*
X164803396Y-98073402D01*
X164779947Y-98080515D01*
X164758336Y-98092066D01*
X164739394Y-98107611D01*
X164723849Y-98126553D01*
X164712298Y-98148164D01*
X164705185Y-98171613D01*
X164702783Y-98195999D01*
X164297216Y-98195999D01*
X164297217Y-98195998D01*
X164294815Y-98171612D01*
X164287702Y-98148163D01*
X164276151Y-98126553D01*
X164260605Y-98107611D01*
X164241663Y-98092066D01*
X164220052Y-98080515D01*
X164196604Y-98073402D01*
X164172218Y-98071000D01*
X163949000Y-98071000D01*
X163949000Y-96969000D01*
X165051000Y-96969000D01*
X165051000Y-97192218D01*
G37*
G36*
X157851000Y-97172218D02*
G01*
X157853402Y-97196604D01*
X157860515Y-97220053D01*
X157872066Y-97241664D01*
X157887611Y-97260606D01*
X157906553Y-97276151D01*
X157928164Y-97287702D01*
X157951613Y-97294815D01*
X157975999Y-97297217D01*
X158000385Y-97294815D01*
X158023834Y-97287702D01*
X158045445Y-97276151D01*
X158064387Y-97260606D01*
X158079932Y-97241664D01*
X158142009Y-97148760D01*
X158142010Y-97148758D01*
X158218758Y-97072010D01*
X158264188Y-97041655D01*
X158309005Y-97011709D01*
X158409279Y-96970174D01*
X158515730Y-96949000D01*
X158624270Y-96949000D01*
X158730721Y-96970174D01*
X158830995Y-97011709D01*
X158875812Y-97041655D01*
X158921242Y-97072010D01*
X158997990Y-97148758D01*
X158997991Y-97148760D01*
X159058291Y-97239005D01*
X159099826Y-97339279D01*
X159121000Y-97445730D01*
X159121000Y-97554270D01*
X159099826Y-97660721D01*
X159058291Y-97760995D01*
X159058290Y-97760996D01*
X158997990Y-97851242D01*
X158921242Y-97927990D01*
X158891308Y-97947991D01*
X158830995Y-97988291D01*
X158755611Y-98019516D01*
X158734000Y-98031067D01*
X158715059Y-98046612D01*
X158699513Y-98065554D01*
X158687962Y-98087165D01*
X158680849Y-98110614D01*
X158678447Y-98135000D01*
X158680849Y-98159386D01*
X158687962Y-98182835D01*
X158699513Y-98204446D01*
X158715058Y-98223387D01*
X158734000Y-98238933D01*
X158755611Y-98250484D01*
X158830995Y-98281709D01*
X158869437Y-98307395D01*
X158921242Y-98342010D01*
X158997990Y-98418758D01*
X158997991Y-98418760D01*
X159058291Y-98509005D01*
X159099826Y-98609279D01*
X159121000Y-98715730D01*
X159121000Y-98824270D01*
X159099826Y-98930721D01*
X159058291Y-99030995D01*
X159058290Y-99030996D01*
X158997990Y-99121242D01*
X158921242Y-99197990D01*
X158891308Y-99217991D01*
X158830995Y-99258291D01*
X158755611Y-99289516D01*
X158734000Y-99301067D01*
X158715059Y-99316612D01*
X158699513Y-99335554D01*
X158687962Y-99357165D01*
X158680849Y-99380614D01*
X158678447Y-99405000D01*
X158680849Y-99429386D01*
X158687962Y-99452835D01*
X158699513Y-99474446D01*
X158715058Y-99493387D01*
X158734000Y-99508933D01*
X158755611Y-99520484D01*
X158830995Y-99551709D01*
X158875812Y-99581655D01*
X158921242Y-99612010D01*
X158997990Y-99688758D01*
X158997991Y-99688760D01*
X159058291Y-99779005D01*
X159099826Y-99879279D01*
X159121000Y-99985730D01*
X159121000Y-100094270D01*
X159099826Y-100200721D01*
X159058291Y-100300995D01*
X159058290Y-100300996D01*
X158997990Y-100391242D01*
X158921242Y-100467990D01*
X158891308Y-100487991D01*
X158830995Y-100528291D01*
X158755611Y-100559516D01*
X158734000Y-100571067D01*
X158715059Y-100586612D01*
X158699513Y-100605554D01*
X158687962Y-100627165D01*
X158680849Y-100650614D01*
X158678447Y-100675000D01*
X158680849Y-100699386D01*
X158687962Y-100722835D01*
X158699513Y-100744446D01*
X158715058Y-100763387D01*
X158734000Y-100778933D01*
X158755611Y-100790484D01*
X158830995Y-100821709D01*
X158869437Y-100847395D01*
X158921242Y-100882010D01*
X158997990Y-100958758D01*
X158997991Y-100958760D01*
X159058291Y-101049005D01*
X159099826Y-101149279D01*
X159121000Y-101255730D01*
X159121000Y-101364270D01*
X159099826Y-101470721D01*
X159058291Y-101570995D01*
X159058290Y-101570996D01*
X158997990Y-101661242D01*
X158921242Y-101737990D01*
X158891308Y-101757991D01*
X158830995Y-101798291D01*
X158755611Y-101829516D01*
X158734000Y-101841067D01*
X158715059Y-101856612D01*
X158699513Y-101875554D01*
X158687962Y-101897165D01*
X158680849Y-101920614D01*
X158678447Y-101945000D01*
X158680849Y-101969386D01*
X158687962Y-101992835D01*
X158699513Y-102014446D01*
X158715058Y-102033387D01*
X158734000Y-102048933D01*
X158755611Y-102060484D01*
X158830995Y-102091709D01*
X158875812Y-102121655D01*
X158921242Y-102152010D01*
X158997990Y-102228758D01*
X158997991Y-102228760D01*
X159058291Y-102319005D01*
X159099826Y-102419279D01*
X159121000Y-102525730D01*
X159121000Y-102634270D01*
X159099826Y-102740721D01*
X159058291Y-102840995D01*
X159058290Y-102840996D01*
X158997990Y-102931242D01*
X158921242Y-103007990D01*
X158891308Y-103027991D01*
X158830995Y-103068291D01*
X158730721Y-103109826D01*
X158624270Y-103131000D01*
X158515730Y-103131000D01*
X158409279Y-103109826D01*
X158309005Y-103068291D01*
X158248692Y-103027991D01*
X158218758Y-103007990D01*
X158142010Y-102931242D01*
X158081710Y-102840996D01*
X158081709Y-102840995D01*
X158050484Y-102765611D01*
X158038933Y-102744000D01*
X158023388Y-102725059D01*
X158004446Y-102709513D01*
X157982835Y-102697962D01*
X157959386Y-102690849D01*
X157935000Y-102688447D01*
X157910614Y-102690849D01*
X157887165Y-102697962D01*
X157865554Y-102709513D01*
X157846613Y-102725058D01*
X157831067Y-102744000D01*
X157819516Y-102765611D01*
X157788291Y-102840995D01*
X157788290Y-102840996D01*
X157727990Y-102931242D01*
X157651242Y-103007990D01*
X157621308Y-103027991D01*
X157560995Y-103068291D01*
X157460721Y-103109826D01*
X157354270Y-103131000D01*
X157245730Y-103131000D01*
X157139279Y-103109826D01*
X157039005Y-103068291D01*
X156978692Y-103027991D01*
X156948758Y-103007990D01*
X156872010Y-102931242D01*
X156811710Y-102840996D01*
X156811709Y-102840995D01*
X156770174Y-102740721D01*
X156749000Y-102634270D01*
X156749000Y-102525730D01*
X156770174Y-102419279D01*
X156811709Y-102319005D01*
X156872009Y-102228760D01*
X156872010Y-102228758D01*
X156948758Y-102152010D01*
X156994188Y-102121655D01*
X157039005Y-102091709D01*
X157114389Y-102060484D01*
X157136000Y-102048933D01*
X157154941Y-102033388D01*
X157170487Y-102014446D01*
X157182038Y-101992835D01*
X157189151Y-101969386D01*
X157191553Y-101945000D01*
X157408447Y-101945000D01*
X157410849Y-101969386D01*
X157417962Y-101992835D01*
X157429513Y-102014446D01*
X157445058Y-102033387D01*
X157464000Y-102048933D01*
X157485611Y-102060484D01*
X157560995Y-102091709D01*
X157605812Y-102121655D01*
X157651242Y-102152010D01*
X157727990Y-102228758D01*
X157727991Y-102228760D01*
X157788291Y-102319005D01*
X157819516Y-102394389D01*
X157831067Y-102416000D01*
X157846612Y-102434941D01*
X157865554Y-102450487D01*
X157887165Y-102462038D01*
X157910614Y-102469151D01*
X157935000Y-102471553D01*
X157959386Y-102469151D01*
X157982835Y-102462038D01*
X158004446Y-102450487D01*
X158023387Y-102434942D01*
X158038933Y-102416000D01*
X158050484Y-102394389D01*
X158081709Y-102319005D01*
X158142009Y-102228760D01*
X158142010Y-102228758D01*
X158218758Y-102152010D01*
X158264188Y-102121655D01*
X158309005Y-102091709D01*
X158384389Y-102060484D01*
X158406000Y-102048933D01*
X158424941Y-102033388D01*
X158440487Y-102014446D01*
X158452038Y-101992835D01*
X158459151Y-101969386D01*
X158461553Y-101945000D01*
X158459151Y-101920614D01*
X158452038Y-101897165D01*
X158440487Y-101875554D01*
X158424942Y-101856613D01*
X158406000Y-101841067D01*
X158384389Y-101829516D01*
X158309005Y-101798291D01*
X158248692Y-101757991D01*
X158218758Y-101737990D01*
X158142010Y-101661242D01*
X158081710Y-101570996D01*
X158081709Y-101570995D01*
X158050484Y-101495611D01*
X158038933Y-101474000D01*
X158023388Y-101455059D01*
X158004446Y-101439513D01*
X157982835Y-101427962D01*
X157959386Y-101420849D01*
X157935000Y-101418447D01*
X157910614Y-101420849D01*
X157887165Y-101427962D01*
X157865554Y-101439513D01*
X157846613Y-101455058D01*
X157831067Y-101474000D01*
X157819516Y-101495611D01*
X157788291Y-101570995D01*
X157788290Y-101570996D01*
X157727990Y-101661242D01*
X157651242Y-101737990D01*
X157621308Y-101757991D01*
X157560995Y-101798291D01*
X157485611Y-101829516D01*
X157464000Y-101841067D01*
X157445059Y-101856612D01*
X157429513Y-101875554D01*
X157417962Y-101897165D01*
X157410849Y-101920614D01*
X157408447Y-101945000D01*
X157191553Y-101945000D01*
X157189151Y-101920614D01*
X157182038Y-101897165D01*
X157170487Y-101875554D01*
X157154942Y-101856613D01*
X157136000Y-101841067D01*
X157114389Y-101829516D01*
X157039005Y-101798291D01*
X156978692Y-101757991D01*
X156948758Y-101737990D01*
X156872010Y-101661242D01*
X156811710Y-101570996D01*
X156811709Y-101570995D01*
X156770174Y-101470721D01*
X156749000Y-101364270D01*
X156749000Y-101255730D01*
X156770174Y-101149279D01*
X156811709Y-101049005D01*
X156872009Y-100958760D01*
X156872010Y-100958758D01*
X156948758Y-100882010D01*
X157000563Y-100847395D01*
X157039005Y-100821709D01*
X157114389Y-100790484D01*
X157136000Y-100778933D01*
X157154941Y-100763388D01*
X157170487Y-100744446D01*
X157182038Y-100722835D01*
X157189151Y-100699386D01*
X157191553Y-100675000D01*
X157408447Y-100675000D01*
X157410849Y-100699386D01*
X157417962Y-100722835D01*
X157429513Y-100744446D01*
X157445058Y-100763387D01*
X157464000Y-100778933D01*
X157485611Y-100790484D01*
X157560995Y-100821709D01*
X157599437Y-100847395D01*
X157651242Y-100882010D01*
X157727990Y-100958758D01*
X157727991Y-100958760D01*
X157788291Y-101049005D01*
X157819516Y-101124389D01*
X157831067Y-101146000D01*
X157846612Y-101164941D01*
X157865554Y-101180487D01*
X157887165Y-101192038D01*
X157910614Y-101199151D01*
X157935000Y-101201553D01*
X157959386Y-101199151D01*
X157982835Y-101192038D01*
X158004446Y-101180487D01*
X158023387Y-101164942D01*
X158038933Y-101146000D01*
X158050484Y-101124389D01*
X158081709Y-101049005D01*
X158142009Y-100958760D01*
X158142010Y-100958758D01*
X158218758Y-100882010D01*
X158270563Y-100847395D01*
X158309005Y-100821709D01*
X158384389Y-100790484D01*
X158406000Y-100778933D01*
X158424941Y-100763388D01*
X158440487Y-100744446D01*
X158452038Y-100722835D01*
X158459151Y-100699386D01*
X158461553Y-100675000D01*
X158459151Y-100650614D01*
X158452038Y-100627165D01*
X158440487Y-100605554D01*
X158424942Y-100586613D01*
X158406000Y-100571067D01*
X158384389Y-100559516D01*
X158309005Y-100528291D01*
X158248692Y-100487991D01*
X158218758Y-100467990D01*
X158142010Y-100391242D01*
X158081710Y-100300996D01*
X158081709Y-100300995D01*
X158050484Y-100225611D01*
X158038933Y-100204000D01*
X158023388Y-100185059D01*
X158004446Y-100169513D01*
X157982835Y-100157962D01*
X157959386Y-100150849D01*
X157935000Y-100148447D01*
X157910614Y-100150849D01*
X157887165Y-100157962D01*
X157865554Y-100169513D01*
X157846613Y-100185058D01*
X157831067Y-100204000D01*
X157819516Y-100225611D01*
X157788291Y-100300995D01*
X157788290Y-100300996D01*
X157727990Y-100391242D01*
X157651242Y-100467990D01*
X157621308Y-100487991D01*
X157560995Y-100528291D01*
X157485611Y-100559516D01*
X157464000Y-100571067D01*
X157445059Y-100586612D01*
X157429513Y-100605554D01*
X157417962Y-100627165D01*
X157410849Y-100650614D01*
X157408447Y-100675000D01*
X157191553Y-100675000D01*
X157189151Y-100650614D01*
X157182038Y-100627165D01*
X157170487Y-100605554D01*
X157154942Y-100586613D01*
X157136000Y-100571067D01*
X157114389Y-100559516D01*
X157039005Y-100528291D01*
X156978692Y-100487991D01*
X156948758Y-100467990D01*
X156872010Y-100391242D01*
X156811710Y-100300996D01*
X156811709Y-100300995D01*
X156770174Y-100200721D01*
X156749000Y-100094270D01*
X156749000Y-99985730D01*
X156770174Y-99879279D01*
X156811709Y-99779005D01*
X156872009Y-99688760D01*
X156872010Y-99688758D01*
X156948758Y-99612010D01*
X156994188Y-99581655D01*
X157039005Y-99551709D01*
X157114389Y-99520484D01*
X157136000Y-99508933D01*
X157154941Y-99493388D01*
X157170487Y-99474446D01*
X157182038Y-99452835D01*
X157189151Y-99429386D01*
X157191553Y-99405000D01*
X157408447Y-99405000D01*
X157410849Y-99429386D01*
X157417962Y-99452835D01*
X157429513Y-99474446D01*
X157445058Y-99493387D01*
X157464000Y-99508933D01*
X157485611Y-99520484D01*
X157560995Y-99551709D01*
X157605812Y-99581655D01*
X157651242Y-99612010D01*
X157727990Y-99688758D01*
X157727991Y-99688760D01*
X157788291Y-99779005D01*
X157819516Y-99854389D01*
X157831067Y-99876000D01*
X157846612Y-99894941D01*
X157865554Y-99910487D01*
X157887165Y-99922038D01*
X157910614Y-99929151D01*
X157935000Y-99931553D01*
X157959386Y-99929151D01*
X157982835Y-99922038D01*
X158004446Y-99910487D01*
X158023387Y-99894942D01*
X158038933Y-99876000D01*
X158050484Y-99854389D01*
X158081709Y-99779005D01*
X158142009Y-99688760D01*
X158142010Y-99688758D01*
X158218758Y-99612010D01*
X158264188Y-99581655D01*
X158309005Y-99551709D01*
X158384389Y-99520484D01*
X158406000Y-99508933D01*
X158424941Y-99493388D01*
X158440487Y-99474446D01*
X158452038Y-99452835D01*
X158459151Y-99429386D01*
X158461553Y-99405000D01*
X158459151Y-99380614D01*
X158452038Y-99357165D01*
X158440487Y-99335554D01*
X158424942Y-99316613D01*
X158406000Y-99301067D01*
X158384389Y-99289516D01*
X158309005Y-99258291D01*
X158248692Y-99217991D01*
X158218758Y-99197990D01*
X158142010Y-99121242D01*
X158081710Y-99030996D01*
X158081709Y-99030995D01*
X158050484Y-98955611D01*
X158038933Y-98934000D01*
X158023388Y-98915059D01*
X158004446Y-98899513D01*
X157982835Y-98887962D01*
X157959386Y-98880849D01*
X157935000Y-98878447D01*
X157910614Y-98880849D01*
X157887165Y-98887962D01*
X157865554Y-98899513D01*
X157846613Y-98915058D01*
X157831067Y-98934000D01*
X157819516Y-98955611D01*
X157788291Y-99030995D01*
X157788290Y-99030996D01*
X157727990Y-99121242D01*
X157651242Y-99197990D01*
X157621308Y-99217991D01*
X157560995Y-99258291D01*
X157485611Y-99289516D01*
X157464000Y-99301067D01*
X157445059Y-99316612D01*
X157429513Y-99335554D01*
X157417962Y-99357165D01*
X157410849Y-99380614D01*
X157408447Y-99405000D01*
X157191553Y-99405000D01*
X157189151Y-99380614D01*
X157182038Y-99357165D01*
X157170487Y-99335554D01*
X157154942Y-99316613D01*
X157136000Y-99301067D01*
X157114389Y-99289516D01*
X157039005Y-99258291D01*
X156978692Y-99217991D01*
X156948758Y-99197990D01*
X156872010Y-99121242D01*
X156811710Y-99030996D01*
X156811709Y-99030995D01*
X156770174Y-98930721D01*
X156749000Y-98824270D01*
X156749000Y-98715730D01*
X156770174Y-98609279D01*
X156811709Y-98509005D01*
X156872009Y-98418760D01*
X156872010Y-98418758D01*
X156948758Y-98342010D01*
X157000563Y-98307395D01*
X157041664Y-98279932D01*
X157060606Y-98264386D01*
X157076151Y-98245444D01*
X157087702Y-98223833D01*
X157094815Y-98200385D01*
X157097216Y-98175999D01*
X157502783Y-98175999D01*
X157505185Y-98200385D01*
X157512298Y-98223834D01*
X157523849Y-98245445D01*
X157539394Y-98264387D01*
X157558336Y-98279932D01*
X157599437Y-98307395D01*
X157651242Y-98342010D01*
X157727990Y-98418758D01*
X157727991Y-98418760D01*
X157788291Y-98509005D01*
X157819516Y-98584389D01*
X157831067Y-98606000D01*
X157846612Y-98624941D01*
X157865554Y-98640487D01*
X157887165Y-98652038D01*
X157910614Y-98659151D01*
X157935000Y-98661553D01*
X157959386Y-98659151D01*
X157982835Y-98652038D01*
X158004446Y-98640487D01*
X158023387Y-98624942D01*
X158038933Y-98606000D01*
X158050484Y-98584389D01*
X158081709Y-98509005D01*
X158142009Y-98418760D01*
X158142010Y-98418758D01*
X158218758Y-98342010D01*
X158270563Y-98307395D01*
X158309005Y-98281709D01*
X158384389Y-98250484D01*
X158406000Y-98238933D01*
X158424941Y-98223388D01*
X158440487Y-98204446D01*
X158452038Y-98182835D01*
X158459151Y-98159386D01*
X158461553Y-98135000D01*
X158459151Y-98110614D01*
X158452038Y-98087165D01*
X158440487Y-98065554D01*
X158424942Y-98046613D01*
X158406000Y-98031067D01*
X158384389Y-98019516D01*
X158309005Y-97988291D01*
X158248692Y-97947991D01*
X158218758Y-97927990D01*
X158142010Y-97851242D01*
X158121012Y-97819816D01*
X158079932Y-97758336D01*
X158064386Y-97739394D01*
X158045444Y-97723849D01*
X158023833Y-97712298D01*
X158000385Y-97705185D01*
X157975998Y-97702783D01*
X157951612Y-97705185D01*
X157928163Y-97712298D01*
X157906553Y-97723849D01*
X157887611Y-97739395D01*
X157872066Y-97758337D01*
X157860515Y-97779948D01*
X157853402Y-97803396D01*
X157851000Y-97827782D01*
X157851000Y-98051000D01*
X157627782Y-98051000D01*
X157603396Y-98053402D01*
X157579947Y-98060515D01*
X157558336Y-98072066D01*
X157539394Y-98087611D01*
X157523849Y-98106553D01*
X157512298Y-98128164D01*
X157505185Y-98151613D01*
X157502783Y-98175999D01*
X157097216Y-98175999D01*
X157097217Y-98175998D01*
X157094815Y-98151612D01*
X157087702Y-98128163D01*
X157076151Y-98106553D01*
X157060605Y-98087611D01*
X157041663Y-98072066D01*
X157020052Y-98060515D01*
X156996604Y-98053402D01*
X156972218Y-98051000D01*
X156749000Y-98051000D01*
X156749000Y-96949000D01*
X157851000Y-96949000D01*
X157851000Y-97172218D01*
G37*
G36*
X125851000Y-102951000D02*
G01*
X124249000Y-102951000D01*
X124249000Y-97849000D01*
X125851000Y-97849000D01*
X125851000Y-102951000D01*
G37*
G36*
X131751000Y-102951000D02*
G01*
X130149000Y-102951000D01*
X130149000Y-97849000D01*
X131751000Y-97849000D01*
X131751000Y-102951000D01*
G37*
G36*
X136201000Y-102926000D02*
G01*
X135299000Y-102926000D01*
X135299000Y-102074000D01*
X136201000Y-102074000D01*
X136201000Y-102926000D01*
G37*
G36*
X134701000Y-102926000D02*
G01*
X133799000Y-102926000D01*
X133799000Y-102074000D01*
X134701000Y-102074000D01*
X134701000Y-102926000D01*
G37*
G36*
X133201000Y-102926000D02*
G01*
X132299000Y-102926000D01*
X132299000Y-102074000D01*
X133201000Y-102074000D01*
X133201000Y-102926000D01*
G37*
G36*
X137701000Y-102926000D02*
G01*
X136799000Y-102926000D01*
X136799000Y-102074000D01*
X137701000Y-102074000D01*
X137701000Y-102926000D01*
G37*
G36*
X121001000Y-102626000D02*
G01*
X120099000Y-102626000D01*
X120099000Y-101774000D01*
X121001000Y-101774000D01*
X121001000Y-102626000D01*
G37*
G36*
X119501000Y-102626000D02*
G01*
X118599000Y-102626000D01*
X118599000Y-101774000D01*
X119501000Y-101774000D01*
X119501000Y-102626000D01*
G37*
G36*
X176877395Y-99655546D02*
G01*
X177050466Y-99727234D01*
X177050467Y-99727235D01*
X177206227Y-99831310D01*
X177338690Y-99963773D01*
X177366725Y-100005731D01*
X177442766Y-100119534D01*
X177514454Y-100292605D01*
X177551000Y-100476333D01*
X177551000Y-100663667D01*
X177514454Y-100847395D01*
X177442766Y-101020466D01*
X177442765Y-101020467D01*
X177338690Y-101176227D01*
X177206227Y-101308690D01*
X177127818Y-101361081D01*
X177050466Y-101412766D01*
X176877395Y-101484454D01*
X176693667Y-101521000D01*
X176506333Y-101521000D01*
X176322605Y-101484454D01*
X176149534Y-101412766D01*
X176072182Y-101361081D01*
X175993773Y-101308690D01*
X175861310Y-101176227D01*
X175757235Y-101020467D01*
X175757234Y-101020466D01*
X175685546Y-100847395D01*
X175649000Y-100663667D01*
X175649000Y-100476333D01*
X175685546Y-100292605D01*
X175757234Y-100119534D01*
X175833275Y-100005731D01*
X175861310Y-99963773D01*
X175993773Y-99831310D01*
X176149533Y-99727235D01*
X176149534Y-99727234D01*
X176322605Y-99655546D01*
X176506333Y-99619000D01*
X176693667Y-99619000D01*
X176877395Y-99655546D01*
G37*
G36*
X162551000Y-101401000D02*
G01*
X161949000Y-101401000D01*
X161949000Y-100399000D01*
X162551000Y-100399000D01*
X162551000Y-101401000D01*
G37*
G36*
X161051000Y-101401000D02*
G01*
X160449000Y-101401000D01*
X160449000Y-100399000D01*
X161051000Y-100399000D01*
X161051000Y-101401000D01*
G37*
G36*
X119501000Y-101226000D02*
G01*
X118599000Y-101226000D01*
X118599000Y-100374000D01*
X119501000Y-100374000D01*
X119501000Y-101226000D01*
G37*
G36*
X121001000Y-101226000D02*
G01*
X120099000Y-101226000D01*
X120099000Y-100374000D01*
X121001000Y-100374000D01*
X121001000Y-101226000D01*
G37*
G36*
X182476000Y-100701000D02*
G01*
X181724000Y-100701000D01*
X181724000Y-99099000D01*
X182476000Y-99099000D01*
X182476000Y-100701000D01*
G37*
G36*
X180326000Y-100701000D02*
G01*
X179574000Y-100701000D01*
X179574000Y-99099000D01*
X180326000Y-99099000D01*
X180326000Y-100701000D01*
G37*
G36*
X162551000Y-99701000D02*
G01*
X161949000Y-99701000D01*
X161949000Y-98699000D01*
X162551000Y-98699000D01*
X162551000Y-99701000D01*
G37*
G36*
X161051000Y-99701000D02*
G01*
X160449000Y-99701000D01*
X160449000Y-98699000D01*
X161051000Y-98699000D01*
X161051000Y-99701000D01*
G37*
G36*
X169257395Y-97115546D02*
G01*
X169430466Y-97187234D01*
X169430467Y-97187235D01*
X169586227Y-97291310D01*
X169718690Y-97423773D01*
X169746725Y-97465731D01*
X169822766Y-97579534D01*
X169894454Y-97752605D01*
X169931000Y-97936333D01*
X169931000Y-98123667D01*
X169894454Y-98307395D01*
X169822766Y-98480466D01*
X169822765Y-98480467D01*
X169718690Y-98636227D01*
X169586227Y-98768690D01*
X169507818Y-98821081D01*
X169430466Y-98872766D01*
X169257395Y-98944454D01*
X169073667Y-98981000D01*
X168886333Y-98981000D01*
X168702605Y-98944454D01*
X168529534Y-98872766D01*
X168452182Y-98821081D01*
X168373773Y-98768690D01*
X168241310Y-98636227D01*
X168137235Y-98480467D01*
X168137234Y-98480466D01*
X168065546Y-98307395D01*
X168029000Y-98123667D01*
X168029000Y-97936333D01*
X168065546Y-97752605D01*
X168137234Y-97579534D01*
X168213275Y-97465731D01*
X168241310Y-97423773D01*
X168373773Y-97291310D01*
X168529533Y-97187235D01*
X168529534Y-97187234D01*
X168702605Y-97115546D01*
X168886333Y-97079000D01*
X169073667Y-97079000D01*
X169257395Y-97115546D01*
G37*
G36*
X176877395Y-97115546D02*
G01*
X177050466Y-97187234D01*
X177050467Y-97187235D01*
X177206227Y-97291310D01*
X177338690Y-97423773D01*
X177366725Y-97465731D01*
X177442766Y-97579534D01*
X177514454Y-97752605D01*
X177551000Y-97936333D01*
X177551000Y-98123667D01*
X177514454Y-98307395D01*
X177442766Y-98480466D01*
X177442765Y-98480467D01*
X177338690Y-98636227D01*
X177206227Y-98768690D01*
X177127818Y-98821081D01*
X177050466Y-98872766D01*
X176877395Y-98944454D01*
X176693667Y-98981000D01*
X176506333Y-98981000D01*
X176322605Y-98944454D01*
X176149534Y-98872766D01*
X176072182Y-98821081D01*
X175993773Y-98768690D01*
X175861310Y-98636227D01*
X175757235Y-98480467D01*
X175757234Y-98480466D01*
X175685546Y-98307395D01*
X175649000Y-98123667D01*
X175649000Y-97936333D01*
X175685546Y-97752605D01*
X175757234Y-97579534D01*
X175833275Y-97465731D01*
X175861310Y-97423773D01*
X175993773Y-97291310D01*
X176149533Y-97187235D01*
X176149534Y-97187234D01*
X176322605Y-97115546D01*
X176506333Y-97079000D01*
X176693667Y-97079000D01*
X176877395Y-97115546D01*
G37*
G36*
X162551000Y-98001000D02*
G01*
X161949000Y-98001000D01*
X161949000Y-96999000D01*
X162551000Y-96999000D01*
X162551000Y-98001000D01*
G37*
G36*
X161051000Y-98001000D02*
G01*
X160449000Y-98001000D01*
X160449000Y-96999000D01*
X161051000Y-96999000D01*
X161051000Y-98001000D01*
G37*
G36*
X176877395Y-94575546D02*
G01*
X177050466Y-94647234D01*
X177050467Y-94647235D01*
X177206227Y-94751310D01*
X177338690Y-94883773D01*
X177391081Y-94962182D01*
X177442766Y-95039534D01*
X177514454Y-95212605D01*
X177551000Y-95396333D01*
X177551000Y-95583667D01*
X177514454Y-95767395D01*
X177442766Y-95940466D01*
X177442765Y-95940467D01*
X177338690Y-96096227D01*
X177206227Y-96228690D01*
X177127818Y-96281081D01*
X177050466Y-96332766D01*
X176877395Y-96404454D01*
X176693667Y-96441000D01*
X176506333Y-96441000D01*
X176322605Y-96404454D01*
X176149534Y-96332766D01*
X176072182Y-96281081D01*
X175993773Y-96228690D01*
X175861310Y-96096227D01*
X175757235Y-95940467D01*
X175757234Y-95940466D01*
X175685546Y-95767395D01*
X175649000Y-95583667D01*
X175649000Y-95396333D01*
X175685546Y-95212605D01*
X175757234Y-95039534D01*
X175808919Y-94962182D01*
X175861310Y-94883773D01*
X175993773Y-94751310D01*
X176149533Y-94647235D01*
X176149534Y-94647234D01*
X176322605Y-94575546D01*
X176506333Y-94539000D01*
X176693667Y-94539000D01*
X176877395Y-94575546D01*
G37*
G36*
X167101000Y-96026000D02*
G01*
X166199000Y-96026000D01*
X166199000Y-95174000D01*
X167101000Y-95174000D01*
X167101000Y-96026000D01*
G37*
G36*
X165601000Y-96026000D02*
G01*
X164699000Y-96026000D01*
X164699000Y-95174000D01*
X165601000Y-95174000D01*
X165601000Y-96026000D01*
G37*
G36*
X182476000Y-95951000D02*
G01*
X181724000Y-95951000D01*
X181724000Y-94249000D01*
X182476000Y-94249000D01*
X182476000Y-95951000D01*
G37*
G36*
X180326000Y-95951000D02*
G01*
X179574000Y-95951000D01*
X179574000Y-94249000D01*
X180326000Y-94249000D01*
X180326000Y-95951000D01*
G37*
G36*
X158451000Y-95926000D02*
G01*
X157549000Y-95926000D01*
X157549000Y-95074000D01*
X158451000Y-95074000D01*
X158451000Y-95926000D01*
G37*
G36*
X159951000Y-95926000D02*
G01*
X159049000Y-95926000D01*
X159049000Y-95074000D01*
X159951000Y-95074000D01*
X159951000Y-95926000D01*
G37*
G36*
X115788500Y-95551000D02*
G01*
X113886500Y-95551000D01*
X113886500Y-94249000D01*
X115788500Y-94249000D01*
X115788500Y-95551000D01*
G37*
G36*
X130913000Y-95513000D02*
G01*
X129287000Y-95513000D01*
X129287000Y-93887000D01*
X130913000Y-93887000D01*
X130913000Y-95513000D01*
G37*
G36*
X121837142Y-93918242D02*
G01*
X121985101Y-93979529D01*
X122118255Y-94068499D01*
X122231501Y-94181745D01*
X122320471Y-94314899D01*
X122381758Y-94462858D01*
X122413000Y-94619925D01*
X122413000Y-94780075D01*
X122381758Y-94937142D01*
X122320471Y-95085101D01*
X122231501Y-95218255D01*
X122118255Y-95331501D01*
X121985101Y-95420471D01*
X121837142Y-95481758D01*
X121680075Y-95513000D01*
X121519925Y-95513000D01*
X121362858Y-95481758D01*
X121214899Y-95420471D01*
X121081745Y-95331501D01*
X120968499Y-95218255D01*
X120879529Y-95085101D01*
X120818242Y-94937142D01*
X120787000Y-94780075D01*
X120787000Y-94619925D01*
X120818242Y-94462858D01*
X120879529Y-94314899D01*
X120968499Y-94181745D01*
X121081745Y-94068499D01*
X121214899Y-93979529D01*
X121362858Y-93918242D01*
X121519925Y-93887000D01*
X121680075Y-93887000D01*
X121837142Y-93918242D01*
G37*
G36*
X124413000Y-95513000D02*
G01*
X122787000Y-95513000D01*
X122787000Y-93887000D01*
X124413000Y-93887000D01*
X124413000Y-95513000D01*
G37*
G36*
X128337142Y-93918242D02*
G01*
X128485101Y-93979529D01*
X128618255Y-94068499D01*
X128731501Y-94181745D01*
X128820471Y-94314899D01*
X128881758Y-94462858D01*
X128913000Y-94619925D01*
X128913000Y-94780075D01*
X128881758Y-94937142D01*
X128820471Y-95085101D01*
X128731501Y-95218255D01*
X128618255Y-95331501D01*
X128485101Y-95420471D01*
X128337142Y-95481758D01*
X128180075Y-95513000D01*
X128019925Y-95513000D01*
X127862858Y-95481758D01*
X127714899Y-95420471D01*
X127581745Y-95331501D01*
X127468499Y-95218255D01*
X127379529Y-95085101D01*
X127318242Y-94937142D01*
X127287000Y-94780075D01*
X127287000Y-94619925D01*
X127318242Y-94462858D01*
X127379529Y-94314899D01*
X127468499Y-94181745D01*
X127581745Y-94068499D01*
X127714899Y-93979529D01*
X127862858Y-93918242D01*
X128019925Y-93887000D01*
X128180075Y-93887000D01*
X128337142Y-93918242D01*
G37*
G36*
X157951000Y-94313500D02*
G01*
X156649000Y-94313500D01*
X156649000Y-92411500D01*
X157951000Y-92411500D01*
X157951000Y-94313500D01*
G37*
G36*
X165551000Y-94313500D02*
G01*
X164249000Y-94313500D01*
X164249000Y-92411500D01*
X165551000Y-92411500D01*
X165551000Y-94313500D01*
G37*
G36*
X118188500Y-93951000D02*
G01*
X116536500Y-93951000D01*
X116536500Y-93249000D01*
X118188500Y-93249000D01*
X118188500Y-93951000D01*
G37*
G36*
X118188500Y-92951000D02*
G01*
X116536500Y-92951000D01*
X116536500Y-92249000D01*
X118188500Y-92249000D01*
X118188500Y-92951000D01*
G37*
G36*
X115788500Y-91951000D02*
G01*
X113886500Y-91951000D01*
X113886500Y-90649000D01*
X115788500Y-90649000D01*
X115788500Y-91951000D01*
G37*
G36*
X160951000Y-91663500D02*
G01*
X160249000Y-91663500D01*
X160249000Y-90011500D01*
X160951000Y-90011500D01*
X160951000Y-91663500D01*
G37*
G36*
X161951000Y-91663500D02*
G01*
X161249000Y-91663500D01*
X161249000Y-90011500D01*
X161951000Y-90011500D01*
X161951000Y-91663500D01*
G37*
G36*
X162951000Y-91663500D02*
G01*
X162249000Y-91663500D01*
X162249000Y-90011500D01*
X162951000Y-90011500D01*
X162951000Y-91663500D01*
G37*
G36*
X163951000Y-91663500D02*
G01*
X163249000Y-91663500D01*
X163249000Y-90011500D01*
X163951000Y-90011500D01*
X163951000Y-91663500D01*
G37*
G36*
X158951000Y-91663500D02*
G01*
X158249000Y-91663500D01*
X158249000Y-90011500D01*
X158951000Y-90011500D01*
X158951000Y-91663500D01*
G37*
G36*
X159951000Y-91663500D02*
G01*
X159249000Y-91663500D01*
X159249000Y-90011500D01*
X159951000Y-90011500D01*
X159951000Y-91663500D01*
G37*
G36*
X158151000Y-77201000D02*
G01*
X157549000Y-77201000D01*
X157549000Y-76199000D01*
X158151000Y-76199000D01*
X158151000Y-77201000D01*
G37*
G36*
X156651000Y-77201000D02*
G01*
X156049000Y-77201000D01*
X156049000Y-76199000D01*
X156651000Y-76199000D01*
X156651000Y-77201000D01*
G37*
G36*
X160851000Y-77201000D02*
G01*
X160249000Y-77201000D01*
X160249000Y-76199000D01*
X160851000Y-76199000D01*
X160851000Y-77201000D01*
G37*
G36*
X159351000Y-77201000D02*
G01*
X158749000Y-77201000D01*
X158749000Y-76199000D01*
X159351000Y-76199000D01*
X159351000Y-77201000D01*
G37*
G36*
X163551000Y-77201000D02*
G01*
X162949000Y-77201000D01*
X162949000Y-76199000D01*
X163551000Y-76199000D01*
X163551000Y-77201000D01*
G37*
G36*
X162051000Y-77201000D02*
G01*
X161449000Y-77201000D01*
X161449000Y-76199000D01*
X162051000Y-76199000D01*
X162051000Y-77201000D01*
G37*
G36*
X166251000Y-77201000D02*
G01*
X165649000Y-77201000D01*
X165649000Y-76199000D01*
X166251000Y-76199000D01*
X166251000Y-77201000D01*
G37*
G36*
X168951000Y-77201000D02*
G01*
X168349000Y-77201000D01*
X168349000Y-76199000D01*
X168951000Y-76199000D01*
X168951000Y-77201000D01*
G37*
G36*
X164751000Y-77201000D02*
G01*
X164149000Y-77201000D01*
X164149000Y-76199000D01*
X164751000Y-76199000D01*
X164751000Y-77201000D01*
G37*
G36*
X167451000Y-77201000D02*
G01*
X166849000Y-77201000D01*
X166849000Y-76199000D01*
X167451000Y-76199000D01*
X167451000Y-77201000D01*
G37*
G36*
X172851000Y-77201000D02*
G01*
X172249000Y-77201000D01*
X172249000Y-76199000D01*
X172851000Y-76199000D01*
X172851000Y-77201000D01*
G37*
G36*
X170151000Y-77201000D02*
G01*
X169549000Y-77201000D01*
X169549000Y-76199000D01*
X170151000Y-76199000D01*
X170151000Y-77201000D01*
G37*
G36*
X171651000Y-77201000D02*
G01*
X171049000Y-77201000D01*
X171049000Y-76199000D01*
X171651000Y-76199000D01*
X171651000Y-77201000D01*
G37*
G36*
X174351000Y-77201000D02*
G01*
X173749000Y-77201000D01*
X173749000Y-76199000D01*
X174351000Y-76199000D01*
X174351000Y-77201000D01*
G37*
G36*
X125782695Y-74811790D02*
G01*
X124755976Y-75838509D01*
X123976745Y-75059278D01*
X125003464Y-74032559D01*
X125782695Y-74811790D01*
G37*
G36*
X130679410Y-74193071D02*
G01*
X129193071Y-75679410D01*
X127848154Y-74334493D01*
X129334493Y-72848154D01*
X130679410Y-74193071D01*
G37*
G36*
X162051000Y-75601000D02*
G01*
X161449000Y-75601000D01*
X161449000Y-74599000D01*
X162051000Y-74599000D01*
X162051000Y-75601000D01*
G37*
G36*
X158151000Y-75601000D02*
G01*
X157549000Y-75601000D01*
X157549000Y-74599000D01*
X158151000Y-74599000D01*
X158151000Y-75601000D01*
G37*
G36*
X156651000Y-75601000D02*
G01*
X156049000Y-75601000D01*
X156049000Y-74599000D01*
X156651000Y-74599000D01*
X156651000Y-75601000D01*
G37*
G36*
X171651000Y-75601000D02*
G01*
X171049000Y-75601000D01*
X171049000Y-74599000D01*
X171651000Y-74599000D01*
X171651000Y-75601000D01*
G37*
G36*
X170151000Y-75601000D02*
G01*
X169549000Y-75601000D01*
X169549000Y-74599000D01*
X170151000Y-74599000D01*
X170151000Y-75601000D01*
G37*
G36*
X163551000Y-75601000D02*
G01*
X162949000Y-75601000D01*
X162949000Y-74599000D01*
X163551000Y-74599000D01*
X163551000Y-75601000D01*
G37*
G36*
X174351000Y-75601000D02*
G01*
X173749000Y-75601000D01*
X173749000Y-74599000D01*
X174351000Y-74599000D01*
X174351000Y-75601000D01*
G37*
G36*
X166251000Y-75601000D02*
G01*
X165649000Y-75601000D01*
X165649000Y-74599000D01*
X166251000Y-74599000D01*
X166251000Y-75601000D01*
G37*
G36*
X164751000Y-75601000D02*
G01*
X164149000Y-75601000D01*
X164149000Y-74599000D01*
X164751000Y-74599000D01*
X164751000Y-75601000D01*
G37*
G36*
X168951000Y-75601000D02*
G01*
X168349000Y-75601000D01*
X168349000Y-74599000D01*
X168951000Y-74599000D01*
X168951000Y-75601000D01*
G37*
G36*
X167451000Y-75601000D02*
G01*
X166849000Y-75601000D01*
X166849000Y-74599000D01*
X167451000Y-74599000D01*
X167451000Y-75601000D01*
G37*
G36*
X159351000Y-75601000D02*
G01*
X158749000Y-75601000D01*
X158749000Y-74599000D01*
X159351000Y-74599000D01*
X159351000Y-75601000D01*
G37*
G36*
X160851000Y-75601000D02*
G01*
X160249000Y-75601000D01*
X160249000Y-74599000D01*
X160851000Y-74599000D01*
X160851000Y-75601000D01*
G37*
G36*
X172851000Y-75601000D02*
G01*
X172249000Y-75601000D01*
X172249000Y-74599000D01*
X172851000Y-74599000D01*
X172851000Y-75601000D01*
G37*
G36*
X124775068Y-73804163D02*
G01*
X123748349Y-74830882D01*
X122969118Y-74051651D01*
X123995837Y-73024932D01*
X124775068Y-73804163D01*
G37*
G36*
X118801000Y-74826000D02*
G01*
X117899000Y-74826000D01*
X117899000Y-73974000D01*
X118801000Y-73974000D01*
X118801000Y-74826000D01*
G37*
G36*
X120301000Y-74826000D02*
G01*
X119399000Y-74826000D01*
X119399000Y-73974000D01*
X120301000Y-73974000D01*
X120301000Y-74826000D01*
G37*
G36*
X108788500Y-74151000D02*
G01*
X106886500Y-74151000D01*
X106886500Y-72849000D01*
X108788500Y-72849000D01*
X108788500Y-74151000D01*
G37*
G36*
X182113500Y-74151000D02*
G01*
X180211500Y-74151000D01*
X180211500Y-72849000D01*
X182113500Y-72849000D01*
X182113500Y-74151000D01*
G37*
G36*
X123767441Y-72796536D02*
G01*
X122740722Y-73823255D01*
X121961491Y-73044024D01*
X122988210Y-72017305D01*
X123767441Y-72796536D01*
G37*
G36*
X176351000Y-73801000D02*
G01*
X175749000Y-73801000D01*
X175749000Y-72799000D01*
X176351000Y-72799000D01*
X176351000Y-73801000D01*
G37*
G36*
X174851000Y-73801000D02*
G01*
X174249000Y-73801000D01*
X174249000Y-72799000D01*
X174851000Y-72799000D01*
X174851000Y-73801000D01*
G37*
G36*
X120301000Y-73026000D02*
G01*
X119399000Y-73026000D01*
X119399000Y-72174000D01*
X120301000Y-72174000D01*
X120301000Y-73026000D01*
G37*
G36*
X118801000Y-73026000D02*
G01*
X117899000Y-73026000D01*
X117899000Y-72174000D01*
X118801000Y-72174000D01*
X118801000Y-73026000D01*
G37*
G36*
X179463500Y-72551000D02*
G01*
X177811500Y-72551000D01*
X177811500Y-71849000D01*
X179463500Y-71849000D01*
X179463500Y-72551000D01*
G37*
G36*
X111188500Y-72551000D02*
G01*
X109536500Y-72551000D01*
X109536500Y-71849000D01*
X111188500Y-71849000D01*
X111188500Y-72551000D01*
G37*
G36*
X174851000Y-72201000D02*
G01*
X174249000Y-72201000D01*
X174249000Y-71199000D01*
X174851000Y-71199000D01*
X174851000Y-72201000D01*
G37*
G36*
X176351000Y-72201000D02*
G01*
X175749000Y-72201000D01*
X175749000Y-71199000D01*
X176351000Y-71199000D01*
X176351000Y-72201000D01*
G37*
G36*
X111188500Y-71551000D02*
G01*
X109536500Y-71551000D01*
X109536500Y-70849000D01*
X111188500Y-70849000D01*
X111188500Y-71551000D01*
G37*
G36*
X179463500Y-71551000D02*
G01*
X177811500Y-71551000D01*
X177811500Y-70849000D01*
X179463500Y-70849000D01*
X179463500Y-71551000D01*
G37*
G36*
X118801000Y-71326000D02*
G01*
X117899000Y-71326000D01*
X117899000Y-70474000D01*
X118801000Y-70474000D01*
X118801000Y-71326000D01*
G37*
G36*
X120301000Y-71326000D02*
G01*
X119399000Y-71326000D01*
X119399000Y-70474000D01*
X120301000Y-70474000D01*
X120301000Y-71326000D01*
G37*
G36*
X130838509Y-69755976D02*
G01*
X129811790Y-70782695D01*
X129032559Y-70003464D01*
X130059278Y-68976745D01*
X130838509Y-69755976D01*
G37*
G36*
X175251000Y-70601000D02*
G01*
X174349000Y-70601000D01*
X174349000Y-69599000D01*
X175251000Y-69599000D01*
X175251000Y-70601000D01*
G37*
G36*
X168851000Y-70551000D02*
G01*
X159949000Y-70551000D01*
X159949000Y-69449000D01*
X168851000Y-69449000D01*
X168851000Y-70551000D01*
G37*
G36*
X179463500Y-70551000D02*
G01*
X177811500Y-70551000D01*
X177811500Y-69849000D01*
X179463500Y-69849000D01*
X179463500Y-70551000D01*
G37*
G36*
X111188500Y-70551000D02*
G01*
X109536500Y-70551000D01*
X109536500Y-69849000D01*
X111188500Y-69849000D01*
X111188500Y-70551000D01*
G37*
G36*
X124951846Y-68465507D02*
G01*
X123465507Y-69951846D01*
X122120590Y-68606929D01*
X123606929Y-67120590D01*
X124951846Y-68465507D01*
G37*
G36*
X129830882Y-68748349D02*
G01*
X128804163Y-69775068D01*
X128024932Y-68995837D01*
X129051651Y-67969118D01*
X129830882Y-68748349D01*
G37*
G36*
X118801000Y-69626000D02*
G01*
X117899000Y-69626000D01*
X117899000Y-68774000D01*
X118801000Y-68774000D01*
X118801000Y-69626000D01*
G37*
G36*
X120301000Y-69626000D02*
G01*
X119399000Y-69626000D01*
X119399000Y-68774000D01*
X120301000Y-68774000D01*
X120301000Y-69626000D01*
G37*
G36*
X182113500Y-69551000D02*
G01*
X180211500Y-69551000D01*
X180211500Y-68249000D01*
X182113500Y-68249000D01*
X182113500Y-69551000D01*
G37*
G36*
X108788500Y-69551000D02*
G01*
X106886500Y-69551000D01*
X106886500Y-68249000D01*
X108788500Y-68249000D01*
X108788500Y-69551000D01*
G37*
G36*
X128823255Y-67740722D02*
G01*
X127796536Y-68767441D01*
X127017305Y-67988210D01*
X128044024Y-66961491D01*
X128823255Y-67740722D01*
G37*
G36*
X176201000Y-68601000D02*
G01*
X175299000Y-68601000D01*
X175299000Y-67599000D01*
X176201000Y-67599000D01*
X176201000Y-68601000D01*
G37*
G36*
X174301000Y-68601000D02*
G01*
X173399000Y-68601000D01*
X173399000Y-67599000D01*
X174301000Y-67599000D01*
X174301000Y-68601000D01*
G37*
G36*
X172001000Y-68001000D02*
G01*
X169899000Y-68001000D01*
X169899000Y-66599000D01*
X172001000Y-66599000D01*
X172001000Y-68001000D01*
G37*
G36*
X158901000Y-68001000D02*
G01*
X156799000Y-68001000D01*
X156799000Y-66599000D01*
X158901000Y-66599000D01*
X158901000Y-68001000D01*
G37*
G36*
X118801000Y-67926000D02*
G01*
X117899000Y-67926000D01*
X117899000Y-67074000D01*
X118801000Y-67074000D01*
X118801000Y-67926000D01*
G37*
G36*
X120301000Y-67926000D02*
G01*
X119399000Y-67926000D01*
X119399000Y-67074000D01*
X120301000Y-67074000D01*
X120301000Y-67926000D01*
G37*
M02*
