G04 #@! TF.GenerationSoftware,KiCad,Pcbnew,(5.1.6)-1*
G04 #@! TF.CreationDate,2021-05-13T14:40:21+09:00*
G04 #@! TF.ProjectId,MainBoard_v1,4d61696e-426f-4617-9264-5f76312e6b69,rev?*
G04 #@! TF.SameCoordinates,Original*
G04 #@! TF.FileFunction,Soldermask,Bot*
G04 #@! TF.FilePolarity,Negative*
%FSLAX46Y46*%
G04 Gerber Fmt 4.6, Leading zero omitted, Abs format (unit mm)*
G04 Created by KiCad (PCBNEW (5.1.6)-1) date 2021-05-13 14:40:21*
%MOMM*%
%LPD*%
G01*
G04 APERTURE LIST*
%ADD10C,0.100000*%
G04 APERTURE END LIST*
D10*
G36*
X104825500Y-127129993D02*
G01*
X104831934Y-127132658D01*
X104853894Y-127141754D01*
X104866669Y-127150290D01*
X104879442Y-127158825D01*
X104901175Y-127180558D01*
X104909709Y-127193331D01*
X104918246Y-127206106D01*
X104927342Y-127228066D01*
X104930007Y-127234500D01*
X104936000Y-127264633D01*
X104936000Y-127295367D01*
X104930007Y-127325500D01*
X104930005Y-127325504D01*
X104918246Y-127353894D01*
X104909709Y-127366669D01*
X104901175Y-127379442D01*
X104879442Y-127401175D01*
X104866669Y-127409710D01*
X104853894Y-127418246D01*
X104831934Y-127427342D01*
X104825500Y-127430007D01*
X104795367Y-127436000D01*
X104764633Y-127436000D01*
X104734500Y-127430007D01*
X104728066Y-127427342D01*
X104706106Y-127418246D01*
X104693331Y-127409709D01*
X104680558Y-127401175D01*
X104658825Y-127379442D01*
X104650291Y-127366669D01*
X104641754Y-127353894D01*
X104629995Y-127325504D01*
X104629993Y-127325500D01*
X104624000Y-127295367D01*
X104624000Y-127264633D01*
X104629993Y-127234500D01*
X104632658Y-127228066D01*
X104641754Y-127206106D01*
X104650291Y-127193331D01*
X104658825Y-127180558D01*
X104680558Y-127158825D01*
X104693331Y-127150290D01*
X104706106Y-127141754D01*
X104728066Y-127132658D01*
X104734500Y-127129993D01*
X104764633Y-127124000D01*
X104795367Y-127124000D01*
X104825500Y-127129993D01*
G37*
G36*
X103665500Y-127129993D02*
G01*
X103671934Y-127132658D01*
X103693894Y-127141754D01*
X103706669Y-127150290D01*
X103719442Y-127158825D01*
X103741175Y-127180558D01*
X103749709Y-127193331D01*
X103758246Y-127206106D01*
X103767342Y-127228066D01*
X103770007Y-127234500D01*
X103776000Y-127264633D01*
X103776000Y-127295367D01*
X103770007Y-127325500D01*
X103770005Y-127325504D01*
X103758246Y-127353894D01*
X103749709Y-127366669D01*
X103741175Y-127379442D01*
X103719442Y-127401175D01*
X103706669Y-127409710D01*
X103693894Y-127418246D01*
X103671934Y-127427342D01*
X103665500Y-127430007D01*
X103635367Y-127436000D01*
X103604633Y-127436000D01*
X103574500Y-127430007D01*
X103568066Y-127427342D01*
X103546106Y-127418246D01*
X103533331Y-127409709D01*
X103520558Y-127401175D01*
X103498825Y-127379442D01*
X103490291Y-127366669D01*
X103481754Y-127353894D01*
X103469995Y-127325504D01*
X103469993Y-127325500D01*
X103464000Y-127295367D01*
X103464000Y-127264633D01*
X103469993Y-127234500D01*
X103472658Y-127228066D01*
X103481754Y-127206106D01*
X103490291Y-127193331D01*
X103498825Y-127180558D01*
X103520558Y-127158825D01*
X103533331Y-127150290D01*
X103546106Y-127141754D01*
X103568066Y-127132658D01*
X103574500Y-127129993D01*
X103604633Y-127124000D01*
X103635367Y-127124000D01*
X103665500Y-127129993D01*
G37*
G36*
X104245500Y-126549993D02*
G01*
X104251934Y-126552658D01*
X104273894Y-126561754D01*
X104286669Y-126570291D01*
X104299442Y-126578825D01*
X104321175Y-126600558D01*
X104329710Y-126613331D01*
X104338246Y-126626106D01*
X104347342Y-126648066D01*
X104350007Y-126654500D01*
X104356000Y-126684633D01*
X104356000Y-126715367D01*
X104350007Y-126745500D01*
X104350005Y-126745504D01*
X104338246Y-126773894D01*
X104329709Y-126786669D01*
X104321175Y-126799442D01*
X104299442Y-126821175D01*
X104286669Y-126829710D01*
X104273894Y-126838246D01*
X104251934Y-126847342D01*
X104245500Y-126850007D01*
X104215367Y-126856000D01*
X104184633Y-126856000D01*
X104154500Y-126850007D01*
X104148066Y-126847342D01*
X104126106Y-126838246D01*
X104113331Y-126829709D01*
X104100558Y-126821175D01*
X104078825Y-126799442D01*
X104070290Y-126786669D01*
X104061754Y-126773894D01*
X104049995Y-126745504D01*
X104049993Y-126745500D01*
X104044000Y-126715367D01*
X104044000Y-126684633D01*
X104049993Y-126654500D01*
X104052658Y-126648066D01*
X104061754Y-126626106D01*
X104070290Y-126613331D01*
X104078825Y-126600558D01*
X104100558Y-126578825D01*
X104113331Y-126570291D01*
X104126106Y-126561754D01*
X104148066Y-126552658D01*
X104154500Y-126549993D01*
X104184633Y-126544000D01*
X104215367Y-126544000D01*
X104245500Y-126549993D01*
G37*
G36*
X103665500Y-125969993D02*
G01*
X103671934Y-125972658D01*
X103693894Y-125981754D01*
X103706669Y-125990290D01*
X103719442Y-125998825D01*
X103741175Y-126020558D01*
X103749710Y-126033331D01*
X103758246Y-126046106D01*
X103767342Y-126068066D01*
X103770007Y-126074500D01*
X103776000Y-126104633D01*
X103776000Y-126135367D01*
X103770007Y-126165500D01*
X103770005Y-126165504D01*
X103758246Y-126193894D01*
X103749709Y-126206669D01*
X103741175Y-126219442D01*
X103719442Y-126241175D01*
X103706669Y-126249710D01*
X103693894Y-126258246D01*
X103671934Y-126267342D01*
X103665500Y-126270007D01*
X103635367Y-126276000D01*
X103604633Y-126276000D01*
X103574500Y-126270007D01*
X103568066Y-126267342D01*
X103546106Y-126258246D01*
X103533331Y-126249710D01*
X103520558Y-126241175D01*
X103498825Y-126219442D01*
X103490290Y-126206669D01*
X103481754Y-126193894D01*
X103469995Y-126165504D01*
X103469993Y-126165500D01*
X103464000Y-126135367D01*
X103464000Y-126104633D01*
X103469993Y-126074500D01*
X103472658Y-126068066D01*
X103481754Y-126046106D01*
X103490290Y-126033331D01*
X103498825Y-126020558D01*
X103520558Y-125998825D01*
X103533331Y-125990290D01*
X103546106Y-125981754D01*
X103568066Y-125972658D01*
X103574500Y-125969993D01*
X103604633Y-125964000D01*
X103635367Y-125964000D01*
X103665500Y-125969993D01*
G37*
G36*
X104825500Y-125969993D02*
G01*
X104831934Y-125972658D01*
X104853894Y-125981754D01*
X104866669Y-125990290D01*
X104879442Y-125998825D01*
X104901175Y-126020558D01*
X104909710Y-126033331D01*
X104918246Y-126046106D01*
X104927342Y-126068066D01*
X104930007Y-126074500D01*
X104936000Y-126104633D01*
X104936000Y-126135367D01*
X104930007Y-126165500D01*
X104930005Y-126165504D01*
X104918246Y-126193894D01*
X104909709Y-126206669D01*
X104901175Y-126219442D01*
X104879442Y-126241175D01*
X104866669Y-126249710D01*
X104853894Y-126258246D01*
X104831934Y-126267342D01*
X104825500Y-126270007D01*
X104795367Y-126276000D01*
X104764633Y-126276000D01*
X104734500Y-126270007D01*
X104728066Y-126267342D01*
X104706106Y-126258246D01*
X104693331Y-126249710D01*
X104680558Y-126241175D01*
X104658825Y-126219442D01*
X104650290Y-126206669D01*
X104641754Y-126193894D01*
X104629995Y-126165504D01*
X104629993Y-126165500D01*
X104624000Y-126135367D01*
X104624000Y-126104633D01*
X104629993Y-126074500D01*
X104632658Y-126068066D01*
X104641754Y-126046106D01*
X104650290Y-126033331D01*
X104658825Y-126020558D01*
X104680558Y-125998825D01*
X104693331Y-125990290D01*
X104706106Y-125981754D01*
X104728066Y-125972658D01*
X104734500Y-125969993D01*
X104764633Y-125964000D01*
X104795367Y-125964000D01*
X104825500Y-125969993D01*
G37*
G36*
X93451000Y-121551000D02*
G01*
X91349000Y-121551000D01*
X91349000Y-119449000D01*
X93451000Y-119449000D01*
X93451000Y-121551000D01*
G37*
G36*
X92706564Y-116989389D02*
G01*
X92897833Y-117068615D01*
X92897835Y-117068616D01*
X93069973Y-117183635D01*
X93216365Y-117330027D01*
X93331385Y-117502167D01*
X93410611Y-117693436D01*
X93451000Y-117896484D01*
X93451000Y-118103516D01*
X93410611Y-118306564D01*
X93331385Y-118497833D01*
X93331384Y-118497835D01*
X93216365Y-118669973D01*
X93069973Y-118816365D01*
X92897835Y-118931384D01*
X92897834Y-118931385D01*
X92897833Y-118931385D01*
X92706564Y-119010611D01*
X92503516Y-119051000D01*
X92296484Y-119051000D01*
X92093436Y-119010611D01*
X91902167Y-118931385D01*
X91902166Y-118931385D01*
X91902165Y-118931384D01*
X91730027Y-118816365D01*
X91583635Y-118669973D01*
X91468616Y-118497835D01*
X91468615Y-118497833D01*
X91389389Y-118306564D01*
X91349000Y-118103516D01*
X91349000Y-117896484D01*
X91389389Y-117693436D01*
X91468615Y-117502167D01*
X91583635Y-117330027D01*
X91730027Y-117183635D01*
X91902165Y-117068616D01*
X91902167Y-117068615D01*
X92093436Y-116989389D01*
X92296484Y-116949000D01*
X92503516Y-116949000D01*
X92706564Y-116989389D01*
G37*
G36*
X117595500Y-113899993D02*
G01*
X117601934Y-113902658D01*
X117623894Y-113911754D01*
X117636669Y-113920290D01*
X117649442Y-113928825D01*
X117671175Y-113950558D01*
X117679710Y-113963331D01*
X117688246Y-113976106D01*
X117697342Y-113998066D01*
X117700007Y-114004500D01*
X117706000Y-114034633D01*
X117706000Y-114065367D01*
X117700007Y-114095500D01*
X117700005Y-114095504D01*
X117688246Y-114123894D01*
X117679710Y-114136669D01*
X117671175Y-114149442D01*
X117649442Y-114171175D01*
X117636669Y-114179710D01*
X117623894Y-114188246D01*
X117601934Y-114197342D01*
X117595500Y-114200007D01*
X117565367Y-114206000D01*
X117534633Y-114206000D01*
X117504500Y-114200007D01*
X117498066Y-114197342D01*
X117476106Y-114188246D01*
X117463331Y-114179710D01*
X117450558Y-114171175D01*
X117428825Y-114149442D01*
X117420290Y-114136669D01*
X117411754Y-114123894D01*
X117399995Y-114095504D01*
X117399993Y-114095500D01*
X117394000Y-114065367D01*
X117394000Y-114034633D01*
X117399993Y-114004500D01*
X117402658Y-113998066D01*
X117411754Y-113976106D01*
X117420291Y-113963331D01*
X117428825Y-113950558D01*
X117450558Y-113928825D01*
X117463331Y-113920291D01*
X117476106Y-113911754D01*
X117498066Y-113902658D01*
X117504500Y-113899993D01*
X117534633Y-113894000D01*
X117565367Y-113894000D01*
X117595500Y-113899993D01*
G37*
G36*
X132495500Y-113899993D02*
G01*
X132501934Y-113902658D01*
X132523894Y-113911754D01*
X132536669Y-113920290D01*
X132549442Y-113928825D01*
X132571175Y-113950558D01*
X132579710Y-113963331D01*
X132588246Y-113976106D01*
X132597342Y-113998066D01*
X132600007Y-114004500D01*
X132606000Y-114034633D01*
X132606000Y-114065367D01*
X132600007Y-114095500D01*
X132600005Y-114095504D01*
X132588246Y-114123894D01*
X132579710Y-114136669D01*
X132571175Y-114149442D01*
X132549442Y-114171175D01*
X132536669Y-114179710D01*
X132523894Y-114188246D01*
X132501934Y-114197342D01*
X132495500Y-114200007D01*
X132465367Y-114206000D01*
X132434633Y-114206000D01*
X132404500Y-114200007D01*
X132398066Y-114197342D01*
X132376106Y-114188246D01*
X132363331Y-114179710D01*
X132350558Y-114171175D01*
X132328825Y-114149442D01*
X132320290Y-114136669D01*
X132311754Y-114123894D01*
X132299995Y-114095504D01*
X132299993Y-114095500D01*
X132294000Y-114065367D01*
X132294000Y-114034633D01*
X132299993Y-114004500D01*
X132302658Y-113998066D01*
X132311754Y-113976106D01*
X132320291Y-113963331D01*
X132328825Y-113950558D01*
X132350558Y-113928825D01*
X132363331Y-113920291D01*
X132376106Y-113911754D01*
X132398066Y-113902658D01*
X132404500Y-113899993D01*
X132434633Y-113894000D01*
X132465367Y-113894000D01*
X132495500Y-113899993D01*
G37*
G36*
X134795500Y-113899993D02*
G01*
X134801934Y-113902658D01*
X134823894Y-113911754D01*
X134836669Y-113920290D01*
X134849442Y-113928825D01*
X134871175Y-113950558D01*
X134879710Y-113963331D01*
X134888246Y-113976106D01*
X134897342Y-113998066D01*
X134900007Y-114004500D01*
X134906000Y-114034633D01*
X134906000Y-114065367D01*
X134900007Y-114095500D01*
X134900005Y-114095504D01*
X134888246Y-114123894D01*
X134879710Y-114136669D01*
X134871175Y-114149442D01*
X134849442Y-114171175D01*
X134836669Y-114179710D01*
X134823894Y-114188246D01*
X134801934Y-114197342D01*
X134795500Y-114200007D01*
X134765367Y-114206000D01*
X134734633Y-114206000D01*
X134704500Y-114200007D01*
X134698066Y-114197342D01*
X134676106Y-114188246D01*
X134663331Y-114179710D01*
X134650558Y-114171175D01*
X134628825Y-114149442D01*
X134620290Y-114136669D01*
X134611754Y-114123894D01*
X134599995Y-114095504D01*
X134599993Y-114095500D01*
X134594000Y-114065367D01*
X134594000Y-114034633D01*
X134599993Y-114004500D01*
X134602658Y-113998066D01*
X134611754Y-113976106D01*
X134620291Y-113963331D01*
X134628825Y-113950558D01*
X134650558Y-113928825D01*
X134663331Y-113920291D01*
X134676106Y-113911754D01*
X134698066Y-113902658D01*
X134704500Y-113899993D01*
X134734633Y-113894000D01*
X134765367Y-113894000D01*
X134795500Y-113899993D01*
G37*
G36*
X115295500Y-113899993D02*
G01*
X115301934Y-113902658D01*
X115323894Y-113911754D01*
X115336669Y-113920290D01*
X115349442Y-113928825D01*
X115371175Y-113950558D01*
X115379710Y-113963331D01*
X115388246Y-113976106D01*
X115397342Y-113998066D01*
X115400007Y-114004500D01*
X115406000Y-114034633D01*
X115406000Y-114065367D01*
X115400007Y-114095500D01*
X115400005Y-114095504D01*
X115388246Y-114123894D01*
X115379710Y-114136669D01*
X115371175Y-114149442D01*
X115349442Y-114171175D01*
X115336669Y-114179710D01*
X115323894Y-114188246D01*
X115301934Y-114197342D01*
X115295500Y-114200007D01*
X115265367Y-114206000D01*
X115234633Y-114206000D01*
X115204500Y-114200007D01*
X115198066Y-114197342D01*
X115176106Y-114188246D01*
X115163331Y-114179710D01*
X115150558Y-114171175D01*
X115128825Y-114149442D01*
X115120290Y-114136669D01*
X115111754Y-114123894D01*
X115099995Y-114095504D01*
X115099993Y-114095500D01*
X115094000Y-114065367D01*
X115094000Y-114034633D01*
X115099993Y-114004500D01*
X115102658Y-113998066D01*
X115111754Y-113976106D01*
X115120291Y-113963331D01*
X115128825Y-113950558D01*
X115150558Y-113928825D01*
X115163331Y-113920291D01*
X115176106Y-113911754D01*
X115198066Y-113902658D01*
X115204500Y-113899993D01*
X115234633Y-113894000D01*
X115265367Y-113894000D01*
X115295500Y-113899993D01*
G37*
G36*
X116445500Y-112749993D02*
G01*
X116451934Y-112752658D01*
X116473894Y-112761754D01*
X116486669Y-112770291D01*
X116499442Y-112778825D01*
X116521175Y-112800558D01*
X116529710Y-112813331D01*
X116538246Y-112826106D01*
X116547342Y-112848066D01*
X116550007Y-112854500D01*
X116556000Y-112884633D01*
X116556000Y-112915367D01*
X116550007Y-112945500D01*
X116550005Y-112945504D01*
X116538246Y-112973894D01*
X116529709Y-112986669D01*
X116521175Y-112999442D01*
X116499442Y-113021175D01*
X116486669Y-113029709D01*
X116473894Y-113038246D01*
X116451934Y-113047342D01*
X116445500Y-113050007D01*
X116415367Y-113056000D01*
X116384633Y-113056000D01*
X116354500Y-113050007D01*
X116348066Y-113047342D01*
X116326106Y-113038246D01*
X116313331Y-113029709D01*
X116300558Y-113021175D01*
X116278825Y-112999442D01*
X116270291Y-112986669D01*
X116261754Y-112973894D01*
X116249995Y-112945504D01*
X116249993Y-112945500D01*
X116244000Y-112915367D01*
X116244000Y-112884633D01*
X116249993Y-112854500D01*
X116252658Y-112848066D01*
X116261754Y-112826106D01*
X116270290Y-112813331D01*
X116278825Y-112800558D01*
X116300558Y-112778825D01*
X116313331Y-112770291D01*
X116326106Y-112761754D01*
X116348066Y-112752658D01*
X116354500Y-112749993D01*
X116384633Y-112744000D01*
X116415367Y-112744000D01*
X116445500Y-112749993D01*
G37*
G36*
X133645500Y-112749993D02*
G01*
X133651934Y-112752658D01*
X133673894Y-112761754D01*
X133686669Y-112770291D01*
X133699442Y-112778825D01*
X133721175Y-112800558D01*
X133729710Y-112813331D01*
X133738246Y-112826106D01*
X133747342Y-112848066D01*
X133750007Y-112854500D01*
X133756000Y-112884633D01*
X133756000Y-112915367D01*
X133750007Y-112945500D01*
X133750005Y-112945504D01*
X133738246Y-112973894D01*
X133729709Y-112986669D01*
X133721175Y-112999442D01*
X133699442Y-113021175D01*
X133686669Y-113029709D01*
X133673894Y-113038246D01*
X133651934Y-113047342D01*
X133645500Y-113050007D01*
X133615367Y-113056000D01*
X133584633Y-113056000D01*
X133554500Y-113050007D01*
X133548066Y-113047342D01*
X133526106Y-113038246D01*
X133513331Y-113029709D01*
X133500558Y-113021175D01*
X133478825Y-112999442D01*
X133470291Y-112986669D01*
X133461754Y-112973894D01*
X133449995Y-112945504D01*
X133449993Y-112945500D01*
X133444000Y-112915367D01*
X133444000Y-112884633D01*
X133449993Y-112854500D01*
X133452658Y-112848066D01*
X133461754Y-112826106D01*
X133470290Y-112813331D01*
X133478825Y-112800558D01*
X133500558Y-112778825D01*
X133513331Y-112770291D01*
X133526106Y-112761754D01*
X133548066Y-112752658D01*
X133554500Y-112749993D01*
X133584633Y-112744000D01*
X133615367Y-112744000D01*
X133645500Y-112749993D01*
G37*
G36*
X134795500Y-111599993D02*
G01*
X134801934Y-111602658D01*
X134823894Y-111611754D01*
X134836669Y-111620291D01*
X134849442Y-111628825D01*
X134871175Y-111650558D01*
X134879710Y-111663331D01*
X134888246Y-111676106D01*
X134897342Y-111698066D01*
X134900007Y-111704500D01*
X134906000Y-111734633D01*
X134906000Y-111765367D01*
X134900007Y-111795500D01*
X134900005Y-111795504D01*
X134888246Y-111823894D01*
X134879710Y-111836669D01*
X134871175Y-111849442D01*
X134849442Y-111871175D01*
X134836669Y-111879709D01*
X134823894Y-111888246D01*
X134801934Y-111897342D01*
X134795500Y-111900007D01*
X134765367Y-111906000D01*
X134734633Y-111906000D01*
X134704500Y-111900007D01*
X134698066Y-111897342D01*
X134676106Y-111888246D01*
X134663331Y-111879709D01*
X134650558Y-111871175D01*
X134628825Y-111849442D01*
X134620291Y-111836669D01*
X134611754Y-111823894D01*
X134599995Y-111795504D01*
X134599993Y-111795500D01*
X134594000Y-111765367D01*
X134594000Y-111734633D01*
X134599993Y-111704500D01*
X134602658Y-111698066D01*
X134611754Y-111676106D01*
X134620291Y-111663331D01*
X134628825Y-111650558D01*
X134650558Y-111628825D01*
X134663331Y-111620290D01*
X134676106Y-111611754D01*
X134698066Y-111602658D01*
X134704500Y-111599993D01*
X134734633Y-111594000D01*
X134765367Y-111594000D01*
X134795500Y-111599993D01*
G37*
G36*
X132495500Y-111599993D02*
G01*
X132501934Y-111602658D01*
X132523894Y-111611754D01*
X132536669Y-111620291D01*
X132549442Y-111628825D01*
X132571175Y-111650558D01*
X132579710Y-111663331D01*
X132588246Y-111676106D01*
X132597342Y-111698066D01*
X132600007Y-111704500D01*
X132606000Y-111734633D01*
X132606000Y-111765367D01*
X132600007Y-111795500D01*
X132600005Y-111795504D01*
X132588246Y-111823894D01*
X132579710Y-111836669D01*
X132571175Y-111849442D01*
X132549442Y-111871175D01*
X132536669Y-111879709D01*
X132523894Y-111888246D01*
X132501934Y-111897342D01*
X132495500Y-111900007D01*
X132465367Y-111906000D01*
X132434633Y-111906000D01*
X132404500Y-111900007D01*
X132398066Y-111897342D01*
X132376106Y-111888246D01*
X132363331Y-111879709D01*
X132350558Y-111871175D01*
X132328825Y-111849442D01*
X132320291Y-111836669D01*
X132311754Y-111823894D01*
X132299995Y-111795504D01*
X132299993Y-111795500D01*
X132294000Y-111765367D01*
X132294000Y-111734633D01*
X132299993Y-111704500D01*
X132302658Y-111698066D01*
X132311754Y-111676106D01*
X132320291Y-111663331D01*
X132328825Y-111650558D01*
X132350558Y-111628825D01*
X132363331Y-111620290D01*
X132376106Y-111611754D01*
X132398066Y-111602658D01*
X132404500Y-111599993D01*
X132434633Y-111594000D01*
X132465367Y-111594000D01*
X132495500Y-111599993D01*
G37*
G36*
X117595500Y-111599993D02*
G01*
X117601934Y-111602658D01*
X117623894Y-111611754D01*
X117636669Y-111620291D01*
X117649442Y-111628825D01*
X117671175Y-111650558D01*
X117679710Y-111663331D01*
X117688246Y-111676106D01*
X117697342Y-111698066D01*
X117700007Y-111704500D01*
X117706000Y-111734633D01*
X117706000Y-111765367D01*
X117700007Y-111795500D01*
X117700005Y-111795504D01*
X117688246Y-111823894D01*
X117679710Y-111836669D01*
X117671175Y-111849442D01*
X117649442Y-111871175D01*
X117636669Y-111879709D01*
X117623894Y-111888246D01*
X117601934Y-111897342D01*
X117595500Y-111900007D01*
X117565367Y-111906000D01*
X117534633Y-111906000D01*
X117504500Y-111900007D01*
X117498066Y-111897342D01*
X117476106Y-111888246D01*
X117463331Y-111879709D01*
X117450558Y-111871175D01*
X117428825Y-111849442D01*
X117420291Y-111836669D01*
X117411754Y-111823894D01*
X117399995Y-111795504D01*
X117399993Y-111795500D01*
X117394000Y-111765367D01*
X117394000Y-111734633D01*
X117399993Y-111704500D01*
X117402658Y-111698066D01*
X117411754Y-111676106D01*
X117420291Y-111663331D01*
X117428825Y-111650558D01*
X117450558Y-111628825D01*
X117463331Y-111620290D01*
X117476106Y-111611754D01*
X117498066Y-111602658D01*
X117504500Y-111599993D01*
X117534633Y-111594000D01*
X117565367Y-111594000D01*
X117595500Y-111599993D01*
G37*
G36*
X115295500Y-111599993D02*
G01*
X115301934Y-111602658D01*
X115323894Y-111611754D01*
X115336669Y-111620291D01*
X115349442Y-111628825D01*
X115371175Y-111650558D01*
X115379710Y-111663331D01*
X115388246Y-111676106D01*
X115397342Y-111698066D01*
X115400007Y-111704500D01*
X115406000Y-111734633D01*
X115406000Y-111765367D01*
X115400007Y-111795500D01*
X115400005Y-111795504D01*
X115388246Y-111823894D01*
X115379710Y-111836669D01*
X115371175Y-111849442D01*
X115349442Y-111871175D01*
X115336669Y-111879709D01*
X115323894Y-111888246D01*
X115301934Y-111897342D01*
X115295500Y-111900007D01*
X115265367Y-111906000D01*
X115234633Y-111906000D01*
X115204500Y-111900007D01*
X115198066Y-111897342D01*
X115176106Y-111888246D01*
X115163331Y-111879709D01*
X115150558Y-111871175D01*
X115128825Y-111849442D01*
X115120291Y-111836669D01*
X115111754Y-111823894D01*
X115099995Y-111795504D01*
X115099993Y-111795500D01*
X115094000Y-111765367D01*
X115094000Y-111734633D01*
X115099993Y-111704500D01*
X115102658Y-111698066D01*
X115111754Y-111676106D01*
X115120291Y-111663331D01*
X115128825Y-111650558D01*
X115150558Y-111628825D01*
X115163331Y-111620290D01*
X115176106Y-111611754D01*
X115198066Y-111602658D01*
X115204500Y-111599993D01*
X115234633Y-111594000D01*
X115265367Y-111594000D01*
X115295500Y-111599993D01*
G37*
G36*
X176877395Y-102195546D02*
G01*
X177050466Y-102267234D01*
X177050467Y-102267235D01*
X177206227Y-102371310D01*
X177338690Y-102503773D01*
X177366725Y-102545731D01*
X177442766Y-102659534D01*
X177514454Y-102832605D01*
X177551000Y-103016333D01*
X177551000Y-103203667D01*
X177514454Y-103387395D01*
X177442766Y-103560466D01*
X177442765Y-103560467D01*
X177338690Y-103716227D01*
X177206227Y-103848690D01*
X177127818Y-103901081D01*
X177050466Y-103952766D01*
X176877395Y-104024454D01*
X176693667Y-104061000D01*
X176506333Y-104061000D01*
X176322605Y-104024454D01*
X176149534Y-103952766D01*
X176072182Y-103901081D01*
X175993773Y-103848690D01*
X175861310Y-103716227D01*
X175757235Y-103560467D01*
X175757234Y-103560466D01*
X175685546Y-103387395D01*
X175649000Y-103203667D01*
X175649000Y-103016333D01*
X175685546Y-102832605D01*
X175757234Y-102659534D01*
X175833275Y-102545731D01*
X175861310Y-102503773D01*
X175993773Y-102371310D01*
X176149533Y-102267235D01*
X176149534Y-102267234D01*
X176322605Y-102195546D01*
X176506333Y-102159000D01*
X176693667Y-102159000D01*
X176877395Y-102195546D01*
G37*
G36*
X165051000Y-97192218D02*
G01*
X165053402Y-97216604D01*
X165060515Y-97240053D01*
X165072066Y-97261664D01*
X165087611Y-97280606D01*
X165106553Y-97296151D01*
X165128164Y-97307702D01*
X165151613Y-97314815D01*
X165175999Y-97317217D01*
X165200385Y-97314815D01*
X165223834Y-97307702D01*
X165245445Y-97296151D01*
X165264387Y-97280606D01*
X165279932Y-97261664D01*
X165342009Y-97168760D01*
X165342010Y-97168758D01*
X165418758Y-97092010D01*
X165509004Y-97031710D01*
X165509005Y-97031709D01*
X165609279Y-96990174D01*
X165715730Y-96969000D01*
X165824270Y-96969000D01*
X165930721Y-96990174D01*
X166030995Y-97031709D01*
X166030996Y-97031710D01*
X166121242Y-97092010D01*
X166197990Y-97168758D01*
X166197991Y-97168760D01*
X166258291Y-97259005D01*
X166299826Y-97359279D01*
X166321000Y-97465730D01*
X166321000Y-97574270D01*
X166299826Y-97680721D01*
X166258291Y-97780995D01*
X166258290Y-97780996D01*
X166197990Y-97871242D01*
X166121242Y-97947990D01*
X166075812Y-97978345D01*
X166030995Y-98008291D01*
X165955611Y-98039516D01*
X165934000Y-98051067D01*
X165915059Y-98066612D01*
X165899513Y-98085554D01*
X165887962Y-98107165D01*
X165880849Y-98130614D01*
X165878447Y-98155000D01*
X165880849Y-98179386D01*
X165887962Y-98202835D01*
X165899513Y-98224446D01*
X165915058Y-98243387D01*
X165934000Y-98258933D01*
X165955611Y-98270484D01*
X166030995Y-98301709D01*
X166039506Y-98307396D01*
X166121242Y-98362010D01*
X166197990Y-98438758D01*
X166197991Y-98438760D01*
X166258291Y-98529005D01*
X166299826Y-98629279D01*
X166321000Y-98735730D01*
X166321000Y-98844270D01*
X166299826Y-98950721D01*
X166258291Y-99050995D01*
X166258290Y-99050996D01*
X166197990Y-99141242D01*
X166121242Y-99217990D01*
X166075812Y-99248345D01*
X166030995Y-99278291D01*
X165955611Y-99309516D01*
X165934000Y-99321067D01*
X165915059Y-99336612D01*
X165899513Y-99355554D01*
X165887962Y-99377165D01*
X165880849Y-99400614D01*
X165878447Y-99425000D01*
X165880849Y-99449386D01*
X165887962Y-99472835D01*
X165899513Y-99494446D01*
X165915058Y-99513387D01*
X165934000Y-99528933D01*
X165955611Y-99540484D01*
X166030995Y-99571709D01*
X166030996Y-99571710D01*
X166121242Y-99632010D01*
X166197990Y-99708758D01*
X166197991Y-99708760D01*
X166258291Y-99799005D01*
X166299826Y-99899279D01*
X166321000Y-100005730D01*
X166321000Y-100114270D01*
X166299826Y-100220721D01*
X166258291Y-100320995D01*
X166258290Y-100320996D01*
X166197990Y-100411242D01*
X166121242Y-100487990D01*
X166075812Y-100518345D01*
X166030995Y-100548291D01*
X165955611Y-100579516D01*
X165934000Y-100591067D01*
X165915059Y-100606612D01*
X165899513Y-100625554D01*
X165887962Y-100647165D01*
X165880849Y-100670614D01*
X165878447Y-100695000D01*
X165880849Y-100719386D01*
X165887962Y-100742835D01*
X165899513Y-100764446D01*
X165915058Y-100783387D01*
X165934000Y-100798933D01*
X165955611Y-100810484D01*
X166030995Y-100841709D01*
X166039506Y-100847396D01*
X166121242Y-100902010D01*
X166197990Y-100978758D01*
X166197991Y-100978760D01*
X166258291Y-101069005D01*
X166299826Y-101169279D01*
X166321000Y-101275730D01*
X166321000Y-101384270D01*
X166299826Y-101490721D01*
X166258291Y-101590995D01*
X166258290Y-101590996D01*
X166197990Y-101681242D01*
X166121242Y-101757990D01*
X166075812Y-101788345D01*
X166030995Y-101818291D01*
X165955611Y-101849516D01*
X165934000Y-101861067D01*
X165915059Y-101876612D01*
X165899513Y-101895554D01*
X165887962Y-101917165D01*
X165880849Y-101940614D01*
X165878447Y-101965000D01*
X165880849Y-101989386D01*
X165887962Y-102012835D01*
X165899513Y-102034446D01*
X165915058Y-102053387D01*
X165934000Y-102068933D01*
X165955611Y-102080484D01*
X166030995Y-102111709D01*
X166030996Y-102111710D01*
X166121242Y-102172010D01*
X166197990Y-102248758D01*
X166197991Y-102248760D01*
X166258291Y-102339005D01*
X166299826Y-102439279D01*
X166321000Y-102545730D01*
X166321000Y-102654270D01*
X166299826Y-102760721D01*
X166258291Y-102860995D01*
X166258290Y-102860996D01*
X166197990Y-102951242D01*
X166121242Y-103027990D01*
X166075812Y-103058345D01*
X166030995Y-103088291D01*
X165930721Y-103129826D01*
X165824270Y-103151000D01*
X165715730Y-103151000D01*
X165609279Y-103129826D01*
X165509005Y-103088291D01*
X165464188Y-103058345D01*
X165418758Y-103027990D01*
X165342010Y-102951242D01*
X165281710Y-102860996D01*
X165281709Y-102860995D01*
X165250484Y-102785611D01*
X165238933Y-102764000D01*
X165223388Y-102745059D01*
X165204446Y-102729513D01*
X165182835Y-102717962D01*
X165159386Y-102710849D01*
X165135000Y-102708447D01*
X165110614Y-102710849D01*
X165087165Y-102717962D01*
X165065554Y-102729513D01*
X165046613Y-102745058D01*
X165031067Y-102764000D01*
X165019516Y-102785611D01*
X164988291Y-102860995D01*
X164988290Y-102860996D01*
X164927990Y-102951242D01*
X164851242Y-103027990D01*
X164805812Y-103058345D01*
X164760995Y-103088291D01*
X164660721Y-103129826D01*
X164554270Y-103151000D01*
X164445730Y-103151000D01*
X164339279Y-103129826D01*
X164239005Y-103088291D01*
X164194188Y-103058345D01*
X164148758Y-103027990D01*
X164072010Y-102951242D01*
X164011710Y-102860996D01*
X164011709Y-102860995D01*
X163970174Y-102760721D01*
X163949000Y-102654270D01*
X163949000Y-102545730D01*
X163970174Y-102439279D01*
X164011709Y-102339005D01*
X164072009Y-102248760D01*
X164072010Y-102248758D01*
X164148758Y-102172010D01*
X164239004Y-102111710D01*
X164239005Y-102111709D01*
X164314389Y-102080484D01*
X164336000Y-102068933D01*
X164354941Y-102053388D01*
X164370487Y-102034446D01*
X164382038Y-102012835D01*
X164389151Y-101989386D01*
X164391553Y-101965000D01*
X164608447Y-101965000D01*
X164610849Y-101989386D01*
X164617962Y-102012835D01*
X164629513Y-102034446D01*
X164645058Y-102053387D01*
X164664000Y-102068933D01*
X164685611Y-102080484D01*
X164760995Y-102111709D01*
X164760996Y-102111710D01*
X164851242Y-102172010D01*
X164927990Y-102248758D01*
X164927991Y-102248760D01*
X164988291Y-102339005D01*
X165019516Y-102414389D01*
X165031067Y-102436000D01*
X165046612Y-102454941D01*
X165065554Y-102470487D01*
X165087165Y-102482038D01*
X165110614Y-102489151D01*
X165135000Y-102491553D01*
X165159386Y-102489151D01*
X165182835Y-102482038D01*
X165204446Y-102470487D01*
X165223387Y-102454942D01*
X165238933Y-102436000D01*
X165250484Y-102414389D01*
X165281709Y-102339005D01*
X165342009Y-102248760D01*
X165342010Y-102248758D01*
X165418758Y-102172010D01*
X165509004Y-102111710D01*
X165509005Y-102111709D01*
X165584389Y-102080484D01*
X165606000Y-102068933D01*
X165624941Y-102053388D01*
X165640487Y-102034446D01*
X165652038Y-102012835D01*
X165659151Y-101989386D01*
X165661553Y-101965000D01*
X165659151Y-101940614D01*
X165652038Y-101917165D01*
X165640487Y-101895554D01*
X165624942Y-101876613D01*
X165606000Y-101861067D01*
X165584389Y-101849516D01*
X165509005Y-101818291D01*
X165464188Y-101788345D01*
X165418758Y-101757990D01*
X165342010Y-101681242D01*
X165281710Y-101590996D01*
X165281709Y-101590995D01*
X165250484Y-101515611D01*
X165238933Y-101494000D01*
X165223388Y-101475059D01*
X165204446Y-101459513D01*
X165182835Y-101447962D01*
X165159386Y-101440849D01*
X165135000Y-101438447D01*
X165110614Y-101440849D01*
X165087165Y-101447962D01*
X165065554Y-101459513D01*
X165046613Y-101475058D01*
X165031067Y-101494000D01*
X165019516Y-101515611D01*
X164988291Y-101590995D01*
X164988290Y-101590996D01*
X164927990Y-101681242D01*
X164851242Y-101757990D01*
X164805812Y-101788345D01*
X164760995Y-101818291D01*
X164685611Y-101849516D01*
X164664000Y-101861067D01*
X164645059Y-101876612D01*
X164629513Y-101895554D01*
X164617962Y-101917165D01*
X164610849Y-101940614D01*
X164608447Y-101965000D01*
X164391553Y-101965000D01*
X164389151Y-101940614D01*
X164382038Y-101917165D01*
X164370487Y-101895554D01*
X164354942Y-101876613D01*
X164336000Y-101861067D01*
X164314389Y-101849516D01*
X164239005Y-101818291D01*
X164194188Y-101788345D01*
X164148758Y-101757990D01*
X164072010Y-101681242D01*
X164011710Y-101590996D01*
X164011709Y-101590995D01*
X163970174Y-101490721D01*
X163949000Y-101384270D01*
X163949000Y-101275730D01*
X163970174Y-101169279D01*
X164011709Y-101069005D01*
X164072009Y-100978760D01*
X164072010Y-100978758D01*
X164148758Y-100902010D01*
X164230494Y-100847396D01*
X164239005Y-100841709D01*
X164314389Y-100810484D01*
X164336000Y-100798933D01*
X164354941Y-100783388D01*
X164370487Y-100764446D01*
X164382038Y-100742835D01*
X164389151Y-100719386D01*
X164391553Y-100695000D01*
X164608447Y-100695000D01*
X164610849Y-100719386D01*
X164617962Y-100742835D01*
X164629513Y-100764446D01*
X164645058Y-100783387D01*
X164664000Y-100798933D01*
X164685611Y-100810484D01*
X164760995Y-100841709D01*
X164769506Y-100847396D01*
X164851242Y-100902010D01*
X164927990Y-100978758D01*
X164927991Y-100978760D01*
X164988291Y-101069005D01*
X165019516Y-101144389D01*
X165031067Y-101166000D01*
X165046612Y-101184941D01*
X165065554Y-101200487D01*
X165087165Y-101212038D01*
X165110614Y-101219151D01*
X165135000Y-101221553D01*
X165159386Y-101219151D01*
X165182835Y-101212038D01*
X165204446Y-101200487D01*
X165223387Y-101184942D01*
X165238933Y-101166000D01*
X165250484Y-101144389D01*
X165281709Y-101069005D01*
X165342009Y-100978760D01*
X165342010Y-100978758D01*
X165418758Y-100902010D01*
X165500494Y-100847396D01*
X165509005Y-100841709D01*
X165584389Y-100810484D01*
X165606000Y-100798933D01*
X165624941Y-100783388D01*
X165640487Y-100764446D01*
X165652038Y-100742835D01*
X165659151Y-100719386D01*
X165661553Y-100695000D01*
X165659151Y-100670614D01*
X165652038Y-100647165D01*
X165640487Y-100625554D01*
X165624942Y-100606613D01*
X165606000Y-100591067D01*
X165584389Y-100579516D01*
X165509005Y-100548291D01*
X165464188Y-100518345D01*
X165418758Y-100487990D01*
X165342010Y-100411242D01*
X165281710Y-100320996D01*
X165281709Y-100320995D01*
X165250484Y-100245611D01*
X165238933Y-100224000D01*
X165223388Y-100205059D01*
X165204446Y-100189513D01*
X165182835Y-100177962D01*
X165159386Y-100170849D01*
X165135000Y-100168447D01*
X165110614Y-100170849D01*
X165087165Y-100177962D01*
X165065554Y-100189513D01*
X165046613Y-100205058D01*
X165031067Y-100224000D01*
X165019516Y-100245611D01*
X164988291Y-100320995D01*
X164988290Y-100320996D01*
X164927990Y-100411242D01*
X164851242Y-100487990D01*
X164805812Y-100518345D01*
X164760995Y-100548291D01*
X164685611Y-100579516D01*
X164664000Y-100591067D01*
X164645059Y-100606612D01*
X164629513Y-100625554D01*
X164617962Y-100647165D01*
X164610849Y-100670614D01*
X164608447Y-100695000D01*
X164391553Y-100695000D01*
X164389151Y-100670614D01*
X164382038Y-100647165D01*
X164370487Y-100625554D01*
X164354942Y-100606613D01*
X164336000Y-100591067D01*
X164314389Y-100579516D01*
X164239005Y-100548291D01*
X164194188Y-100518345D01*
X164148758Y-100487990D01*
X164072010Y-100411242D01*
X164011710Y-100320996D01*
X164011709Y-100320995D01*
X163970174Y-100220721D01*
X163949000Y-100114270D01*
X163949000Y-100005730D01*
X163970174Y-99899279D01*
X164011709Y-99799005D01*
X164072009Y-99708760D01*
X164072010Y-99708758D01*
X164148758Y-99632010D01*
X164239004Y-99571710D01*
X164239005Y-99571709D01*
X164314389Y-99540484D01*
X164336000Y-99528933D01*
X164354941Y-99513388D01*
X164370487Y-99494446D01*
X164382038Y-99472835D01*
X164389151Y-99449386D01*
X164391553Y-99425000D01*
X164608447Y-99425000D01*
X164610849Y-99449386D01*
X164617962Y-99472835D01*
X164629513Y-99494446D01*
X164645058Y-99513387D01*
X164664000Y-99528933D01*
X164685611Y-99540484D01*
X164760995Y-99571709D01*
X164760996Y-99571710D01*
X164851242Y-99632010D01*
X164927990Y-99708758D01*
X164927991Y-99708760D01*
X164988291Y-99799005D01*
X165019516Y-99874389D01*
X165031067Y-99896000D01*
X165046612Y-99914941D01*
X165065554Y-99930487D01*
X165087165Y-99942038D01*
X165110614Y-99949151D01*
X165135000Y-99951553D01*
X165159386Y-99949151D01*
X165182835Y-99942038D01*
X165204446Y-99930487D01*
X165223387Y-99914942D01*
X165238933Y-99896000D01*
X165250484Y-99874389D01*
X165281709Y-99799005D01*
X165342009Y-99708760D01*
X165342010Y-99708758D01*
X165418758Y-99632010D01*
X165509004Y-99571710D01*
X165509005Y-99571709D01*
X165584389Y-99540484D01*
X165606000Y-99528933D01*
X165624941Y-99513388D01*
X165640487Y-99494446D01*
X165652038Y-99472835D01*
X165659151Y-99449386D01*
X165661553Y-99425000D01*
X165659151Y-99400614D01*
X165652038Y-99377165D01*
X165640487Y-99355554D01*
X165624942Y-99336613D01*
X165606000Y-99321067D01*
X165584389Y-99309516D01*
X165509005Y-99278291D01*
X165464188Y-99248345D01*
X165418758Y-99217990D01*
X165342010Y-99141242D01*
X165281710Y-99050996D01*
X165281709Y-99050995D01*
X165250484Y-98975611D01*
X165238933Y-98954000D01*
X165223388Y-98935059D01*
X165204446Y-98919513D01*
X165182835Y-98907962D01*
X165159386Y-98900849D01*
X165135000Y-98898447D01*
X165110614Y-98900849D01*
X165087165Y-98907962D01*
X165065554Y-98919513D01*
X165046613Y-98935058D01*
X165031067Y-98954000D01*
X165019516Y-98975611D01*
X164988291Y-99050995D01*
X164988290Y-99050996D01*
X164927990Y-99141242D01*
X164851242Y-99217990D01*
X164805812Y-99248345D01*
X164760995Y-99278291D01*
X164685611Y-99309516D01*
X164664000Y-99321067D01*
X164645059Y-99336612D01*
X164629513Y-99355554D01*
X164617962Y-99377165D01*
X164610849Y-99400614D01*
X164608447Y-99425000D01*
X164391553Y-99425000D01*
X164389151Y-99400614D01*
X164382038Y-99377165D01*
X164370487Y-99355554D01*
X164354942Y-99336613D01*
X164336000Y-99321067D01*
X164314389Y-99309516D01*
X164239005Y-99278291D01*
X164194188Y-99248345D01*
X164148758Y-99217990D01*
X164072010Y-99141242D01*
X164011710Y-99050996D01*
X164011709Y-99050995D01*
X163970174Y-98950721D01*
X163949000Y-98844270D01*
X163949000Y-98735730D01*
X163970174Y-98629279D01*
X164011709Y-98529005D01*
X164072009Y-98438760D01*
X164072010Y-98438758D01*
X164148758Y-98362010D01*
X164180184Y-98341012D01*
X164241664Y-98299932D01*
X164260606Y-98284386D01*
X164276151Y-98265444D01*
X164287702Y-98243833D01*
X164294815Y-98220385D01*
X164297216Y-98195999D01*
X164702783Y-98195999D01*
X164705185Y-98220385D01*
X164712298Y-98243834D01*
X164723849Y-98265445D01*
X164739394Y-98284387D01*
X164758336Y-98299932D01*
X164819816Y-98341012D01*
X164851242Y-98362010D01*
X164927990Y-98438758D01*
X164927991Y-98438760D01*
X164988291Y-98529005D01*
X165019516Y-98604389D01*
X165031067Y-98626000D01*
X165046612Y-98644941D01*
X165065554Y-98660487D01*
X165087165Y-98672038D01*
X165110614Y-98679151D01*
X165135000Y-98681553D01*
X165159386Y-98679151D01*
X165182835Y-98672038D01*
X165204446Y-98660487D01*
X165223387Y-98644942D01*
X165238933Y-98626000D01*
X165250484Y-98604389D01*
X165281709Y-98529005D01*
X165342009Y-98438760D01*
X165342010Y-98438758D01*
X165418758Y-98362010D01*
X165500494Y-98307396D01*
X165509005Y-98301709D01*
X165584389Y-98270484D01*
X165606000Y-98258933D01*
X165624941Y-98243388D01*
X165640487Y-98224446D01*
X165652038Y-98202835D01*
X165659151Y-98179386D01*
X165661553Y-98155000D01*
X165659151Y-98130614D01*
X165652038Y-98107165D01*
X165640487Y-98085554D01*
X165624942Y-98066613D01*
X165606000Y-98051067D01*
X165584389Y-98039516D01*
X165509005Y-98008291D01*
X165464188Y-97978345D01*
X165418758Y-97947990D01*
X165342010Y-97871242D01*
X165312971Y-97827782D01*
X165279932Y-97778336D01*
X165264386Y-97759394D01*
X165245444Y-97743849D01*
X165223833Y-97732298D01*
X165200385Y-97725185D01*
X165175998Y-97722783D01*
X165151612Y-97725185D01*
X165128163Y-97732298D01*
X165106553Y-97743849D01*
X165087611Y-97759395D01*
X165072066Y-97778337D01*
X165060515Y-97799948D01*
X165053402Y-97823396D01*
X165051000Y-97847782D01*
X165051000Y-98071000D01*
X164827782Y-98071000D01*
X164803396Y-98073402D01*
X164779947Y-98080515D01*
X164758336Y-98092066D01*
X164739394Y-98107611D01*
X164723849Y-98126553D01*
X164712298Y-98148164D01*
X164705185Y-98171613D01*
X164702783Y-98195999D01*
X164297216Y-98195999D01*
X164297217Y-98195998D01*
X164294815Y-98171612D01*
X164287702Y-98148163D01*
X164276151Y-98126553D01*
X164260605Y-98107611D01*
X164241663Y-98092066D01*
X164220052Y-98080515D01*
X164196604Y-98073402D01*
X164172218Y-98071000D01*
X163949000Y-98071000D01*
X163949000Y-96969000D01*
X165051000Y-96969000D01*
X165051000Y-97192218D01*
G37*
G36*
X157851000Y-97172218D02*
G01*
X157853402Y-97196604D01*
X157860515Y-97220053D01*
X157872066Y-97241664D01*
X157887611Y-97260606D01*
X157906553Y-97276151D01*
X157928164Y-97287702D01*
X157951613Y-97294815D01*
X157975999Y-97297217D01*
X158000385Y-97294815D01*
X158023834Y-97287702D01*
X158045445Y-97276151D01*
X158064387Y-97260606D01*
X158079932Y-97241664D01*
X158142009Y-97148760D01*
X158142010Y-97148758D01*
X158218758Y-97072010D01*
X158264188Y-97041655D01*
X158309005Y-97011709D01*
X158409279Y-96970174D01*
X158515730Y-96949000D01*
X158624270Y-96949000D01*
X158730721Y-96970174D01*
X158830995Y-97011709D01*
X158875812Y-97041655D01*
X158921242Y-97072010D01*
X158997990Y-97148758D01*
X158997991Y-97148760D01*
X159058291Y-97239005D01*
X159099826Y-97339279D01*
X159121000Y-97445730D01*
X159121000Y-97554270D01*
X159099826Y-97660721D01*
X159058291Y-97760995D01*
X159058290Y-97760996D01*
X158997990Y-97851242D01*
X158921242Y-97927990D01*
X158891308Y-97947991D01*
X158830995Y-97988291D01*
X158755611Y-98019516D01*
X158734000Y-98031067D01*
X158715059Y-98046612D01*
X158699513Y-98065554D01*
X158687962Y-98087165D01*
X158680849Y-98110614D01*
X158678447Y-98135000D01*
X158680849Y-98159386D01*
X158687962Y-98182835D01*
X158699513Y-98204446D01*
X158715058Y-98223387D01*
X158734000Y-98238933D01*
X158755611Y-98250484D01*
X158830995Y-98281709D01*
X158869437Y-98307395D01*
X158921242Y-98342010D01*
X158997990Y-98418758D01*
X158997991Y-98418760D01*
X159058291Y-98509005D01*
X159099826Y-98609279D01*
X159121000Y-98715730D01*
X159121000Y-98824270D01*
X159099826Y-98930721D01*
X159058291Y-99030995D01*
X159058290Y-99030996D01*
X158997990Y-99121242D01*
X158921242Y-99197990D01*
X158891308Y-99217991D01*
X158830995Y-99258291D01*
X158755611Y-99289516D01*
X158734000Y-99301067D01*
X158715059Y-99316612D01*
X158699513Y-99335554D01*
X158687962Y-99357165D01*
X158680849Y-99380614D01*
X158678447Y-99405000D01*
X158680849Y-99429386D01*
X158687962Y-99452835D01*
X158699513Y-99474446D01*
X158715058Y-99493387D01*
X158734000Y-99508933D01*
X158755611Y-99520484D01*
X158830995Y-99551709D01*
X158875812Y-99581655D01*
X158921242Y-99612010D01*
X158997990Y-99688758D01*
X158997991Y-99688760D01*
X159058291Y-99779005D01*
X159099826Y-99879279D01*
X159121000Y-99985730D01*
X159121000Y-100094270D01*
X159099826Y-100200721D01*
X159058291Y-100300995D01*
X159058290Y-100300996D01*
X158997990Y-100391242D01*
X158921242Y-100467990D01*
X158891308Y-100487991D01*
X158830995Y-100528291D01*
X158755611Y-100559516D01*
X158734000Y-100571067D01*
X158715059Y-100586612D01*
X158699513Y-100605554D01*
X158687962Y-100627165D01*
X158680849Y-100650614D01*
X158678447Y-100675000D01*
X158680849Y-100699386D01*
X158687962Y-100722835D01*
X158699513Y-100744446D01*
X158715058Y-100763387D01*
X158734000Y-100778933D01*
X158755611Y-100790484D01*
X158830995Y-100821709D01*
X158869437Y-100847395D01*
X158921242Y-100882010D01*
X158997990Y-100958758D01*
X158997991Y-100958760D01*
X159058291Y-101049005D01*
X159099826Y-101149279D01*
X159121000Y-101255730D01*
X159121000Y-101364270D01*
X159099826Y-101470721D01*
X159058291Y-101570995D01*
X159058290Y-101570996D01*
X158997990Y-101661242D01*
X158921242Y-101737990D01*
X158891308Y-101757991D01*
X158830995Y-101798291D01*
X158755611Y-101829516D01*
X158734000Y-101841067D01*
X158715059Y-101856612D01*
X158699513Y-101875554D01*
X158687962Y-101897165D01*
X158680849Y-101920614D01*
X158678447Y-101945000D01*
X158680849Y-101969386D01*
X158687962Y-101992835D01*
X158699513Y-102014446D01*
X158715058Y-102033387D01*
X158734000Y-102048933D01*
X158755611Y-102060484D01*
X158830995Y-102091709D01*
X158875812Y-102121655D01*
X158921242Y-102152010D01*
X158997990Y-102228758D01*
X158997991Y-102228760D01*
X159058291Y-102319005D01*
X159099826Y-102419279D01*
X159121000Y-102525730D01*
X159121000Y-102634270D01*
X159099826Y-102740721D01*
X159058291Y-102840995D01*
X159058290Y-102840996D01*
X158997990Y-102931242D01*
X158921242Y-103007990D01*
X158891308Y-103027991D01*
X158830995Y-103068291D01*
X158730721Y-103109826D01*
X158624270Y-103131000D01*
X158515730Y-103131000D01*
X158409279Y-103109826D01*
X158309005Y-103068291D01*
X158248692Y-103027991D01*
X158218758Y-103007990D01*
X158142010Y-102931242D01*
X158081710Y-102840996D01*
X158081709Y-102840995D01*
X158050484Y-102765611D01*
X158038933Y-102744000D01*
X158023388Y-102725059D01*
X158004446Y-102709513D01*
X157982835Y-102697962D01*
X157959386Y-102690849D01*
X157935000Y-102688447D01*
X157910614Y-102690849D01*
X157887165Y-102697962D01*
X157865554Y-102709513D01*
X157846613Y-102725058D01*
X157831067Y-102744000D01*
X157819516Y-102765611D01*
X157788291Y-102840995D01*
X157788290Y-102840996D01*
X157727990Y-102931242D01*
X157651242Y-103007990D01*
X157621308Y-103027991D01*
X157560995Y-103068291D01*
X157460721Y-103109826D01*
X157354270Y-103131000D01*
X157245730Y-103131000D01*
X157139279Y-103109826D01*
X157039005Y-103068291D01*
X156978692Y-103027991D01*
X156948758Y-103007990D01*
X156872010Y-102931242D01*
X156811710Y-102840996D01*
X156811709Y-102840995D01*
X156770174Y-102740721D01*
X156749000Y-102634270D01*
X156749000Y-102525730D01*
X156770174Y-102419279D01*
X156811709Y-102319005D01*
X156872009Y-102228760D01*
X156872010Y-102228758D01*
X156948758Y-102152010D01*
X156994188Y-102121655D01*
X157039005Y-102091709D01*
X157114389Y-102060484D01*
X157136000Y-102048933D01*
X157154941Y-102033388D01*
X157170487Y-102014446D01*
X157182038Y-101992835D01*
X157189151Y-101969386D01*
X157191553Y-101945000D01*
X157408447Y-101945000D01*
X157410849Y-101969386D01*
X157417962Y-101992835D01*
X157429513Y-102014446D01*
X157445058Y-102033387D01*
X157464000Y-102048933D01*
X157485611Y-102060484D01*
X157560995Y-102091709D01*
X157605812Y-102121655D01*
X157651242Y-102152010D01*
X157727990Y-102228758D01*
X157727991Y-102228760D01*
X157788291Y-102319005D01*
X157819516Y-102394389D01*
X157831067Y-102416000D01*
X157846612Y-102434941D01*
X157865554Y-102450487D01*
X157887165Y-102462038D01*
X157910614Y-102469151D01*
X157935000Y-102471553D01*
X157959386Y-102469151D01*
X157982835Y-102462038D01*
X158004446Y-102450487D01*
X158023387Y-102434942D01*
X158038933Y-102416000D01*
X158050484Y-102394389D01*
X158081709Y-102319005D01*
X158142009Y-102228760D01*
X158142010Y-102228758D01*
X158218758Y-102152010D01*
X158264188Y-102121655D01*
X158309005Y-102091709D01*
X158384389Y-102060484D01*
X158406000Y-102048933D01*
X158424941Y-102033388D01*
X158440487Y-102014446D01*
X158452038Y-101992835D01*
X158459151Y-101969386D01*
X158461553Y-101945000D01*
X158459151Y-101920614D01*
X158452038Y-101897165D01*
X158440487Y-101875554D01*
X158424942Y-101856613D01*
X158406000Y-101841067D01*
X158384389Y-101829516D01*
X158309005Y-101798291D01*
X158248692Y-101757991D01*
X158218758Y-101737990D01*
X158142010Y-101661242D01*
X158081710Y-101570996D01*
X158081709Y-101570995D01*
X158050484Y-101495611D01*
X158038933Y-101474000D01*
X158023388Y-101455059D01*
X158004446Y-101439513D01*
X157982835Y-101427962D01*
X157959386Y-101420849D01*
X157935000Y-101418447D01*
X157910614Y-101420849D01*
X157887165Y-101427962D01*
X157865554Y-101439513D01*
X157846613Y-101455058D01*
X157831067Y-101474000D01*
X157819516Y-101495611D01*
X157788291Y-101570995D01*
X157788290Y-101570996D01*
X157727990Y-101661242D01*
X157651242Y-101737990D01*
X157621308Y-101757991D01*
X157560995Y-101798291D01*
X157485611Y-101829516D01*
X157464000Y-101841067D01*
X157445059Y-101856612D01*
X157429513Y-101875554D01*
X157417962Y-101897165D01*
X157410849Y-101920614D01*
X157408447Y-101945000D01*
X157191553Y-101945000D01*
X157189151Y-101920614D01*
X157182038Y-101897165D01*
X157170487Y-101875554D01*
X157154942Y-101856613D01*
X157136000Y-101841067D01*
X157114389Y-101829516D01*
X157039005Y-101798291D01*
X156978692Y-101757991D01*
X156948758Y-101737990D01*
X156872010Y-101661242D01*
X156811710Y-101570996D01*
X156811709Y-101570995D01*
X156770174Y-101470721D01*
X156749000Y-101364270D01*
X156749000Y-101255730D01*
X156770174Y-101149279D01*
X156811709Y-101049005D01*
X156872009Y-100958760D01*
X156872010Y-100958758D01*
X156948758Y-100882010D01*
X157000563Y-100847395D01*
X157039005Y-100821709D01*
X157114389Y-100790484D01*
X157136000Y-100778933D01*
X157154941Y-100763388D01*
X157170487Y-100744446D01*
X157182038Y-100722835D01*
X157189151Y-100699386D01*
X157191553Y-100675000D01*
X157408447Y-100675000D01*
X157410849Y-100699386D01*
X157417962Y-100722835D01*
X157429513Y-100744446D01*
X157445058Y-100763387D01*
X157464000Y-100778933D01*
X157485611Y-100790484D01*
X157560995Y-100821709D01*
X157599437Y-100847395D01*
X157651242Y-100882010D01*
X157727990Y-100958758D01*
X157727991Y-100958760D01*
X157788291Y-101049005D01*
X157819516Y-101124389D01*
X157831067Y-101146000D01*
X157846612Y-101164941D01*
X157865554Y-101180487D01*
X157887165Y-101192038D01*
X157910614Y-101199151D01*
X157935000Y-101201553D01*
X157959386Y-101199151D01*
X157982835Y-101192038D01*
X158004446Y-101180487D01*
X158023387Y-101164942D01*
X158038933Y-101146000D01*
X158050484Y-101124389D01*
X158081709Y-101049005D01*
X158142009Y-100958760D01*
X158142010Y-100958758D01*
X158218758Y-100882010D01*
X158270563Y-100847395D01*
X158309005Y-100821709D01*
X158384389Y-100790484D01*
X158406000Y-100778933D01*
X158424941Y-100763388D01*
X158440487Y-100744446D01*
X158452038Y-100722835D01*
X158459151Y-100699386D01*
X158461553Y-100675000D01*
X158459151Y-100650614D01*
X158452038Y-100627165D01*
X158440487Y-100605554D01*
X158424942Y-100586613D01*
X158406000Y-100571067D01*
X158384389Y-100559516D01*
X158309005Y-100528291D01*
X158248692Y-100487991D01*
X158218758Y-100467990D01*
X158142010Y-100391242D01*
X158081710Y-100300996D01*
X158081709Y-100300995D01*
X158050484Y-100225611D01*
X158038933Y-100204000D01*
X158023388Y-100185059D01*
X158004446Y-100169513D01*
X157982835Y-100157962D01*
X157959386Y-100150849D01*
X157935000Y-100148447D01*
X157910614Y-100150849D01*
X157887165Y-100157962D01*
X157865554Y-100169513D01*
X157846613Y-100185058D01*
X157831067Y-100204000D01*
X157819516Y-100225611D01*
X157788291Y-100300995D01*
X157788290Y-100300996D01*
X157727990Y-100391242D01*
X157651242Y-100467990D01*
X157621308Y-100487991D01*
X157560995Y-100528291D01*
X157485611Y-100559516D01*
X157464000Y-100571067D01*
X157445059Y-100586612D01*
X157429513Y-100605554D01*
X157417962Y-100627165D01*
X157410849Y-100650614D01*
X157408447Y-100675000D01*
X157191553Y-100675000D01*
X157189151Y-100650614D01*
X157182038Y-100627165D01*
X157170487Y-100605554D01*
X157154942Y-100586613D01*
X157136000Y-100571067D01*
X157114389Y-100559516D01*
X157039005Y-100528291D01*
X156978692Y-100487991D01*
X156948758Y-100467990D01*
X156872010Y-100391242D01*
X156811710Y-100300996D01*
X156811709Y-100300995D01*
X156770174Y-100200721D01*
X156749000Y-100094270D01*
X156749000Y-99985730D01*
X156770174Y-99879279D01*
X156811709Y-99779005D01*
X156872009Y-99688760D01*
X156872010Y-99688758D01*
X156948758Y-99612010D01*
X156994188Y-99581655D01*
X157039005Y-99551709D01*
X157114389Y-99520484D01*
X157136000Y-99508933D01*
X157154941Y-99493388D01*
X157170487Y-99474446D01*
X157182038Y-99452835D01*
X157189151Y-99429386D01*
X157191553Y-99405000D01*
X157408447Y-99405000D01*
X157410849Y-99429386D01*
X157417962Y-99452835D01*
X157429513Y-99474446D01*
X157445058Y-99493387D01*
X157464000Y-99508933D01*
X157485611Y-99520484D01*
X157560995Y-99551709D01*
X157605812Y-99581655D01*
X157651242Y-99612010D01*
X157727990Y-99688758D01*
X157727991Y-99688760D01*
X157788291Y-99779005D01*
X157819516Y-99854389D01*
X157831067Y-99876000D01*
X157846612Y-99894941D01*
X157865554Y-99910487D01*
X157887165Y-99922038D01*
X157910614Y-99929151D01*
X157935000Y-99931553D01*
X157959386Y-99929151D01*
X157982835Y-99922038D01*
X158004446Y-99910487D01*
X158023387Y-99894942D01*
X158038933Y-99876000D01*
X158050484Y-99854389D01*
X158081709Y-99779005D01*
X158142009Y-99688760D01*
X158142010Y-99688758D01*
X158218758Y-99612010D01*
X158264188Y-99581655D01*
X158309005Y-99551709D01*
X158384389Y-99520484D01*
X158406000Y-99508933D01*
X158424941Y-99493388D01*
X158440487Y-99474446D01*
X158452038Y-99452835D01*
X158459151Y-99429386D01*
X158461553Y-99405000D01*
X158459151Y-99380614D01*
X158452038Y-99357165D01*
X158440487Y-99335554D01*
X158424942Y-99316613D01*
X158406000Y-99301067D01*
X158384389Y-99289516D01*
X158309005Y-99258291D01*
X158248692Y-99217991D01*
X158218758Y-99197990D01*
X158142010Y-99121242D01*
X158081710Y-99030996D01*
X158081709Y-99030995D01*
X158050484Y-98955611D01*
X158038933Y-98934000D01*
X158023388Y-98915059D01*
X158004446Y-98899513D01*
X157982835Y-98887962D01*
X157959386Y-98880849D01*
X157935000Y-98878447D01*
X157910614Y-98880849D01*
X157887165Y-98887962D01*
X157865554Y-98899513D01*
X157846613Y-98915058D01*
X157831067Y-98934000D01*
X157819516Y-98955611D01*
X157788291Y-99030995D01*
X157788290Y-99030996D01*
X157727990Y-99121242D01*
X157651242Y-99197990D01*
X157621308Y-99217991D01*
X157560995Y-99258291D01*
X157485611Y-99289516D01*
X157464000Y-99301067D01*
X157445059Y-99316612D01*
X157429513Y-99335554D01*
X157417962Y-99357165D01*
X157410849Y-99380614D01*
X157408447Y-99405000D01*
X157191553Y-99405000D01*
X157189151Y-99380614D01*
X157182038Y-99357165D01*
X157170487Y-99335554D01*
X157154942Y-99316613D01*
X157136000Y-99301067D01*
X157114389Y-99289516D01*
X157039005Y-99258291D01*
X156978692Y-99217991D01*
X156948758Y-99197990D01*
X156872010Y-99121242D01*
X156811710Y-99030996D01*
X156811709Y-99030995D01*
X156770174Y-98930721D01*
X156749000Y-98824270D01*
X156749000Y-98715730D01*
X156770174Y-98609279D01*
X156811709Y-98509005D01*
X156872009Y-98418760D01*
X156872010Y-98418758D01*
X156948758Y-98342010D01*
X157000563Y-98307395D01*
X157041664Y-98279932D01*
X157060606Y-98264386D01*
X157076151Y-98245444D01*
X157087702Y-98223833D01*
X157094815Y-98200385D01*
X157097216Y-98175999D01*
X157502783Y-98175999D01*
X157505185Y-98200385D01*
X157512298Y-98223834D01*
X157523849Y-98245445D01*
X157539394Y-98264387D01*
X157558336Y-98279932D01*
X157599437Y-98307395D01*
X157651242Y-98342010D01*
X157727990Y-98418758D01*
X157727991Y-98418760D01*
X157788291Y-98509005D01*
X157819516Y-98584389D01*
X157831067Y-98606000D01*
X157846612Y-98624941D01*
X157865554Y-98640487D01*
X157887165Y-98652038D01*
X157910614Y-98659151D01*
X157935000Y-98661553D01*
X157959386Y-98659151D01*
X157982835Y-98652038D01*
X158004446Y-98640487D01*
X158023387Y-98624942D01*
X158038933Y-98606000D01*
X158050484Y-98584389D01*
X158081709Y-98509005D01*
X158142009Y-98418760D01*
X158142010Y-98418758D01*
X158218758Y-98342010D01*
X158270563Y-98307395D01*
X158309005Y-98281709D01*
X158384389Y-98250484D01*
X158406000Y-98238933D01*
X158424941Y-98223388D01*
X158440487Y-98204446D01*
X158452038Y-98182835D01*
X158459151Y-98159386D01*
X158461553Y-98135000D01*
X158459151Y-98110614D01*
X158452038Y-98087165D01*
X158440487Y-98065554D01*
X158424942Y-98046613D01*
X158406000Y-98031067D01*
X158384389Y-98019516D01*
X158309005Y-97988291D01*
X158248692Y-97947991D01*
X158218758Y-97927990D01*
X158142010Y-97851242D01*
X158121012Y-97819816D01*
X158079932Y-97758336D01*
X158064386Y-97739394D01*
X158045444Y-97723849D01*
X158023833Y-97712298D01*
X158000385Y-97705185D01*
X157975998Y-97702783D01*
X157951612Y-97705185D01*
X157928163Y-97712298D01*
X157906553Y-97723849D01*
X157887611Y-97739395D01*
X157872066Y-97758337D01*
X157860515Y-97779948D01*
X157853402Y-97803396D01*
X157851000Y-97827782D01*
X157851000Y-98051000D01*
X157627782Y-98051000D01*
X157603396Y-98053402D01*
X157579947Y-98060515D01*
X157558336Y-98072066D01*
X157539394Y-98087611D01*
X157523849Y-98106553D01*
X157512298Y-98128164D01*
X157505185Y-98151613D01*
X157502783Y-98175999D01*
X157097216Y-98175999D01*
X157097217Y-98175998D01*
X157094815Y-98151612D01*
X157087702Y-98128163D01*
X157076151Y-98106553D01*
X157060605Y-98087611D01*
X157041663Y-98072066D01*
X157020052Y-98060515D01*
X156996604Y-98053402D01*
X156972218Y-98051000D01*
X156749000Y-98051000D01*
X156749000Y-96949000D01*
X157851000Y-96949000D01*
X157851000Y-97172218D01*
G37*
G36*
X176877395Y-99655546D02*
G01*
X177050466Y-99727234D01*
X177050467Y-99727235D01*
X177206227Y-99831310D01*
X177338690Y-99963773D01*
X177366725Y-100005731D01*
X177442766Y-100119534D01*
X177514454Y-100292605D01*
X177551000Y-100476333D01*
X177551000Y-100663667D01*
X177514454Y-100847395D01*
X177442766Y-101020466D01*
X177442765Y-101020467D01*
X177338690Y-101176227D01*
X177206227Y-101308690D01*
X177127818Y-101361081D01*
X177050466Y-101412766D01*
X176877395Y-101484454D01*
X176693667Y-101521000D01*
X176506333Y-101521000D01*
X176322605Y-101484454D01*
X176149534Y-101412766D01*
X176072182Y-101361081D01*
X175993773Y-101308690D01*
X175861310Y-101176227D01*
X175757235Y-101020467D01*
X175757234Y-101020466D01*
X175685546Y-100847395D01*
X175649000Y-100663667D01*
X175649000Y-100476333D01*
X175685546Y-100292605D01*
X175757234Y-100119534D01*
X175833275Y-100005731D01*
X175861310Y-99963773D01*
X175993773Y-99831310D01*
X176149533Y-99727235D01*
X176149534Y-99727234D01*
X176322605Y-99655546D01*
X176506333Y-99619000D01*
X176693667Y-99619000D01*
X176877395Y-99655546D01*
G37*
G36*
X176877395Y-97115546D02*
G01*
X177050466Y-97187234D01*
X177050467Y-97187235D01*
X177206227Y-97291310D01*
X177338690Y-97423773D01*
X177366725Y-97465731D01*
X177442766Y-97579534D01*
X177514454Y-97752605D01*
X177551000Y-97936333D01*
X177551000Y-98123667D01*
X177514454Y-98307395D01*
X177442766Y-98480466D01*
X177442765Y-98480467D01*
X177338690Y-98636227D01*
X177206227Y-98768690D01*
X177127818Y-98821081D01*
X177050466Y-98872766D01*
X176877395Y-98944454D01*
X176693667Y-98981000D01*
X176506333Y-98981000D01*
X176322605Y-98944454D01*
X176149534Y-98872766D01*
X176072182Y-98821081D01*
X175993773Y-98768690D01*
X175861310Y-98636227D01*
X175757235Y-98480467D01*
X175757234Y-98480466D01*
X175685546Y-98307395D01*
X175649000Y-98123667D01*
X175649000Y-97936333D01*
X175685546Y-97752605D01*
X175757234Y-97579534D01*
X175833275Y-97465731D01*
X175861310Y-97423773D01*
X175993773Y-97291310D01*
X176149533Y-97187235D01*
X176149534Y-97187234D01*
X176322605Y-97115546D01*
X176506333Y-97079000D01*
X176693667Y-97079000D01*
X176877395Y-97115546D01*
G37*
G36*
X169257395Y-97115546D02*
G01*
X169430466Y-97187234D01*
X169430467Y-97187235D01*
X169586227Y-97291310D01*
X169718690Y-97423773D01*
X169746725Y-97465731D01*
X169822766Y-97579534D01*
X169894454Y-97752605D01*
X169931000Y-97936333D01*
X169931000Y-98123667D01*
X169894454Y-98307395D01*
X169822766Y-98480466D01*
X169822765Y-98480467D01*
X169718690Y-98636227D01*
X169586227Y-98768690D01*
X169507818Y-98821081D01*
X169430466Y-98872766D01*
X169257395Y-98944454D01*
X169073667Y-98981000D01*
X168886333Y-98981000D01*
X168702605Y-98944454D01*
X168529534Y-98872766D01*
X168452182Y-98821081D01*
X168373773Y-98768690D01*
X168241310Y-98636227D01*
X168137235Y-98480467D01*
X168137234Y-98480466D01*
X168065546Y-98307395D01*
X168029000Y-98123667D01*
X168029000Y-97936333D01*
X168065546Y-97752605D01*
X168137234Y-97579534D01*
X168213275Y-97465731D01*
X168241310Y-97423773D01*
X168373773Y-97291310D01*
X168529533Y-97187235D01*
X168529534Y-97187234D01*
X168702605Y-97115546D01*
X168886333Y-97079000D01*
X169073667Y-97079000D01*
X169257395Y-97115546D01*
G37*
G36*
X176877395Y-94575546D02*
G01*
X177050466Y-94647234D01*
X177050467Y-94647235D01*
X177206227Y-94751310D01*
X177338690Y-94883773D01*
X177391081Y-94962182D01*
X177442766Y-95039534D01*
X177514454Y-95212605D01*
X177551000Y-95396333D01*
X177551000Y-95583667D01*
X177514454Y-95767395D01*
X177442766Y-95940466D01*
X177442765Y-95940467D01*
X177338690Y-96096227D01*
X177206227Y-96228690D01*
X177127818Y-96281081D01*
X177050466Y-96332766D01*
X176877395Y-96404454D01*
X176693667Y-96441000D01*
X176506333Y-96441000D01*
X176322605Y-96404454D01*
X176149534Y-96332766D01*
X176072182Y-96281081D01*
X175993773Y-96228690D01*
X175861310Y-96096227D01*
X175757235Y-95940467D01*
X175757234Y-95940466D01*
X175685546Y-95767395D01*
X175649000Y-95583667D01*
X175649000Y-95396333D01*
X175685546Y-95212605D01*
X175757234Y-95039534D01*
X175808919Y-94962182D01*
X175861310Y-94883773D01*
X175993773Y-94751310D01*
X176149533Y-94647235D01*
X176149534Y-94647234D01*
X176322605Y-94575546D01*
X176506333Y-94539000D01*
X176693667Y-94539000D01*
X176877395Y-94575546D01*
G37*
G36*
X128337142Y-93918242D02*
G01*
X128485101Y-93979529D01*
X128618255Y-94068499D01*
X128731501Y-94181745D01*
X128820471Y-94314899D01*
X128881758Y-94462858D01*
X128913000Y-94619925D01*
X128913000Y-94780075D01*
X128881758Y-94937142D01*
X128820471Y-95085101D01*
X128731501Y-95218255D01*
X128618255Y-95331501D01*
X128485101Y-95420471D01*
X128337142Y-95481758D01*
X128180075Y-95513000D01*
X128019925Y-95513000D01*
X127862858Y-95481758D01*
X127714899Y-95420471D01*
X127581745Y-95331501D01*
X127468499Y-95218255D01*
X127379529Y-95085101D01*
X127318242Y-94937142D01*
X127287000Y-94780075D01*
X127287000Y-94619925D01*
X127318242Y-94462858D01*
X127379529Y-94314899D01*
X127468499Y-94181745D01*
X127581745Y-94068499D01*
X127714899Y-93979529D01*
X127862858Y-93918242D01*
X128019925Y-93887000D01*
X128180075Y-93887000D01*
X128337142Y-93918242D01*
G37*
G36*
X130913000Y-95513000D02*
G01*
X129287000Y-95513000D01*
X129287000Y-93887000D01*
X130913000Y-93887000D01*
X130913000Y-95513000D01*
G37*
G36*
X121837142Y-93918242D02*
G01*
X121985101Y-93979529D01*
X122118255Y-94068499D01*
X122231501Y-94181745D01*
X122320471Y-94314899D01*
X122381758Y-94462858D01*
X122413000Y-94619925D01*
X122413000Y-94780075D01*
X122381758Y-94937142D01*
X122320471Y-95085101D01*
X122231501Y-95218255D01*
X122118255Y-95331501D01*
X121985101Y-95420471D01*
X121837142Y-95481758D01*
X121680075Y-95513000D01*
X121519925Y-95513000D01*
X121362858Y-95481758D01*
X121214899Y-95420471D01*
X121081745Y-95331501D01*
X120968499Y-95218255D01*
X120879529Y-95085101D01*
X120818242Y-94937142D01*
X120787000Y-94780075D01*
X120787000Y-94619925D01*
X120818242Y-94462858D01*
X120879529Y-94314899D01*
X120968499Y-94181745D01*
X121081745Y-94068499D01*
X121214899Y-93979529D01*
X121362858Y-93918242D01*
X121519925Y-93887000D01*
X121680075Y-93887000D01*
X121837142Y-93918242D01*
G37*
G36*
X124413000Y-95513000D02*
G01*
X122787000Y-95513000D01*
X122787000Y-93887000D01*
X124413000Y-93887000D01*
X124413000Y-95513000D01*
G37*
M02*
