M48
; DRILL file {KiCad (5.1.6)-1} date 05/12/21 18:04:45
; FORMAT={-:-/ absolute / metric / decimal}
; #@! TF.CreationDate,2021-05-12T18:04:45+09:00
; #@! TF.GenerationSoftware,Kicad,Pcbnew,(5.1.6)-1
FMAT,2
METRIC
T1C0.400
%
G90
G05
T1
X102.3Y-98.7
X108.1Y-96.9
X109.3Y-98.9
X111.224Y-94.176
X113.2Y-91.2
X116.484Y-88.002
X117.5Y-80.0
X118.9Y-84.5
X122.666Y-82.808
X124.9Y-78.5
X129.537Y-78.637
X133.0Y-76.125
X136.3Y-80.9
X136.9Y-74.8
X136.9Y-69.8
X141.0Y-74.1
X142.6Y-83.7
X144.5Y-79.1
X145.141Y-74.525
X146.1Y-80.7
X146.1Y-80.7
X148.4Y-75.1
X149.7Y-75.1
X149.9Y-85.5
X150.0Y-67.9
X150.8Y-82.0
X153.3Y-80.6
X153.387Y-73.487
X157.4Y-73.925
X157.6Y-83.7
X161.2Y-75.5
X163.6Y-69.8
X163.9Y-81.2
X165.4Y-75.725
X169.498Y-77.298
X173.0Y-79.1
X176.5Y-81.0
X179.963Y-83.537
X181.2Y-78.1
X182.9Y-86.2
X185.9Y-89.1
X188.5Y-92.3
X190.7Y-98.8
X190.9Y-95.7
X191.7Y-89.0
X197.9Y-98.6
T0
M30
