G04 #@! TF.GenerationSoftware,KiCad,Pcbnew,(5.1.6)-1*
G04 #@! TF.CreationDate,2021-05-12T18:09:09+09:00*
G04 #@! TF.ProjectId,SideSensor,53696465-5365-46e7-936f-722e6b696361,rev?*
G04 #@! TF.SameCoordinates,Original*
G04 #@! TF.FileFunction,Copper,L1,Top*
G04 #@! TF.FilePolarity,Positive*
%FSLAX46Y46*%
G04 Gerber Fmt 4.6, Leading zero omitted, Abs format (unit mm)*
G04 Created by KiCad (PCBNEW (5.1.6)-1) date 2021-05-12 18:09:09*
%MOMM*%
%LPD*%
G01*
G04 APERTURE LIST*
G04 #@! TA.AperFunction,ComponentPad*
%ADD10C,1.524000*%
G04 #@! TD*
G04 #@! TA.AperFunction,ViaPad*
%ADD11C,0.800000*%
G04 #@! TD*
G04 #@! TA.AperFunction,Conductor*
%ADD12C,0.250000*%
G04 #@! TD*
G04 #@! TA.AperFunction,Conductor*
%ADD13C,0.254000*%
G04 #@! TD*
G04 APERTURE END LIST*
D10*
X156600000Y-107730000D03*
X156600000Y-110270000D03*
X162400000Y-110270000D03*
X162400000Y-107730000D03*
G04 #@! TA.AperFunction,SMDPad,CuDef*
G36*
G01*
X159075000Y-110025000D02*
X159075000Y-110575000D01*
G75*
G02*
X158875000Y-110775000I-200000J0D01*
G01*
X158475000Y-110775000D01*
G75*
G02*
X158275000Y-110575000I0J200000D01*
G01*
X158275000Y-110025000D01*
G75*
G02*
X158475000Y-109825000I200000J0D01*
G01*
X158875000Y-109825000D01*
G75*
G02*
X159075000Y-110025000I0J-200000D01*
G01*
G37*
G04 #@! TD.AperFunction*
G04 #@! TA.AperFunction,SMDPad,CuDef*
G36*
G01*
X160725000Y-110025000D02*
X160725000Y-110575000D01*
G75*
G02*
X160525000Y-110775000I-200000J0D01*
G01*
X160125000Y-110775000D01*
G75*
G02*
X159925000Y-110575000I0J200000D01*
G01*
X159925000Y-110025000D01*
G75*
G02*
X160125000Y-109825000I200000J0D01*
G01*
X160525000Y-109825000D01*
G75*
G02*
X160725000Y-110025000I0J-200000D01*
G01*
G37*
G04 #@! TD.AperFunction*
G04 #@! TA.AperFunction,SMDPad,CuDef*
G36*
G01*
X152050001Y-107300000D02*
X150749999Y-107300000D01*
G75*
G02*
X150500000Y-107050001I0J249999D01*
G01*
X150500000Y-106349999D01*
G75*
G02*
X150749999Y-106100000I249999J0D01*
G01*
X152050001Y-106100000D01*
G75*
G02*
X152300000Y-106349999I0J-249999D01*
G01*
X152300000Y-107050001D01*
G75*
G02*
X152050001Y-107300000I-249999J0D01*
G01*
G37*
G04 #@! TD.AperFunction*
G04 #@! TA.AperFunction,SMDPad,CuDef*
G36*
G01*
X152050001Y-111900000D02*
X150749999Y-111900000D01*
G75*
G02*
X150500000Y-111650001I0J249999D01*
G01*
X150500000Y-110949999D01*
G75*
G02*
X150749999Y-110700000I249999J0D01*
G01*
X152050001Y-110700000D01*
G75*
G02*
X152300000Y-110949999I0J-249999D01*
G01*
X152300000Y-111650001D01*
G75*
G02*
X152050001Y-111900000I-249999J0D01*
G01*
G37*
G04 #@! TD.AperFunction*
G04 #@! TA.AperFunction,SMDPad,CuDef*
G36*
G01*
X154550000Y-108300000D02*
X153300000Y-108300000D01*
G75*
G02*
X153150000Y-108150000I0J150000D01*
G01*
X153150000Y-107850000D01*
G75*
G02*
X153300000Y-107700000I150000J0D01*
G01*
X154550000Y-107700000D01*
G75*
G02*
X154700000Y-107850000I0J-150000D01*
G01*
X154700000Y-108150000D01*
G75*
G02*
X154550000Y-108300000I-150000J0D01*
G01*
G37*
G04 #@! TD.AperFunction*
G04 #@! TA.AperFunction,SMDPad,CuDef*
G36*
G01*
X154550000Y-109300000D02*
X153300000Y-109300000D01*
G75*
G02*
X153150000Y-109150000I0J150000D01*
G01*
X153150000Y-108850000D01*
G75*
G02*
X153300000Y-108700000I150000J0D01*
G01*
X154550000Y-108700000D01*
G75*
G02*
X154700000Y-108850000I0J-150000D01*
G01*
X154700000Y-109150000D01*
G75*
G02*
X154550000Y-109300000I-150000J0D01*
G01*
G37*
G04 #@! TD.AperFunction*
G04 #@! TA.AperFunction,SMDPad,CuDef*
G36*
G01*
X154550000Y-110300000D02*
X153300000Y-110300000D01*
G75*
G02*
X153150000Y-110150000I0J150000D01*
G01*
X153150000Y-109850000D01*
G75*
G02*
X153300000Y-109700000I150000J0D01*
G01*
X154550000Y-109700000D01*
G75*
G02*
X154700000Y-109850000I0J-150000D01*
G01*
X154700000Y-110150000D01*
G75*
G02*
X154550000Y-110300000I-150000J0D01*
G01*
G37*
G04 #@! TD.AperFunction*
G04 #@! TA.AperFunction,SMDPad,CuDef*
G36*
G01*
X159175000Y-107450000D02*
X159175000Y-107950000D01*
G75*
G02*
X158950000Y-108175000I-225000J0D01*
G01*
X158500000Y-108175000D01*
G75*
G02*
X158275000Y-107950000I0J225000D01*
G01*
X158275000Y-107450000D01*
G75*
G02*
X158500000Y-107225000I225000J0D01*
G01*
X158950000Y-107225000D01*
G75*
G02*
X159175000Y-107450000I0J-225000D01*
G01*
G37*
G04 #@! TD.AperFunction*
G04 #@! TA.AperFunction,SMDPad,CuDef*
G36*
G01*
X160725000Y-107450000D02*
X160725000Y-107950000D01*
G75*
G02*
X160500000Y-108175000I-225000J0D01*
G01*
X160050000Y-108175000D01*
G75*
G02*
X159825000Y-107950000I0J225000D01*
G01*
X159825000Y-107450000D01*
G75*
G02*
X160050000Y-107225000I225000J0D01*
G01*
X160500000Y-107225000D01*
G75*
G02*
X160725000Y-107450000I0J-225000D01*
G01*
G37*
G04 #@! TD.AperFunction*
D11*
X151800000Y-108025000D03*
X149400000Y-106600000D03*
X149400000Y-108800000D03*
X149300000Y-111400000D03*
X174600000Y-109000000D03*
X169200000Y-108700000D03*
X158500000Y-108600000D03*
X151800000Y-109575000D03*
D12*
X156330000Y-108000000D02*
X156600000Y-107730000D01*
X153925000Y-108000000D02*
X156330000Y-108000000D01*
X158695000Y-107730000D02*
X158725000Y-107700000D01*
X156600000Y-107730000D02*
X158695000Y-107730000D01*
X153925000Y-108000000D02*
X151825000Y-108000000D01*
X151825000Y-108000000D02*
X151800000Y-108025000D01*
X160275000Y-110250000D02*
X160325000Y-110300000D01*
X160275000Y-107700000D02*
X160275000Y-110250000D01*
X162370000Y-110300000D02*
X162400000Y-110270000D01*
X160325000Y-110300000D02*
X162370000Y-110300000D01*
X159267999Y-111357001D02*
X160325000Y-110300000D01*
X155282001Y-111357001D02*
X159267999Y-111357001D01*
X153925000Y-110000000D02*
X155282001Y-111357001D01*
X153925000Y-110000000D02*
X152225000Y-110000000D01*
X152225000Y-110000000D02*
X151800000Y-109575000D01*
X156630000Y-110300000D02*
X156600000Y-110270000D01*
X158675000Y-110300000D02*
X156630000Y-110300000D01*
X155330000Y-109000000D02*
X153925000Y-109000000D01*
X156600000Y-110270000D02*
X155330000Y-109000000D01*
D13*
G36*
X149861928Y-106349999D02*
G01*
X149861928Y-107050001D01*
X149878992Y-107223255D01*
X149929528Y-107389851D01*
X150011595Y-107543387D01*
X150122038Y-107677962D01*
X150256613Y-107788405D01*
X150410149Y-107870472D01*
X150576745Y-107921008D01*
X150749999Y-107938072D01*
X152050001Y-107938072D01*
X152223255Y-107921008D01*
X152389851Y-107870472D01*
X152543387Y-107788405D01*
X152677962Y-107677962D01*
X152788405Y-107543387D01*
X152870472Y-107389851D01*
X152921008Y-107223255D01*
X152938072Y-107050001D01*
X152938072Y-106349999D01*
X152921821Y-106185001D01*
X175173000Y-106185001D01*
X175173000Y-108722318D01*
X175153932Y-108818178D01*
X175153932Y-109181822D01*
X175173000Y-109277682D01*
X175173000Y-111815001D01*
X163827000Y-111815000D01*
X163827000Y-107600000D01*
X163824560Y-107575224D01*
X163817333Y-107551399D01*
X163805597Y-107529443D01*
X163789803Y-107510197D01*
X163778861Y-107501218D01*
X163743314Y-107322510D01*
X163638005Y-107068273D01*
X163485120Y-106839465D01*
X163290535Y-106644880D01*
X163061727Y-106491995D01*
X162807490Y-106386686D01*
X162537592Y-106333000D01*
X162262408Y-106333000D01*
X161992510Y-106386686D01*
X161738273Y-106491995D01*
X161509465Y-106644880D01*
X161314880Y-106839465D01*
X161221931Y-106978572D01*
X161217618Y-106970503D01*
X161110284Y-106839716D01*
X160979497Y-106732382D01*
X160830283Y-106652625D01*
X160668377Y-106603512D01*
X160500000Y-106586928D01*
X160050000Y-106586928D01*
X159881623Y-106603512D01*
X159719717Y-106652625D01*
X159570503Y-106732382D01*
X159439716Y-106839716D01*
X159332382Y-106970503D01*
X159252625Y-107119717D01*
X159203512Y-107281623D01*
X159186928Y-107450000D01*
X159186928Y-107950000D01*
X159203512Y-108118377D01*
X159252625Y-108280283D01*
X159332382Y-108429497D01*
X159439716Y-108560284D01*
X159515000Y-108622068D01*
X159515001Y-109453588D01*
X159500000Y-109471866D01*
X159467606Y-109432394D01*
X159340608Y-109328169D01*
X159195716Y-109250722D01*
X159038500Y-109203031D01*
X158875000Y-109186928D01*
X158475000Y-109186928D01*
X158311500Y-109203031D01*
X158154284Y-109250722D01*
X158009392Y-109328169D01*
X157882394Y-109432394D01*
X157794084Y-109540000D01*
X157792386Y-109540000D01*
X157685120Y-109379465D01*
X157490535Y-109184880D01*
X157261727Y-109031995D01*
X157007490Y-108926686D01*
X156737592Y-108873000D01*
X156462408Y-108873000D01*
X156308430Y-108903628D01*
X155893804Y-108489003D01*
X155870001Y-108459999D01*
X155754276Y-108365026D01*
X155622247Y-108294454D01*
X155478986Y-108250997D01*
X155367333Y-108240000D01*
X155367322Y-108240000D01*
X155330000Y-108236324D01*
X155292678Y-108240000D01*
X155042976Y-108240000D01*
X154987829Y-108194742D01*
X154851582Y-108121916D01*
X154703745Y-108077071D01*
X154550000Y-108061928D01*
X153300000Y-108061928D01*
X153146255Y-108077071D01*
X152998418Y-108121916D01*
X152862171Y-108194742D01*
X152742749Y-108292749D01*
X152644742Y-108412171D01*
X152571916Y-108548418D01*
X152527071Y-108696255D01*
X152514329Y-108825618D01*
X152459774Y-108771063D01*
X152290256Y-108657795D01*
X152101898Y-108579774D01*
X151901939Y-108540000D01*
X151698061Y-108540000D01*
X151498102Y-108579774D01*
X151309744Y-108657795D01*
X151140226Y-108771063D01*
X150996063Y-108915226D01*
X150882795Y-109084744D01*
X150804774Y-109273102D01*
X150765000Y-109473061D01*
X150765000Y-109676939D01*
X150804774Y-109876898D01*
X150881416Y-110061928D01*
X150749999Y-110061928D01*
X150576745Y-110078992D01*
X150410149Y-110129528D01*
X150256613Y-110211595D01*
X150122038Y-110322038D01*
X150011595Y-110456613D01*
X149929528Y-110610149D01*
X149878992Y-110776745D01*
X149861928Y-110949999D01*
X149861928Y-111650001D01*
X149878179Y-111814999D01*
X148827000Y-111814999D01*
X148827000Y-109277692D01*
X148846070Y-109181822D01*
X148846070Y-108818178D01*
X148827000Y-108722308D01*
X148827000Y-106185001D01*
X149878179Y-106185001D01*
X149861928Y-106349999D01*
G37*
X149861928Y-106349999D02*
X149861928Y-107050001D01*
X149878992Y-107223255D01*
X149929528Y-107389851D01*
X150011595Y-107543387D01*
X150122038Y-107677962D01*
X150256613Y-107788405D01*
X150410149Y-107870472D01*
X150576745Y-107921008D01*
X150749999Y-107938072D01*
X152050001Y-107938072D01*
X152223255Y-107921008D01*
X152389851Y-107870472D01*
X152543387Y-107788405D01*
X152677962Y-107677962D01*
X152788405Y-107543387D01*
X152870472Y-107389851D01*
X152921008Y-107223255D01*
X152938072Y-107050001D01*
X152938072Y-106349999D01*
X152921821Y-106185001D01*
X175173000Y-106185001D01*
X175173000Y-108722318D01*
X175153932Y-108818178D01*
X175153932Y-109181822D01*
X175173000Y-109277682D01*
X175173000Y-111815001D01*
X163827000Y-111815000D01*
X163827000Y-107600000D01*
X163824560Y-107575224D01*
X163817333Y-107551399D01*
X163805597Y-107529443D01*
X163789803Y-107510197D01*
X163778861Y-107501218D01*
X163743314Y-107322510D01*
X163638005Y-107068273D01*
X163485120Y-106839465D01*
X163290535Y-106644880D01*
X163061727Y-106491995D01*
X162807490Y-106386686D01*
X162537592Y-106333000D01*
X162262408Y-106333000D01*
X161992510Y-106386686D01*
X161738273Y-106491995D01*
X161509465Y-106644880D01*
X161314880Y-106839465D01*
X161221931Y-106978572D01*
X161217618Y-106970503D01*
X161110284Y-106839716D01*
X160979497Y-106732382D01*
X160830283Y-106652625D01*
X160668377Y-106603512D01*
X160500000Y-106586928D01*
X160050000Y-106586928D01*
X159881623Y-106603512D01*
X159719717Y-106652625D01*
X159570503Y-106732382D01*
X159439716Y-106839716D01*
X159332382Y-106970503D01*
X159252625Y-107119717D01*
X159203512Y-107281623D01*
X159186928Y-107450000D01*
X159186928Y-107950000D01*
X159203512Y-108118377D01*
X159252625Y-108280283D01*
X159332382Y-108429497D01*
X159439716Y-108560284D01*
X159515000Y-108622068D01*
X159515001Y-109453588D01*
X159500000Y-109471866D01*
X159467606Y-109432394D01*
X159340608Y-109328169D01*
X159195716Y-109250722D01*
X159038500Y-109203031D01*
X158875000Y-109186928D01*
X158475000Y-109186928D01*
X158311500Y-109203031D01*
X158154284Y-109250722D01*
X158009392Y-109328169D01*
X157882394Y-109432394D01*
X157794084Y-109540000D01*
X157792386Y-109540000D01*
X157685120Y-109379465D01*
X157490535Y-109184880D01*
X157261727Y-109031995D01*
X157007490Y-108926686D01*
X156737592Y-108873000D01*
X156462408Y-108873000D01*
X156308430Y-108903628D01*
X155893804Y-108489003D01*
X155870001Y-108459999D01*
X155754276Y-108365026D01*
X155622247Y-108294454D01*
X155478986Y-108250997D01*
X155367333Y-108240000D01*
X155367322Y-108240000D01*
X155330000Y-108236324D01*
X155292678Y-108240000D01*
X155042976Y-108240000D01*
X154987829Y-108194742D01*
X154851582Y-108121916D01*
X154703745Y-108077071D01*
X154550000Y-108061928D01*
X153300000Y-108061928D01*
X153146255Y-108077071D01*
X152998418Y-108121916D01*
X152862171Y-108194742D01*
X152742749Y-108292749D01*
X152644742Y-108412171D01*
X152571916Y-108548418D01*
X152527071Y-108696255D01*
X152514329Y-108825618D01*
X152459774Y-108771063D01*
X152290256Y-108657795D01*
X152101898Y-108579774D01*
X151901939Y-108540000D01*
X151698061Y-108540000D01*
X151498102Y-108579774D01*
X151309744Y-108657795D01*
X151140226Y-108771063D01*
X150996063Y-108915226D01*
X150882795Y-109084744D01*
X150804774Y-109273102D01*
X150765000Y-109473061D01*
X150765000Y-109676939D01*
X150804774Y-109876898D01*
X150881416Y-110061928D01*
X150749999Y-110061928D01*
X150576745Y-110078992D01*
X150410149Y-110129528D01*
X150256613Y-110211595D01*
X150122038Y-110322038D01*
X150011595Y-110456613D01*
X149929528Y-110610149D01*
X149878992Y-110776745D01*
X149861928Y-110949999D01*
X149861928Y-111650001D01*
X149878179Y-111814999D01*
X148827000Y-111814999D01*
X148827000Y-109277692D01*
X148846070Y-109181822D01*
X148846070Y-108818178D01*
X148827000Y-108722308D01*
X148827000Y-106185001D01*
X149878179Y-106185001D01*
X149861928Y-106349999D01*
M02*
