G04 #@! TF.GenerationSoftware,KiCad,Pcbnew,(5.1.6)-1*
G04 #@! TF.CreationDate,2021-05-12T18:04:34+09:00*
G04 #@! TF.ProjectId,FollowingSensor1.0,466f6c6c-6f77-4696-9e67-53656e736f72,rev?*
G04 #@! TF.SameCoordinates,Original*
G04 #@! TF.FileFunction,Legend,Top*
G04 #@! TF.FilePolarity,Positive*
%FSLAX46Y46*%
G04 Gerber Fmt 4.6, Leading zero omitted, Abs format (unit mm)*
G04 Created by KiCad (PCBNEW (5.1.6)-1) date 2021-05-12 18:04:34*
%MOMM*%
%LPD*%
G01*
G04 APERTURE LIST*
%ADD10C,0.100000*%
%ADD11C,0.010000*%
%ADD12C,0.150000*%
%ADD13R,0.400000X1.100000*%
%ADD14R,2.100000X1.400000*%
G04 APERTURE END LIST*
D10*
X108617504Y-94365575D02*
X107818868Y-93763760D01*
X107962158Y-93573609D01*
X108086162Y-93488176D01*
X108219538Y-93469431D01*
X108324256Y-93488717D01*
X108505035Y-93565318D01*
X108619126Y-93651291D01*
X108742589Y-93803953D01*
X108789992Y-93899299D01*
X108808737Y-94032675D01*
X108760793Y-94175424D01*
X108617504Y-94365575D01*
X109410552Y-93234040D02*
X109391266Y-93338758D01*
X109276635Y-93490879D01*
X109181289Y-93538282D01*
X109076570Y-93518997D01*
X108772328Y-93289734D01*
X108724926Y-93194388D01*
X108744211Y-93089669D01*
X108858842Y-92937548D01*
X108954188Y-92890146D01*
X109058907Y-92909431D01*
X109134967Y-92966747D01*
X108924449Y-93404365D01*
X109668472Y-92891768D02*
X109763818Y-92844365D01*
X109878450Y-92692244D01*
X109897735Y-92587525D01*
X109850332Y-92492179D01*
X109812302Y-92463522D01*
X109707584Y-92444236D01*
X109612238Y-92491639D01*
X109526264Y-92605730D01*
X109430918Y-92653132D01*
X109326200Y-92633847D01*
X109288170Y-92605189D01*
X109240767Y-92509843D01*
X109260052Y-92405125D01*
X109346026Y-92291034D01*
X109441372Y-92243631D01*
X110222344Y-92235881D02*
X109689920Y-91834671D01*
X109423708Y-91634066D02*
X109433081Y-91700754D01*
X109499769Y-91691381D01*
X109490397Y-91624693D01*
X109423708Y-91634066D01*
X109499769Y-91691381D01*
X110234420Y-91112096D02*
X110880934Y-91599279D01*
X110928337Y-91694625D01*
X110937709Y-91761313D01*
X110918424Y-91866032D01*
X110832450Y-91980122D01*
X110737104Y-92027525D01*
X110728813Y-91484648D02*
X110709528Y-91589366D01*
X110594896Y-91741487D01*
X110499550Y-91788890D01*
X110432862Y-91798262D01*
X110328144Y-91778977D01*
X110099962Y-91607030D01*
X110052559Y-91511684D01*
X110043187Y-91444996D01*
X110062472Y-91340277D01*
X110177104Y-91188156D01*
X110272450Y-91140753D01*
X110520998Y-90731793D02*
X111053422Y-91133003D01*
X110597059Y-90789109D02*
X110587686Y-90722421D01*
X110606972Y-90617702D01*
X110692945Y-90503611D01*
X110788291Y-90456209D01*
X110893010Y-90475494D01*
X111311343Y-90790731D01*
X111789154Y-90077528D02*
X111769868Y-90182246D01*
X111655237Y-90334368D01*
X111559891Y-90381770D01*
X111455173Y-90362485D01*
X111150930Y-90133222D01*
X111103528Y-90037876D01*
X111122813Y-89933158D01*
X111237445Y-89781036D01*
X111332791Y-89733634D01*
X111437509Y-89752919D01*
X111513570Y-89810235D01*
X111303052Y-90247853D01*
X112371683Y-89383611D02*
X111573048Y-88781796D01*
X112333653Y-89354953D02*
X112314368Y-89459671D01*
X112199736Y-89611793D01*
X112104390Y-89659195D01*
X112037702Y-89668568D01*
X111932984Y-89649282D01*
X111704802Y-89477335D01*
X111657399Y-89381989D01*
X111648027Y-89315301D01*
X111667313Y-89210583D01*
X111781944Y-89058461D01*
X111877290Y-89011059D01*
X113116788Y-88394824D02*
X112318152Y-87793009D01*
X112622394Y-88022272D02*
X112641680Y-87917554D01*
X112756311Y-87765433D01*
X112851657Y-87718030D01*
X112918345Y-87708657D01*
X113023064Y-87727943D01*
X113251245Y-87899890D01*
X113298648Y-87995236D01*
X113308020Y-88061924D01*
X113288735Y-88166643D01*
X113174103Y-88318764D01*
X113078757Y-88366166D01*
X113071548Y-87347100D02*
X113747261Y-87558158D01*
X113358126Y-86966797D02*
X113747261Y-87558158D01*
X113880096Y-87777508D01*
X113889469Y-87844196D01*
X113870183Y-87948915D01*
X113779703Y-85853466D02*
X114426217Y-86340649D01*
X114530936Y-86359935D01*
X114597624Y-86350562D01*
X114692970Y-86303160D01*
X114807601Y-86151039D01*
X114826887Y-86046320D01*
X114817514Y-85979632D01*
X114770112Y-85884286D01*
X114123597Y-85397103D01*
X114676388Y-85217405D02*
X115208811Y-85618615D01*
X114752448Y-85274721D02*
X114743076Y-85208033D01*
X114762361Y-85103314D01*
X114848335Y-84989223D01*
X114943681Y-84941821D01*
X115048399Y-84961106D01*
X115466732Y-85276343D01*
X116011231Y-84553768D02*
X115212596Y-83951953D01*
X115973201Y-84525110D02*
X115953916Y-84629828D01*
X115839284Y-84781949D01*
X115743938Y-84829352D01*
X115677250Y-84838724D01*
X115572532Y-84819439D01*
X115344350Y-84647492D01*
X115296947Y-84552146D01*
X115287575Y-84485458D01*
X115306861Y-84380739D01*
X115421492Y-84228618D01*
X115516838Y-84181215D01*
X116489043Y-83840565D02*
X116469757Y-83945283D01*
X116355126Y-84097404D01*
X116259780Y-84144807D01*
X116155061Y-84125522D01*
X115850819Y-83896259D01*
X115803417Y-83800913D01*
X115822702Y-83696194D01*
X115937333Y-83544073D01*
X116032679Y-83496671D01*
X116137398Y-83515956D01*
X116213458Y-83573272D01*
X116002940Y-84010890D01*
X116813651Y-83488920D02*
X116281228Y-83087710D01*
X116433349Y-83202342D02*
X116385946Y-83106996D01*
X116376574Y-83040308D01*
X116395859Y-82935589D01*
X116453175Y-82859529D01*
X116968476Y-82413079D02*
X117092480Y-82327646D01*
X117159168Y-82318273D01*
X117263886Y-82337559D01*
X117377977Y-82423532D01*
X117425379Y-82518878D01*
X117434752Y-82585566D01*
X117415466Y-82690285D01*
X117186204Y-82994527D01*
X116387568Y-82392712D01*
X116588173Y-82126500D01*
X116683519Y-82079097D01*
X116750207Y-82069725D01*
X116854926Y-82089010D01*
X116930986Y-82146326D01*
X116978389Y-82241672D01*
X116987761Y-82308360D01*
X116968476Y-82413079D01*
X116767871Y-82679290D01*
X117788019Y-82195891D02*
X117255595Y-81794681D01*
X116989383Y-81594076D02*
X116998755Y-81660764D01*
X117065444Y-81651392D01*
X117056071Y-81584704D01*
X116989383Y-81594076D01*
X117065444Y-81651392D01*
X118074597Y-81815589D02*
X117542173Y-81414379D01*
X117694295Y-81529010D02*
X117646892Y-81433664D01*
X117637519Y-81366976D01*
X117656805Y-81262258D01*
X117714121Y-81186197D01*
X118705070Y-80978923D02*
X117906435Y-80377108D01*
X118667040Y-80950265D02*
X118647754Y-81054983D01*
X118533123Y-81207105D01*
X118437777Y-81254507D01*
X118371089Y-81263880D01*
X118266370Y-81244594D01*
X118038189Y-81072647D01*
X117990786Y-80977301D01*
X117981414Y-80910613D01*
X118000699Y-80805895D01*
X118115331Y-80653773D01*
X118210677Y-80606371D01*
X107433037Y-93538030D02*
X107557041Y-93452597D01*
X107700330Y-93262446D01*
X107719616Y-93157727D01*
X107710243Y-93091039D01*
X107662841Y-92995693D01*
X107586780Y-92938378D01*
X107482062Y-92919092D01*
X107415374Y-92928464D01*
X107320028Y-92975867D01*
X107167366Y-93099330D01*
X107072020Y-93146733D01*
X107005332Y-93156105D01*
X106900613Y-93136820D01*
X106824553Y-93079504D01*
X106777150Y-92984158D01*
X106767778Y-92917470D01*
X106787063Y-92812752D01*
X106930353Y-92622600D01*
X107054356Y-92537167D01*
X108264115Y-92435152D02*
X108244830Y-92539871D01*
X108130198Y-92691992D01*
X108034852Y-92739394D01*
X107930134Y-92720109D01*
X107625892Y-92490846D01*
X107578489Y-92395500D01*
X107597774Y-92290782D01*
X107712406Y-92138661D01*
X107807752Y-92091258D01*
X107912470Y-92110543D01*
X107988531Y-92167859D01*
X107778013Y-92605478D01*
X108056300Y-91682298D02*
X108588724Y-92083508D01*
X108132361Y-91739613D02*
X108122988Y-91672925D01*
X108142274Y-91568207D01*
X108228247Y-91454116D01*
X108323593Y-91406713D01*
X108428312Y-91425999D01*
X108846645Y-91741235D01*
X109066535Y-91370305D02*
X109161881Y-91322902D01*
X109276512Y-91170781D01*
X109295798Y-91066063D01*
X109248395Y-90970717D01*
X109210365Y-90942059D01*
X109105647Y-90922774D01*
X109010301Y-90970176D01*
X108924327Y-91084267D01*
X108828981Y-91131670D01*
X108724263Y-91112384D01*
X108686232Y-91083726D01*
X108638830Y-90988380D01*
X108658115Y-90883662D01*
X108744089Y-90769571D01*
X108839435Y-90722169D01*
X109706380Y-90600327D02*
X109611034Y-90647730D01*
X109544346Y-90657102D01*
X109439628Y-90637817D01*
X109211446Y-90465870D01*
X109164044Y-90370524D01*
X109154671Y-90303836D01*
X109173957Y-90199117D01*
X109259930Y-90085027D01*
X109355276Y-90037624D01*
X109421964Y-90028251D01*
X109526683Y-90047537D01*
X109754864Y-90219484D01*
X109802267Y-90314830D01*
X109811639Y-90381518D01*
X109792354Y-90486237D01*
X109706380Y-90600327D01*
X110164906Y-89991843D02*
X109632482Y-89590633D01*
X109784603Y-89705265D02*
X109737201Y-89609919D01*
X109727828Y-89543230D01*
X109747114Y-89438512D01*
X109804429Y-89362452D01*
X110778256Y-88307517D02*
X110902260Y-88222084D01*
X110968948Y-88212712D01*
X111073666Y-88231997D01*
X111187757Y-88317971D01*
X111235160Y-88413317D01*
X111244532Y-88480005D01*
X111225247Y-88584723D01*
X110995984Y-88888966D01*
X110197348Y-88287151D01*
X110397953Y-88020939D01*
X110493299Y-87973536D01*
X110559987Y-87964164D01*
X110664706Y-87983449D01*
X110740766Y-88040765D01*
X110788169Y-88136111D01*
X110797541Y-88202799D01*
X110778256Y-88307517D01*
X110577651Y-88573729D01*
X111683772Y-87976239D02*
X111588427Y-88023642D01*
X111521738Y-88033014D01*
X111417020Y-88013729D01*
X111188838Y-87841782D01*
X111141436Y-87746436D01*
X111132063Y-87679748D01*
X111151349Y-87575029D01*
X111237322Y-87460938D01*
X111332668Y-87413536D01*
X111399356Y-87404163D01*
X111504075Y-87423449D01*
X111732256Y-87595396D01*
X111779659Y-87690742D01*
X111789032Y-87757430D01*
X111769746Y-87862148D01*
X111683772Y-87976239D01*
X112400219Y-87025483D02*
X111981886Y-86710246D01*
X111877168Y-86690961D01*
X111781822Y-86738363D01*
X111667190Y-86890484D01*
X111647905Y-86995203D01*
X112362189Y-86996825D02*
X112342903Y-87101543D01*
X112199614Y-87291695D01*
X112104268Y-87339097D01*
X111999550Y-87319812D01*
X111923489Y-87262496D01*
X111876086Y-87167150D01*
X111895372Y-87062432D01*
X112038661Y-86872280D01*
X112057947Y-86767562D01*
X112686798Y-86645180D02*
X112154374Y-86243970D01*
X112306495Y-86358601D02*
X112259092Y-86263255D01*
X112249720Y-86196567D01*
X112269005Y-86091849D01*
X112326321Y-86015788D01*
X113317270Y-85808514D02*
X112518635Y-85206699D01*
X113279240Y-85779856D02*
X113259955Y-85884575D01*
X113145323Y-86036696D01*
X113049977Y-86084099D01*
X112983289Y-86093471D01*
X112878571Y-86074185D01*
X112650389Y-85902238D01*
X112602987Y-85806892D01*
X112593614Y-85740204D01*
X112612900Y-85635486D01*
X112727531Y-85483365D01*
X112822877Y-85435962D01*
X113472635Y-84494578D02*
X114148348Y-84705637D01*
X113759214Y-84114275D01*
X114836137Y-83792910D02*
X114492243Y-84249274D01*
X114664190Y-84021092D02*
X113865554Y-83419277D01*
X113922329Y-83581311D01*
X113941074Y-83714687D01*
X113921789Y-83819406D01*
X115017997Y-83393322D02*
X115084685Y-83383950D01*
X115094058Y-83450638D01*
X115027370Y-83460010D01*
X115017997Y-83393322D01*
X115094058Y-83450638D01*
X114696632Y-82316399D02*
X114753948Y-82240339D01*
X114849294Y-82192936D01*
X114915982Y-82183564D01*
X115020700Y-82202849D01*
X115201479Y-82279450D01*
X115391631Y-82422740D01*
X115515094Y-82575401D01*
X115562496Y-82670747D01*
X115571869Y-82737435D01*
X115552583Y-82842154D01*
X115495268Y-82918214D01*
X115399922Y-82965617D01*
X115333234Y-82974989D01*
X115228515Y-82955704D01*
X115047736Y-82879103D01*
X114857585Y-82735813D01*
X114734122Y-82583152D01*
X114686719Y-82487806D01*
X114677347Y-82421118D01*
X114696632Y-82316399D01*
D11*
G36*
X103955158Y-94971586D02*
G01*
X103999870Y-94986136D01*
X104032201Y-94994975D01*
X104055110Y-94998152D01*
X104071558Y-94995715D01*
X104084506Y-94987718D01*
X104096911Y-94974206D01*
X104097102Y-94973970D01*
X104100581Y-94965653D01*
X104099525Y-94952679D01*
X104093151Y-94932576D01*
X104080682Y-94902879D01*
X104061715Y-94861914D01*
X104044321Y-94824754D01*
X104029662Y-94792608D01*
X104019105Y-94768530D01*
X104014015Y-94755577D01*
X104013776Y-94754613D01*
X104018740Y-94745954D01*
X104032567Y-94729713D01*
X104051908Y-94709237D01*
X104073417Y-94687871D01*
X104093743Y-94668961D01*
X104109539Y-94655854D01*
X104116659Y-94651795D01*
X104125425Y-94655179D01*
X104145819Y-94664972D01*
X104175057Y-94679785D01*
X104210355Y-94698228D01*
X104221334Y-94704061D01*
X104320748Y-94757065D01*
X104339513Y-94740351D01*
X104355038Y-94725668D01*
X104364592Y-94715259D01*
X104364328Y-94705212D01*
X104359915Y-94682796D01*
X104352223Y-94651242D01*
X104342117Y-94613780D01*
X104330466Y-94573644D01*
X104318138Y-94534063D01*
X104307347Y-94502060D01*
X104312244Y-94493733D01*
X104328112Y-94478701D01*
X104352299Y-94459359D01*
X104364607Y-94450308D01*
X104424862Y-94407037D01*
X104517363Y-94476689D01*
X104609864Y-94546342D01*
X104638881Y-94529787D01*
X104667897Y-94513232D01*
X104652620Y-94398071D01*
X104637342Y-94282912D01*
X104705093Y-94249417D01*
X104737704Y-94233816D01*
X104759130Y-94225322D01*
X104772556Y-94223161D01*
X104781163Y-94226561D01*
X104784648Y-94230096D01*
X104794971Y-94241485D01*
X104813962Y-94261559D01*
X104838779Y-94287339D01*
X104862720Y-94311911D01*
X104928988Y-94379551D01*
X104958437Y-94372026D01*
X104978697Y-94365851D01*
X104990857Y-94360280D01*
X104991730Y-94359468D01*
X104993247Y-94349859D01*
X104994738Y-94327003D01*
X104996057Y-94294042D01*
X104997055Y-94254116D01*
X104997258Y-94242005D01*
X104998942Y-94129576D01*
X105047838Y-94113639D01*
X105077904Y-94104064D01*
X105104940Y-94095832D01*
X105119114Y-94091807D01*
X105141494Y-94085910D01*
X105273939Y-94270812D01*
X105301931Y-94267766D01*
X105323078Y-94263023D01*
X105336736Y-94255604D01*
X105337286Y-94254949D01*
X105341294Y-94243517D01*
X105346979Y-94219271D01*
X105353623Y-94185607D01*
X105360514Y-94145923D01*
X105361471Y-94139999D01*
X105378293Y-94034819D01*
X105454000Y-94024207D01*
X105529708Y-94013596D01*
X105576846Y-94110673D01*
X105594591Y-94147168D01*
X105609749Y-94178247D01*
X105620889Y-94200983D01*
X105626583Y-94212455D01*
X105626931Y-94213120D01*
X105636131Y-94215788D01*
X105655656Y-94216034D01*
X105664071Y-94215458D01*
X105698266Y-94212429D01*
X105730829Y-94114334D01*
X105743877Y-94076052D01*
X105755782Y-94042983D01*
X105765282Y-94018508D01*
X105771116Y-94006012D01*
X105771358Y-94005670D01*
X105782276Y-94001526D01*
X105804675Y-93998593D01*
X105833680Y-93996958D01*
X105864423Y-93996713D01*
X105892034Y-93997944D01*
X105911642Y-94000740D01*
X105917303Y-94003016D01*
X105922016Y-94012326D01*
X105930253Y-94034298D01*
X105940938Y-94065867D01*
X105953002Y-94103964D01*
X105955781Y-94113075D01*
X105987615Y-94218128D01*
X106020205Y-94221279D01*
X106041149Y-94223342D01*
X106053467Y-94224625D01*
X106054613Y-94224771D01*
X106058884Y-94218106D01*
X106069198Y-94199690D01*
X106084027Y-94172305D01*
X106101845Y-94138734D01*
X106102654Y-94137195D01*
X106121514Y-94101789D01*
X106138428Y-94070878D01*
X106151517Y-94047846D01*
X106158786Y-94036225D01*
X106168785Y-94030267D01*
X106187965Y-94028919D01*
X106218924Y-94032164D01*
X106240652Y-94035681D01*
X106312612Y-94048190D01*
X106328574Y-94161760D01*
X106344535Y-94275331D01*
X106407560Y-94291423D01*
X106545321Y-94108608D01*
X106608789Y-94129943D01*
X106639273Y-94140559D01*
X106663855Y-94149804D01*
X106678271Y-94156051D01*
X106679873Y-94157017D01*
X106682570Y-94166891D01*
X106684682Y-94189987D01*
X106686036Y-94223146D01*
X106686457Y-94263208D01*
X106686382Y-94275514D01*
X106686609Y-94326475D01*
X106688518Y-94362160D01*
X106692210Y-94383611D01*
X106697787Y-94391861D01*
X106697847Y-94391878D01*
X106713947Y-94398551D01*
X106718141Y-94401145D01*
X106729303Y-94406729D01*
X106741813Y-94406225D01*
X106757780Y-94398365D01*
X106779314Y-94381884D01*
X106808523Y-94355513D01*
X106832915Y-94332186D01*
X106912318Y-94255306D01*
X106960650Y-94279345D01*
X106993998Y-94295925D01*
X107017146Y-94309152D01*
X107031393Y-94322271D01*
X107038035Y-94338526D01*
X107038373Y-94361162D01*
X107033704Y-94393423D01*
X107025327Y-94438554D01*
X107025024Y-94440190D01*
X107004547Y-94550438D01*
X107033773Y-94569012D01*
X107063000Y-94587585D01*
X107157861Y-94521450D01*
X107252722Y-94455318D01*
X107372129Y-94545297D01*
X107333496Y-94653677D01*
X107294864Y-94762057D01*
X107321714Y-94785866D01*
X107348565Y-94809674D01*
X107448897Y-94759602D01*
X107489940Y-94739087D01*
X107519492Y-94725551D01*
X107541002Y-94719243D01*
X107557918Y-94720404D01*
X107573687Y-94729281D01*
X107591757Y-94746120D01*
X107615577Y-94771166D01*
X107615872Y-94771474D01*
X107639250Y-94798221D01*
X107650191Y-94816637D01*
X107650676Y-94825914D01*
X107644958Y-94837948D01*
X107633100Y-94860905D01*
X107616896Y-94891365D01*
X107600122Y-94922291D01*
X107582158Y-94956453D01*
X107567843Y-94986232D01*
X107558713Y-95008248D01*
X107556212Y-95018703D01*
X107562760Y-95033537D01*
X107575994Y-95051193D01*
X107576068Y-95051276D01*
X107583829Y-95058881D01*
X107592256Y-95063237D01*
X107604176Y-95064044D01*
X107622410Y-95060999D01*
X107649785Y-95053804D01*
X107689122Y-95042156D01*
X107704029Y-95037642D01*
X107813931Y-95004309D01*
X107856860Y-95066865D01*
X107899788Y-95129419D01*
X107762098Y-95312140D01*
X107778479Y-95340149D01*
X107794862Y-95368157D01*
X108019977Y-95336951D01*
X108053180Y-95402092D01*
X108069162Y-95436245D01*
X108078159Y-95461753D01*
X108079352Y-95476211D01*
X108078740Y-95477373D01*
X108070117Y-95486706D01*
X108052172Y-95504765D01*
X108027476Y-95529003D01*
X107998598Y-95556873D01*
X107996747Y-95558645D01*
X107968641Y-95585796D01*
X107945503Y-95608647D01*
X107929558Y-95624960D01*
X107923041Y-95632496D01*
X107922996Y-95632694D01*
X107926149Y-95641425D01*
X107933244Y-95659505D01*
X107935583Y-95665330D01*
X107947571Y-95695049D01*
X108057677Y-95696961D01*
X108098552Y-95697931D01*
X108133324Y-95699245D01*
X108158816Y-95700747D01*
X108171854Y-95702282D01*
X108172772Y-95702634D01*
X108178680Y-95712785D01*
X108186887Y-95733730D01*
X108196012Y-95760929D01*
X108204677Y-95789842D01*
X108211504Y-95815928D01*
X108215113Y-95834648D01*
X108214843Y-95841171D01*
X108206434Y-95848336D01*
X108187311Y-95862917D01*
X108160168Y-95882907D01*
X108127697Y-95906299D01*
X108121832Y-95910475D01*
X108034267Y-95972732D01*
X108038785Y-96005103D01*
X108043303Y-96037473D01*
X108157156Y-96058619D01*
X108271008Y-96079765D01*
X108281673Y-96153261D01*
X108292336Y-96226757D01*
X108083531Y-96330338D01*
X108088848Y-96363078D01*
X108094167Y-96395818D01*
X108193251Y-96431359D01*
X108231329Y-96444980D01*
X108264101Y-96456631D01*
X108288331Y-96465167D01*
X108300777Y-96469440D01*
X108301336Y-96469615D01*
X108304870Y-96478345D01*
X108307307Y-96499421D01*
X108308518Y-96528835D01*
X108308379Y-96562575D01*
X108306763Y-96596628D01*
X108305719Y-96608983D01*
X108297581Y-96616101D01*
X108275437Y-96626455D01*
X108241176Y-96639269D01*
X108196682Y-96653770D01*
X108196393Y-96653859D01*
X108088189Y-96687164D01*
X108083388Y-96718551D01*
X108083050Y-96741487D01*
X108088621Y-96757158D01*
X108090257Y-96758733D01*
X108102037Y-96766049D01*
X108124596Y-96778894D01*
X108154177Y-96795230D01*
X108187022Y-96813020D01*
X108219376Y-96830225D01*
X108247482Y-96844806D01*
X108264789Y-96853409D01*
X108274208Y-96859088D01*
X108279247Y-96867253D01*
X108280193Y-96881378D01*
X108277331Y-96904941D01*
X108271700Y-96937298D01*
X108258217Y-97011437D01*
X108143313Y-97028498D01*
X108028410Y-97045560D01*
X108019715Y-97077480D01*
X108011020Y-97109401D01*
X108196313Y-97249029D01*
X108172292Y-97318943D01*
X108161358Y-97349737D01*
X108152213Y-97373595D01*
X108146218Y-97387051D01*
X108144851Y-97388797D01*
X108135845Y-97388618D01*
X108113594Y-97388168D01*
X108081238Y-97387513D01*
X108041917Y-97386715D01*
X108032807Y-97386530D01*
X107992077Y-97386316D01*
X107957315Y-97387287D01*
X107931766Y-97389268D01*
X107918680Y-97392085D01*
X107917833Y-97392747D01*
X107909860Y-97405873D01*
X107900580Y-97423841D01*
X107889674Y-97446511D01*
X107968117Y-97527910D01*
X107996610Y-97558236D01*
X108020342Y-97584947D01*
X108037248Y-97605606D01*
X108045264Y-97617777D01*
X108045631Y-97619364D01*
X108041210Y-97631607D01*
X108030812Y-97652478D01*
X108021388Y-97669323D01*
X108006993Y-97694779D01*
X107995327Y-97716849D01*
X107990923Y-97726144D01*
X107986453Y-97732604D01*
X107977974Y-97736254D01*
X107962915Y-97737063D01*
X107938708Y-97735001D01*
X107902784Y-97730038D01*
X107868554Y-97724704D01*
X107823125Y-97717617D01*
X107791035Y-97713298D01*
X107769459Y-97711803D01*
X107755574Y-97713187D01*
X107746557Y-97717509D01*
X107739584Y-97724825D01*
X107737686Y-97727321D01*
X107726528Y-97745212D01*
X107721669Y-97758781D01*
X107721669Y-97758786D01*
X107726050Y-97769084D01*
X107738292Y-97789790D01*
X107756610Y-97818063D01*
X107779217Y-97851063D01*
X107783421Y-97857025D01*
X107845540Y-97944776D01*
X107802401Y-98005924D01*
X107782688Y-98032700D01*
X107765957Y-98053296D01*
X107754694Y-98064745D01*
X107751911Y-98066118D01*
X107741691Y-98063231D01*
X107719279Y-98056071D01*
X107687973Y-98045713D01*
X107651071Y-98033235D01*
X107650727Y-98033117D01*
X107613076Y-98020654D01*
X107580228Y-98010511D01*
X107555750Y-98003743D01*
X107543301Y-98001400D01*
X107529418Y-98008411D01*
X107514673Y-98025676D01*
X107514266Y-98026316D01*
X107508310Y-98036936D01*
X107505691Y-98047282D01*
X107507161Y-98060310D01*
X107513472Y-98078976D01*
X107525374Y-98106232D01*
X107543618Y-98145034D01*
X107545416Y-98148813D01*
X107562746Y-98185505D01*
X107577272Y-98216777D01*
X107587656Y-98239711D01*
X107592560Y-98251388D01*
X107592767Y-98252125D01*
X107587630Y-98259721D01*
X107573707Y-98275058D01*
X107554343Y-98294860D01*
X107532882Y-98315849D01*
X107512670Y-98334748D01*
X107497050Y-98348280D01*
X107489637Y-98353169D01*
X107480859Y-98349795D01*
X107460448Y-98340026D01*
X107431193Y-98325249D01*
X107395883Y-98306853D01*
X107385025Y-98301102D01*
X107285692Y-98248292D01*
X107259688Y-98270840D01*
X107233684Y-98293388D01*
X107265487Y-98397407D01*
X107277233Y-98436529D01*
X107286911Y-98470121D01*
X107293643Y-98495023D01*
X107296547Y-98508082D01*
X107296590Y-98509002D01*
X107289968Y-98516826D01*
X107272908Y-98531158D01*
X107248593Y-98549396D01*
X107238168Y-98556772D01*
X107180447Y-98596963D01*
X106995234Y-98457395D01*
X106966946Y-98474551D01*
X106938659Y-98491708D01*
X106953930Y-98606863D01*
X106969202Y-98722018D01*
X106901897Y-98755293D01*
X106870073Y-98770774D01*
X106849319Y-98779488D01*
X106836056Y-98782013D01*
X106826709Y-98778931D01*
X106817699Y-98770823D01*
X106816155Y-98769208D01*
X106802122Y-98754454D01*
X106780650Y-98731862D01*
X106755587Y-98705477D01*
X106746239Y-98695631D01*
X106716262Y-98664358D01*
X106694805Y-98643525D01*
X106679192Y-98631610D01*
X106666745Y-98627091D01*
X106654787Y-98628448D01*
X106640635Y-98634159D01*
X106639194Y-98634820D01*
X106610067Y-98648215D01*
X106608066Y-98752431D01*
X106607211Y-98792774D01*
X106606323Y-98827557D01*
X106605501Y-98853286D01*
X106604847Y-98866467D01*
X106604795Y-98866955D01*
X106597099Y-98873195D01*
X106577815Y-98882444D01*
X106551087Y-98893131D01*
X106521061Y-98903686D01*
X106491883Y-98912538D01*
X106471581Y-98917410D01*
X106463979Y-98911681D01*
X106449109Y-98894798D01*
X106428915Y-98869153D01*
X106405344Y-98837144D01*
X106397864Y-98826599D01*
X106332800Y-98734097D01*
X106304710Y-98737154D01*
X106283795Y-98741601D01*
X106270576Y-98748327D01*
X106270006Y-98748987D01*
X106266132Y-98759970D01*
X106260220Y-98783793D01*
X106253023Y-98817146D01*
X106245287Y-98856720D01*
X106243863Y-98864432D01*
X106224331Y-98971102D01*
X106150739Y-98981109D01*
X106077147Y-98991118D01*
X106025439Y-98887504D01*
X105973729Y-98783890D01*
X105941368Y-98788470D01*
X105909006Y-98793049D01*
X105873296Y-98894384D01*
X105859607Y-98932705D01*
X105847562Y-98965449D01*
X105838334Y-98989494D01*
X105833098Y-99001717D01*
X105832684Y-99002403D01*
X105822777Y-99005287D01*
X105801308Y-99007061D01*
X105773062Y-99007757D01*
X105742820Y-99007406D01*
X105715371Y-99006039D01*
X105695495Y-99003687D01*
X105688644Y-99001464D01*
X105683782Y-98992052D01*
X105675435Y-98970052D01*
X105664712Y-98938600D01*
X105652728Y-98900840D01*
X105650963Y-98895067D01*
X105636676Y-98849896D01*
X105624739Y-98818255D01*
X105613436Y-98797800D01*
X105601052Y-98786187D01*
X105585874Y-98781073D01*
X105566864Y-98780100D01*
X105559262Y-98780965D01*
X105552245Y-98784844D01*
X105544222Y-98793979D01*
X105533603Y-98810611D01*
X105518798Y-98836983D01*
X105498219Y-98875337D01*
X105494889Y-98881598D01*
X105473402Y-98920841D01*
X105455227Y-98951740D01*
X105441615Y-98972288D01*
X105433818Y-98980478D01*
X105433190Y-98980507D01*
X105421822Y-98978237D01*
X105398739Y-98974343D01*
X105368438Y-98969575D01*
X105360841Y-98968422D01*
X105296350Y-98958701D01*
X105279111Y-98844133D01*
X105261873Y-98729565D01*
X105230427Y-98721536D01*
X105198984Y-98713507D01*
X105061293Y-98896229D01*
X104917143Y-98848110D01*
X104918834Y-98732881D01*
X104919302Y-98687056D01*
X104918860Y-98654896D01*
X104917096Y-98633684D01*
X104913598Y-98620706D01*
X104907956Y-98613246D01*
X104899997Y-98608694D01*
X104881909Y-98601435D01*
X104867206Y-98598678D01*
X104853023Y-98601794D01*
X104836496Y-98612160D01*
X104814757Y-98631147D01*
X104784939Y-98660132D01*
X104777648Y-98667355D01*
X104749084Y-98695262D01*
X104724260Y-98718745D01*
X104705704Y-98735465D01*
X104695944Y-98743084D01*
X104695600Y-98743237D01*
X104684598Y-98741212D01*
X104663811Y-98733123D01*
X104637657Y-98721082D01*
X104610554Y-98707201D01*
X104586919Y-98693590D01*
X104575347Y-98685766D01*
X104569952Y-98678498D01*
X104567719Y-98665439D01*
X104568767Y-98644032D01*
X104573220Y-98611717D01*
X104581020Y-98566927D01*
X104600828Y-98458741D01*
X104543290Y-98415383D01*
X104448815Y-98482693D01*
X104354340Y-98550003D01*
X104290327Y-98501766D01*
X104517764Y-98199946D01*
X104614838Y-98267566D01*
X104710887Y-98326513D01*
X104877336Y-98414360D01*
X105047922Y-98486840D01*
X105221753Y-98544042D01*
X105397940Y-98586051D01*
X105575592Y-98612951D01*
X105753819Y-98624832D01*
X105931730Y-98621778D01*
X106108435Y-98603874D01*
X106283043Y-98571208D01*
X106454664Y-98523866D01*
X106622409Y-98461932D01*
X106785386Y-98385493D01*
X106942704Y-98294636D01*
X107093473Y-98189446D01*
X107221374Y-98083893D01*
X107354724Y-97954611D01*
X107475098Y-97816169D01*
X107581816Y-97669408D01*
X107667682Y-97527174D01*
X107752820Y-97355705D01*
X107821886Y-97181370D01*
X107874840Y-97004286D01*
X107911350Y-96826402D01*
X107932960Y-96640186D01*
X107938409Y-96455089D01*
X107927914Y-96271825D01*
X107901698Y-96091108D01*
X107859981Y-95913653D01*
X107802981Y-95740170D01*
X107730919Y-95571376D01*
X107644016Y-95407983D01*
X107542492Y-95250706D01*
X107426564Y-95100257D01*
X107353464Y-95017110D01*
X107327402Y-94989080D01*
X107304434Y-94965237D01*
X107282358Y-94943696D01*
X107258973Y-94922564D01*
X107232080Y-94899957D01*
X107199477Y-94873985D01*
X107158965Y-94842760D01*
X107108342Y-94804393D01*
X107085549Y-94787212D01*
X107030109Y-94745576D01*
X106985211Y-94712282D01*
X106948392Y-94685705D01*
X106917185Y-94664220D01*
X106889128Y-94646203D01*
X106861752Y-94630027D01*
X106832594Y-94614071D01*
X106799190Y-94596707D01*
X106787367Y-94590672D01*
X106615788Y-94512170D01*
X106440558Y-94449179D01*
X106262577Y-94401666D01*
X106082743Y-94369592D01*
X105901953Y-94352924D01*
X105721109Y-94351627D01*
X105541107Y-94365665D01*
X105362846Y-94395002D01*
X105187226Y-94439604D01*
X105015144Y-94499434D01*
X104847501Y-94574458D01*
X104685193Y-94664640D01*
X104670152Y-94673952D01*
X104517468Y-94778702D01*
X104376257Y-94894532D01*
X104246828Y-95020546D01*
X104129491Y-95155849D01*
X104024556Y-95299545D01*
X103932332Y-95450739D01*
X103853129Y-95608533D01*
X103787259Y-95772033D01*
X103735027Y-95940344D01*
X103696746Y-96112567D01*
X103672725Y-96287809D01*
X103663274Y-96465174D01*
X103668701Y-96643765D01*
X103689318Y-96822686D01*
X103725433Y-97001044D01*
X103777357Y-97177940D01*
X103791042Y-97216875D01*
X103861954Y-97388792D01*
X103947352Y-97553059D01*
X104047202Y-97709628D01*
X104161476Y-97858450D01*
X104290139Y-97999477D01*
X104333482Y-98042123D01*
X104425915Y-98126257D01*
X104517764Y-98199946D01*
X104290327Y-98501766D01*
X104234950Y-98460036D01*
X104272615Y-98349917D01*
X104310279Y-98239797D01*
X104254217Y-98197551D01*
X104154780Y-98246859D01*
X104055344Y-98296168D01*
X104016879Y-98260157D01*
X103989246Y-98234389D01*
X103970514Y-98215024D01*
X103960361Y-98198569D01*
X103958468Y-98181533D01*
X103964517Y-98160419D01*
X103978187Y-98131736D01*
X103999160Y-98091991D01*
X104001156Y-98088205D01*
X104020142Y-98052106D01*
X104036101Y-98021686D01*
X104047623Y-97999632D01*
X104053302Y-97988635D01*
X104053653Y-97987905D01*
X104049709Y-97978751D01*
X104037857Y-97964249D01*
X104022915Y-97949378D01*
X104009701Y-97939114D01*
X104004613Y-97937238D01*
X103992785Y-97939830D01*
X103968729Y-97946451D01*
X103935831Y-97956128D01*
X103897471Y-97967890D01*
X103893296Y-97969197D01*
X103793395Y-98000522D01*
X103750516Y-97940836D01*
X103707636Y-97881151D01*
X103775917Y-97786757D01*
X103844197Y-97692363D01*
X103827937Y-97664563D01*
X103811676Y-97636763D01*
X103696204Y-97652556D01*
X103580730Y-97668348D01*
X103550792Y-97602773D01*
X103535671Y-97567098D01*
X103528495Y-97543018D01*
X103528658Y-97528151D01*
X103530734Y-97524124D01*
X103540332Y-97513514D01*
X103559092Y-97494378D01*
X103584279Y-97469460D01*
X103612274Y-97442348D01*
X103639767Y-97415794D01*
X103662239Y-97393722D01*
X103677435Y-97378370D01*
X103683101Y-97371978D01*
X103683098Y-97371939D01*
X103679869Y-97364010D01*
X103672838Y-97346327D01*
X103670250Y-97339775D01*
X103658237Y-97309317D01*
X103548480Y-97307672D01*
X103507488Y-97306709D01*
X103472425Y-97305229D01*
X103446536Y-97303418D01*
X103433064Y-97301460D01*
X103432079Y-97301020D01*
X103424925Y-97289530D01*
X103416368Y-97267286D01*
X103407664Y-97238995D01*
X103400072Y-97209363D01*
X103394848Y-97183096D01*
X103393250Y-97164901D01*
X103394401Y-97159998D01*
X103403952Y-97151509D01*
X103424213Y-97136043D01*
X103452277Y-97115744D01*
X103485243Y-97092759D01*
X103487685Y-97091086D01*
X103573005Y-97032746D01*
X103560290Y-96966909D01*
X103335299Y-96925121D01*
X103324801Y-96850421D01*
X103314302Y-96775722D01*
X103411922Y-96729008D01*
X103455284Y-96707700D01*
X103485572Y-96690903D01*
X103504796Y-96676716D01*
X103514962Y-96663238D01*
X103518078Y-96648569D01*
X103516151Y-96630805D01*
X103516066Y-96630367D01*
X103513685Y-96621247D01*
X103508822Y-96613890D01*
X103498875Y-96606863D01*
X103481241Y-96598731D01*
X103453317Y-96588061D01*
X103412929Y-96573572D01*
X103374847Y-96560057D01*
X103342078Y-96548465D01*
X103317871Y-96539942D01*
X103305469Y-96535633D01*
X103304933Y-96535456D01*
X103301979Y-96526988D01*
X103299553Y-96506677D01*
X103297795Y-96479063D01*
X103296843Y-96448688D01*
X103296841Y-96420091D01*
X103297927Y-96397811D01*
X103300241Y-96386389D01*
X103300333Y-96386258D01*
X103308535Y-96382936D01*
X103329506Y-96375845D01*
X103360322Y-96365938D01*
X103398060Y-96354168D01*
X103409460Y-96350670D01*
X103516400Y-96317986D01*
X103521112Y-96290287D01*
X103522538Y-96268372D01*
X103519612Y-96252709D01*
X103519237Y-96252049D01*
X103509630Y-96244249D01*
X103488214Y-96230732D01*
X103457840Y-96213104D01*
X103421357Y-96192980D01*
X103381615Y-96171965D01*
X103341595Y-96151733D01*
X103332252Y-96145919D01*
X103327276Y-96137592D01*
X103326386Y-96123268D01*
X103329302Y-96099463D01*
X103334843Y-96067637D01*
X103348325Y-95993504D01*
X103460530Y-95977519D01*
X103572736Y-95961534D01*
X103583970Y-95928411D01*
X103595205Y-95895289D01*
X103408325Y-95754465D01*
X103433576Y-95685230D01*
X103445039Y-95654700D01*
X103454536Y-95631068D01*
X103460651Y-95617784D01*
X103461968Y-95616094D01*
X103470867Y-95616287D01*
X103493029Y-95616748D01*
X103525338Y-95617411D01*
X103564674Y-95618214D01*
X103574397Y-95618411D01*
X103683682Y-95620628D01*
X103699528Y-95590353D01*
X103709263Y-95571320D01*
X103714693Y-95559868D01*
X103715115Y-95558570D01*
X103709666Y-95552465D01*
X103694904Y-95536770D01*
X103672905Y-95513674D01*
X103645751Y-95485369D01*
X103637496Y-95476796D01*
X103609155Y-95447076D01*
X103585364Y-95421530D01*
X103568232Y-95402470D01*
X103559872Y-95392207D01*
X103559393Y-95391251D01*
X103562496Y-95382287D01*
X103571062Y-95363171D01*
X103582955Y-95338266D01*
X103596035Y-95311937D01*
X103608165Y-95288548D01*
X103617206Y-95272465D01*
X103618771Y-95270042D01*
X103628395Y-95268412D01*
X103651105Y-95269371D01*
X103683847Y-95272656D01*
X103723568Y-95278005D01*
X103738713Y-95280341D01*
X103785519Y-95287430D01*
X103818775Y-95291395D01*
X103841003Y-95292312D01*
X103854728Y-95290250D01*
X103862469Y-95285281D01*
X103863567Y-95283881D01*
X103873269Y-95268142D01*
X103877530Y-95253477D01*
X103875490Y-95237056D01*
X103866289Y-95216040D01*
X103849065Y-95187595D01*
X103822958Y-95148886D01*
X103822287Y-95147912D01*
X103761438Y-95059577D01*
X103853473Y-94937442D01*
X103955158Y-94971586D01*
G37*
X103955158Y-94971586D02*
X103999870Y-94986136D01*
X104032201Y-94994975D01*
X104055110Y-94998152D01*
X104071558Y-94995715D01*
X104084506Y-94987718D01*
X104096911Y-94974206D01*
X104097102Y-94973970D01*
X104100581Y-94965653D01*
X104099525Y-94952679D01*
X104093151Y-94932576D01*
X104080682Y-94902879D01*
X104061715Y-94861914D01*
X104044321Y-94824754D01*
X104029662Y-94792608D01*
X104019105Y-94768530D01*
X104014015Y-94755577D01*
X104013776Y-94754613D01*
X104018740Y-94745954D01*
X104032567Y-94729713D01*
X104051908Y-94709237D01*
X104073417Y-94687871D01*
X104093743Y-94668961D01*
X104109539Y-94655854D01*
X104116659Y-94651795D01*
X104125425Y-94655179D01*
X104145819Y-94664972D01*
X104175057Y-94679785D01*
X104210355Y-94698228D01*
X104221334Y-94704061D01*
X104320748Y-94757065D01*
X104339513Y-94740351D01*
X104355038Y-94725668D01*
X104364592Y-94715259D01*
X104364328Y-94705212D01*
X104359915Y-94682796D01*
X104352223Y-94651242D01*
X104342117Y-94613780D01*
X104330466Y-94573644D01*
X104318138Y-94534063D01*
X104307347Y-94502060D01*
X104312244Y-94493733D01*
X104328112Y-94478701D01*
X104352299Y-94459359D01*
X104364607Y-94450308D01*
X104424862Y-94407037D01*
X104517363Y-94476689D01*
X104609864Y-94546342D01*
X104638881Y-94529787D01*
X104667897Y-94513232D01*
X104652620Y-94398071D01*
X104637342Y-94282912D01*
X104705093Y-94249417D01*
X104737704Y-94233816D01*
X104759130Y-94225322D01*
X104772556Y-94223161D01*
X104781163Y-94226561D01*
X104784648Y-94230096D01*
X104794971Y-94241485D01*
X104813962Y-94261559D01*
X104838779Y-94287339D01*
X104862720Y-94311911D01*
X104928988Y-94379551D01*
X104958437Y-94372026D01*
X104978697Y-94365851D01*
X104990857Y-94360280D01*
X104991730Y-94359468D01*
X104993247Y-94349859D01*
X104994738Y-94327003D01*
X104996057Y-94294042D01*
X104997055Y-94254116D01*
X104997258Y-94242005D01*
X104998942Y-94129576D01*
X105047838Y-94113639D01*
X105077904Y-94104064D01*
X105104940Y-94095832D01*
X105119114Y-94091807D01*
X105141494Y-94085910D01*
X105273939Y-94270812D01*
X105301931Y-94267766D01*
X105323078Y-94263023D01*
X105336736Y-94255604D01*
X105337286Y-94254949D01*
X105341294Y-94243517D01*
X105346979Y-94219271D01*
X105353623Y-94185607D01*
X105360514Y-94145923D01*
X105361471Y-94139999D01*
X105378293Y-94034819D01*
X105454000Y-94024207D01*
X105529708Y-94013596D01*
X105576846Y-94110673D01*
X105594591Y-94147168D01*
X105609749Y-94178247D01*
X105620889Y-94200983D01*
X105626583Y-94212455D01*
X105626931Y-94213120D01*
X105636131Y-94215788D01*
X105655656Y-94216034D01*
X105664071Y-94215458D01*
X105698266Y-94212429D01*
X105730829Y-94114334D01*
X105743877Y-94076052D01*
X105755782Y-94042983D01*
X105765282Y-94018508D01*
X105771116Y-94006012D01*
X105771358Y-94005670D01*
X105782276Y-94001526D01*
X105804675Y-93998593D01*
X105833680Y-93996958D01*
X105864423Y-93996713D01*
X105892034Y-93997944D01*
X105911642Y-94000740D01*
X105917303Y-94003016D01*
X105922016Y-94012326D01*
X105930253Y-94034298D01*
X105940938Y-94065867D01*
X105953002Y-94103964D01*
X105955781Y-94113075D01*
X105987615Y-94218128D01*
X106020205Y-94221279D01*
X106041149Y-94223342D01*
X106053467Y-94224625D01*
X106054613Y-94224771D01*
X106058884Y-94218106D01*
X106069198Y-94199690D01*
X106084027Y-94172305D01*
X106101845Y-94138734D01*
X106102654Y-94137195D01*
X106121514Y-94101789D01*
X106138428Y-94070878D01*
X106151517Y-94047846D01*
X106158786Y-94036225D01*
X106168785Y-94030267D01*
X106187965Y-94028919D01*
X106218924Y-94032164D01*
X106240652Y-94035681D01*
X106312612Y-94048190D01*
X106328574Y-94161760D01*
X106344535Y-94275331D01*
X106407560Y-94291423D01*
X106545321Y-94108608D01*
X106608789Y-94129943D01*
X106639273Y-94140559D01*
X106663855Y-94149804D01*
X106678271Y-94156051D01*
X106679873Y-94157017D01*
X106682570Y-94166891D01*
X106684682Y-94189987D01*
X106686036Y-94223146D01*
X106686457Y-94263208D01*
X106686382Y-94275514D01*
X106686609Y-94326475D01*
X106688518Y-94362160D01*
X106692210Y-94383611D01*
X106697787Y-94391861D01*
X106697847Y-94391878D01*
X106713947Y-94398551D01*
X106718141Y-94401145D01*
X106729303Y-94406729D01*
X106741813Y-94406225D01*
X106757780Y-94398365D01*
X106779314Y-94381884D01*
X106808523Y-94355513D01*
X106832915Y-94332186D01*
X106912318Y-94255306D01*
X106960650Y-94279345D01*
X106993998Y-94295925D01*
X107017146Y-94309152D01*
X107031393Y-94322271D01*
X107038035Y-94338526D01*
X107038373Y-94361162D01*
X107033704Y-94393423D01*
X107025327Y-94438554D01*
X107025024Y-94440190D01*
X107004547Y-94550438D01*
X107033773Y-94569012D01*
X107063000Y-94587585D01*
X107157861Y-94521450D01*
X107252722Y-94455318D01*
X107372129Y-94545297D01*
X107333496Y-94653677D01*
X107294864Y-94762057D01*
X107321714Y-94785866D01*
X107348565Y-94809674D01*
X107448897Y-94759602D01*
X107489940Y-94739087D01*
X107519492Y-94725551D01*
X107541002Y-94719243D01*
X107557918Y-94720404D01*
X107573687Y-94729281D01*
X107591757Y-94746120D01*
X107615577Y-94771166D01*
X107615872Y-94771474D01*
X107639250Y-94798221D01*
X107650191Y-94816637D01*
X107650676Y-94825914D01*
X107644958Y-94837948D01*
X107633100Y-94860905D01*
X107616896Y-94891365D01*
X107600122Y-94922291D01*
X107582158Y-94956453D01*
X107567843Y-94986232D01*
X107558713Y-95008248D01*
X107556212Y-95018703D01*
X107562760Y-95033537D01*
X107575994Y-95051193D01*
X107576068Y-95051276D01*
X107583829Y-95058881D01*
X107592256Y-95063237D01*
X107604176Y-95064044D01*
X107622410Y-95060999D01*
X107649785Y-95053804D01*
X107689122Y-95042156D01*
X107704029Y-95037642D01*
X107813931Y-95004309D01*
X107856860Y-95066865D01*
X107899788Y-95129419D01*
X107762098Y-95312140D01*
X107778479Y-95340149D01*
X107794862Y-95368157D01*
X108019977Y-95336951D01*
X108053180Y-95402092D01*
X108069162Y-95436245D01*
X108078159Y-95461753D01*
X108079352Y-95476211D01*
X108078740Y-95477373D01*
X108070117Y-95486706D01*
X108052172Y-95504765D01*
X108027476Y-95529003D01*
X107998598Y-95556873D01*
X107996747Y-95558645D01*
X107968641Y-95585796D01*
X107945503Y-95608647D01*
X107929558Y-95624960D01*
X107923041Y-95632496D01*
X107922996Y-95632694D01*
X107926149Y-95641425D01*
X107933244Y-95659505D01*
X107935583Y-95665330D01*
X107947571Y-95695049D01*
X108057677Y-95696961D01*
X108098552Y-95697931D01*
X108133324Y-95699245D01*
X108158816Y-95700747D01*
X108171854Y-95702282D01*
X108172772Y-95702634D01*
X108178680Y-95712785D01*
X108186887Y-95733730D01*
X108196012Y-95760929D01*
X108204677Y-95789842D01*
X108211504Y-95815928D01*
X108215113Y-95834648D01*
X108214843Y-95841171D01*
X108206434Y-95848336D01*
X108187311Y-95862917D01*
X108160168Y-95882907D01*
X108127697Y-95906299D01*
X108121832Y-95910475D01*
X108034267Y-95972732D01*
X108038785Y-96005103D01*
X108043303Y-96037473D01*
X108157156Y-96058619D01*
X108271008Y-96079765D01*
X108281673Y-96153261D01*
X108292336Y-96226757D01*
X108083531Y-96330338D01*
X108088848Y-96363078D01*
X108094167Y-96395818D01*
X108193251Y-96431359D01*
X108231329Y-96444980D01*
X108264101Y-96456631D01*
X108288331Y-96465167D01*
X108300777Y-96469440D01*
X108301336Y-96469615D01*
X108304870Y-96478345D01*
X108307307Y-96499421D01*
X108308518Y-96528835D01*
X108308379Y-96562575D01*
X108306763Y-96596628D01*
X108305719Y-96608983D01*
X108297581Y-96616101D01*
X108275437Y-96626455D01*
X108241176Y-96639269D01*
X108196682Y-96653770D01*
X108196393Y-96653859D01*
X108088189Y-96687164D01*
X108083388Y-96718551D01*
X108083050Y-96741487D01*
X108088621Y-96757158D01*
X108090257Y-96758733D01*
X108102037Y-96766049D01*
X108124596Y-96778894D01*
X108154177Y-96795230D01*
X108187022Y-96813020D01*
X108219376Y-96830225D01*
X108247482Y-96844806D01*
X108264789Y-96853409D01*
X108274208Y-96859088D01*
X108279247Y-96867253D01*
X108280193Y-96881378D01*
X108277331Y-96904941D01*
X108271700Y-96937298D01*
X108258217Y-97011437D01*
X108143313Y-97028498D01*
X108028410Y-97045560D01*
X108019715Y-97077480D01*
X108011020Y-97109401D01*
X108196313Y-97249029D01*
X108172292Y-97318943D01*
X108161358Y-97349737D01*
X108152213Y-97373595D01*
X108146218Y-97387051D01*
X108144851Y-97388797D01*
X108135845Y-97388618D01*
X108113594Y-97388168D01*
X108081238Y-97387513D01*
X108041917Y-97386715D01*
X108032807Y-97386530D01*
X107992077Y-97386316D01*
X107957315Y-97387287D01*
X107931766Y-97389268D01*
X107918680Y-97392085D01*
X107917833Y-97392747D01*
X107909860Y-97405873D01*
X107900580Y-97423841D01*
X107889674Y-97446511D01*
X107968117Y-97527910D01*
X107996610Y-97558236D01*
X108020342Y-97584947D01*
X108037248Y-97605606D01*
X108045264Y-97617777D01*
X108045631Y-97619364D01*
X108041210Y-97631607D01*
X108030812Y-97652478D01*
X108021388Y-97669323D01*
X108006993Y-97694779D01*
X107995327Y-97716849D01*
X107990923Y-97726144D01*
X107986453Y-97732604D01*
X107977974Y-97736254D01*
X107962915Y-97737063D01*
X107938708Y-97735001D01*
X107902784Y-97730038D01*
X107868554Y-97724704D01*
X107823125Y-97717617D01*
X107791035Y-97713298D01*
X107769459Y-97711803D01*
X107755574Y-97713187D01*
X107746557Y-97717509D01*
X107739584Y-97724825D01*
X107737686Y-97727321D01*
X107726528Y-97745212D01*
X107721669Y-97758781D01*
X107721669Y-97758786D01*
X107726050Y-97769084D01*
X107738292Y-97789790D01*
X107756610Y-97818063D01*
X107779217Y-97851063D01*
X107783421Y-97857025D01*
X107845540Y-97944776D01*
X107802401Y-98005924D01*
X107782688Y-98032700D01*
X107765957Y-98053296D01*
X107754694Y-98064745D01*
X107751911Y-98066118D01*
X107741691Y-98063231D01*
X107719279Y-98056071D01*
X107687973Y-98045713D01*
X107651071Y-98033235D01*
X107650727Y-98033117D01*
X107613076Y-98020654D01*
X107580228Y-98010511D01*
X107555750Y-98003743D01*
X107543301Y-98001400D01*
X107529418Y-98008411D01*
X107514673Y-98025676D01*
X107514266Y-98026316D01*
X107508310Y-98036936D01*
X107505691Y-98047282D01*
X107507161Y-98060310D01*
X107513472Y-98078976D01*
X107525374Y-98106232D01*
X107543618Y-98145034D01*
X107545416Y-98148813D01*
X107562746Y-98185505D01*
X107577272Y-98216777D01*
X107587656Y-98239711D01*
X107592560Y-98251388D01*
X107592767Y-98252125D01*
X107587630Y-98259721D01*
X107573707Y-98275058D01*
X107554343Y-98294860D01*
X107532882Y-98315849D01*
X107512670Y-98334748D01*
X107497050Y-98348280D01*
X107489637Y-98353169D01*
X107480859Y-98349795D01*
X107460448Y-98340026D01*
X107431193Y-98325249D01*
X107395883Y-98306853D01*
X107385025Y-98301102D01*
X107285692Y-98248292D01*
X107259688Y-98270840D01*
X107233684Y-98293388D01*
X107265487Y-98397407D01*
X107277233Y-98436529D01*
X107286911Y-98470121D01*
X107293643Y-98495023D01*
X107296547Y-98508082D01*
X107296590Y-98509002D01*
X107289968Y-98516826D01*
X107272908Y-98531158D01*
X107248593Y-98549396D01*
X107238168Y-98556772D01*
X107180447Y-98596963D01*
X106995234Y-98457395D01*
X106966946Y-98474551D01*
X106938659Y-98491708D01*
X106953930Y-98606863D01*
X106969202Y-98722018D01*
X106901897Y-98755293D01*
X106870073Y-98770774D01*
X106849319Y-98779488D01*
X106836056Y-98782013D01*
X106826709Y-98778931D01*
X106817699Y-98770823D01*
X106816155Y-98769208D01*
X106802122Y-98754454D01*
X106780650Y-98731862D01*
X106755587Y-98705477D01*
X106746239Y-98695631D01*
X106716262Y-98664358D01*
X106694805Y-98643525D01*
X106679192Y-98631610D01*
X106666745Y-98627091D01*
X106654787Y-98628448D01*
X106640635Y-98634159D01*
X106639194Y-98634820D01*
X106610067Y-98648215D01*
X106608066Y-98752431D01*
X106607211Y-98792774D01*
X106606323Y-98827557D01*
X106605501Y-98853286D01*
X106604847Y-98866467D01*
X106604795Y-98866955D01*
X106597099Y-98873195D01*
X106577815Y-98882444D01*
X106551087Y-98893131D01*
X106521061Y-98903686D01*
X106491883Y-98912538D01*
X106471581Y-98917410D01*
X106463979Y-98911681D01*
X106449109Y-98894798D01*
X106428915Y-98869153D01*
X106405344Y-98837144D01*
X106397864Y-98826599D01*
X106332800Y-98734097D01*
X106304710Y-98737154D01*
X106283795Y-98741601D01*
X106270576Y-98748327D01*
X106270006Y-98748987D01*
X106266132Y-98759970D01*
X106260220Y-98783793D01*
X106253023Y-98817146D01*
X106245287Y-98856720D01*
X106243863Y-98864432D01*
X106224331Y-98971102D01*
X106150739Y-98981109D01*
X106077147Y-98991118D01*
X106025439Y-98887504D01*
X105973729Y-98783890D01*
X105941368Y-98788470D01*
X105909006Y-98793049D01*
X105873296Y-98894384D01*
X105859607Y-98932705D01*
X105847562Y-98965449D01*
X105838334Y-98989494D01*
X105833098Y-99001717D01*
X105832684Y-99002403D01*
X105822777Y-99005287D01*
X105801308Y-99007061D01*
X105773062Y-99007757D01*
X105742820Y-99007406D01*
X105715371Y-99006039D01*
X105695495Y-99003687D01*
X105688644Y-99001464D01*
X105683782Y-98992052D01*
X105675435Y-98970052D01*
X105664712Y-98938600D01*
X105652728Y-98900840D01*
X105650963Y-98895067D01*
X105636676Y-98849896D01*
X105624739Y-98818255D01*
X105613436Y-98797800D01*
X105601052Y-98786187D01*
X105585874Y-98781073D01*
X105566864Y-98780100D01*
X105559262Y-98780965D01*
X105552245Y-98784844D01*
X105544222Y-98793979D01*
X105533603Y-98810611D01*
X105518798Y-98836983D01*
X105498219Y-98875337D01*
X105494889Y-98881598D01*
X105473402Y-98920841D01*
X105455227Y-98951740D01*
X105441615Y-98972288D01*
X105433818Y-98980478D01*
X105433190Y-98980507D01*
X105421822Y-98978237D01*
X105398739Y-98974343D01*
X105368438Y-98969575D01*
X105360841Y-98968422D01*
X105296350Y-98958701D01*
X105279111Y-98844133D01*
X105261873Y-98729565D01*
X105230427Y-98721536D01*
X105198984Y-98713507D01*
X105061293Y-98896229D01*
X104917143Y-98848110D01*
X104918834Y-98732881D01*
X104919302Y-98687056D01*
X104918860Y-98654896D01*
X104917096Y-98633684D01*
X104913598Y-98620706D01*
X104907956Y-98613246D01*
X104899997Y-98608694D01*
X104881909Y-98601435D01*
X104867206Y-98598678D01*
X104853023Y-98601794D01*
X104836496Y-98612160D01*
X104814757Y-98631147D01*
X104784939Y-98660132D01*
X104777648Y-98667355D01*
X104749084Y-98695262D01*
X104724260Y-98718745D01*
X104705704Y-98735465D01*
X104695944Y-98743084D01*
X104695600Y-98743237D01*
X104684598Y-98741212D01*
X104663811Y-98733123D01*
X104637657Y-98721082D01*
X104610554Y-98707201D01*
X104586919Y-98693590D01*
X104575347Y-98685766D01*
X104569952Y-98678498D01*
X104567719Y-98665439D01*
X104568767Y-98644032D01*
X104573220Y-98611717D01*
X104581020Y-98566927D01*
X104600828Y-98458741D01*
X104543290Y-98415383D01*
X104448815Y-98482693D01*
X104354340Y-98550003D01*
X104290327Y-98501766D01*
X104517764Y-98199946D01*
X104614838Y-98267566D01*
X104710887Y-98326513D01*
X104877336Y-98414360D01*
X105047922Y-98486840D01*
X105221753Y-98544042D01*
X105397940Y-98586051D01*
X105575592Y-98612951D01*
X105753819Y-98624832D01*
X105931730Y-98621778D01*
X106108435Y-98603874D01*
X106283043Y-98571208D01*
X106454664Y-98523866D01*
X106622409Y-98461932D01*
X106785386Y-98385493D01*
X106942704Y-98294636D01*
X107093473Y-98189446D01*
X107221374Y-98083893D01*
X107354724Y-97954611D01*
X107475098Y-97816169D01*
X107581816Y-97669408D01*
X107667682Y-97527174D01*
X107752820Y-97355705D01*
X107821886Y-97181370D01*
X107874840Y-97004286D01*
X107911350Y-96826402D01*
X107932960Y-96640186D01*
X107938409Y-96455089D01*
X107927914Y-96271825D01*
X107901698Y-96091108D01*
X107859981Y-95913653D01*
X107802981Y-95740170D01*
X107730919Y-95571376D01*
X107644016Y-95407983D01*
X107542492Y-95250706D01*
X107426564Y-95100257D01*
X107353464Y-95017110D01*
X107327402Y-94989080D01*
X107304434Y-94965237D01*
X107282358Y-94943696D01*
X107258973Y-94922564D01*
X107232080Y-94899957D01*
X107199477Y-94873985D01*
X107158965Y-94842760D01*
X107108342Y-94804393D01*
X107085549Y-94787212D01*
X107030109Y-94745576D01*
X106985211Y-94712282D01*
X106948392Y-94685705D01*
X106917185Y-94664220D01*
X106889128Y-94646203D01*
X106861752Y-94630027D01*
X106832594Y-94614071D01*
X106799190Y-94596707D01*
X106787367Y-94590672D01*
X106615788Y-94512170D01*
X106440558Y-94449179D01*
X106262577Y-94401666D01*
X106082743Y-94369592D01*
X105901953Y-94352924D01*
X105721109Y-94351627D01*
X105541107Y-94365665D01*
X105362846Y-94395002D01*
X105187226Y-94439604D01*
X105015144Y-94499434D01*
X104847501Y-94574458D01*
X104685193Y-94664640D01*
X104670152Y-94673952D01*
X104517468Y-94778702D01*
X104376257Y-94894532D01*
X104246828Y-95020546D01*
X104129491Y-95155849D01*
X104024556Y-95299545D01*
X103932332Y-95450739D01*
X103853129Y-95608533D01*
X103787259Y-95772033D01*
X103735027Y-95940344D01*
X103696746Y-96112567D01*
X103672725Y-96287809D01*
X103663274Y-96465174D01*
X103668701Y-96643765D01*
X103689318Y-96822686D01*
X103725433Y-97001044D01*
X103777357Y-97177940D01*
X103791042Y-97216875D01*
X103861954Y-97388792D01*
X103947352Y-97553059D01*
X104047202Y-97709628D01*
X104161476Y-97858450D01*
X104290139Y-97999477D01*
X104333482Y-98042123D01*
X104425915Y-98126257D01*
X104517764Y-98199946D01*
X104290327Y-98501766D01*
X104234950Y-98460036D01*
X104272615Y-98349917D01*
X104310279Y-98239797D01*
X104254217Y-98197551D01*
X104154780Y-98246859D01*
X104055344Y-98296168D01*
X104016879Y-98260157D01*
X103989246Y-98234389D01*
X103970514Y-98215024D01*
X103960361Y-98198569D01*
X103958468Y-98181533D01*
X103964517Y-98160419D01*
X103978187Y-98131736D01*
X103999160Y-98091991D01*
X104001156Y-98088205D01*
X104020142Y-98052106D01*
X104036101Y-98021686D01*
X104047623Y-97999632D01*
X104053302Y-97988635D01*
X104053653Y-97987905D01*
X104049709Y-97978751D01*
X104037857Y-97964249D01*
X104022915Y-97949378D01*
X104009701Y-97939114D01*
X104004613Y-97937238D01*
X103992785Y-97939830D01*
X103968729Y-97946451D01*
X103935831Y-97956128D01*
X103897471Y-97967890D01*
X103893296Y-97969197D01*
X103793395Y-98000522D01*
X103750516Y-97940836D01*
X103707636Y-97881151D01*
X103775917Y-97786757D01*
X103844197Y-97692363D01*
X103827937Y-97664563D01*
X103811676Y-97636763D01*
X103696204Y-97652556D01*
X103580730Y-97668348D01*
X103550792Y-97602773D01*
X103535671Y-97567098D01*
X103528495Y-97543018D01*
X103528658Y-97528151D01*
X103530734Y-97524124D01*
X103540332Y-97513514D01*
X103559092Y-97494378D01*
X103584279Y-97469460D01*
X103612274Y-97442348D01*
X103639767Y-97415794D01*
X103662239Y-97393722D01*
X103677435Y-97378370D01*
X103683101Y-97371978D01*
X103683098Y-97371939D01*
X103679869Y-97364010D01*
X103672838Y-97346327D01*
X103670250Y-97339775D01*
X103658237Y-97309317D01*
X103548480Y-97307672D01*
X103507488Y-97306709D01*
X103472425Y-97305229D01*
X103446536Y-97303418D01*
X103433064Y-97301460D01*
X103432079Y-97301020D01*
X103424925Y-97289530D01*
X103416368Y-97267286D01*
X103407664Y-97238995D01*
X103400072Y-97209363D01*
X103394848Y-97183096D01*
X103393250Y-97164901D01*
X103394401Y-97159998D01*
X103403952Y-97151509D01*
X103424213Y-97136043D01*
X103452277Y-97115744D01*
X103485243Y-97092759D01*
X103487685Y-97091086D01*
X103573005Y-97032746D01*
X103560290Y-96966909D01*
X103335299Y-96925121D01*
X103324801Y-96850421D01*
X103314302Y-96775722D01*
X103411922Y-96729008D01*
X103455284Y-96707700D01*
X103485572Y-96690903D01*
X103504796Y-96676716D01*
X103514962Y-96663238D01*
X103518078Y-96648569D01*
X103516151Y-96630805D01*
X103516066Y-96630367D01*
X103513685Y-96621247D01*
X103508822Y-96613890D01*
X103498875Y-96606863D01*
X103481241Y-96598731D01*
X103453317Y-96588061D01*
X103412929Y-96573572D01*
X103374847Y-96560057D01*
X103342078Y-96548465D01*
X103317871Y-96539942D01*
X103305469Y-96535633D01*
X103304933Y-96535456D01*
X103301979Y-96526988D01*
X103299553Y-96506677D01*
X103297795Y-96479063D01*
X103296843Y-96448688D01*
X103296841Y-96420091D01*
X103297927Y-96397811D01*
X103300241Y-96386389D01*
X103300333Y-96386258D01*
X103308535Y-96382936D01*
X103329506Y-96375845D01*
X103360322Y-96365938D01*
X103398060Y-96354168D01*
X103409460Y-96350670D01*
X103516400Y-96317986D01*
X103521112Y-96290287D01*
X103522538Y-96268372D01*
X103519612Y-96252709D01*
X103519237Y-96252049D01*
X103509630Y-96244249D01*
X103488214Y-96230732D01*
X103457840Y-96213104D01*
X103421357Y-96192980D01*
X103381615Y-96171965D01*
X103341595Y-96151733D01*
X103332252Y-96145919D01*
X103327276Y-96137592D01*
X103326386Y-96123268D01*
X103329302Y-96099463D01*
X103334843Y-96067637D01*
X103348325Y-95993504D01*
X103460530Y-95977519D01*
X103572736Y-95961534D01*
X103583970Y-95928411D01*
X103595205Y-95895289D01*
X103408325Y-95754465D01*
X103433576Y-95685230D01*
X103445039Y-95654700D01*
X103454536Y-95631068D01*
X103460651Y-95617784D01*
X103461968Y-95616094D01*
X103470867Y-95616287D01*
X103493029Y-95616748D01*
X103525338Y-95617411D01*
X103564674Y-95618214D01*
X103574397Y-95618411D01*
X103683682Y-95620628D01*
X103699528Y-95590353D01*
X103709263Y-95571320D01*
X103714693Y-95559868D01*
X103715115Y-95558570D01*
X103709666Y-95552465D01*
X103694904Y-95536770D01*
X103672905Y-95513674D01*
X103645751Y-95485369D01*
X103637496Y-95476796D01*
X103609155Y-95447076D01*
X103585364Y-95421530D01*
X103568232Y-95402470D01*
X103559872Y-95392207D01*
X103559393Y-95391251D01*
X103562496Y-95382287D01*
X103571062Y-95363171D01*
X103582955Y-95338266D01*
X103596035Y-95311937D01*
X103608165Y-95288548D01*
X103617206Y-95272465D01*
X103618771Y-95270042D01*
X103628395Y-95268412D01*
X103651105Y-95269371D01*
X103683847Y-95272656D01*
X103723568Y-95278005D01*
X103738713Y-95280341D01*
X103785519Y-95287430D01*
X103818775Y-95291395D01*
X103841003Y-95292312D01*
X103854728Y-95290250D01*
X103862469Y-95285281D01*
X103863567Y-95283881D01*
X103873269Y-95268142D01*
X103877530Y-95253477D01*
X103875490Y-95237056D01*
X103866289Y-95216040D01*
X103849065Y-95187595D01*
X103822958Y-95148886D01*
X103822287Y-95147912D01*
X103761438Y-95059577D01*
X103853473Y-94937442D01*
X103955158Y-94971586D01*
G36*
X104197016Y-96108011D02*
G01*
X104250799Y-96037106D01*
X104302780Y-95968910D01*
X104351973Y-95904725D01*
X104397392Y-95845861D01*
X104438055Y-95793624D01*
X104472976Y-95749321D01*
X104501170Y-95714257D01*
X104521653Y-95689740D01*
X104533440Y-95677076D01*
X104533553Y-95676977D01*
X104540840Y-95670809D01*
X104548465Y-95665366D01*
X104557739Y-95660398D01*
X104569975Y-95655655D01*
X104586481Y-95650889D01*
X104608569Y-95645849D01*
X104637549Y-95640288D01*
X104674732Y-95633954D01*
X104721429Y-95626599D01*
X104778951Y-95617973D01*
X104848607Y-95607828D01*
X104931709Y-95595912D01*
X105029567Y-95581978D01*
X105042431Y-95580148D01*
X105517935Y-95512539D01*
X105452190Y-95047651D01*
X105440146Y-94961509D01*
X105428963Y-94879618D01*
X105418833Y-94803521D01*
X105409950Y-94734768D01*
X105402508Y-94674901D01*
X105396698Y-94625469D01*
X105392717Y-94588015D01*
X105390754Y-94564087D01*
X105390717Y-94555989D01*
X105401877Y-94524887D01*
X105423030Y-94493047D01*
X105449394Y-94466806D01*
X105466031Y-94456237D01*
X105506624Y-94443744D01*
X105549746Y-94441987D01*
X105588911Y-94450997D01*
X105598581Y-94455617D01*
X105608411Y-94462363D01*
X105630603Y-94478480D01*
X105664457Y-94503442D01*
X105709273Y-94536723D01*
X105764353Y-94577798D01*
X105828994Y-94626140D01*
X105902498Y-94681226D01*
X105984165Y-94742530D01*
X106073293Y-94809526D01*
X106169185Y-94881689D01*
X106271140Y-94958492D01*
X106378458Y-95039412D01*
X106490438Y-95123922D01*
X106606381Y-95211498D01*
X106725589Y-95301613D01*
X106728049Y-95303474D01*
X107826424Y-96134154D01*
X107837553Y-96167264D01*
X107844598Y-96198458D01*
X107847219Y-96231320D01*
X107847113Y-96235267D01*
X107845544Y-96270159D01*
X107465785Y-96777847D01*
X107386331Y-96883910D01*
X107316242Y-96977140D01*
X107255208Y-97057936D01*
X107202924Y-97126696D01*
X107159084Y-97183817D01*
X107123380Y-97229697D01*
X107095507Y-97264735D01*
X107075158Y-97289329D01*
X107062028Y-97303878D01*
X107058068Y-97307513D01*
X107050485Y-97312438D01*
X107039788Y-97317227D01*
X107024707Y-97322102D01*
X107003974Y-97327294D01*
X106976319Y-97333024D01*
X106940476Y-97339521D01*
X106895173Y-97347009D01*
X106839144Y-97355715D01*
X106771119Y-97365863D01*
X106689829Y-97377680D01*
X106594006Y-97391391D01*
X106557398Y-97396595D01*
X106084684Y-97463699D01*
X106150120Y-97930963D01*
X106166160Y-98046971D01*
X106179562Y-98147117D01*
X106190362Y-98231707D01*
X106198592Y-98301046D01*
X106204289Y-98355439D01*
X106207489Y-98395192D01*
X106208224Y-98420611D01*
X106207270Y-98430126D01*
X106192289Y-98468265D01*
X106167935Y-98496694D01*
X106139319Y-98515612D01*
X106093212Y-98531951D01*
X106045367Y-98532164D01*
X106002201Y-98518672D01*
X105990485Y-98511338D01*
X105966579Y-98494717D01*
X105931333Y-98469450D01*
X105885599Y-98436177D01*
X105830224Y-98395540D01*
X105766058Y-98348176D01*
X105693951Y-98294727D01*
X105614752Y-98235834D01*
X105529310Y-98172136D01*
X105438477Y-98104274D01*
X105377223Y-98058426D01*
X105554516Y-97823151D01*
X105617755Y-97870752D01*
X105676878Y-97915154D01*
X105730625Y-97955418D01*
X105777737Y-97990603D01*
X105816952Y-98019772D01*
X105847013Y-98041985D01*
X105866659Y-98056305D01*
X105874630Y-98061790D01*
X105874740Y-98061814D01*
X105873938Y-98053604D01*
X105871084Y-98031040D01*
X105866432Y-97995990D01*
X105860235Y-97950324D01*
X105852746Y-97895911D01*
X105844219Y-97834622D01*
X105836816Y-97781880D01*
X105797634Y-97503713D01*
X106044228Y-97176472D01*
X106465918Y-97117266D01*
X106887608Y-97058059D01*
X107496637Y-96249851D01*
X106688560Y-95640922D01*
X106266847Y-95700132D01*
X105845133Y-95759340D01*
X105944681Y-96467906D01*
X106044228Y-97176472D01*
X105797634Y-97503713D01*
X105797622Y-97503631D01*
X105516592Y-97543217D01*
X105235563Y-97582802D01*
X105554516Y-97823151D01*
X105377223Y-98058426D01*
X105343100Y-98032887D01*
X105244030Y-97958617D01*
X105142116Y-97882102D01*
X105038206Y-97803984D01*
X104933153Y-97724903D01*
X104827803Y-97645499D01*
X104723008Y-97566413D01*
X104619616Y-97488282D01*
X104518478Y-97411751D01*
X104420442Y-97337457D01*
X104326358Y-97266042D01*
X104237077Y-97198145D01*
X104153446Y-97134406D01*
X104076316Y-97075466D01*
X104006537Y-97021967D01*
X103944957Y-96974545D01*
X103925253Y-96959278D01*
X104100138Y-96727198D01*
X104908214Y-97336127D01*
X105329915Y-97276920D01*
X105411037Y-97265475D01*
X105487124Y-97254633D01*
X105556658Y-97244617D01*
X105618117Y-97235653D01*
X105669985Y-97227963D01*
X105710742Y-97221773D01*
X105738868Y-97217304D01*
X105752842Y-97214783D01*
X105754123Y-97214388D01*
X105753383Y-97205964D01*
X105750506Y-97182486D01*
X105745653Y-97145127D01*
X105738984Y-97095059D01*
X105730657Y-97033453D01*
X105720833Y-96961481D01*
X105709672Y-96880315D01*
X105697333Y-96791127D01*
X105683977Y-96695088D01*
X105669763Y-96593372D01*
X105657421Y-96505423D01*
X105558214Y-95799783D01*
X105558132Y-95799794D01*
X105804808Y-95472443D01*
X106080153Y-95433837D01*
X106145237Y-95424669D01*
X106204908Y-95416181D01*
X106257290Y-95408647D01*
X106300505Y-95402339D01*
X106332678Y-95397531D01*
X106351931Y-95394498D01*
X106356769Y-95393544D01*
X106350689Y-95388436D01*
X106332765Y-95374438D01*
X106304256Y-95352508D01*
X106266416Y-95323603D01*
X106220501Y-95288680D01*
X106167769Y-95248697D01*
X106109474Y-95204609D01*
X106046874Y-95157377D01*
X105726611Y-94916041D01*
X105804808Y-95472443D01*
X105558132Y-95799794D01*
X105133690Y-95859387D01*
X104709166Y-95918990D01*
X104100138Y-96727198D01*
X103925253Y-96959278D01*
X103892428Y-96933843D01*
X103849797Y-96900501D01*
X103817914Y-96875159D01*
X103797629Y-96858458D01*
X103790288Y-96851708D01*
X103764640Y-96810379D01*
X103754068Y-96764658D01*
X103758981Y-96717462D01*
X103767971Y-96692919D01*
X103776607Y-96678476D01*
X103794270Y-96652368D01*
X103819976Y-96615900D01*
X103852740Y-96570379D01*
X103891578Y-96517112D01*
X103935505Y-96457405D01*
X103983537Y-96392566D01*
X104034689Y-96323900D01*
X104087975Y-96252714D01*
X104142412Y-96180316D01*
X104197016Y-96108011D01*
G37*
X104197016Y-96108011D02*
X104250799Y-96037106D01*
X104302780Y-95968910D01*
X104351973Y-95904725D01*
X104397392Y-95845861D01*
X104438055Y-95793624D01*
X104472976Y-95749321D01*
X104501170Y-95714257D01*
X104521653Y-95689740D01*
X104533440Y-95677076D01*
X104533553Y-95676977D01*
X104540840Y-95670809D01*
X104548465Y-95665366D01*
X104557739Y-95660398D01*
X104569975Y-95655655D01*
X104586481Y-95650889D01*
X104608569Y-95645849D01*
X104637549Y-95640288D01*
X104674732Y-95633954D01*
X104721429Y-95626599D01*
X104778951Y-95617973D01*
X104848607Y-95607828D01*
X104931709Y-95595912D01*
X105029567Y-95581978D01*
X105042431Y-95580148D01*
X105517935Y-95512539D01*
X105452190Y-95047651D01*
X105440146Y-94961509D01*
X105428963Y-94879618D01*
X105418833Y-94803521D01*
X105409950Y-94734768D01*
X105402508Y-94674901D01*
X105396698Y-94625469D01*
X105392717Y-94588015D01*
X105390754Y-94564087D01*
X105390717Y-94555989D01*
X105401877Y-94524887D01*
X105423030Y-94493047D01*
X105449394Y-94466806D01*
X105466031Y-94456237D01*
X105506624Y-94443744D01*
X105549746Y-94441987D01*
X105588911Y-94450997D01*
X105598581Y-94455617D01*
X105608411Y-94462363D01*
X105630603Y-94478480D01*
X105664457Y-94503442D01*
X105709273Y-94536723D01*
X105764353Y-94577798D01*
X105828994Y-94626140D01*
X105902498Y-94681226D01*
X105984165Y-94742530D01*
X106073293Y-94809526D01*
X106169185Y-94881689D01*
X106271140Y-94958492D01*
X106378458Y-95039412D01*
X106490438Y-95123922D01*
X106606381Y-95211498D01*
X106725589Y-95301613D01*
X106728049Y-95303474D01*
X107826424Y-96134154D01*
X107837553Y-96167264D01*
X107844598Y-96198458D01*
X107847219Y-96231320D01*
X107847113Y-96235267D01*
X107845544Y-96270159D01*
X107465785Y-96777847D01*
X107386331Y-96883910D01*
X107316242Y-96977140D01*
X107255208Y-97057936D01*
X107202924Y-97126696D01*
X107159084Y-97183817D01*
X107123380Y-97229697D01*
X107095507Y-97264735D01*
X107075158Y-97289329D01*
X107062028Y-97303878D01*
X107058068Y-97307513D01*
X107050485Y-97312438D01*
X107039788Y-97317227D01*
X107024707Y-97322102D01*
X107003974Y-97327294D01*
X106976319Y-97333024D01*
X106940476Y-97339521D01*
X106895173Y-97347009D01*
X106839144Y-97355715D01*
X106771119Y-97365863D01*
X106689829Y-97377680D01*
X106594006Y-97391391D01*
X106557398Y-97396595D01*
X106084684Y-97463699D01*
X106150120Y-97930963D01*
X106166160Y-98046971D01*
X106179562Y-98147117D01*
X106190362Y-98231707D01*
X106198592Y-98301046D01*
X106204289Y-98355439D01*
X106207489Y-98395192D01*
X106208224Y-98420611D01*
X106207270Y-98430126D01*
X106192289Y-98468265D01*
X106167935Y-98496694D01*
X106139319Y-98515612D01*
X106093212Y-98531951D01*
X106045367Y-98532164D01*
X106002201Y-98518672D01*
X105990485Y-98511338D01*
X105966579Y-98494717D01*
X105931333Y-98469450D01*
X105885599Y-98436177D01*
X105830224Y-98395540D01*
X105766058Y-98348176D01*
X105693951Y-98294727D01*
X105614752Y-98235834D01*
X105529310Y-98172136D01*
X105438477Y-98104274D01*
X105377223Y-98058426D01*
X105554516Y-97823151D01*
X105617755Y-97870752D01*
X105676878Y-97915154D01*
X105730625Y-97955418D01*
X105777737Y-97990603D01*
X105816952Y-98019772D01*
X105847013Y-98041985D01*
X105866659Y-98056305D01*
X105874630Y-98061790D01*
X105874740Y-98061814D01*
X105873938Y-98053604D01*
X105871084Y-98031040D01*
X105866432Y-97995990D01*
X105860235Y-97950324D01*
X105852746Y-97895911D01*
X105844219Y-97834622D01*
X105836816Y-97781880D01*
X105797634Y-97503713D01*
X106044228Y-97176472D01*
X106465918Y-97117266D01*
X106887608Y-97058059D01*
X107496637Y-96249851D01*
X106688560Y-95640922D01*
X106266847Y-95700132D01*
X105845133Y-95759340D01*
X105944681Y-96467906D01*
X106044228Y-97176472D01*
X105797634Y-97503713D01*
X105797622Y-97503631D01*
X105516592Y-97543217D01*
X105235563Y-97582802D01*
X105554516Y-97823151D01*
X105377223Y-98058426D01*
X105343100Y-98032887D01*
X105244030Y-97958617D01*
X105142116Y-97882102D01*
X105038206Y-97803984D01*
X104933153Y-97724903D01*
X104827803Y-97645499D01*
X104723008Y-97566413D01*
X104619616Y-97488282D01*
X104518478Y-97411751D01*
X104420442Y-97337457D01*
X104326358Y-97266042D01*
X104237077Y-97198145D01*
X104153446Y-97134406D01*
X104076316Y-97075466D01*
X104006537Y-97021967D01*
X103944957Y-96974545D01*
X103925253Y-96959278D01*
X104100138Y-96727198D01*
X104908214Y-97336127D01*
X105329915Y-97276920D01*
X105411037Y-97265475D01*
X105487124Y-97254633D01*
X105556658Y-97244617D01*
X105618117Y-97235653D01*
X105669985Y-97227963D01*
X105710742Y-97221773D01*
X105738868Y-97217304D01*
X105752842Y-97214783D01*
X105754123Y-97214388D01*
X105753383Y-97205964D01*
X105750506Y-97182486D01*
X105745653Y-97145127D01*
X105738984Y-97095059D01*
X105730657Y-97033453D01*
X105720833Y-96961481D01*
X105709672Y-96880315D01*
X105697333Y-96791127D01*
X105683977Y-96695088D01*
X105669763Y-96593372D01*
X105657421Y-96505423D01*
X105558214Y-95799783D01*
X105558132Y-95799794D01*
X105804808Y-95472443D01*
X106080153Y-95433837D01*
X106145237Y-95424669D01*
X106204908Y-95416181D01*
X106257290Y-95408647D01*
X106300505Y-95402339D01*
X106332678Y-95397531D01*
X106351931Y-95394498D01*
X106356769Y-95393544D01*
X106350689Y-95388436D01*
X106332765Y-95374438D01*
X106304256Y-95352508D01*
X106266416Y-95323603D01*
X106220501Y-95288680D01*
X106167769Y-95248697D01*
X106109474Y-95204609D01*
X106046874Y-95157377D01*
X105726611Y-94916041D01*
X105804808Y-95472443D01*
X105558132Y-95799794D01*
X105133690Y-95859387D01*
X104709166Y-95918990D01*
X104100138Y-96727198D01*
X103925253Y-96959278D01*
X103892428Y-96933843D01*
X103849797Y-96900501D01*
X103817914Y-96875159D01*
X103797629Y-96858458D01*
X103790288Y-96851708D01*
X103764640Y-96810379D01*
X103754068Y-96764658D01*
X103758981Y-96717462D01*
X103767971Y-96692919D01*
X103776607Y-96678476D01*
X103794270Y-96652368D01*
X103819976Y-96615900D01*
X103852740Y-96570379D01*
X103891578Y-96517112D01*
X103935505Y-96457405D01*
X103983537Y-96392566D01*
X104034689Y-96323900D01*
X104087975Y-96252714D01*
X104142412Y-96180316D01*
X104197016Y-96108011D01*
D12*
X156850000Y-79300000D02*
X156850000Y-84600000D01*
X143150000Y-84600000D02*
X156850000Y-84600000D01*
X156850000Y-79300000D02*
X143150000Y-79300000D01*
X143150000Y-79300000D02*
X143150000Y-84600000D01*
X149666666Y-85352380D02*
X149666666Y-86066666D01*
X149619047Y-86209523D01*
X149523809Y-86304761D01*
X149380952Y-86352380D01*
X149285714Y-86352380D01*
X150666666Y-86352380D02*
X150095238Y-86352380D01*
X150380952Y-86352380D02*
X150380952Y-85352380D01*
X150285714Y-85495238D01*
X150190476Y-85590476D01*
X150095238Y-85638095D01*
%LPC*%
D13*
X153250000Y-79100000D03*
X146250000Y-79100000D03*
X153750000Y-79100000D03*
X146750000Y-79100000D03*
X148250000Y-79100000D03*
X147750000Y-79100000D03*
X152750000Y-79100000D03*
X147250000Y-79100000D03*
X151750000Y-79100000D03*
D14*
X156550000Y-81800000D03*
D13*
X150750000Y-79100000D03*
X149250000Y-79100000D03*
X145750000Y-79100000D03*
X149750000Y-79100000D03*
X151250000Y-79100000D03*
X150250000Y-79100000D03*
D14*
X143450000Y-81800000D03*
D13*
X148750000Y-79100000D03*
X154250000Y-79100000D03*
X152250000Y-79100000D03*
M02*
