G04 #@! TF.GenerationSoftware,KiCad,Pcbnew,(5.1.6)-1*
G04 #@! TF.CreationDate,2021-05-12T18:09:09+09:00*
G04 #@! TF.ProjectId,SideSensor,53696465-5365-46e7-936f-722e6b696361,rev?*
G04 #@! TF.SameCoordinates,Original*
G04 #@! TF.FileFunction,Legend,Bot*
G04 #@! TF.FilePolarity,Positive*
%FSLAX46Y46*%
G04 Gerber Fmt 4.6, Leading zero omitted, Abs format (unit mm)*
G04 Created by KiCad (PCBNEW (5.1.6)-1) date 2021-05-12 18:09:09*
%MOMM*%
%LPD*%
G01*
G04 APERTURE LIST*
%ADD10C,0.120000*%
%ADD11C,0.150000*%
%ADD12C,1.624000*%
%ADD13R,0.900000X0.900000*%
G04 APERTURE END LIST*
D10*
X174500000Y-105400000D02*
X174500000Y-112600000D01*
X149500000Y-105400000D02*
X149500000Y-112600000D01*
X151290000Y-108940580D02*
X151290000Y-108659420D01*
X152310000Y-108940580D02*
X152310000Y-108659420D01*
X161594427Y-106900000D02*
G75*
G03*
X161594427Y-106900000I-447214J0D01*
G01*
X161800000Y-111800000D02*
X161800000Y-106200000D01*
X157200000Y-111800000D02*
X161800000Y-111800000D01*
X157200000Y-106200000D02*
X157200000Y-111800000D01*
X161800000Y-106200000D02*
X157200000Y-106200000D01*
X170922500Y-108762742D02*
X170922500Y-109237258D01*
X169877500Y-108762742D02*
X169877500Y-109237258D01*
D11*
X167300000Y-109750000D02*
X167300000Y-108250000D01*
X168300000Y-109750000D02*
X167300000Y-109750000D01*
X168300000Y-108250000D02*
X168300000Y-109750000D01*
X167300000Y-108250000D02*
X168300000Y-108250000D01*
X167800000Y-109750000D02*
X167800000Y-108250000D01*
X167300000Y-109150000D02*
X167800000Y-108750000D01*
X167800000Y-108750000D02*
X168300000Y-109150000D01*
X168300000Y-109150000D02*
X167300000Y-109150000D01*
X153587142Y-108633333D02*
X153634761Y-108585714D01*
X153682380Y-108442857D01*
X153682380Y-108347619D01*
X153634761Y-108204761D01*
X153539523Y-108109523D01*
X153444285Y-108061904D01*
X153253809Y-108014285D01*
X153110952Y-108014285D01*
X152920476Y-108061904D01*
X152825238Y-108109523D01*
X152730000Y-108204761D01*
X152682380Y-108347619D01*
X152682380Y-108442857D01*
X152730000Y-108585714D01*
X152777619Y-108633333D01*
X152777619Y-109014285D02*
X152730000Y-109061904D01*
X152682380Y-109157142D01*
X152682380Y-109395238D01*
X152730000Y-109490476D01*
X152777619Y-109538095D01*
X152872857Y-109585714D01*
X152968095Y-109585714D01*
X153110952Y-109538095D01*
X153682380Y-108966666D01*
X153682380Y-109585714D01*
X165361904Y-108452380D02*
X165361904Y-109261904D01*
X165314285Y-109357142D01*
X165266666Y-109404761D01*
X165171428Y-109452380D01*
X164980952Y-109452380D01*
X164885714Y-109404761D01*
X164838095Y-109357142D01*
X164790476Y-109261904D01*
X164790476Y-108452380D01*
X163790476Y-109452380D02*
X164361904Y-109452380D01*
X164076190Y-109452380D02*
X164076190Y-108452380D01*
X164171428Y-108595238D01*
X164266666Y-108690476D01*
X164361904Y-108738095D01*
X170852380Y-106433333D02*
X170376190Y-106100000D01*
X170852380Y-105861904D02*
X169852380Y-105861904D01*
X169852380Y-106242857D01*
X169900000Y-106338095D01*
X169947619Y-106385714D01*
X170042857Y-106433333D01*
X170185714Y-106433333D01*
X170280952Y-106385714D01*
X170328571Y-106338095D01*
X170376190Y-106242857D01*
X170376190Y-105861904D01*
X170852380Y-107385714D02*
X170852380Y-106814285D01*
X170852380Y-107100000D02*
X169852380Y-107100000D01*
X169995238Y-107004761D01*
X170090476Y-106909523D01*
X170138095Y-106814285D01*
X168252380Y-105861904D02*
X167252380Y-105861904D01*
X167252380Y-106100000D01*
X167300000Y-106242857D01*
X167395238Y-106338095D01*
X167490476Y-106385714D01*
X167680952Y-106433333D01*
X167823809Y-106433333D01*
X168014285Y-106385714D01*
X168109523Y-106338095D01*
X168204761Y-106242857D01*
X168252380Y-106100000D01*
X168252380Y-105861904D01*
X168252380Y-107385714D02*
X168252380Y-106814285D01*
X168252380Y-107100000D02*
X167252380Y-107100000D01*
X167395238Y-107004761D01*
X167490476Y-106909523D01*
X167538095Y-106814285D01*
%LPC*%
G36*
G01*
X152075000Y-108525000D02*
X151525000Y-108525000D01*
G75*
G02*
X151275000Y-108275000I0J250000D01*
G01*
X151275000Y-107775000D01*
G75*
G02*
X151525000Y-107525000I250000J0D01*
G01*
X152075000Y-107525000D01*
G75*
G02*
X152325000Y-107775000I0J-250000D01*
G01*
X152325000Y-108275000D01*
G75*
G02*
X152075000Y-108525000I-250000J0D01*
G01*
G37*
G36*
G01*
X152075000Y-110075000D02*
X151525000Y-110075000D01*
G75*
G02*
X151275000Y-109825000I0J250000D01*
G01*
X151275000Y-109325000D01*
G75*
G02*
X151525000Y-109075000I250000J0D01*
G01*
X152075000Y-109075000D01*
G75*
G02*
X152325000Y-109325000I0J-250000D01*
G01*
X152325000Y-109825000D01*
G75*
G02*
X152075000Y-110075000I-250000J0D01*
G01*
G37*
D12*
X156600000Y-107730000D03*
X156600000Y-110270000D03*
X162400000Y-110270000D03*
X162400000Y-107730000D03*
G36*
G01*
X170100000Y-109375000D02*
X170700000Y-109375000D01*
G75*
G02*
X170925000Y-109600000I0J-225000D01*
G01*
X170925000Y-110050000D01*
G75*
G02*
X170700000Y-110275000I-225000J0D01*
G01*
X170100000Y-110275000D01*
G75*
G02*
X169875000Y-110050000I0J225000D01*
G01*
X169875000Y-109600000D01*
G75*
G02*
X170100000Y-109375000I225000J0D01*
G01*
G37*
G36*
G01*
X170100000Y-107725000D02*
X170700000Y-107725000D01*
G75*
G02*
X170925000Y-107950000I0J-225000D01*
G01*
X170925000Y-108400000D01*
G75*
G02*
X170700000Y-108625000I-225000J0D01*
G01*
X170100000Y-108625000D01*
G75*
G02*
X169875000Y-108400000I0J225000D01*
G01*
X169875000Y-107950000D01*
G75*
G02*
X170100000Y-107725000I225000J0D01*
G01*
G37*
D13*
X167800000Y-108250000D03*
X167800000Y-109750000D03*
M02*
