G04 #@! TF.GenerationSoftware,KiCad,Pcbnew,(5.1.6)-1*
G04 #@! TF.CreationDate,2021-05-12T18:09:09+09:00*
G04 #@! TF.ProjectId,SideSensor,53696465-5365-46e7-936f-722e6b696361,rev?*
G04 #@! TF.SameCoordinates,Original*
G04 #@! TF.FileFunction,Legend,Top*
G04 #@! TF.FilePolarity,Positive*
%FSLAX46Y46*%
G04 Gerber Fmt 4.6, Leading zero omitted, Abs format (unit mm)*
G04 Created by KiCad (PCBNEW (5.1.6)-1) date 2021-05-12 18:09:09*
%MOMM*%
%LPD*%
G01*
G04 APERTURE LIST*
%ADD10C,0.010000*%
%ADD11C,0.120000*%
%ADD12C,0.150000*%
%ADD13C,1.624000*%
G04 APERTURE END LIST*
D10*
G36*
X170948356Y-107383895D02*
G01*
X171037351Y-107384177D01*
X171123098Y-107384649D01*
X171203963Y-107385309D01*
X171278308Y-107386157D01*
X171344498Y-107387195D01*
X171400896Y-107388421D01*
X171445867Y-107389836D01*
X171477774Y-107391440D01*
X171494981Y-107393232D01*
X171495129Y-107393263D01*
X171504440Y-107395370D01*
X171513376Y-107398184D01*
X171522925Y-107402601D01*
X171534076Y-107409519D01*
X171547816Y-107419833D01*
X171565134Y-107434440D01*
X171587016Y-107454238D01*
X171614452Y-107480122D01*
X171648429Y-107512989D01*
X171689935Y-107553737D01*
X171739958Y-107603261D01*
X171799486Y-107662458D01*
X171869507Y-107732225D01*
X171878710Y-107741398D01*
X172218870Y-108080464D01*
X172550580Y-107748181D01*
X172612128Y-107686721D01*
X172670799Y-107628506D01*
X172725476Y-107574620D01*
X172775039Y-107526149D01*
X172818372Y-107484177D01*
X172854354Y-107449788D01*
X172881870Y-107424068D01*
X172899799Y-107408100D01*
X172906244Y-107403197D01*
X172937799Y-107393392D01*
X172975958Y-107391124D01*
X173012781Y-107396387D01*
X173031234Y-107403313D01*
X173065641Y-107428214D01*
X173092996Y-107461595D01*
X173109370Y-107498296D01*
X173111500Y-107508799D01*
X173112028Y-107520710D01*
X173112512Y-107548133D01*
X173112950Y-107590192D01*
X173113342Y-107646013D01*
X173113686Y-107714721D01*
X173113980Y-107795439D01*
X173114222Y-107887293D01*
X173114411Y-107989409D01*
X173114545Y-108100909D01*
X173114622Y-108220920D01*
X173114642Y-108348567D01*
X173114602Y-108482973D01*
X173114501Y-108623264D01*
X173114336Y-108768565D01*
X173114108Y-108918001D01*
X173114102Y-108921085D01*
X173111710Y-110298202D01*
X173091965Y-110327017D01*
X173071292Y-110351416D01*
X173046624Y-110373286D01*
X173043409Y-110375577D01*
X173014598Y-110395322D01*
X172380596Y-110397567D01*
X172248074Y-110397943D01*
X172131436Y-110398075D01*
X172030178Y-110397955D01*
X171943799Y-110397580D01*
X171871797Y-110396944D01*
X171813668Y-110396041D01*
X171768911Y-110394867D01*
X171737023Y-110393417D01*
X171717502Y-110391686D01*
X171712216Y-110390711D01*
X171703719Y-110387619D01*
X171693457Y-110381958D01*
X171680487Y-110372848D01*
X171663863Y-110359414D01*
X171642644Y-110340777D01*
X171615884Y-110316061D01*
X171582640Y-110284387D01*
X171541968Y-110244879D01*
X171492925Y-110196659D01*
X171434566Y-110138850D01*
X171365948Y-110070574D01*
X171339761Y-110044469D01*
X171001683Y-109707327D01*
X170667890Y-110040793D01*
X170584895Y-110123419D01*
X170512980Y-110194392D01*
X170451923Y-110253924D01*
X170401499Y-110302226D01*
X170361488Y-110339511D01*
X170331665Y-110365990D01*
X170311807Y-110381875D01*
X170303634Y-110386839D01*
X170264159Y-110397828D01*
X170226798Y-110395487D01*
X170194468Y-110384018D01*
X170153671Y-110357028D01*
X170124707Y-110318946D01*
X170109505Y-110276352D01*
X170108311Y-110262581D01*
X170107198Y-110233486D01*
X170106166Y-110190132D01*
X170105215Y-110133583D01*
X170104344Y-110064902D01*
X170103554Y-109985153D01*
X170102845Y-109895399D01*
X170102216Y-109796705D01*
X170101668Y-109690134D01*
X170101200Y-109576751D01*
X170100952Y-109500240D01*
X170395549Y-109500240D01*
X170395591Y-109579392D01*
X170395711Y-109653331D01*
X170395901Y-109720487D01*
X170396153Y-109779287D01*
X170396458Y-109828160D01*
X170396809Y-109865536D01*
X170397196Y-109889844D01*
X170397612Y-109899511D01*
X170397660Y-109899613D01*
X170403734Y-109894032D01*
X170420037Y-109878173D01*
X170445229Y-109853364D01*
X170477970Y-109820933D01*
X170516919Y-109782205D01*
X170560735Y-109738510D01*
X170598402Y-109700857D01*
X170796975Y-109502160D01*
X171206726Y-109502160D01*
X171507789Y-109803306D01*
X171808853Y-110104451D01*
X172820839Y-110104451D01*
X172820839Y-109092630D01*
X172519759Y-108791468D01*
X172218679Y-108490305D01*
X171712703Y-108996233D01*
X171206726Y-109502160D01*
X170796975Y-109502160D01*
X170797034Y-109502101D01*
X170596291Y-109301484D01*
X170395549Y-109100867D01*
X170395549Y-109500240D01*
X170100952Y-109500240D01*
X170100813Y-109457618D01*
X170100506Y-109333800D01*
X170100280Y-109206360D01*
X170100133Y-109076362D01*
X170100067Y-108944870D01*
X170100081Y-108812948D01*
X170100175Y-108681659D01*
X170100350Y-108552067D01*
X170100604Y-108425236D01*
X170100938Y-108302230D01*
X170101352Y-108184113D01*
X170101846Y-108071948D01*
X170102420Y-107966799D01*
X170103073Y-107869729D01*
X170103806Y-107781804D01*
X170104619Y-107704085D01*
X170104953Y-107679161D01*
X170395549Y-107679161D01*
X170395549Y-108690982D01*
X170696620Y-108992136D01*
X170754581Y-109050035D01*
X170809030Y-109104276D01*
X170858875Y-109153780D01*
X170903022Y-109197469D01*
X170940378Y-109234265D01*
X170969850Y-109263089D01*
X170990345Y-109282862D01*
X171000769Y-109292505D01*
X171001855Y-109293290D01*
X171008137Y-109287630D01*
X171025156Y-109271203D01*
X171052072Y-109244844D01*
X171088044Y-109209386D01*
X171132234Y-109165660D01*
X171183801Y-109114500D01*
X171241906Y-109056740D01*
X171305709Y-108993211D01*
X171374371Y-108924747D01*
X171447051Y-108852181D01*
X171509863Y-108789395D01*
X172013708Y-108285500D01*
X172013650Y-108285441D01*
X172423537Y-108285441D01*
X172620076Y-108482107D01*
X172666566Y-108528568D01*
X172709256Y-108571115D01*
X172746797Y-108608415D01*
X172777842Y-108639132D01*
X172801044Y-108661933D01*
X172815054Y-108675484D01*
X172818727Y-108678774D01*
X172819147Y-108670844D01*
X172819540Y-108648105D01*
X172819897Y-108612139D01*
X172820208Y-108564523D01*
X172820467Y-108506837D01*
X172820664Y-108440660D01*
X172820791Y-108367571D01*
X172820839Y-108289151D01*
X172820839Y-107888139D01*
X172423537Y-108285441D01*
X172013650Y-108285441D01*
X171710621Y-107982331D01*
X171407535Y-107679161D01*
X170395549Y-107679161D01*
X170104953Y-107679161D01*
X170105512Y-107637638D01*
X170106484Y-107583526D01*
X170107535Y-107542812D01*
X170108666Y-107516561D01*
X170109639Y-107506636D01*
X170127210Y-107461280D01*
X170157362Y-107425321D01*
X170198011Y-107400842D01*
X170223023Y-107393251D01*
X170239754Y-107391456D01*
X170271235Y-107389850D01*
X170315830Y-107388433D01*
X170371903Y-107387204D01*
X170437817Y-107386165D01*
X170511937Y-107385314D01*
X170592626Y-107384653D01*
X170678249Y-107384180D01*
X170767169Y-107383896D01*
X170857750Y-107383801D01*
X170948356Y-107383895D01*
G37*
X170948356Y-107383895D02*
X171037351Y-107384177D01*
X171123098Y-107384649D01*
X171203963Y-107385309D01*
X171278308Y-107386157D01*
X171344498Y-107387195D01*
X171400896Y-107388421D01*
X171445867Y-107389836D01*
X171477774Y-107391440D01*
X171494981Y-107393232D01*
X171495129Y-107393263D01*
X171504440Y-107395370D01*
X171513376Y-107398184D01*
X171522925Y-107402601D01*
X171534076Y-107409519D01*
X171547816Y-107419833D01*
X171565134Y-107434440D01*
X171587016Y-107454238D01*
X171614452Y-107480122D01*
X171648429Y-107512989D01*
X171689935Y-107553737D01*
X171739958Y-107603261D01*
X171799486Y-107662458D01*
X171869507Y-107732225D01*
X171878710Y-107741398D01*
X172218870Y-108080464D01*
X172550580Y-107748181D01*
X172612128Y-107686721D01*
X172670799Y-107628506D01*
X172725476Y-107574620D01*
X172775039Y-107526149D01*
X172818372Y-107484177D01*
X172854354Y-107449788D01*
X172881870Y-107424068D01*
X172899799Y-107408100D01*
X172906244Y-107403197D01*
X172937799Y-107393392D01*
X172975958Y-107391124D01*
X173012781Y-107396387D01*
X173031234Y-107403313D01*
X173065641Y-107428214D01*
X173092996Y-107461595D01*
X173109370Y-107498296D01*
X173111500Y-107508799D01*
X173112028Y-107520710D01*
X173112512Y-107548133D01*
X173112950Y-107590192D01*
X173113342Y-107646013D01*
X173113686Y-107714721D01*
X173113980Y-107795439D01*
X173114222Y-107887293D01*
X173114411Y-107989409D01*
X173114545Y-108100909D01*
X173114622Y-108220920D01*
X173114642Y-108348567D01*
X173114602Y-108482973D01*
X173114501Y-108623264D01*
X173114336Y-108768565D01*
X173114108Y-108918001D01*
X173114102Y-108921085D01*
X173111710Y-110298202D01*
X173091965Y-110327017D01*
X173071292Y-110351416D01*
X173046624Y-110373286D01*
X173043409Y-110375577D01*
X173014598Y-110395322D01*
X172380596Y-110397567D01*
X172248074Y-110397943D01*
X172131436Y-110398075D01*
X172030178Y-110397955D01*
X171943799Y-110397580D01*
X171871797Y-110396944D01*
X171813668Y-110396041D01*
X171768911Y-110394867D01*
X171737023Y-110393417D01*
X171717502Y-110391686D01*
X171712216Y-110390711D01*
X171703719Y-110387619D01*
X171693457Y-110381958D01*
X171680487Y-110372848D01*
X171663863Y-110359414D01*
X171642644Y-110340777D01*
X171615884Y-110316061D01*
X171582640Y-110284387D01*
X171541968Y-110244879D01*
X171492925Y-110196659D01*
X171434566Y-110138850D01*
X171365948Y-110070574D01*
X171339761Y-110044469D01*
X171001683Y-109707327D01*
X170667890Y-110040793D01*
X170584895Y-110123419D01*
X170512980Y-110194392D01*
X170451923Y-110253924D01*
X170401499Y-110302226D01*
X170361488Y-110339511D01*
X170331665Y-110365990D01*
X170311807Y-110381875D01*
X170303634Y-110386839D01*
X170264159Y-110397828D01*
X170226798Y-110395487D01*
X170194468Y-110384018D01*
X170153671Y-110357028D01*
X170124707Y-110318946D01*
X170109505Y-110276352D01*
X170108311Y-110262581D01*
X170107198Y-110233486D01*
X170106166Y-110190132D01*
X170105215Y-110133583D01*
X170104344Y-110064902D01*
X170103554Y-109985153D01*
X170102845Y-109895399D01*
X170102216Y-109796705D01*
X170101668Y-109690134D01*
X170101200Y-109576751D01*
X170100952Y-109500240D01*
X170395549Y-109500240D01*
X170395591Y-109579392D01*
X170395711Y-109653331D01*
X170395901Y-109720487D01*
X170396153Y-109779287D01*
X170396458Y-109828160D01*
X170396809Y-109865536D01*
X170397196Y-109889844D01*
X170397612Y-109899511D01*
X170397660Y-109899613D01*
X170403734Y-109894032D01*
X170420037Y-109878173D01*
X170445229Y-109853364D01*
X170477970Y-109820933D01*
X170516919Y-109782205D01*
X170560735Y-109738510D01*
X170598402Y-109700857D01*
X170796975Y-109502160D01*
X171206726Y-109502160D01*
X171507789Y-109803306D01*
X171808853Y-110104451D01*
X172820839Y-110104451D01*
X172820839Y-109092630D01*
X172519759Y-108791468D01*
X172218679Y-108490305D01*
X171712703Y-108996233D01*
X171206726Y-109502160D01*
X170796975Y-109502160D01*
X170797034Y-109502101D01*
X170596291Y-109301484D01*
X170395549Y-109100867D01*
X170395549Y-109500240D01*
X170100952Y-109500240D01*
X170100813Y-109457618D01*
X170100506Y-109333800D01*
X170100280Y-109206360D01*
X170100133Y-109076362D01*
X170100067Y-108944870D01*
X170100081Y-108812948D01*
X170100175Y-108681659D01*
X170100350Y-108552067D01*
X170100604Y-108425236D01*
X170100938Y-108302230D01*
X170101352Y-108184113D01*
X170101846Y-108071948D01*
X170102420Y-107966799D01*
X170103073Y-107869729D01*
X170103806Y-107781804D01*
X170104619Y-107704085D01*
X170104953Y-107679161D01*
X170395549Y-107679161D01*
X170395549Y-108690982D01*
X170696620Y-108992136D01*
X170754581Y-109050035D01*
X170809030Y-109104276D01*
X170858875Y-109153780D01*
X170903022Y-109197469D01*
X170940378Y-109234265D01*
X170969850Y-109263089D01*
X170990345Y-109282862D01*
X171000769Y-109292505D01*
X171001855Y-109293290D01*
X171008137Y-109287630D01*
X171025156Y-109271203D01*
X171052072Y-109244844D01*
X171088044Y-109209386D01*
X171132234Y-109165660D01*
X171183801Y-109114500D01*
X171241906Y-109056740D01*
X171305709Y-108993211D01*
X171374371Y-108924747D01*
X171447051Y-108852181D01*
X171509863Y-108789395D01*
X172013708Y-108285500D01*
X172013650Y-108285441D01*
X172423537Y-108285441D01*
X172620076Y-108482107D01*
X172666566Y-108528568D01*
X172709256Y-108571115D01*
X172746797Y-108608415D01*
X172777842Y-108639132D01*
X172801044Y-108661933D01*
X172815054Y-108675484D01*
X172818727Y-108678774D01*
X172819147Y-108670844D01*
X172819540Y-108648105D01*
X172819897Y-108612139D01*
X172820208Y-108564523D01*
X172820467Y-108506837D01*
X172820664Y-108440660D01*
X172820791Y-108367571D01*
X172820839Y-108289151D01*
X172820839Y-107888139D01*
X172423537Y-108285441D01*
X172013650Y-108285441D01*
X171710621Y-107982331D01*
X171407535Y-107679161D01*
X170395549Y-107679161D01*
X170104953Y-107679161D01*
X170105512Y-107637638D01*
X170106484Y-107583526D01*
X170107535Y-107542812D01*
X170108666Y-107516561D01*
X170109639Y-107506636D01*
X170127210Y-107461280D01*
X170157362Y-107425321D01*
X170198011Y-107400842D01*
X170223023Y-107393251D01*
X170239754Y-107391456D01*
X170271235Y-107389850D01*
X170315830Y-107388433D01*
X170371903Y-107387204D01*
X170437817Y-107386165D01*
X170511937Y-107385314D01*
X170592626Y-107384653D01*
X170678249Y-107384180D01*
X170767169Y-107383896D01*
X170857750Y-107383801D01*
X170948356Y-107383895D01*
G36*
X171710392Y-106506821D02*
G01*
X171725680Y-106551286D01*
X171738078Y-106582426D01*
X171749328Y-106602634D01*
X171761173Y-106614304D01*
X171775352Y-106619831D01*
X171793609Y-106621607D01*
X171793912Y-106621617D01*
X171802648Y-106619391D01*
X171812374Y-106610739D01*
X171824593Y-106593551D01*
X171840806Y-106565720D01*
X171862108Y-106525919D01*
X171881317Y-106489664D01*
X171898168Y-106458611D01*
X171911044Y-106435690D01*
X171918325Y-106423829D01*
X171918951Y-106423058D01*
X171928854Y-106421811D01*
X171950146Y-106423080D01*
X171978139Y-106426204D01*
X172008147Y-106430523D01*
X172035482Y-106435376D01*
X172055455Y-106440103D01*
X172062982Y-106443347D01*
X172065555Y-106452384D01*
X172070007Y-106474565D01*
X172075773Y-106506830D01*
X172082287Y-106546120D01*
X172084236Y-106558398D01*
X172101734Y-106669692D01*
X172126375Y-106674620D01*
X172147445Y-106678182D01*
X172161507Y-106679548D01*
X172169372Y-106673291D01*
X172184619Y-106656276D01*
X172205190Y-106631143D01*
X172229026Y-106600527D01*
X172254069Y-106567068D01*
X172278260Y-106533402D01*
X172297325Y-106505524D01*
X172306922Y-106504424D01*
X172328477Y-106508050D01*
X172358480Y-106515726D01*
X172373116Y-106520109D01*
X172443936Y-106542189D01*
X172443978Y-106657982D01*
X172444019Y-106773774D01*
X172474703Y-106786985D01*
X172505387Y-106800195D01*
X172588164Y-106718689D01*
X172670940Y-106637183D01*
X172738464Y-106671134D01*
X172770549Y-106687789D01*
X172790228Y-106699789D01*
X172800033Y-106709211D01*
X172802498Y-106718131D01*
X172801772Y-106723042D01*
X172798889Y-106738140D01*
X172794286Y-106765387D01*
X172788632Y-106800722D01*
X172783416Y-106834630D01*
X172769278Y-106928261D01*
X172793010Y-106947251D01*
X172810135Y-106959715D01*
X172821902Y-106966074D01*
X172823076Y-106966282D01*
X172831663Y-106961711D01*
X172850814Y-106949147D01*
X172877931Y-106930364D01*
X172910418Y-106907133D01*
X172920213Y-106900006D01*
X173011016Y-106833690D01*
X173053170Y-106863149D01*
X173078911Y-106881398D01*
X173101756Y-106898036D01*
X173113501Y-106906933D01*
X173131679Y-106921258D01*
X173063717Y-107138310D01*
X173082996Y-107158832D01*
X173099510Y-107172867D01*
X173113655Y-107179310D01*
X173114509Y-107179355D01*
X173126051Y-107175676D01*
X173148836Y-107165624D01*
X173179720Y-107150671D01*
X173215560Y-107132292D01*
X173220867Y-107129491D01*
X173314992Y-107079627D01*
X173369028Y-107133703D01*
X173423065Y-107187780D01*
X173373904Y-107283849D01*
X173355437Y-107319984D01*
X173339739Y-107350793D01*
X173328285Y-107373373D01*
X173322550Y-107384824D01*
X173322228Y-107385502D01*
X173325634Y-107394455D01*
X173337188Y-107410197D01*
X173342712Y-107416571D01*
X173365710Y-107442057D01*
X173463649Y-107409028D01*
X173502075Y-107396410D01*
X173535650Y-107386016D01*
X173560914Y-107378874D01*
X173574405Y-107376013D01*
X173574823Y-107376000D01*
X173584704Y-107382226D01*
X173600526Y-107398349D01*
X173619287Y-107420530D01*
X173637985Y-107444935D01*
X173653618Y-107467727D01*
X173663185Y-107485069D01*
X173664775Y-107490960D01*
X173660176Y-107500327D01*
X173647585Y-107520128D01*
X173628804Y-107547660D01*
X173605638Y-107580222D01*
X173600034Y-107587925D01*
X173535294Y-107676571D01*
X173552390Y-107704495D01*
X173563347Y-107722463D01*
X173569736Y-107733073D01*
X173570308Y-107734076D01*
X173578202Y-107733476D01*
X173599117Y-107730630D01*
X173629912Y-107725992D01*
X173667446Y-107720019D01*
X173669162Y-107719739D01*
X173708788Y-107713493D01*
X173743654Y-107708399D01*
X173769926Y-107704991D01*
X173783581Y-107703802D01*
X173794357Y-107708202D01*
X173806976Y-107722709D01*
X173823016Y-107749387D01*
X173833284Y-107768856D01*
X173866600Y-107833854D01*
X173785505Y-107914950D01*
X173704409Y-107996046D01*
X173729487Y-108056064D01*
X173958396Y-108056064D01*
X173979553Y-108119592D01*
X173989420Y-108150326D01*
X173996831Y-108175522D01*
X174000518Y-108190795D01*
X174000710Y-108192656D01*
X173994448Y-108200752D01*
X173977273Y-108216338D01*
X173951606Y-108237375D01*
X173919865Y-108261821D01*
X173909991Y-108269167D01*
X173869429Y-108300017D01*
X173842078Y-108323018D01*
X173827169Y-108338876D01*
X173823937Y-108348295D01*
X173823959Y-108348353D01*
X173828319Y-108365227D01*
X173828771Y-108370138D01*
X173831029Y-108382413D01*
X173838960Y-108392100D01*
X173854847Y-108400122D01*
X173880969Y-108407401D01*
X173919608Y-108414858D01*
X173952917Y-108420300D01*
X174062102Y-108437446D01*
X174071991Y-108490513D01*
X174078819Y-108527124D01*
X174082186Y-108553571D01*
X174080283Y-108572844D01*
X174071298Y-108587931D01*
X174053424Y-108601824D01*
X174024849Y-108617510D01*
X173983764Y-108637981D01*
X173982275Y-108638723D01*
X173881904Y-108688718D01*
X173884659Y-108723237D01*
X173887415Y-108757756D01*
X173997321Y-108793715D01*
X174107226Y-108829675D01*
X174107226Y-108979189D01*
X173997420Y-109013560D01*
X173887615Y-109047931D01*
X173884759Y-109083703D01*
X173881904Y-109119475D01*
X173982275Y-109169470D01*
X174023359Y-109189902D01*
X174051954Y-109205358D01*
X174069937Y-109218740D01*
X174079190Y-109232948D01*
X174081590Y-109250884D01*
X174079017Y-109275450D01*
X174073350Y-109309546D01*
X174073281Y-109309967D01*
X174065989Y-109344734D01*
X174057866Y-109364555D01*
X174050749Y-109370526D01*
X174037697Y-109373201D01*
X174012227Y-109377547D01*
X173978149Y-109382937D01*
X173943355Y-109388152D01*
X173905261Y-109394365D01*
X173872863Y-109400854D01*
X173849786Y-109406812D01*
X173839931Y-109411107D01*
X173832025Y-109425263D01*
X173825888Y-109446458D01*
X173825867Y-109446567D01*
X173824464Y-109457342D01*
X173826057Y-109466694D01*
X173832586Y-109476699D01*
X173845991Y-109489429D01*
X173868212Y-109506961D01*
X173901188Y-109531367D01*
X173913764Y-109540556D01*
X174006526Y-109608268D01*
X173982402Y-109680199D01*
X173958278Y-109752129D01*
X173729487Y-109752129D01*
X173716977Y-109782068D01*
X173704468Y-109812008D01*
X173864868Y-109973012D01*
X173832826Y-110038732D01*
X173815168Y-110072050D01*
X173800211Y-110094586D01*
X173789383Y-110104240D01*
X173788086Y-110104450D01*
X173775443Y-110103180D01*
X173750221Y-110099717D01*
X173716001Y-110094581D01*
X173676364Y-110088291D01*
X173673835Y-110087879D01*
X173635237Y-110081772D01*
X173603062Y-110077045D01*
X173580438Y-110074129D01*
X173570498Y-110073459D01*
X173570312Y-110073542D01*
X173565237Y-110081315D01*
X173555067Y-110097862D01*
X173551823Y-110103235D01*
X173535303Y-110130695D01*
X173600039Y-110219780D01*
X173623864Y-110253008D01*
X173643741Y-110281569D01*
X173657883Y-110302832D01*
X173664503Y-110314168D01*
X173664775Y-110315113D01*
X173660223Y-110325941D01*
X173648435Y-110345100D01*
X173632204Y-110368756D01*
X173614328Y-110393077D01*
X173597603Y-110414228D01*
X173584825Y-110428376D01*
X173579453Y-110432086D01*
X173568670Y-110429682D01*
X173545517Y-110423185D01*
X173513217Y-110413538D01*
X173474994Y-110401683D01*
X173468129Y-110399513D01*
X173365710Y-110367047D01*
X173342577Y-110390137D01*
X173319444Y-110413226D01*
X173371074Y-110516879D01*
X173422704Y-110620531D01*
X173370426Y-110673279D01*
X173318147Y-110726026D01*
X173109761Y-110621604D01*
X173086814Y-110645554D01*
X173063868Y-110669505D01*
X173095113Y-110770026D01*
X173107151Y-110808634D01*
X173117569Y-110841819D01*
X173125334Y-110866306D01*
X173129411Y-110878818D01*
X173129608Y-110879370D01*
X173124763Y-110887446D01*
X173109397Y-110902076D01*
X173086635Y-110920745D01*
X173059606Y-110940939D01*
X173031437Y-110960142D01*
X173020942Y-110966744D01*
X173010359Y-110964528D01*
X172988764Y-110953074D01*
X172957911Y-110933424D01*
X172919553Y-110906616D01*
X172919308Y-110906439D01*
X172827591Y-110840067D01*
X172799634Y-110855122D01*
X172781114Y-110868655D01*
X172771951Y-110882536D01*
X172771678Y-110884790D01*
X172772924Y-110898601D01*
X172776242Y-110924348D01*
X172780998Y-110957803D01*
X172786557Y-110994741D01*
X172792288Y-111030934D01*
X172797557Y-111062156D01*
X172801102Y-111081155D01*
X172802235Y-111092095D01*
X172798747Y-111101033D01*
X172788035Y-111110289D01*
X172767495Y-111122184D01*
X172738264Y-111137160D01*
X172670940Y-111171010D01*
X172588164Y-111089511D01*
X172505387Y-111008013D01*
X172474662Y-111020279D01*
X172443936Y-111032546D01*
X172443936Y-111264558D01*
X172373644Y-111287449D01*
X172342471Y-111297249D01*
X172317913Y-111304303D01*
X172303559Y-111307614D01*
X172301342Y-111307573D01*
X172296065Y-111300272D01*
X172283033Y-111282231D01*
X172264084Y-111255996D01*
X172241057Y-111224113D01*
X172235722Y-111216726D01*
X172211382Y-111184069D01*
X172189686Y-111156891D01*
X172172728Y-111137679D01*
X172162603Y-111128923D01*
X172161564Y-111128645D01*
X172146283Y-111130177D01*
X172126348Y-111133579D01*
X172101680Y-111138512D01*
X172083880Y-111250147D01*
X172076808Y-111291153D01*
X172069758Y-111326181D01*
X172063433Y-111352116D01*
X172058537Y-111365843D01*
X172057491Y-111367091D01*
X172045052Y-111370928D01*
X172022126Y-111375184D01*
X172003002Y-111377795D01*
X171974009Y-111381619D01*
X171949362Y-111385584D01*
X171939288Y-111387661D01*
X171931439Y-111387979D01*
X171923421Y-111383404D01*
X171913712Y-111371864D01*
X171900791Y-111351290D01*
X171883135Y-111319613D01*
X171866795Y-111289066D01*
X171845115Y-111248520D01*
X171829252Y-111220292D01*
X171817461Y-111202161D01*
X171807999Y-111191905D01*
X171799121Y-111187305D01*
X171789082Y-111186139D01*
X171785946Y-111186125D01*
X171764943Y-111187981D01*
X171751182Y-111192267D01*
X171751178Y-111192270D01*
X171745590Y-111201966D01*
X171736421Y-111224204D01*
X171724865Y-111255848D01*
X171712116Y-111293763D01*
X171709884Y-111300709D01*
X171677187Y-111403129D01*
X171602391Y-111405476D01*
X171569143Y-111405847D01*
X171542625Y-111404880D01*
X171526703Y-111402775D01*
X171523932Y-111401379D01*
X171520087Y-111391479D01*
X171512317Y-111369271D01*
X171501749Y-111338036D01*
X171489506Y-111301055D01*
X171489393Y-111300709D01*
X171476688Y-111263139D01*
X171465020Y-111230802D01*
X171455694Y-111207180D01*
X171450073Y-111195827D01*
X171436119Y-111188959D01*
X171413457Y-111187573D01*
X171412701Y-111187634D01*
X171400635Y-111189268D01*
X171390796Y-111193403D01*
X171381276Y-111202418D01*
X171370167Y-111218691D01*
X171355562Y-111244599D01*
X171335553Y-111282522D01*
X171333617Y-111286232D01*
X171314743Y-111322154D01*
X171298510Y-111352575D01*
X171286443Y-111374670D01*
X171280069Y-111385614D01*
X171279605Y-111386223D01*
X171270447Y-111386691D01*
X171249819Y-111384802D01*
X171222351Y-111381254D01*
X171192673Y-111376746D01*
X171165416Y-111371978D01*
X171145208Y-111367647D01*
X171136842Y-111364669D01*
X171134254Y-111355628D01*
X171129773Y-111333448D01*
X171123968Y-111301191D01*
X171117409Y-111261920D01*
X171115468Y-111249787D01*
X171097864Y-111138675D01*
X171064207Y-111131477D01*
X171030549Y-111124279D01*
X170966616Y-111212278D01*
X170942440Y-111245203D01*
X170921437Y-111273148D01*
X170905600Y-111293511D01*
X170896919Y-111303689D01*
X170896210Y-111304278D01*
X170885976Y-111303698D01*
X170864263Y-111298698D01*
X170835064Y-111290255D01*
X170822900Y-111286368D01*
X170756065Y-111264458D01*
X170756065Y-111032546D01*
X170725339Y-111020279D01*
X170694613Y-111008013D01*
X170611837Y-111089511D01*
X170529061Y-111171010D01*
X170461981Y-111137283D01*
X170430465Y-111121184D01*
X170411016Y-111109853D01*
X170401018Y-111100781D01*
X170397854Y-111091461D01*
X170398907Y-111079386D01*
X170399267Y-111077181D01*
X170402605Y-111057094D01*
X170407726Y-111026350D01*
X170413715Y-110990455D01*
X170415952Y-110977064D01*
X170422887Y-110934302D01*
X170426612Y-110904628D01*
X170426732Y-110884989D01*
X170422850Y-110872329D01*
X170414569Y-110863595D01*
X170401492Y-110855730D01*
X170400097Y-110854977D01*
X170371870Y-110839776D01*
X170287435Y-110900897D01*
X170254701Y-110924493D01*
X170226388Y-110944717D01*
X170205345Y-110959545D01*
X170194424Y-110966955D01*
X170194004Y-110967207D01*
X170184389Y-110964816D01*
X170165396Y-110954981D01*
X170140776Y-110940067D01*
X170114276Y-110922439D01*
X170089647Y-110904464D01*
X170073538Y-110891182D01*
X170073538Y-110881663D01*
X170078073Y-110859627D01*
X170086401Y-110828066D01*
X170097779Y-110789977D01*
X170101699Y-110777657D01*
X170136418Y-110670026D01*
X170117071Y-110649432D01*
X170100933Y-110635405D01*
X170087606Y-110628895D01*
X170086736Y-110628838D01*
X170075633Y-110632353D01*
X170053049Y-110641969D01*
X170022081Y-110656293D01*
X169985820Y-110673932D01*
X169978804Y-110677435D01*
X169881859Y-110726032D01*
X169829578Y-110673281D01*
X169777296Y-110620531D01*
X169828927Y-110516879D01*
X169880557Y-110413226D01*
X169857424Y-110390137D01*
X169834291Y-110367047D01*
X169731871Y-110399513D01*
X169693028Y-110411643D01*
X169659628Y-110421729D01*
X169634872Y-110428830D01*
X169621959Y-110432004D01*
X169621162Y-110432086D01*
X169612897Y-110425910D01*
X169598559Y-110409832D01*
X169581004Y-110387692D01*
X169563085Y-110363329D01*
X169547657Y-110340584D01*
X169537574Y-110323295D01*
X169535226Y-110316486D01*
X169539817Y-110306939D01*
X169552364Y-110287032D01*
X169571029Y-110259541D01*
X169593974Y-110227245D01*
X169597522Y-110222361D01*
X169624999Y-110183766D01*
X169643084Y-110155191D01*
X169652618Y-110133854D01*
X169654440Y-110116975D01*
X169649390Y-110101775D01*
X169638726Y-110086008D01*
X169633461Y-110080457D01*
X169626140Y-110077187D01*
X169614016Y-110076277D01*
X169594342Y-110077806D01*
X169564371Y-110081854D01*
X169521355Y-110088501D01*
X169514351Y-110089609D01*
X169470079Y-110096066D01*
X169434464Y-110100146D01*
X169409862Y-110101641D01*
X169398628Y-110100343D01*
X169398227Y-110099859D01*
X169393199Y-110089414D01*
X169382417Y-110068635D01*
X169367989Y-110041567D01*
X169364338Y-110034806D01*
X169333290Y-109977451D01*
X169414413Y-109894734D01*
X169495537Y-109812018D01*
X169483025Y-109782073D01*
X169470514Y-109752129D01*
X169241722Y-109752129D01*
X169193400Y-109608047D01*
X169286443Y-109540051D01*
X169323322Y-109512847D01*
X169348740Y-109493139D01*
X169364619Y-109478965D01*
X169372879Y-109468361D01*
X169375441Y-109459365D01*
X169374287Y-109450269D01*
X169369198Y-109431455D01*
X169362552Y-109418053D01*
X169351528Y-109408602D01*
X169333303Y-109401641D01*
X169305056Y-109395706D01*
X169263963Y-109389336D01*
X169253807Y-109387860D01*
X169214329Y-109381843D01*
X169180635Y-109376150D01*
X169156115Y-109371393D01*
X169144156Y-109368183D01*
X169143827Y-109368001D01*
X169138823Y-109357995D01*
X169132773Y-109336526D01*
X169126649Y-109308392D01*
X169121424Y-109278393D01*
X169118071Y-109251326D01*
X169117355Y-109237376D01*
X169119913Y-109228693D01*
X169128998Y-109219050D01*
X169146725Y-109207004D01*
X169175213Y-109191113D01*
X169215678Y-109170387D01*
X169314000Y-109121099D01*
X169314000Y-109049053D01*
X169203387Y-109014110D01*
X169092775Y-108979167D01*
X169092775Y-108899014D01*
X169470694Y-108899014D01*
X169475111Y-109017235D01*
X169485837Y-109129419D01*
X169515851Y-109315218D01*
X169560627Y-109495074D01*
X169619558Y-109668327D01*
X169692040Y-109834317D01*
X169777470Y-109992386D01*
X169875241Y-110141874D01*
X169984750Y-110282122D01*
X170105392Y-110412470D01*
X170236562Y-110532259D01*
X170377656Y-110640831D01*
X170528070Y-110737525D01*
X170687198Y-110821682D01*
X170854436Y-110892643D01*
X171029180Y-110949748D01*
X171190451Y-110988370D01*
X171373952Y-111017065D01*
X171556960Y-111029883D01*
X171738393Y-111026789D01*
X171903661Y-111009766D01*
X172091840Y-110974567D01*
X172272635Y-110924809D01*
X172445929Y-110860528D01*
X172609966Y-110782633D01*
X172771690Y-110687824D01*
X172922794Y-110580781D01*
X173062839Y-110462109D01*
X173191389Y-110332414D01*
X173308005Y-110192301D01*
X173412251Y-110042375D01*
X173503688Y-109883241D01*
X173581880Y-109715505D01*
X173646388Y-109539772D01*
X173696775Y-109356646D01*
X173719186Y-109248226D01*
X173725888Y-109210543D01*
X173731107Y-109177851D01*
X173735025Y-109147256D01*
X173737828Y-109115863D01*
X173739698Y-109080780D01*
X173740820Y-109039112D01*
X173741376Y-108987966D01*
X173741552Y-108924447D01*
X173741556Y-108895903D01*
X173741443Y-108826570D01*
X173741013Y-108770676D01*
X173740080Y-108725277D01*
X173738458Y-108687424D01*
X173735962Y-108654173D01*
X173732405Y-108622575D01*
X173727601Y-108589686D01*
X173721365Y-108552558D01*
X173719069Y-108539484D01*
X173678505Y-108355211D01*
X173623356Y-108177358D01*
X173554190Y-108006621D01*
X173471578Y-107843697D01*
X173376088Y-107689281D01*
X173268289Y-107544072D01*
X173148750Y-107408764D01*
X173018040Y-107284054D01*
X172876729Y-107170640D01*
X172725385Y-107069216D01*
X172564578Y-106980480D01*
X172394876Y-106905128D01*
X172378387Y-106898720D01*
X172202843Y-106839821D01*
X172025354Y-106796753D01*
X171846822Y-106769224D01*
X171668149Y-106756942D01*
X171490237Y-106759615D01*
X171313987Y-106776953D01*
X171140301Y-106808662D01*
X170970082Y-106854452D01*
X170804230Y-106914030D01*
X170643648Y-106987104D01*
X170489237Y-107073383D01*
X170341899Y-107172576D01*
X170202536Y-107284389D01*
X170072051Y-107408532D01*
X169951343Y-107544713D01*
X169841316Y-107692640D01*
X169818457Y-107727001D01*
X169723834Y-107887096D01*
X169644038Y-108054156D01*
X169579088Y-108228126D01*
X169529005Y-108408952D01*
X169493807Y-108596579D01*
X169485833Y-108656859D01*
X169474268Y-108781313D01*
X169470694Y-108899014D01*
X169092775Y-108899014D01*
X169092775Y-108829675D01*
X169203387Y-108793484D01*
X169314000Y-108757292D01*
X169314000Y-108687094D01*
X169214778Y-108637355D01*
X169115556Y-108587617D01*
X169121167Y-108535225D01*
X169125117Y-108497649D01*
X169129309Y-108471035D01*
X169136340Y-108453024D01*
X169148807Y-108441259D01*
X169169309Y-108433383D01*
X169200443Y-108427039D01*
X169244807Y-108419869D01*
X169249032Y-108419185D01*
X169289288Y-108412623D01*
X169323187Y-108407061D01*
X169347734Y-108402991D01*
X169359934Y-108400908D01*
X169360728Y-108400749D01*
X169365665Y-108392090D01*
X169370114Y-108373897D01*
X169372999Y-108353014D01*
X169373244Y-108336284D01*
X169371680Y-108331092D01*
X169362491Y-108323205D01*
X169342727Y-108307978D01*
X169315200Y-108287528D01*
X169282720Y-108263971D01*
X169279164Y-108261423D01*
X169194025Y-108200491D01*
X169215887Y-108130326D01*
X169237748Y-108060161D01*
X169354226Y-108057885D01*
X169470705Y-108055608D01*
X169483121Y-108025892D01*
X169495537Y-107996175D01*
X169413432Y-107913459D01*
X169331326Y-107830742D01*
X169365679Y-107767368D01*
X169385070Y-107733822D01*
X169399983Y-107713599D01*
X169411954Y-107704782D01*
X169416420Y-107704017D01*
X169430670Y-107705297D01*
X169457243Y-107708763D01*
X169492300Y-107713882D01*
X169530801Y-107719923D01*
X169568554Y-107725900D01*
X169599705Y-107730563D01*
X169621111Y-107733460D01*
X169629626Y-107734139D01*
X169629655Y-107734113D01*
X169634044Y-107726762D01*
X169643935Y-107710505D01*
X169647610Y-107704495D01*
X169664706Y-107676571D01*
X169599966Y-107587925D01*
X169576065Y-107554608D01*
X169556146Y-107525715D01*
X169542012Y-107503949D01*
X169535468Y-107492011D01*
X169535226Y-107490960D01*
X169540098Y-107478332D01*
X169552713Y-107458111D01*
X169570069Y-107434134D01*
X169589165Y-107410238D01*
X169606999Y-107390258D01*
X169620568Y-107378031D01*
X169625177Y-107376000D01*
X169637704Y-107378519D01*
X169662249Y-107385392D01*
X169695350Y-107395589D01*
X169733546Y-107408084D01*
X169736352Y-107409028D01*
X169834291Y-107442057D01*
X169879219Y-107392281D01*
X169777189Y-107187447D01*
X169830529Y-107134107D01*
X169883868Y-107080767D01*
X169979925Y-107130616D01*
X170023038Y-107152423D01*
X170054681Y-107166504D01*
X170077580Y-107173319D01*
X170094462Y-107173327D01*
X170108053Y-107166987D01*
X170121080Y-107154757D01*
X170121379Y-107154426D01*
X170127229Y-107147036D01*
X170130178Y-107138725D01*
X170129804Y-107126552D01*
X170125686Y-107107575D01*
X170117402Y-107078852D01*
X170104668Y-107037877D01*
X170092543Y-106999330D01*
X170082080Y-106966183D01*
X170074318Y-106941721D01*
X170070296Y-106929224D01*
X170070115Y-106928689D01*
X170075100Y-106921233D01*
X170089861Y-106907072D01*
X170110856Y-106889050D01*
X170134542Y-106870010D01*
X170157380Y-106852798D01*
X170175827Y-106840257D01*
X170186341Y-106835231D01*
X170186501Y-106835226D01*
X170194090Y-106839777D01*
X170212374Y-106852257D01*
X170238832Y-106870906D01*
X170270943Y-106893961D01*
X170280597Y-106900961D01*
X170371058Y-106966697D01*
X170396015Y-106953791D01*
X170414376Y-106941741D01*
X170425124Y-106929978D01*
X170425425Y-106929281D01*
X170425873Y-106916914D01*
X170423780Y-106891676D01*
X170419578Y-106856810D01*
X170413694Y-106815562D01*
X170406560Y-106771176D01*
X170398633Y-106727038D01*
X170397654Y-106716078D01*
X170401309Y-106707092D01*
X170412213Y-106697761D01*
X170432980Y-106685763D01*
X170461732Y-106671035D01*
X170529051Y-106637188D01*
X170609344Y-106717179D01*
X170689637Y-106797171D01*
X170722851Y-106786209D01*
X170756065Y-106775248D01*
X170756065Y-106541249D01*
X170826555Y-106519749D01*
X170857836Y-106510530D01*
X170882424Y-106503893D01*
X170896714Y-106500782D01*
X170898856Y-106500817D01*
X170904057Y-106508040D01*
X170917027Y-106526017D01*
X170935941Y-106552219D01*
X170958973Y-106584117D01*
X170964667Y-106592001D01*
X171028666Y-106680614D01*
X171062381Y-106675049D01*
X171083440Y-106671370D01*
X171095854Y-106668814D01*
X171097144Y-106668370D01*
X171098741Y-106660344D01*
X171102391Y-106639109D01*
X171107597Y-106607641D01*
X171113861Y-106568920D01*
X171115740Y-106557168D01*
X171122419Y-106516648D01*
X171128503Y-106482274D01*
X171133415Y-106457121D01*
X171136580Y-106444268D01*
X171137056Y-106443310D01*
X171146082Y-106440393D01*
X171166504Y-106435730D01*
X171193551Y-106430240D01*
X171222450Y-106424841D01*
X171248429Y-106420453D01*
X171266715Y-106417994D01*
X171269592Y-106417786D01*
X171276686Y-106424491D01*
X171289587Y-106443205D01*
X171306668Y-106471331D01*
X171326301Y-106506273D01*
X171333549Y-106519774D01*
X171356057Y-106561421D01*
X171372904Y-106590367D01*
X171385549Y-106608671D01*
X171395455Y-106618391D01*
X171404083Y-106621583D01*
X171405861Y-106621617D01*
X171424270Y-106619893D01*
X171438546Y-106614471D01*
X171450433Y-106602959D01*
X171461680Y-106582963D01*
X171474031Y-106552089D01*
X171489234Y-106507943D01*
X171489608Y-106506821D01*
X171523536Y-106405064D01*
X171676465Y-106405064D01*
X171710392Y-106506821D01*
G37*
X171710392Y-106506821D02*
X171725680Y-106551286D01*
X171738078Y-106582426D01*
X171749328Y-106602634D01*
X171761173Y-106614304D01*
X171775352Y-106619831D01*
X171793609Y-106621607D01*
X171793912Y-106621617D01*
X171802648Y-106619391D01*
X171812374Y-106610739D01*
X171824593Y-106593551D01*
X171840806Y-106565720D01*
X171862108Y-106525919D01*
X171881317Y-106489664D01*
X171898168Y-106458611D01*
X171911044Y-106435690D01*
X171918325Y-106423829D01*
X171918951Y-106423058D01*
X171928854Y-106421811D01*
X171950146Y-106423080D01*
X171978139Y-106426204D01*
X172008147Y-106430523D01*
X172035482Y-106435376D01*
X172055455Y-106440103D01*
X172062982Y-106443347D01*
X172065555Y-106452384D01*
X172070007Y-106474565D01*
X172075773Y-106506830D01*
X172082287Y-106546120D01*
X172084236Y-106558398D01*
X172101734Y-106669692D01*
X172126375Y-106674620D01*
X172147445Y-106678182D01*
X172161507Y-106679548D01*
X172169372Y-106673291D01*
X172184619Y-106656276D01*
X172205190Y-106631143D01*
X172229026Y-106600527D01*
X172254069Y-106567068D01*
X172278260Y-106533402D01*
X172297325Y-106505524D01*
X172306922Y-106504424D01*
X172328477Y-106508050D01*
X172358480Y-106515726D01*
X172373116Y-106520109D01*
X172443936Y-106542189D01*
X172443978Y-106657982D01*
X172444019Y-106773774D01*
X172474703Y-106786985D01*
X172505387Y-106800195D01*
X172588164Y-106718689D01*
X172670940Y-106637183D01*
X172738464Y-106671134D01*
X172770549Y-106687789D01*
X172790228Y-106699789D01*
X172800033Y-106709211D01*
X172802498Y-106718131D01*
X172801772Y-106723042D01*
X172798889Y-106738140D01*
X172794286Y-106765387D01*
X172788632Y-106800722D01*
X172783416Y-106834630D01*
X172769278Y-106928261D01*
X172793010Y-106947251D01*
X172810135Y-106959715D01*
X172821902Y-106966074D01*
X172823076Y-106966282D01*
X172831663Y-106961711D01*
X172850814Y-106949147D01*
X172877931Y-106930364D01*
X172910418Y-106907133D01*
X172920213Y-106900006D01*
X173011016Y-106833690D01*
X173053170Y-106863149D01*
X173078911Y-106881398D01*
X173101756Y-106898036D01*
X173113501Y-106906933D01*
X173131679Y-106921258D01*
X173063717Y-107138310D01*
X173082996Y-107158832D01*
X173099510Y-107172867D01*
X173113655Y-107179310D01*
X173114509Y-107179355D01*
X173126051Y-107175676D01*
X173148836Y-107165624D01*
X173179720Y-107150671D01*
X173215560Y-107132292D01*
X173220867Y-107129491D01*
X173314992Y-107079627D01*
X173369028Y-107133703D01*
X173423065Y-107187780D01*
X173373904Y-107283849D01*
X173355437Y-107319984D01*
X173339739Y-107350793D01*
X173328285Y-107373373D01*
X173322550Y-107384824D01*
X173322228Y-107385502D01*
X173325634Y-107394455D01*
X173337188Y-107410197D01*
X173342712Y-107416571D01*
X173365710Y-107442057D01*
X173463649Y-107409028D01*
X173502075Y-107396410D01*
X173535650Y-107386016D01*
X173560914Y-107378874D01*
X173574405Y-107376013D01*
X173574823Y-107376000D01*
X173584704Y-107382226D01*
X173600526Y-107398349D01*
X173619287Y-107420530D01*
X173637985Y-107444935D01*
X173653618Y-107467727D01*
X173663185Y-107485069D01*
X173664775Y-107490960D01*
X173660176Y-107500327D01*
X173647585Y-107520128D01*
X173628804Y-107547660D01*
X173605638Y-107580222D01*
X173600034Y-107587925D01*
X173535294Y-107676571D01*
X173552390Y-107704495D01*
X173563347Y-107722463D01*
X173569736Y-107733073D01*
X173570308Y-107734076D01*
X173578202Y-107733476D01*
X173599117Y-107730630D01*
X173629912Y-107725992D01*
X173667446Y-107720019D01*
X173669162Y-107719739D01*
X173708788Y-107713493D01*
X173743654Y-107708399D01*
X173769926Y-107704991D01*
X173783581Y-107703802D01*
X173794357Y-107708202D01*
X173806976Y-107722709D01*
X173823016Y-107749387D01*
X173833284Y-107768856D01*
X173866600Y-107833854D01*
X173785505Y-107914950D01*
X173704409Y-107996046D01*
X173729487Y-108056064D01*
X173958396Y-108056064D01*
X173979553Y-108119592D01*
X173989420Y-108150326D01*
X173996831Y-108175522D01*
X174000518Y-108190795D01*
X174000710Y-108192656D01*
X173994448Y-108200752D01*
X173977273Y-108216338D01*
X173951606Y-108237375D01*
X173919865Y-108261821D01*
X173909991Y-108269167D01*
X173869429Y-108300017D01*
X173842078Y-108323018D01*
X173827169Y-108338876D01*
X173823937Y-108348295D01*
X173823959Y-108348353D01*
X173828319Y-108365227D01*
X173828771Y-108370138D01*
X173831029Y-108382413D01*
X173838960Y-108392100D01*
X173854847Y-108400122D01*
X173880969Y-108407401D01*
X173919608Y-108414858D01*
X173952917Y-108420300D01*
X174062102Y-108437446D01*
X174071991Y-108490513D01*
X174078819Y-108527124D01*
X174082186Y-108553571D01*
X174080283Y-108572844D01*
X174071298Y-108587931D01*
X174053424Y-108601824D01*
X174024849Y-108617510D01*
X173983764Y-108637981D01*
X173982275Y-108638723D01*
X173881904Y-108688718D01*
X173884659Y-108723237D01*
X173887415Y-108757756D01*
X173997321Y-108793715D01*
X174107226Y-108829675D01*
X174107226Y-108979189D01*
X173997420Y-109013560D01*
X173887615Y-109047931D01*
X173884759Y-109083703D01*
X173881904Y-109119475D01*
X173982275Y-109169470D01*
X174023359Y-109189902D01*
X174051954Y-109205358D01*
X174069937Y-109218740D01*
X174079190Y-109232948D01*
X174081590Y-109250884D01*
X174079017Y-109275450D01*
X174073350Y-109309546D01*
X174073281Y-109309967D01*
X174065989Y-109344734D01*
X174057866Y-109364555D01*
X174050749Y-109370526D01*
X174037697Y-109373201D01*
X174012227Y-109377547D01*
X173978149Y-109382937D01*
X173943355Y-109388152D01*
X173905261Y-109394365D01*
X173872863Y-109400854D01*
X173849786Y-109406812D01*
X173839931Y-109411107D01*
X173832025Y-109425263D01*
X173825888Y-109446458D01*
X173825867Y-109446567D01*
X173824464Y-109457342D01*
X173826057Y-109466694D01*
X173832586Y-109476699D01*
X173845991Y-109489429D01*
X173868212Y-109506961D01*
X173901188Y-109531367D01*
X173913764Y-109540556D01*
X174006526Y-109608268D01*
X173982402Y-109680199D01*
X173958278Y-109752129D01*
X173729487Y-109752129D01*
X173716977Y-109782068D01*
X173704468Y-109812008D01*
X173864868Y-109973012D01*
X173832826Y-110038732D01*
X173815168Y-110072050D01*
X173800211Y-110094586D01*
X173789383Y-110104240D01*
X173788086Y-110104450D01*
X173775443Y-110103180D01*
X173750221Y-110099717D01*
X173716001Y-110094581D01*
X173676364Y-110088291D01*
X173673835Y-110087879D01*
X173635237Y-110081772D01*
X173603062Y-110077045D01*
X173580438Y-110074129D01*
X173570498Y-110073459D01*
X173570312Y-110073542D01*
X173565237Y-110081315D01*
X173555067Y-110097862D01*
X173551823Y-110103235D01*
X173535303Y-110130695D01*
X173600039Y-110219780D01*
X173623864Y-110253008D01*
X173643741Y-110281569D01*
X173657883Y-110302832D01*
X173664503Y-110314168D01*
X173664775Y-110315113D01*
X173660223Y-110325941D01*
X173648435Y-110345100D01*
X173632204Y-110368756D01*
X173614328Y-110393077D01*
X173597603Y-110414228D01*
X173584825Y-110428376D01*
X173579453Y-110432086D01*
X173568670Y-110429682D01*
X173545517Y-110423185D01*
X173513217Y-110413538D01*
X173474994Y-110401683D01*
X173468129Y-110399513D01*
X173365710Y-110367047D01*
X173342577Y-110390137D01*
X173319444Y-110413226D01*
X173371074Y-110516879D01*
X173422704Y-110620531D01*
X173370426Y-110673279D01*
X173318147Y-110726026D01*
X173109761Y-110621604D01*
X173086814Y-110645554D01*
X173063868Y-110669505D01*
X173095113Y-110770026D01*
X173107151Y-110808634D01*
X173117569Y-110841819D01*
X173125334Y-110866306D01*
X173129411Y-110878818D01*
X173129608Y-110879370D01*
X173124763Y-110887446D01*
X173109397Y-110902076D01*
X173086635Y-110920745D01*
X173059606Y-110940939D01*
X173031437Y-110960142D01*
X173020942Y-110966744D01*
X173010359Y-110964528D01*
X172988764Y-110953074D01*
X172957911Y-110933424D01*
X172919553Y-110906616D01*
X172919308Y-110906439D01*
X172827591Y-110840067D01*
X172799634Y-110855122D01*
X172781114Y-110868655D01*
X172771951Y-110882536D01*
X172771678Y-110884790D01*
X172772924Y-110898601D01*
X172776242Y-110924348D01*
X172780998Y-110957803D01*
X172786557Y-110994741D01*
X172792288Y-111030934D01*
X172797557Y-111062156D01*
X172801102Y-111081155D01*
X172802235Y-111092095D01*
X172798747Y-111101033D01*
X172788035Y-111110289D01*
X172767495Y-111122184D01*
X172738264Y-111137160D01*
X172670940Y-111171010D01*
X172588164Y-111089511D01*
X172505387Y-111008013D01*
X172474662Y-111020279D01*
X172443936Y-111032546D01*
X172443936Y-111264558D01*
X172373644Y-111287449D01*
X172342471Y-111297249D01*
X172317913Y-111304303D01*
X172303559Y-111307614D01*
X172301342Y-111307573D01*
X172296065Y-111300272D01*
X172283033Y-111282231D01*
X172264084Y-111255996D01*
X172241057Y-111224113D01*
X172235722Y-111216726D01*
X172211382Y-111184069D01*
X172189686Y-111156891D01*
X172172728Y-111137679D01*
X172162603Y-111128923D01*
X172161564Y-111128645D01*
X172146283Y-111130177D01*
X172126348Y-111133579D01*
X172101680Y-111138512D01*
X172083880Y-111250147D01*
X172076808Y-111291153D01*
X172069758Y-111326181D01*
X172063433Y-111352116D01*
X172058537Y-111365843D01*
X172057491Y-111367091D01*
X172045052Y-111370928D01*
X172022126Y-111375184D01*
X172003002Y-111377795D01*
X171974009Y-111381619D01*
X171949362Y-111385584D01*
X171939288Y-111387661D01*
X171931439Y-111387979D01*
X171923421Y-111383404D01*
X171913712Y-111371864D01*
X171900791Y-111351290D01*
X171883135Y-111319613D01*
X171866795Y-111289066D01*
X171845115Y-111248520D01*
X171829252Y-111220292D01*
X171817461Y-111202161D01*
X171807999Y-111191905D01*
X171799121Y-111187305D01*
X171789082Y-111186139D01*
X171785946Y-111186125D01*
X171764943Y-111187981D01*
X171751182Y-111192267D01*
X171751178Y-111192270D01*
X171745590Y-111201966D01*
X171736421Y-111224204D01*
X171724865Y-111255848D01*
X171712116Y-111293763D01*
X171709884Y-111300709D01*
X171677187Y-111403129D01*
X171602391Y-111405476D01*
X171569143Y-111405847D01*
X171542625Y-111404880D01*
X171526703Y-111402775D01*
X171523932Y-111401379D01*
X171520087Y-111391479D01*
X171512317Y-111369271D01*
X171501749Y-111338036D01*
X171489506Y-111301055D01*
X171489393Y-111300709D01*
X171476688Y-111263139D01*
X171465020Y-111230802D01*
X171455694Y-111207180D01*
X171450073Y-111195827D01*
X171436119Y-111188959D01*
X171413457Y-111187573D01*
X171412701Y-111187634D01*
X171400635Y-111189268D01*
X171390796Y-111193403D01*
X171381276Y-111202418D01*
X171370167Y-111218691D01*
X171355562Y-111244599D01*
X171335553Y-111282522D01*
X171333617Y-111286232D01*
X171314743Y-111322154D01*
X171298510Y-111352575D01*
X171286443Y-111374670D01*
X171280069Y-111385614D01*
X171279605Y-111386223D01*
X171270447Y-111386691D01*
X171249819Y-111384802D01*
X171222351Y-111381254D01*
X171192673Y-111376746D01*
X171165416Y-111371978D01*
X171145208Y-111367647D01*
X171136842Y-111364669D01*
X171134254Y-111355628D01*
X171129773Y-111333448D01*
X171123968Y-111301191D01*
X171117409Y-111261920D01*
X171115468Y-111249787D01*
X171097864Y-111138675D01*
X171064207Y-111131477D01*
X171030549Y-111124279D01*
X170966616Y-111212278D01*
X170942440Y-111245203D01*
X170921437Y-111273148D01*
X170905600Y-111293511D01*
X170896919Y-111303689D01*
X170896210Y-111304278D01*
X170885976Y-111303698D01*
X170864263Y-111298698D01*
X170835064Y-111290255D01*
X170822900Y-111286368D01*
X170756065Y-111264458D01*
X170756065Y-111032546D01*
X170725339Y-111020279D01*
X170694613Y-111008013D01*
X170611837Y-111089511D01*
X170529061Y-111171010D01*
X170461981Y-111137283D01*
X170430465Y-111121184D01*
X170411016Y-111109853D01*
X170401018Y-111100781D01*
X170397854Y-111091461D01*
X170398907Y-111079386D01*
X170399267Y-111077181D01*
X170402605Y-111057094D01*
X170407726Y-111026350D01*
X170413715Y-110990455D01*
X170415952Y-110977064D01*
X170422887Y-110934302D01*
X170426612Y-110904628D01*
X170426732Y-110884989D01*
X170422850Y-110872329D01*
X170414569Y-110863595D01*
X170401492Y-110855730D01*
X170400097Y-110854977D01*
X170371870Y-110839776D01*
X170287435Y-110900897D01*
X170254701Y-110924493D01*
X170226388Y-110944717D01*
X170205345Y-110959545D01*
X170194424Y-110966955D01*
X170194004Y-110967207D01*
X170184389Y-110964816D01*
X170165396Y-110954981D01*
X170140776Y-110940067D01*
X170114276Y-110922439D01*
X170089647Y-110904464D01*
X170073538Y-110891182D01*
X170073538Y-110881663D01*
X170078073Y-110859627D01*
X170086401Y-110828066D01*
X170097779Y-110789977D01*
X170101699Y-110777657D01*
X170136418Y-110670026D01*
X170117071Y-110649432D01*
X170100933Y-110635405D01*
X170087606Y-110628895D01*
X170086736Y-110628838D01*
X170075633Y-110632353D01*
X170053049Y-110641969D01*
X170022081Y-110656293D01*
X169985820Y-110673932D01*
X169978804Y-110677435D01*
X169881859Y-110726032D01*
X169829578Y-110673281D01*
X169777296Y-110620531D01*
X169828927Y-110516879D01*
X169880557Y-110413226D01*
X169857424Y-110390137D01*
X169834291Y-110367047D01*
X169731871Y-110399513D01*
X169693028Y-110411643D01*
X169659628Y-110421729D01*
X169634872Y-110428830D01*
X169621959Y-110432004D01*
X169621162Y-110432086D01*
X169612897Y-110425910D01*
X169598559Y-110409832D01*
X169581004Y-110387692D01*
X169563085Y-110363329D01*
X169547657Y-110340584D01*
X169537574Y-110323295D01*
X169535226Y-110316486D01*
X169539817Y-110306939D01*
X169552364Y-110287032D01*
X169571029Y-110259541D01*
X169593974Y-110227245D01*
X169597522Y-110222361D01*
X169624999Y-110183766D01*
X169643084Y-110155191D01*
X169652618Y-110133854D01*
X169654440Y-110116975D01*
X169649390Y-110101775D01*
X169638726Y-110086008D01*
X169633461Y-110080457D01*
X169626140Y-110077187D01*
X169614016Y-110076277D01*
X169594342Y-110077806D01*
X169564371Y-110081854D01*
X169521355Y-110088501D01*
X169514351Y-110089609D01*
X169470079Y-110096066D01*
X169434464Y-110100146D01*
X169409862Y-110101641D01*
X169398628Y-110100343D01*
X169398227Y-110099859D01*
X169393199Y-110089414D01*
X169382417Y-110068635D01*
X169367989Y-110041567D01*
X169364338Y-110034806D01*
X169333290Y-109977451D01*
X169414413Y-109894734D01*
X169495537Y-109812018D01*
X169483025Y-109782073D01*
X169470514Y-109752129D01*
X169241722Y-109752129D01*
X169193400Y-109608047D01*
X169286443Y-109540051D01*
X169323322Y-109512847D01*
X169348740Y-109493139D01*
X169364619Y-109478965D01*
X169372879Y-109468361D01*
X169375441Y-109459365D01*
X169374287Y-109450269D01*
X169369198Y-109431455D01*
X169362552Y-109418053D01*
X169351528Y-109408602D01*
X169333303Y-109401641D01*
X169305056Y-109395706D01*
X169263963Y-109389336D01*
X169253807Y-109387860D01*
X169214329Y-109381843D01*
X169180635Y-109376150D01*
X169156115Y-109371393D01*
X169144156Y-109368183D01*
X169143827Y-109368001D01*
X169138823Y-109357995D01*
X169132773Y-109336526D01*
X169126649Y-109308392D01*
X169121424Y-109278393D01*
X169118071Y-109251326D01*
X169117355Y-109237376D01*
X169119913Y-109228693D01*
X169128998Y-109219050D01*
X169146725Y-109207004D01*
X169175213Y-109191113D01*
X169215678Y-109170387D01*
X169314000Y-109121099D01*
X169314000Y-109049053D01*
X169203387Y-109014110D01*
X169092775Y-108979167D01*
X169092775Y-108899014D01*
X169470694Y-108899014D01*
X169475111Y-109017235D01*
X169485837Y-109129419D01*
X169515851Y-109315218D01*
X169560627Y-109495074D01*
X169619558Y-109668327D01*
X169692040Y-109834317D01*
X169777470Y-109992386D01*
X169875241Y-110141874D01*
X169984750Y-110282122D01*
X170105392Y-110412470D01*
X170236562Y-110532259D01*
X170377656Y-110640831D01*
X170528070Y-110737525D01*
X170687198Y-110821682D01*
X170854436Y-110892643D01*
X171029180Y-110949748D01*
X171190451Y-110988370D01*
X171373952Y-111017065D01*
X171556960Y-111029883D01*
X171738393Y-111026789D01*
X171903661Y-111009766D01*
X172091840Y-110974567D01*
X172272635Y-110924809D01*
X172445929Y-110860528D01*
X172609966Y-110782633D01*
X172771690Y-110687824D01*
X172922794Y-110580781D01*
X173062839Y-110462109D01*
X173191389Y-110332414D01*
X173308005Y-110192301D01*
X173412251Y-110042375D01*
X173503688Y-109883241D01*
X173581880Y-109715505D01*
X173646388Y-109539772D01*
X173696775Y-109356646D01*
X173719186Y-109248226D01*
X173725888Y-109210543D01*
X173731107Y-109177851D01*
X173735025Y-109147256D01*
X173737828Y-109115863D01*
X173739698Y-109080780D01*
X173740820Y-109039112D01*
X173741376Y-108987966D01*
X173741552Y-108924447D01*
X173741556Y-108895903D01*
X173741443Y-108826570D01*
X173741013Y-108770676D01*
X173740080Y-108725277D01*
X173738458Y-108687424D01*
X173735962Y-108654173D01*
X173732405Y-108622575D01*
X173727601Y-108589686D01*
X173721365Y-108552558D01*
X173719069Y-108539484D01*
X173678505Y-108355211D01*
X173623356Y-108177358D01*
X173554190Y-108006621D01*
X173471578Y-107843697D01*
X173376088Y-107689281D01*
X173268289Y-107544072D01*
X173148750Y-107408764D01*
X173018040Y-107284054D01*
X172876729Y-107170640D01*
X172725385Y-107069216D01*
X172564578Y-106980480D01*
X172394876Y-106905128D01*
X172378387Y-106898720D01*
X172202843Y-106839821D01*
X172025354Y-106796753D01*
X171846822Y-106769224D01*
X171668149Y-106756942D01*
X171490237Y-106759615D01*
X171313987Y-106776953D01*
X171140301Y-106808662D01*
X170970082Y-106854452D01*
X170804230Y-106914030D01*
X170643648Y-106987104D01*
X170489237Y-107073383D01*
X170341899Y-107172576D01*
X170202536Y-107284389D01*
X170072051Y-107408532D01*
X169951343Y-107544713D01*
X169841316Y-107692640D01*
X169818457Y-107727001D01*
X169723834Y-107887096D01*
X169644038Y-108054156D01*
X169579088Y-108228126D01*
X169529005Y-108408952D01*
X169493807Y-108596579D01*
X169485833Y-108656859D01*
X169474268Y-108781313D01*
X169470694Y-108899014D01*
X169092775Y-108899014D01*
X169092775Y-108829675D01*
X169203387Y-108793484D01*
X169314000Y-108757292D01*
X169314000Y-108687094D01*
X169214778Y-108637355D01*
X169115556Y-108587617D01*
X169121167Y-108535225D01*
X169125117Y-108497649D01*
X169129309Y-108471035D01*
X169136340Y-108453024D01*
X169148807Y-108441259D01*
X169169309Y-108433383D01*
X169200443Y-108427039D01*
X169244807Y-108419869D01*
X169249032Y-108419185D01*
X169289288Y-108412623D01*
X169323187Y-108407061D01*
X169347734Y-108402991D01*
X169359934Y-108400908D01*
X169360728Y-108400749D01*
X169365665Y-108392090D01*
X169370114Y-108373897D01*
X169372999Y-108353014D01*
X169373244Y-108336284D01*
X169371680Y-108331092D01*
X169362491Y-108323205D01*
X169342727Y-108307978D01*
X169315200Y-108287528D01*
X169282720Y-108263971D01*
X169279164Y-108261423D01*
X169194025Y-108200491D01*
X169215887Y-108130326D01*
X169237748Y-108060161D01*
X169354226Y-108057885D01*
X169470705Y-108055608D01*
X169483121Y-108025892D01*
X169495537Y-107996175D01*
X169413432Y-107913459D01*
X169331326Y-107830742D01*
X169365679Y-107767368D01*
X169385070Y-107733822D01*
X169399983Y-107713599D01*
X169411954Y-107704782D01*
X169416420Y-107704017D01*
X169430670Y-107705297D01*
X169457243Y-107708763D01*
X169492300Y-107713882D01*
X169530801Y-107719923D01*
X169568554Y-107725900D01*
X169599705Y-107730563D01*
X169621111Y-107733460D01*
X169629626Y-107734139D01*
X169629655Y-107734113D01*
X169634044Y-107726762D01*
X169643935Y-107710505D01*
X169647610Y-107704495D01*
X169664706Y-107676571D01*
X169599966Y-107587925D01*
X169576065Y-107554608D01*
X169556146Y-107525715D01*
X169542012Y-107503949D01*
X169535468Y-107492011D01*
X169535226Y-107490960D01*
X169540098Y-107478332D01*
X169552713Y-107458111D01*
X169570069Y-107434134D01*
X169589165Y-107410238D01*
X169606999Y-107390258D01*
X169620568Y-107378031D01*
X169625177Y-107376000D01*
X169637704Y-107378519D01*
X169662249Y-107385392D01*
X169695350Y-107395589D01*
X169733546Y-107408084D01*
X169736352Y-107409028D01*
X169834291Y-107442057D01*
X169879219Y-107392281D01*
X169777189Y-107187447D01*
X169830529Y-107134107D01*
X169883868Y-107080767D01*
X169979925Y-107130616D01*
X170023038Y-107152423D01*
X170054681Y-107166504D01*
X170077580Y-107173319D01*
X170094462Y-107173327D01*
X170108053Y-107166987D01*
X170121080Y-107154757D01*
X170121379Y-107154426D01*
X170127229Y-107147036D01*
X170130178Y-107138725D01*
X170129804Y-107126552D01*
X170125686Y-107107575D01*
X170117402Y-107078852D01*
X170104668Y-107037877D01*
X170092543Y-106999330D01*
X170082080Y-106966183D01*
X170074318Y-106941721D01*
X170070296Y-106929224D01*
X170070115Y-106928689D01*
X170075100Y-106921233D01*
X170089861Y-106907072D01*
X170110856Y-106889050D01*
X170134542Y-106870010D01*
X170157380Y-106852798D01*
X170175827Y-106840257D01*
X170186341Y-106835231D01*
X170186501Y-106835226D01*
X170194090Y-106839777D01*
X170212374Y-106852257D01*
X170238832Y-106870906D01*
X170270943Y-106893961D01*
X170280597Y-106900961D01*
X170371058Y-106966697D01*
X170396015Y-106953791D01*
X170414376Y-106941741D01*
X170425124Y-106929978D01*
X170425425Y-106929281D01*
X170425873Y-106916914D01*
X170423780Y-106891676D01*
X170419578Y-106856810D01*
X170413694Y-106815562D01*
X170406560Y-106771176D01*
X170398633Y-106727038D01*
X170397654Y-106716078D01*
X170401309Y-106707092D01*
X170412213Y-106697761D01*
X170432980Y-106685763D01*
X170461732Y-106671035D01*
X170529051Y-106637188D01*
X170609344Y-106717179D01*
X170689637Y-106797171D01*
X170722851Y-106786209D01*
X170756065Y-106775248D01*
X170756065Y-106541249D01*
X170826555Y-106519749D01*
X170857836Y-106510530D01*
X170882424Y-106503893D01*
X170896714Y-106500782D01*
X170898856Y-106500817D01*
X170904057Y-106508040D01*
X170917027Y-106526017D01*
X170935941Y-106552219D01*
X170958973Y-106584117D01*
X170964667Y-106592001D01*
X171028666Y-106680614D01*
X171062381Y-106675049D01*
X171083440Y-106671370D01*
X171095854Y-106668814D01*
X171097144Y-106668370D01*
X171098741Y-106660344D01*
X171102391Y-106639109D01*
X171107597Y-106607641D01*
X171113861Y-106568920D01*
X171115740Y-106557168D01*
X171122419Y-106516648D01*
X171128503Y-106482274D01*
X171133415Y-106457121D01*
X171136580Y-106444268D01*
X171137056Y-106443310D01*
X171146082Y-106440393D01*
X171166504Y-106435730D01*
X171193551Y-106430240D01*
X171222450Y-106424841D01*
X171248429Y-106420453D01*
X171266715Y-106417994D01*
X171269592Y-106417786D01*
X171276686Y-106424491D01*
X171289587Y-106443205D01*
X171306668Y-106471331D01*
X171326301Y-106506273D01*
X171333549Y-106519774D01*
X171356057Y-106561421D01*
X171372904Y-106590367D01*
X171385549Y-106608671D01*
X171395455Y-106618391D01*
X171404083Y-106621583D01*
X171405861Y-106621617D01*
X171424270Y-106619893D01*
X171438546Y-106614471D01*
X171450433Y-106602959D01*
X171461680Y-106582963D01*
X171474031Y-106552089D01*
X171489234Y-106507943D01*
X171489608Y-106506821D01*
X171523536Y-106405064D01*
X171676465Y-106405064D01*
X171710392Y-106506821D01*
D11*
X159737258Y-109777500D02*
X159262742Y-109777500D01*
X159737258Y-110822500D02*
X159262742Y-110822500D01*
X150590000Y-110440000D02*
X150590000Y-107560000D01*
X153710000Y-106390000D02*
X153710000Y-107440000D01*
X152560000Y-106390000D02*
X153710000Y-106390000D01*
X153710000Y-110560000D02*
X154700000Y-110560000D01*
X153710000Y-111610000D02*
X153710000Y-110560000D01*
X152560000Y-111610000D02*
X153710000Y-111610000D01*
X159640580Y-107190000D02*
X159359420Y-107190000D01*
X159640580Y-108210000D02*
X159359420Y-108210000D01*
D12*
X159333333Y-112182380D02*
X159000000Y-111706190D01*
X158761904Y-112182380D02*
X158761904Y-111182380D01*
X159142857Y-111182380D01*
X159238095Y-111230000D01*
X159285714Y-111277619D01*
X159333333Y-111372857D01*
X159333333Y-111515714D01*
X159285714Y-111610952D01*
X159238095Y-111658571D01*
X159142857Y-111706190D01*
X158761904Y-111706190D01*
X159714285Y-111277619D02*
X159761904Y-111230000D01*
X159857142Y-111182380D01*
X160095238Y-111182380D01*
X160190476Y-111230000D01*
X160238095Y-111277619D01*
X160285714Y-111372857D01*
X160285714Y-111468095D01*
X160238095Y-111610952D01*
X159666666Y-112182380D01*
X160285714Y-112182380D01*
X148752380Y-109333333D02*
X149466666Y-109333333D01*
X149609523Y-109380952D01*
X149704761Y-109476190D01*
X149752380Y-109619047D01*
X149752380Y-109714285D01*
X149752380Y-108333333D02*
X149752380Y-108904761D01*
X149752380Y-108619047D02*
X148752380Y-108619047D01*
X148895238Y-108714285D01*
X148990476Y-108809523D01*
X149038095Y-108904761D01*
X159333333Y-109487142D02*
X159285714Y-109534761D01*
X159142857Y-109582380D01*
X159047619Y-109582380D01*
X158904761Y-109534761D01*
X158809523Y-109439523D01*
X158761904Y-109344285D01*
X158714285Y-109153809D01*
X158714285Y-109010952D01*
X158761904Y-108820476D01*
X158809523Y-108725238D01*
X158904761Y-108630000D01*
X159047619Y-108582380D01*
X159142857Y-108582380D01*
X159285714Y-108630000D01*
X159333333Y-108677619D01*
X160285714Y-109582380D02*
X159714285Y-109582380D01*
X160000000Y-109582380D02*
X160000000Y-108582380D01*
X159904761Y-108725238D01*
X159809523Y-108820476D01*
X159714285Y-108868095D01*
%LPC*%
D13*
X156600000Y-107730000D03*
X156600000Y-110270000D03*
X162400000Y-110270000D03*
X162400000Y-107730000D03*
G36*
G01*
X159125000Y-110000000D02*
X159125000Y-110600000D01*
G75*
G02*
X158900000Y-110825000I-225000J0D01*
G01*
X158450000Y-110825000D01*
G75*
G02*
X158225000Y-110600000I0J225000D01*
G01*
X158225000Y-110000000D01*
G75*
G02*
X158450000Y-109775000I225000J0D01*
G01*
X158900000Y-109775000D01*
G75*
G02*
X159125000Y-110000000I0J-225000D01*
G01*
G37*
G36*
G01*
X160775000Y-110000000D02*
X160775000Y-110600000D01*
G75*
G02*
X160550000Y-110825000I-225000J0D01*
G01*
X160100000Y-110825000D01*
G75*
G02*
X159875000Y-110600000I0J225000D01*
G01*
X159875000Y-110000000D01*
G75*
G02*
X160100000Y-109775000I225000J0D01*
G01*
X160550000Y-109775000D01*
G75*
G02*
X160775000Y-110000000I0J-225000D01*
G01*
G37*
G36*
G01*
X152079168Y-107350000D02*
X150720832Y-107350000D01*
G75*
G02*
X150450000Y-107079168I0J270832D01*
G01*
X150450000Y-106320832D01*
G75*
G02*
X150720832Y-106050000I270832J0D01*
G01*
X152079168Y-106050000D01*
G75*
G02*
X152350000Y-106320832I0J-270832D01*
G01*
X152350000Y-107079168D01*
G75*
G02*
X152079168Y-107350000I-270832J0D01*
G01*
G37*
G36*
G01*
X152079168Y-111950000D02*
X150720832Y-111950000D01*
G75*
G02*
X150450000Y-111679168I0J270832D01*
G01*
X150450000Y-110920832D01*
G75*
G02*
X150720832Y-110650000I270832J0D01*
G01*
X152079168Y-110650000D01*
G75*
G02*
X152350000Y-110920832I0J-270832D01*
G01*
X152350000Y-111679168D01*
G75*
G02*
X152079168Y-111950000I-270832J0D01*
G01*
G37*
G36*
G01*
X154575000Y-108350000D02*
X153275000Y-108350000D01*
G75*
G02*
X153100000Y-108175000I0J175000D01*
G01*
X153100000Y-107825000D01*
G75*
G02*
X153275000Y-107650000I175000J0D01*
G01*
X154575000Y-107650000D01*
G75*
G02*
X154750000Y-107825000I0J-175000D01*
G01*
X154750000Y-108175000D01*
G75*
G02*
X154575000Y-108350000I-175000J0D01*
G01*
G37*
G36*
G01*
X154575000Y-109350000D02*
X153275000Y-109350000D01*
G75*
G02*
X153100000Y-109175000I0J175000D01*
G01*
X153100000Y-108825000D01*
G75*
G02*
X153275000Y-108650000I175000J0D01*
G01*
X154575000Y-108650000D01*
G75*
G02*
X154750000Y-108825000I0J-175000D01*
G01*
X154750000Y-109175000D01*
G75*
G02*
X154575000Y-109350000I-175000J0D01*
G01*
G37*
G36*
G01*
X154575000Y-110350000D02*
X153275000Y-110350000D01*
G75*
G02*
X153100000Y-110175000I0J175000D01*
G01*
X153100000Y-109825000D01*
G75*
G02*
X153275000Y-109650000I175000J0D01*
G01*
X154575000Y-109650000D01*
G75*
G02*
X154750000Y-109825000I0J-175000D01*
G01*
X154750000Y-110175000D01*
G75*
G02*
X154575000Y-110350000I-175000J0D01*
G01*
G37*
G36*
G01*
X159225000Y-107425000D02*
X159225000Y-107975000D01*
G75*
G02*
X158975000Y-108225000I-250000J0D01*
G01*
X158475000Y-108225000D01*
G75*
G02*
X158225000Y-107975000I0J250000D01*
G01*
X158225000Y-107425000D01*
G75*
G02*
X158475000Y-107175000I250000J0D01*
G01*
X158975000Y-107175000D01*
G75*
G02*
X159225000Y-107425000I0J-250000D01*
G01*
G37*
G36*
G01*
X160775000Y-107425000D02*
X160775000Y-107975000D01*
G75*
G02*
X160525000Y-108225000I-250000J0D01*
G01*
X160025000Y-108225000D01*
G75*
G02*
X159775000Y-107975000I0J250000D01*
G01*
X159775000Y-107425000D01*
G75*
G02*
X160025000Y-107175000I250000J0D01*
G01*
X160525000Y-107175000D01*
G75*
G02*
X160775000Y-107425000I0J-250000D01*
G01*
G37*
M02*
