G04 #@! TF.GenerationSoftware,KiCad,Pcbnew,(5.1.6)-1*
G04 #@! TF.CreationDate,2021-05-12T18:09:09+09:00*
G04 #@! TF.ProjectId,SideSensor,53696465-5365-46e7-936f-722e6b696361,rev?*
G04 #@! TF.SameCoordinates,Original*
G04 #@! TF.FileFunction,Soldermask,Top*
G04 #@! TF.FilePolarity,Negative*
%FSLAX46Y46*%
G04 Gerber Fmt 4.6, Leading zero omitted, Abs format (unit mm)*
G04 Created by KiCad (PCBNEW (5.1.6)-1) date 2021-05-12 18:09:09*
%MOMM*%
%LPD*%
G01*
G04 APERTURE LIST*
%ADD10C,1.624000*%
G04 APERTURE END LIST*
D10*
X156600000Y-107730000D03*
X156600000Y-110270000D03*
X162400000Y-110270000D03*
X162400000Y-107730000D03*
G36*
G01*
X159125000Y-110000000D02*
X159125000Y-110600000D01*
G75*
G02*
X158900000Y-110825000I-225000J0D01*
G01*
X158450000Y-110825000D01*
G75*
G02*
X158225000Y-110600000I0J225000D01*
G01*
X158225000Y-110000000D01*
G75*
G02*
X158450000Y-109775000I225000J0D01*
G01*
X158900000Y-109775000D01*
G75*
G02*
X159125000Y-110000000I0J-225000D01*
G01*
G37*
G36*
G01*
X160775000Y-110000000D02*
X160775000Y-110600000D01*
G75*
G02*
X160550000Y-110825000I-225000J0D01*
G01*
X160100000Y-110825000D01*
G75*
G02*
X159875000Y-110600000I0J225000D01*
G01*
X159875000Y-110000000D01*
G75*
G02*
X160100000Y-109775000I225000J0D01*
G01*
X160550000Y-109775000D01*
G75*
G02*
X160775000Y-110000000I0J-225000D01*
G01*
G37*
G36*
G01*
X152079168Y-107350000D02*
X150720832Y-107350000D01*
G75*
G02*
X150450000Y-107079168I0J270832D01*
G01*
X150450000Y-106320832D01*
G75*
G02*
X150720832Y-106050000I270832J0D01*
G01*
X152079168Y-106050000D01*
G75*
G02*
X152350000Y-106320832I0J-270832D01*
G01*
X152350000Y-107079168D01*
G75*
G02*
X152079168Y-107350000I-270832J0D01*
G01*
G37*
G36*
G01*
X152079168Y-111950000D02*
X150720832Y-111950000D01*
G75*
G02*
X150450000Y-111679168I0J270832D01*
G01*
X150450000Y-110920832D01*
G75*
G02*
X150720832Y-110650000I270832J0D01*
G01*
X152079168Y-110650000D01*
G75*
G02*
X152350000Y-110920832I0J-270832D01*
G01*
X152350000Y-111679168D01*
G75*
G02*
X152079168Y-111950000I-270832J0D01*
G01*
G37*
G36*
G01*
X154575000Y-108350000D02*
X153275000Y-108350000D01*
G75*
G02*
X153100000Y-108175000I0J175000D01*
G01*
X153100000Y-107825000D01*
G75*
G02*
X153275000Y-107650000I175000J0D01*
G01*
X154575000Y-107650000D01*
G75*
G02*
X154750000Y-107825000I0J-175000D01*
G01*
X154750000Y-108175000D01*
G75*
G02*
X154575000Y-108350000I-175000J0D01*
G01*
G37*
G36*
G01*
X154575000Y-109350000D02*
X153275000Y-109350000D01*
G75*
G02*
X153100000Y-109175000I0J175000D01*
G01*
X153100000Y-108825000D01*
G75*
G02*
X153275000Y-108650000I175000J0D01*
G01*
X154575000Y-108650000D01*
G75*
G02*
X154750000Y-108825000I0J-175000D01*
G01*
X154750000Y-109175000D01*
G75*
G02*
X154575000Y-109350000I-175000J0D01*
G01*
G37*
G36*
G01*
X154575000Y-110350000D02*
X153275000Y-110350000D01*
G75*
G02*
X153100000Y-110175000I0J175000D01*
G01*
X153100000Y-109825000D01*
G75*
G02*
X153275000Y-109650000I175000J0D01*
G01*
X154575000Y-109650000D01*
G75*
G02*
X154750000Y-109825000I0J-175000D01*
G01*
X154750000Y-110175000D01*
G75*
G02*
X154575000Y-110350000I-175000J0D01*
G01*
G37*
G36*
G01*
X159225000Y-107425000D02*
X159225000Y-107975000D01*
G75*
G02*
X158975000Y-108225000I-250000J0D01*
G01*
X158475000Y-108225000D01*
G75*
G02*
X158225000Y-107975000I0J250000D01*
G01*
X158225000Y-107425000D01*
G75*
G02*
X158475000Y-107175000I250000J0D01*
G01*
X158975000Y-107175000D01*
G75*
G02*
X159225000Y-107425000I0J-250000D01*
G01*
G37*
G36*
G01*
X160775000Y-107425000D02*
X160775000Y-107975000D01*
G75*
G02*
X160525000Y-108225000I-250000J0D01*
G01*
X160025000Y-108225000D01*
G75*
G02*
X159775000Y-107975000I0J250000D01*
G01*
X159775000Y-107425000D01*
G75*
G02*
X160025000Y-107175000I250000J0D01*
G01*
X160525000Y-107175000D01*
G75*
G02*
X160775000Y-107425000I0J-250000D01*
G01*
G37*
M02*
